<?xml version="1.0" encoding="utf-8"?>
<!-- Generator: Adobe Illustrator 22.0.1, SVG Export Plug-In . SVG Version: 6.00 Build 0)  -->
<svg version="1.1" xmlns="http://www.w3.org/2000/svg" xmlns:xlink="http://www.w3.org/1999/xlink" x="0px" y="0px"
	 viewBox="0 0 478.1 291.5" enable-background="new 0 0 478.1 291.5" xml:space="preserve">
<g id="Layer_1">
	<g>
		<g>
			<path fill="#8C8C8C" d="M43.3,2.5L156,2.6l116.1,0.1l162.7,0.1c22.4,0,40.7,18.3,40.7,40.7l-0.1,204.9
				c0,22.4-18.3,40.7-40.7,40.7l-391.6-0.2c-22.4,0-40.7-18.3-40.7-40.7L2.6,43.2C2.6,20.7,20.9,2.5,43.3,2.5L43.3,2.5 M43.3,0.5
				C19.8,0.5,0.6,19.7,0.6,43.2L0.5,248.1c0,23.5,19.2,42.7,42.7,42.7l391.6,0.2c0,0,0,0,0,0c23.5,0,42.7-19.2,42.7-42.7l0.1-204.9
				c0-23.5-19.2-42.7-42.7-42.7L272.2,0.6L156,0.6L43.3,0.5C43.3,0.5,43.3,0.5,43.3,0.5L43.3,0.5z"/>
		</g>
		<path fill="#124980" d="M72.8,230.4l-34.4,0c-1.3,0-2.5,1.1-2.5,2.5c0,1.4,1.1,2.5,2.5,2.5l34.4,0c1.4,0,2.5-1.1,2.5-2.5
			C75.3,231.5,74.2,230.4,72.8,230.4L72.8,230.4z M72.8,230.4"/>
		<rect x="36" y="35.6" fill="#74BBE7" width="132" height="152.5"/>
		<g>
			<rect x="236.6" y="204.6" fill="#74BBE7" width="3.3" height="70.8"/>
			<rect x="242.7" y="204.6" fill="#74BBE7" width="6" height="70.8"/>
			<rect x="222.2" y="204.6" fill="#74BBE7" width="3.3" height="70.8"/>
			<rect x="228.4" y="204.6" fill="#74BBE7" width="6" height="70.8"/>
			<rect x="251" y="204.6" fill="#74BBE7" width="4.5" height="70.8"/>
			<rect x="259.5" y="204.6" fill="#74BBE7" width="2.5" height="70.8"/>
			<rect x="442.5" y="204.6" fill="#74BBE7" width="6" height="70.8"/>
			<rect x="451" y="204.6" fill="#74BBE7" width="6" height="70.8"/>
			<rect x="435.8" y="204.6" fill="#74BBE7" width="4.3" height="70.8"/>
			<rect x="429.2" y="204.6" fill="#74BBE7" width="2.5" height="70.8"/>
			<rect x="421" y="204.6" fill="#74BBE7" width="3.8" height="70.8"/>
			<g>
				<rect x="271.9" y="211.7" fill="#74BBE7" width="7.1" height="7.1"/>
				<path fill="#74BBE7" d="M314.3,229.4v3.5 M314.3,204.6v3.5h-3.5v3.5h3.5v14.2"/>
				<rect x="271.9" y="261.2" fill="#74BBE7" width="7.1" height="7.1"/>
				<rect x="296.7" y="271.8" fill="#74BBE7" width="3.5" height="3.5"/>
				<rect x="300.2" y="257.7" fill="#74BBE7" width="3.5" height="3.5"/>
				<rect x="300.2" y="264.7" fill="#74BBE7" width="3.5" height="3.5"/>
				<rect x="264.8" y="247" fill="#74BBE7" width="3.5" height="3.5"/>
				<rect x="264.8" y="229.4" fill="#74BBE7" width="3.5" height="3.5"/>
				<polygon fill="#74BBE7" points="303.7,208.1 303.7,211.7 296.7,211.7 296.7,215.2 307.3,215.2 307.3,211.7 307.3,208.1 				"/>
				<path fill="#74BBE7" d="M314.3,240v-3.5h-3.5v3.5h-7.1v3.5h10.6v3.5h-10.6v-3.5h-3.5v3.5h-3.5v-3.5h-3.5v3.5h-3.5v3.5h7.1v3.5
					h3.5v-3.5h7.1v3.5h-3.5v3.5h3.5v7.1h3.5v3.5h3.5v-3.5 M310.8,261.2v-10.6"/>
				<polygon fill="#74BBE7" points="310.8,225.8 307.3,225.8 307.3,229.4 303.7,229.4 303.7,232.9 303.7,236.4 307.3,236.4 
					307.3,232.9 310.8,232.9 310.8,229.4 314.3,229.4 314.3,225.8 				"/>
				<rect x="303.7" y="271.8" fill="#74BBE7" width="7.1" height="3.5"/>
				<rect x="293.1" y="208.1" fill="#74BBE7" width="3.5" height="3.5"/>
				<rect x="279" y="247" fill="#74BBE7" width="3.5" height="3.5"/>
				<path fill="#74BBE7" d="M286,271.8v-14.2h3.5v-7.1H286v3.5h-10.6v-3.5h-7.1v3.5h-3.5v21.2h28.3v-3.5L286,271.8z M282.5,271.8
					h-14.2v-14.2h14.2L282.5,271.8z"/>
				<rect x="286" y="225.8" fill="#74BBE7" width="3.5" height="3.5"/>
				<path fill="#74BBE7" d="M289.6,204.6h-24.8v21.3h3.5v3.5h3.5v-3.5h3.5v3.5h3.5v-3.5h7.1v-7.1h3.5v-3.5H286v-7.1h7.1v-3.5H289.6z
					 M282.5,222.3h-14.2v-14.2h14.2L282.5,222.3z"/>
				<rect x="307.3" y="215.2" fill="#74BBE7" width="3.5" height="3.5"/>
				<rect x="300.2" y="204.6" fill="#74BBE7" width="3.5" height="3.5"/>
				<path fill="#74BBE7" d="M307.3,225.9v-3.5h-3.5v-3.6h-3.5v3.5h-7.1v-3.5h-3.5v7.1h3.5v7.1h-10.6v-3.5H279v3.5h-10.6v3.5h7.1v3.5
					h-10.6v3.5h10.6v3.5h3.5v-3.5h3.5v3.5h3.5v-3.5h7.1V240h-3.5v-3.5h7.1v3.5h7.1v-3.5h-3.5v-3.5h-3.5v-7.1H307.3z M286,240H279
					v-3.5h7.1V240z"/>
				<polygon fill="#74BBE7" points="296.7,261.2 296.7,257.7 296.7,254.1 293.1,254.1 293.1,257.7 289.6,257.7 289.6,261.2 
					293.1,261.2 293.1,264.7 289.6,264.7 289.6,268.3 296.7,268.3 296.7,264.7 300.2,264.7 300.2,261.2 				"/>
			</g>
			<g>
				<rect x="352.1" y="261.2" fill="#74BBE7" width="7.1" height="7.1"/>
				<path fill="#74BBE7" d="M316.7,250.6v-3.5 M316.7,275.4v-3.5h3.5v-3.5h-3.5v-14.2"/>
				<rect x="352.1" y="211.7" fill="#74BBE7" width="7.1" height="7.1"/>
				<rect x="330.9" y="204.6" fill="#74BBE7" width="3.5" height="3.5"/>
				<rect x="327.3" y="218.7" fill="#74BBE7" width="3.5" height="3.5"/>
				<rect x="327.3" y="211.7" fill="#74BBE7" width="3.5" height="3.5"/>
				<rect x="362.7" y="229.4" fill="#74BBE7" width="3.5" height="3.5"/>
				<rect x="362.7" y="247.1" fill="#74BBE7" width="3.5" height="3.5"/>
				<polygon fill="#74BBE7" points="327.3,271.8 327.3,268.3 334.4,268.3 334.4,264.7 323.8,264.7 323.8,268.3 323.8,271.8 				"/>
				<path fill="#74BBE7" d="M316.7,240v3.5h3.5V240h7.1v-3.5h-10.6v-3.5h10.6v3.5h3.5v-3.5h3.5v3.5h3.5v-3.5h3.5v-3.5h-7.1v-3.5
					h-3.5v3.5h-7.1v-3.5h3.5v-3.5h-3.5v-7.1h-3.5v-3.5h-3.5v3.5 M320.3,218.8v10.6"/>
				<polygon fill="#74BBE7" points="320.3,254.1 323.8,254.1 323.8,250.6 327.3,250.6 327.3,247.1 327.3,243.5 323.8,243.5 
					323.8,247.1 320.3,247.1 320.3,250.6 316.7,250.6 316.7,254.1 				"/>
				<rect x="320.3" y="204.6" fill="#74BBE7" width="7.1" height="3.5"/>
				<rect x="334.4" y="268.3" fill="#74BBE7" width="3.5" height="3.5"/>
				<rect x="348.6" y="229.4" fill="#74BBE7" width="3.5" height="3.5"/>
				<path fill="#74BBE7" d="M345,208.1v14.2h-3.5v7.1h3.5v-3.5h10.6v3.5h7.1v-3.5h3.5v-21.2H338v3.5H345z M348.6,208.1h14.2v14.2
					h-14.2L348.6,208.1z"/>
				<rect x="341.5" y="250.6" fill="#74BBE7" width="3.5" height="3.5"/>
				<path fill="#74BBE7" d="M341.5,275.4h24.8v-21.3h-3.5v-3.5h-3.5v3.5h-3.5v-3.5h-3.5v3.5H345v7.1h-3.5v3.5h3.5v7.1H338v3.5H341.5
					z M348.6,257.7h14.2v14.2h-14.2L348.6,257.7z"/>
				<rect x="320.3" y="261.2" fill="#74BBE7" width="3.5" height="3.5"/>
				<rect x="327.3" y="271.8" fill="#74BBE7" width="3.5" height="3.5"/>
				<path fill="#74BBE7" d="M323.8,254.1v3.5h3.5v3.6h3.5v-3.5h7.1v3.5h3.5v-7.1H338V247h10.6v3.5h3.5V247h10.6v-3.5h-7.1v-3.5h10.6
					v-3.5h-10.6v-3.5h-3.5v3.5h-3.5v-3.5H345v3.5H338v3.5h3.5v3.5h-7.1v-3.5h-7.1v3.5h3.5v3.5h3.5v7.1H323.8z M345,239.9h7.1v3.5
					H345V239.9z"/>
				<polygon fill="#74BBE7" points="334.4,218.7 334.4,222.3 334.4,225.8 338,225.8 338,222.3 341.5,222.3 341.5,218.7 338,218.7 
					338,215.2 341.5,215.2 341.5,211.7 334.4,211.7 334.4,215.2 330.9,215.2 330.9,218.7 				"/>
			</g>
			<g>
				<rect x="375.7" y="211.7" fill="#74BBE7" width="7.1" height="7.1"/>
				<path fill="#74BBE7" d="M418.2,229.4v3.5 M418.2,204.6v3.5h-3.5v3.5h3.5v14.2"/>
				<rect x="375.7" y="261.2" fill="#74BBE7" width="7.1" height="7.1"/>
				<rect x="400.5" y="271.8" fill="#74BBE7" width="3.5" height="3.5"/>
				<rect x="404" y="257.7" fill="#74BBE7" width="3.5" height="3.5"/>
				<rect x="404" y="264.7" fill="#74BBE7" width="3.5" height="3.5"/>
				<rect x="368.7" y="247" fill="#74BBE7" width="3.5" height="3.5"/>
				<rect x="368.7" y="229.4" fill="#74BBE7" width="3.5" height="3.5"/>
				<polygon fill="#74BBE7" points="407.6,208.1 407.6,211.7 400.5,211.7 400.5,215.2 411.1,215.2 411.1,211.7 411.1,208.1 				"/>
				<path fill="#74BBE7" d="M418.2,240v-3.5h-3.5v3.5h-7.1v3.5h10.6v3.5h-10.6v-3.5H404v3.5h-3.5v-3.5H397v3.5h-3.5v3.5h7.1v3.5h3.5
					v-3.5h7.1v3.5h-3.5v3.5h3.5v7.1h3.5v3.5h3.5v-3.5 M414.7,261.2v-10.6"/>
				<polygon fill="#74BBE7" points="414.7,225.8 411.1,225.8 411.1,229.4 407.6,229.4 407.6,232.9 407.6,236.4 411.1,236.4 
					411.1,232.9 414.7,232.9 414.7,229.4 418.2,229.4 418.2,225.8 				"/>
				<rect x="407.6" y="271.8" fill="#74BBE7" width="7.1" height="3.5"/>
				<rect x="397" y="208.1" fill="#74BBE7" width="3.5" height="3.5"/>
				<rect x="382.8" y="247" fill="#74BBE7" width="3.5" height="3.5"/>
				<path fill="#74BBE7" d="M389.9,271.8v-14.2h3.5v-7.1h-3.5v3.5h-10.6v-3.5h-7.1v3.5h-3.5v21.2H397v-3.5L389.9,271.8z
					 M386.4,271.8h-14.2v-14.2h14.2L386.4,271.8z"/>
				<rect x="389.9" y="225.8" fill="#74BBE7" width="3.5" height="3.5"/>
				<path fill="#74BBE7" d="M393.4,204.6h-24.8v21.3h3.5v3.5h3.5v-3.5h3.5v3.5h3.5v-3.5h7.1v-7.1h3.5v-3.5h-3.5v-7.1h7.1v-3.5H393.4
					z M386.4,222.3h-14.2v-14.2h14.2L386.4,222.3z"/>
				<rect x="411.1" y="215.2" fill="#74BBE7" width="3.5" height="3.5"/>
				<rect x="404" y="204.6" fill="#74BBE7" width="3.5" height="3.5"/>
				<path fill="#74BBE7" d="M411.1,225.9v-3.5h-3.5v-3.6H404v3.5H397v-3.5h-3.5v7.1h3.5v7.1h-10.6v-3.5h-3.5v3.5h-10.6v3.5h7.1v3.5
					h-10.6v3.5h10.6v3.5h3.5v-3.5h3.5v3.5h3.5v-3.5h7.1V240h-3.5v-3.5h7.1v3.5h7.1v-3.5H404v-3.5h-3.5v-7.1H411.1z M389.9,240h-7.1
					v-3.5h7.1V240z"/>
				<polygon fill="#74BBE7" points="400.5,261.2 400.5,257.7 400.5,254.1 397,254.1 397,257.7 393.4,257.7 393.4,261.2 397,261.2 
					397,264.7 393.4,264.7 393.4,268.3 400.5,268.3 400.5,264.7 404,264.7 404,261.2 				"/>
			</g>
		</g>
		<path fill="#124980" d="M217.2,26.1l-118.9,0c-1.4,0-2.5,1.1-2.5,2.5c0,1.4,1.1,2.5,2.5,2.5l118.9,0c1.4,0,2.5-1.1,2.5-2.5
			C219.7,27.3,218.6,26.1,217.2,26.1L217.2,26.1z M217.2,26.1"/>
		<path fill="#124980" d="M428.7,183.1l-58.9,0c-1.4,0-2.5,1.1-2.5,2.5c0,1.4,1.1,2.5,2.5,2.5l58.9,0c1.4,0,2.5-1.1,2.5-2.5
			C431.2,184.2,430.1,183.1,428.7,183.1L428.7,183.1z M428.7,183.1"/>
		<g>
			<g>
				<path fill="#124980" d="M36.9,31.4v-7.8h2.2c0.6,0,1.1,0.1,1.6,0.2c0.5,0.2,0.9,0.4,1.2,0.7c0.3,0.3,0.6,0.7,0.8,1.2
					c0.2,0.5,0.3,1.1,0.3,1.7c0,0.7-0.1,1.3-0.3,1.8s-0.4,0.9-0.8,1.2c-0.3,0.3-0.7,0.6-1.2,0.7c-0.5,0.2-1,0.2-1.6,0.2H36.9z
					 M38.7,30H39c0.3,0,0.6,0,0.9-0.1c0.3-0.1,0.5-0.2,0.7-0.4c0.2-0.2,0.3-0.5,0.5-0.8c0.1-0.3,0.2-0.7,0.2-1.2
					c0-0.5-0.1-0.9-0.2-1.2c-0.1-0.3-0.3-0.6-0.5-0.8c-0.2-0.2-0.4-0.3-0.7-0.4S39.3,25,39,25h-0.3V30z"/>
				<path fill="#124980" d="M46.9,31.5c-0.4,0-0.7-0.1-1.1-0.2c-0.4-0.1-0.7-0.3-0.9-0.6c-0.3-0.3-0.5-0.6-0.6-1S44,28.9,44,28.4
					s0.1-0.9,0.2-1.3c0.2-0.4,0.4-0.7,0.6-1c0.3-0.3,0.6-0.5,0.9-0.6c0.4-0.1,0.7-0.2,1.1-0.2s0.7,0.1,1.1,0.2
					c0.3,0.1,0.7,0.3,0.9,0.6c0.3,0.3,0.5,0.6,0.6,1c0.2,0.4,0.2,0.8,0.2,1.3s-0.1,0.9-0.2,1.3s-0.4,0.7-0.6,1
					c-0.3,0.3-0.6,0.5-0.9,0.6C47.7,31.5,47.3,31.5,46.9,31.5z M46.9,30.1c0.4,0,0.6-0.2,0.8-0.5c0.2-0.3,0.3-0.7,0.3-1.2
					s-0.1-0.9-0.3-1.2s-0.5-0.5-0.8-0.5c-0.4,0-0.6,0.2-0.8,0.5c-0.2,0.3-0.3,0.7-0.3,1.2s0.1,0.9,0.3,1.2
					C46.3,30,46.6,30.1,46.9,30.1z"/>
				<path fill="#124980" d="M51,31.4v-6h1.4l0.1,0.8h0c0.2-0.2,0.5-0.5,0.8-0.6c0.3-0.2,0.6-0.3,1-0.3c0.4,0,0.8,0.1,1,0.3
					s0.5,0.4,0.6,0.7c0.3-0.3,0.5-0.5,0.8-0.7c0.3-0.2,0.6-0.3,1-0.3c0.6,0,1.1,0.2,1.4,0.6c0.3,0.4,0.5,1,0.5,1.8v3.7h-1.8v-3.5
					c0-0.4-0.1-0.7-0.2-0.9c-0.1-0.2-0.3-0.2-0.6-0.2c-0.3,0-0.6,0.2-1,0.6v4h-1.8v-3.5c0-0.4-0.1-0.7-0.2-0.9
					c-0.1-0.2-0.3-0.2-0.6-0.2c-0.3,0-0.6,0.2-1,0.6v4H51z"/>
				<path fill="#124980" d="M62.2,24.6c-0.3,0-0.5-0.1-0.7-0.3c-0.2-0.2-0.3-0.4-0.3-0.7s0.1-0.5,0.3-0.7c0.2-0.2,0.4-0.3,0.7-0.3
					c0.3,0,0.6,0.1,0.7,0.3s0.3,0.4,0.3,0.7s-0.1,0.5-0.3,0.7S62.5,24.6,62.2,24.6z M61.3,31.4v-6h1.8v6H61.3z"/>
				<path fill="#124980" d="M67.2,31.5c-0.4,0-0.8-0.1-1.2-0.2c-0.4-0.1-0.7-0.3-0.9-0.6c-0.3-0.3-0.5-0.6-0.6-1
					c-0.2-0.4-0.2-0.8-0.2-1.3s0.1-0.9,0.3-1.3c0.2-0.4,0.4-0.7,0.7-1c0.3-0.3,0.6-0.5,1-0.6c0.4-0.1,0.8-0.2,1.2-0.2
					c0.4,0,0.7,0.1,1,0.2c0.3,0.1,0.5,0.3,0.8,0.5l-0.8,1.1c-0.3-0.2-0.5-0.3-0.8-0.3c-0.4,0-0.8,0.2-1,0.5
					c-0.2,0.3-0.4,0.7-0.4,1.2s0.1,0.9,0.4,1.2c0.3,0.3,0.6,0.5,1,0.5c0.2,0,0.4,0,0.6-0.1c0.2-0.1,0.4-0.2,0.5-0.3l0.7,1.2
					c-0.3,0.3-0.6,0.4-1,0.5S67.5,31.5,67.2,31.5z"/>
				<path fill="#124980" d="M71.1,24.6c-0.3,0-0.5-0.1-0.7-0.3c-0.2-0.2-0.3-0.4-0.3-0.7s0.1-0.5,0.3-0.7c0.2-0.2,0.4-0.3,0.7-0.3
					c0.3,0,0.6,0.1,0.7,0.3s0.3,0.4,0.3,0.7s-0.1,0.5-0.3,0.7S71.4,24.6,71.1,24.6z M70.2,31.4v-6H72v6H70.2z"/>
				<path fill="#124980" d="M75.2,31.5c-0.3,0-0.6,0-0.8-0.1S74,31.2,73.9,31s-0.2-0.4-0.3-0.6c-0.1-0.2-0.1-0.5-0.1-0.8V23h1.8v6.6
					c0,0.2,0,0.3,0.1,0.4c0.1,0.1,0.1,0.1,0.2,0.1c0,0,0.1,0,0.1,0c0,0,0.1,0,0.1,0l0.2,1.3c-0.1,0-0.2,0.1-0.4,0.1
					C75.5,31.5,75.4,31.5,75.2,31.5z"/>
				<path fill="#124980" d="M77.9,24.6c-0.3,0-0.5-0.1-0.7-0.3c-0.2-0.2-0.3-0.4-0.3-0.7s0.1-0.5,0.3-0.7c0.2-0.2,0.4-0.3,0.7-0.3
					c0.3,0,0.6,0.1,0.7,0.3s0.3,0.4,0.3,0.7s-0.1,0.5-0.3,0.7S78.2,24.6,77.9,24.6z M77,31.4v-6h1.8v6H77z"/>
				<path fill="#124980" d="M82.8,31.5c-0.4,0-0.7-0.1-1.1-0.2c-0.4-0.1-0.7-0.3-0.9-0.6c-0.3-0.3-0.5-0.6-0.6-1s-0.2-0.8-0.2-1.3
					s0.1-0.9,0.2-1.3c0.2-0.4,0.4-0.7,0.6-1c0.3-0.3,0.6-0.5,0.9-0.6c0.4-0.1,0.7-0.2,1.1-0.2s0.7,0.1,1.1,0.2
					c0.3,0.1,0.7,0.3,0.9,0.6c0.3,0.3,0.5,0.6,0.6,1c0.2,0.4,0.2,0.8,0.2,1.3s-0.1,0.9-0.2,1.3s-0.4,0.7-0.6,1
					c-0.3,0.3-0.6,0.5-0.9,0.6C83.6,31.5,83.2,31.5,82.8,31.5z M82.8,30.1c0.4,0,0.6-0.2,0.8-0.5c0.2-0.3,0.3-0.7,0.3-1.2
					s-0.1-0.9-0.3-1.2s-0.5-0.5-0.8-0.5c-0.4,0-0.6,0.2-0.8,0.5c-0.2,0.3-0.3,0.7-0.3,1.2s0.1,0.9,0.3,1.2
					C82.2,30,82.5,30.1,82.8,30.1z"/>
				<path fill="#124980" d="M88,27.7c-0.3,0-0.6-0.1-0.8-0.3s-0.3-0.5-0.3-0.8c0-0.3,0.1-0.6,0.3-0.8s0.5-0.3,0.8-0.3
					c0.3,0,0.6,0.1,0.8,0.3s0.3,0.5,0.3,0.8c0,0.3-0.1,0.6-0.3,0.8S88.3,27.7,88,27.7z M88,31.5c-0.3,0-0.6-0.1-0.8-0.3
					s-0.3-0.5-0.3-0.8c0-0.3,0.1-0.6,0.3-0.8s0.5-0.3,0.8-0.3c0.3,0,0.6,0.1,0.8,0.3s0.3,0.5,0.3,0.8c0,0.3-0.1,0.6-0.3,0.8
					S88.3,31.5,88,31.5z"/>
			</g>
		</g>
		<g>
			<path fill="#124980" d="M125.2,79.7c0,12.9-10.5,23.4-23.4,23.4c-12.9,0-23.4-10.5-23.4-23.4c0-12.9,10.5-23.4,23.4-23.4
				C114.7,56.3,125.2,66.8,125.2,79.7L125.2,79.7z M125.2,79.7"/>
			<path fill="#124980" d="M101.8,114.1c-29.8,0-54.1,9.1-54,45.8v28c0,0,9.5,0,17.1,0c1.1-16.2,3.4-32.9,8.1-39l0.1,39l57.7,0
				l-0.3-39c4.6,6,7.2,22.6,8.6,38.7c9,0,17.1,0.3,17.1,0.3l-0.4-34.9C155.9,123.1,131.6,114.1,101.8,114.1L101.8,114.1z
				 M101.8,176.9c0,0-16.6-13.5-16.6-20c0-4.9,3.9-8.8,8.8-8.8c3.3,0,6.3,1.9,7.8,4.8c1.4-2.7,4.4-4.8,7.8-4.8
				c4.9,0,8.8,3.9,8.8,8.8C118.4,163.8,101.8,176.9,101.8,176.9L101.8,176.9z M101.8,176.9"/>
		</g>
		<g>
			<path fill="#74BBE7" d="M181.4,265.8c-0.1-0.4,0.9-1,1-1.6c0.5-3.3,9.2-4.6,2.4-9.6c-0.1-0.1,0.1-1.2,0.3-1.3
				c2.5-1.1,2.6-4.3,4.2-5.3c3.4-2.2-0.4-2.7-0.3-3.9c0.2-3.5,5.1,1.1,4.9-2.5c-0.2-4.4,2.8-3.3,5.1-3.7c4.9-1,6.6-4,4.7-7.9
				c-2.6-5-1.9-9.4,2.1-13.4c1.4-1.3,3-2.3,4.4-3.7c0.9-1,0.9-2.2-0.1-3.2c-0.6-0.6-1.4-0.6-1.7,0.2c-0.8,1.9-1.8,3.3-4.1,3.2
				c-4-0.2-0.4-2.9-1.4-4.2c-0.1-0.1-0.2-0.4-0.3-0.4c-4.6-1.4-7.4-6.4-12.6-6.2c-3.2-1-4.4,0.1-6,3c-2.8,5.1-4.5,10.5-5.6,16
				c-0.6,3,0.9,6.6-0.4,9.9c-1.6,4-2.1,8.2-2.5,12.4c-0.7,6.6,1.7,13.4-2.7,19.7c-0.8,1.1,1.5,5.3,5,5.8
				C180.2,269.3,182.6,269.7,181.4,265.8z"/>
			<path fill="#74BBE7" d="M182,271.8c-1.1,6.3,3.1,4.3,6,4C186.1,274.5,184.2,273.3,182,271.8z"/>
		</g>
		<g>
			<path fill="#74BBE7" d="M419.2,152.3c-3,0.5-6.3,0.7-9.6,0.7c-18.2,0-25.4-9-28.9-13.3c-0.3-0.3-0.5-0.7-0.8-1
				c-0.2,0.1-0.4,0.2-0.6,0.2c-2.3,1-6.1,2.6-12.8,2.6c-1.6,0-2.9-1.3-2.9-2.9s1.3-2.9,2.9-2.9c5.6,0,8.6-1.3,10.6-2.1
				c1.5-0.6,2.9-1.2,4.5-0.7c1.4,0.4,2.3,1.6,3.6,3.2c3.1,3.9,9,11.2,24.4,11.2c3.9,0,7.7-0.4,11.1-1.1c0,0,4-1.2,4.8,1.1
				C426.4,149.6,423.9,151.9,419.2,152.3z"/>
			<path fill="#74BBE7" d="M413.3,142.2c-1.6,0-2.9-1.3-2.9-2.9s1.3-2.9,2.9-2.9c10,0,14.4-4.9,17.8-7.2c1.8-1.5,4.9,2.2,2.9,4.3
				C427.8,139.5,421.5,142.2,413.3,142.2z"/>
			<path fill="#74BBE7" d="M424.4,159.6"/>
			<path fill="#74BBE7" d="M400.9,162.5c-12.2,0-23.1-4.7-30.7-13.2c-1.1-1.2-1-3,0.2-4.1c1.2-1.1,3-1,4.1,0.2
				c6.5,7.3,15.9,11.3,26.4,11.3c1.6,0,2.9,1.3,2.9,2.9S402.5,162.5,400.9,162.5L400.9,162.5z"/>
			<path fill="#74BBE7" d="M403.5,140.7c-0.3,0-0.6,0-0.9-0.1c-6.8-2.2-12.2-6.6-15.9-12.9c-1.4-2.5-2.6-5.2-3.4-8.2
				c-4.6,7.9-12.5,11.6-20,11.6c-1.6,0-2.9-1.3-2.9-2.9c0-1.6,1.3-2.9,2.9-2.9c6.8,0,18.2-4.7,18.2-22.2V88.9
				c0-23.5,10-31.8,19.4-31.8c7.8,0,14,5.5,17.1,15c0.5,1.5-0.3,3.1-1.8,3.6c-1.5,0.5-3.1-0.3-3.6-1.8c-1.3-4.1-4.6-11-11.6-11
				c-8.4,0-13.7,10-13.7,26.1v17.2c0,14.9,6.2,25.5,17.1,29c1.5,0.5,2.3,2.1,1.9,3.6C405.8,140,404.7,140.7,403.5,140.7L403.5,140.7
				z"/>
			<path fill="#74BBE7" d="M423.4,42.6c3.1,2.4,6,5.3,8.4,8.7c6.9,9.5,10.6,22.5,10.6,37.6c0,27.7-14.3,42.2-28.5,42.2v0
				c-6.9,0-12.5-2.9-16.4-8.2c-3.2-4.4-4.9-10.4-4.9-16.8V88.9c0-9.5,1.5-20.8,8.4-20.8c1.1,0,2.7,0.3,4.2,2
				c3.9,4.2,4.9,15.3,4.2,24.3c-0.1,1.6-1.5,2.8-3.1,2.6c-1.6-0.1-2.8-1.5-2.6-3.1c0.4-5.1,0.2-10-0.5-14c-0.7-3.7-1.7-5.4-2.2-5.9
				c-0.9,0.9-2.6,5.3-2.6,15c0,10.1,3,16.6,7.7,16.6c2.1,0,8.6,0,8.6-16.6c0-1.8-0.1-3.5-0.2-5.2c-0.1-1.6,1.1-3,2.6-3.1
				c1.6-0.1,3,1.1,3.1,2.6c0.1,1.8,0.2,3.7,0.2,5.6c0,18.5-7.8,22.3-14.4,22.3c-2.6,0-5.3-1-7.6-3.2c0.6,8.9,5.5,17.3,15.5,17.3
				c5.8,0,11.2-3.2,15.4-9c3.4-4.7,7.4-13.3,7.4-27.4c0-13.9-3.3-25.7-9.5-34.3c-2.1-2.9-4.6-5.4-7.2-7.5c-1.3-1-1.5-2.8-0.5-4
				C419.4,43.1,421.7,41.2,423.4,42.6z"/>
			<path fill="#74BBE7" d="M411.3,121c-1.6,0-2.9-1.3-2.9-2.9s1.3-2.9,2.9-2.9c9.8,0,14.3-13.6,14.3-26.3c0-11.3-2.6-21.7-6.9-27.6
				c-4.4-6.1-10.7-9.5-17.7-9.5c-7,0-13.3,3.4-17.7,9.5c-2.2,3-4,7.3-5.2,12.4c-0.4,1.5-1.9,2.5-3.5,2.1c-1.5-0.4-2.5-1.9-2.1-3.5
				c1.4-5.8,3.5-10.8,6.2-14.4C384.1,50.2,392,46,400.9,46s16.8,4.2,22.4,11.8c5.1,7,8,18.3,8,31c0,8.4-1.7,16.2-4.8,21.9
				C423,117.4,417.6,121,411.3,121L411.3,121z"/>
			<path fill="#74BBE7" d="M362.4,120.8c-1.6,0-2.9-1.3-2.9-2.9c0-1.6,1.3-2.9,2.9-2.9c5.1,0,8.1-4.5,8.1-11.9V88.9
				c0-1.9,0.1-3.8,0.2-5.6c0.1-1.6,1.5-2.8,3.1-2.7c1.6,0.1,2.8,1.5,2.7,3.1c-0.1,1.7-0.2,3.5-0.2,5.2v14.2
				C376.3,116.2,368.8,120.8,362.4,120.8z"/>
			<path fill="#74BBE7" d="M373.8,50.8c2.6,1.2,0.9,3.9,0.9,3.9c-6.2,8.5-9.5,20.4-9.5,34.3v16.9c0,1.6-1.3,2.9-2.9,2.9l0,0
				c-1.6,0-2.9-1.3-2.9-2.9V88.9c0-15.1,3.7-28.1,10.6-37.6C370.1,51.3,371.2,49.6,373.8,50.8z"/>
		</g>
		<g>
			<g>
				<path fill="#CDE6F4" d="M65.5,272.6L65.5,272.6c-3,0-5.6-2-6.3-4.9L55,252c-0.1-0.5-0.6-0.9-1.1-1c-0.5-0.1-1,0.1-1.3,0.6
					l-8.1,17.7c-0.4,0.9-1.2,1.5-2.1,1.6c-0.9,0.1-1.9-0.3-2.4-1.1c-0.5-0.8-0.6-1.8-0.2-2.6l8.2-17.9c0-0.1,0.1-0.2,0.1-0.3
					c1.4-2.3,3.9-3.5,6.6-3.1c2.6,0.4,4.8,2.3,5.4,4.8l4.2,15.6c0.1,0.6,0.7,1.1,1.3,1c0.6,0,1.1-0.4,1.3-1l1.5-5.6
					c0.7-2.5,2.8-4.4,5.4-4.8c2.6-0.4,5.1,0.8,6.5,3l4.4,7.1c0.3,0.4,0.7,0.7,1.2,0.6s0.9-0.3,1.2-0.8c0.8-1.7,2.4-2.9,4.2-3.4
					c1.8-0.5,3.8-0.2,5.4,0.9l3.1,2.1c0.2,0.1,0.5,0.2,0.7,0.2c1.4,0,2.6,1.3,2.5,2.7c-0.1,1.4-1.3,2.6-2.7,2.5
					c-1.2,0-2.4-0.4-3.4-1.1l-3.1-2.1c-0.3-0.2-0.7-0.3-1.1-0.2c-0.4,0.1-0.7,0.4-0.9,0.7c-1.1,2.1-3.2,3.5-5.6,3.7
					c-2.4,0.1-4.6-1.1-5.9-3.1l-4.4-7.1c-0.3-0.5-0.8-0.7-1.4-0.6c-0.5,0.1-1,0.5-1.1,1l-1.5,5.6C71.1,270.6,68.5,272.6,65.5,272.6z
					"/>
				<path fill="#CDE6F4" d="M114.8,270.9h-5.2c-1.4,0-2.6-1.2-2.6-2.6c0-1.4,1.2-2.6,2.6-2.6h5.2c1.4,0,2.6,1.2,2.6,2.6
					C117.4,269.7,116.2,270.9,114.8,270.9z"/>
			</g>
		</g>
		<g>
			<path fill="#CDE6F4" d="M196.3,84.7h15.4c16.7,0,27.4,8.3,27.4,27c0,18.7-10.7,27.5-26.7,27.5h-16.1V84.7z M211,129.3
				c9.2,0,15.5-4.5,15.5-17.6s-6.3-17.1-15.5-17.1h-2.3v34.7H211z"/>
			<path fill="#CDE6F4" d="M249.4,84.7H262l14.2,27.1l5.4,12h0.3c-0.6-5.8-1.6-13.4-1.6-19.8V84.7h11.7v54.5h-12.6L265.3,112
				l-5.4-11.9h-0.3c0.6,6,1.6,13.3,1.6,19.7v19.4h-11.7V84.7z"/>
			<path fill="#CDE6F4" d="M305,84.7h12.3v54.5H305V84.7z"/>
		</g>
		<g>
			<path fill="#E81F79" d="M38.4,207.4v-6.3h-2.1v-1.5h6.1v1.5h-2.1v6.3H38.4z"/>
			<path fill="#E81F79" d="M42.9,207.4v-6h1.4l0.1,1h0c0.2-0.4,0.5-0.7,0.8-0.9c0.3-0.2,0.6-0.3,0.9-0.3c0.2,0,0.3,0,0.4,0
				c0.1,0,0.2,0,0.3,0.1l-0.3,1.5c-0.1,0-0.2-0.1-0.3-0.1c-0.1,0-0.2,0-0.3,0c-0.2,0-0.5,0.1-0.7,0.2s-0.4,0.4-0.6,0.9v3.5H42.9z"/>
			<path fill="#E81F79" d="M48.9,207.5c-0.3,0-0.5,0-0.7-0.1c-0.2-0.1-0.4-0.2-0.6-0.4s-0.3-0.4-0.4-0.6c-0.1-0.2-0.1-0.5-0.1-0.7
				c0-0.6,0.3-1.1,0.8-1.5c0.5-0.4,1.4-0.6,2.6-0.7c0-0.3-0.1-0.5-0.2-0.6c-0.1-0.2-0.4-0.2-0.7-0.2c-0.3,0-0.5,0-0.8,0.1
				s-0.5,0.2-0.8,0.4l-0.6-1.2c0.4-0.2,0.8-0.4,1.2-0.6c0.4-0.1,0.9-0.2,1.3-0.2c0.8,0,1.4,0.2,1.8,0.7c0.4,0.4,0.6,1.1,0.6,2v3.4
				h-1.4l-0.1-0.6h0c-0.3,0.2-0.5,0.4-0.8,0.5C49.5,207.5,49.2,207.5,48.9,207.5z M49.5,206.2c0.2,0,0.4,0,0.5-0.1s0.3-0.2,0.5-0.4
				v-1c-0.6,0.1-1.1,0.2-1.3,0.4c-0.2,0.2-0.4,0.4-0.4,0.6c0,0.2,0.1,0.3,0.2,0.4C49.1,206.1,49.3,206.2,49.5,206.2z M50,200.5
				l-0.9-0.9l1.8-2.2l1.2,1.2L50,200.5z"/>
			<path fill="#E81F79" d="M53.7,207.4v-6h1.4l0.1,0.8h0c0.2-0.2,0.5-0.5,0.8-0.6c0.3-0.2,0.6-0.3,1-0.3c0.4,0,0.8,0.1,1,0.3
				s0.5,0.4,0.6,0.7c0.3-0.3,0.5-0.5,0.8-0.7s0.6-0.3,1-0.3c0.6,0,1.1,0.2,1.4,0.6c0.3,0.4,0.5,1,0.5,1.8v3.7h-1.8v-3.5
				c0-0.4-0.1-0.7-0.2-0.9s-0.3-0.2-0.6-0.2c-0.3,0-0.6,0.2-1,0.6v4h-1.8v-3.5c0-0.4-0.1-0.7-0.2-0.9c-0.1-0.2-0.3-0.2-0.6-0.2
				c-0.3,0-0.6,0.2-1,0.6v4H53.7z"/>
			<path fill="#E81F79" d="M64.8,200.6c-0.3,0-0.5-0.1-0.7-0.3c-0.2-0.2-0.3-0.4-0.3-0.7c0-0.3,0.1-0.5,0.3-0.7
				c0.2-0.2,0.4-0.3,0.7-0.3c0.3,0,0.5,0.1,0.7,0.3c0.2,0.2,0.3,0.4,0.3,0.7c0,0.3-0.1,0.5-0.3,0.7
				C65.4,200.5,65.1,200.6,64.8,200.6z M64,207.4v-6h1.8v6H64z"/>
			<path fill="#E81F79" d="M69.6,207.5c-0.4,0-0.7-0.1-0.9-0.2c-0.3-0.1-0.5-0.3-0.6-0.5c-0.2-0.2-0.3-0.4-0.4-0.7s-0.1-0.6-0.1-0.9
				v-2.4h-0.8v-1.3l0.9-0.1l0.2-1.6h1.5v1.6h1.4v1.4h-1.4v2.4c0,0.3,0.1,0.6,0.2,0.7c0.1,0.1,0.3,0.2,0.6,0.2c0.1,0,0.2,0,0.3,0
				c0.1,0,0.2-0.1,0.3-0.1l0.3,1.3c-0.2,0-0.3,0.1-0.6,0.1S69.9,207.5,69.6,207.5z"/>
			<path fill="#E81F79" d="M74.3,207.5c-0.4,0-0.8-0.1-1.2-0.2c-0.4-0.1-0.7-0.3-1-0.6c-0.3-0.3-0.5-0.6-0.6-1
				c-0.2-0.4-0.2-0.8-0.2-1.3c0-0.5,0.1-0.9,0.2-1.3c0.2-0.4,0.4-0.7,0.6-1c0.3-0.3,0.6-0.5,0.9-0.6c0.3-0.1,0.7-0.2,1-0.2
				c0.4,0,0.8,0.1,1.1,0.2c0.3,0.1,0.6,0.3,0.8,0.6c0.2,0.3,0.4,0.6,0.5,0.9c0.1,0.3,0.2,0.7,0.2,1.1c0,0.2,0,0.3,0,0.5
				c0,0.1,0,0.3,0,0.3H73c0.1,0.4,0.3,0.8,0.5,1s0.6,0.3,1,0.3c0.4,0,0.9-0.1,1.3-0.4l0.6,1.1c-0.3,0.2-0.6,0.4-1,0.5
				C75.1,207.5,74.7,207.5,74.3,207.5z M73,203.8h2.1c0-0.3-0.1-0.6-0.2-0.8s-0.4-0.3-0.8-0.3c-0.3,0-0.5,0.1-0.7,0.3
				C73.2,203.1,73.1,203.4,73,203.8z"/>
			<path fill="#E81F79" d="M80.4,207.4v-7.8h1.8l2,3.9l0.8,1.7h0c0-0.4-0.1-0.9-0.1-1.4s-0.1-1-0.1-1.5v-2.8h1.7v7.8h-1.8l-2-3.9
				l-0.8-1.7h0c0,0.4,0.1,0.9,0.1,1.4c0.1,0.5,0.1,1,0.1,1.4v2.8H80.4z"/>
			<path fill="#E81F79" d="M89.7,203c-0.3,0-0.5,0-0.7-0.1c-0.2-0.1-0.4-0.2-0.6-0.4c-0.2-0.2-0.3-0.4-0.4-0.6
				c-0.1-0.3-0.2-0.5-0.2-0.9s0.1-0.6,0.2-0.9c0.1-0.3,0.3-0.5,0.4-0.7c0.2-0.2,0.4-0.3,0.6-0.4c0.2-0.1,0.5-0.1,0.7-0.1
				c0.3,0,0.5,0,0.7,0.1c0.2,0.1,0.4,0.2,0.6,0.4c0.2,0.2,0.3,0.4,0.4,0.7c0.1,0.3,0.2,0.5,0.2,0.9s-0.1,0.6-0.2,0.9
				c-0.1,0.3-0.3,0.5-0.4,0.6c-0.2,0.2-0.4,0.3-0.6,0.4C90.2,203,90,203,89.7,203z M89.7,202c0.2,0,0.4-0.1,0.5-0.3s0.2-0.5,0.2-0.8
				c0-0.3-0.1-0.6-0.2-0.8s-0.3-0.3-0.5-0.3c-0.2,0-0.4,0.1-0.5,0.3c-0.1,0.2-0.2,0.5-0.2,0.8c0,0.3,0.1,0.6,0.2,0.8
				C89.3,201.9,89.5,202,89.7,202z"/>
			<path fill="#E81F79" d="M94.5,209.3l2.4-10.4h1.2l-2.4,10.4H94.5z"/>
			<path fill="#E81F79" d="M104.9,207.5c-0.5,0-1-0.1-1.4-0.3c-0.4-0.2-0.8-0.5-1.1-0.8c-0.3-0.4-0.6-0.8-0.7-1.3
				c-0.2-0.5-0.3-1.1-0.3-1.7c0-0.6,0.1-1.2,0.3-1.7c0.2-0.5,0.4-0.9,0.7-1.3c0.3-0.3,0.7-0.6,1.1-0.8c0.4-0.2,0.9-0.3,1.4-0.3
				c0.5,0,1,0.1,1.4,0.3c0.4,0.2,0.8,0.4,1.1,0.8c0.3,0.3,0.6,0.8,0.7,1.3c0.2,0.5,0.3,1.1,0.3,1.7c0,0.6-0.1,1.2-0.3,1.7
				c-0.2,0.5-0.4,0.9-0.7,1.3c-0.3,0.4-0.7,0.6-1.1,0.8C105.9,207.5,105.5,207.5,104.9,207.5z M104.9,206c0.5,0,1-0.2,1.3-0.7
				c0.3-0.5,0.5-1.1,0.5-1.9c0-0.8-0.2-1.4-0.5-1.8c-0.3-0.4-0.7-0.7-1.3-0.7c-0.5,0-1,0.2-1.3,0.7c-0.3,0.4-0.5,1.1-0.5,1.8
				c0,0.8,0.2,1.4,0.5,1.9C104,205.8,104.4,206,104.9,206z"/>
			<path fill="#E81F79" d="M110.1,207.4v-4.6h-0.8v-1.3l0.8-0.1v-0.3c0-0.3,0-0.6,0.1-0.9c0.1-0.3,0.2-0.5,0.4-0.7
				c0.2-0.2,0.4-0.4,0.7-0.5s0.6-0.2,1-0.2c0.2,0,0.5,0,0.7,0.1c0.2,0,0.4,0.1,0.5,0.1l-0.3,1.3c-0.2-0.1-0.4-0.1-0.6-0.1
				c-0.2,0-0.4,0.1-0.5,0.2c-0.1,0.1-0.2,0.4-0.2,0.7v0.4h1.1v1.4h-1.1v4.6H110.1z"/>
			<path fill="#E81F79" d="M114.2,207.5c-0.3,0-0.6-0.1-0.8-0.3s-0.3-0.5-0.3-0.8c0-0.3,0.1-0.6,0.3-0.8s0.5-0.3,0.8-0.3
				s0.6,0.1,0.8,0.3c0.2,0.2,0.3,0.5,0.3,0.8c0,0.3-0.1,0.6-0.3,0.8C114.7,207.4,114.5,207.5,114.2,207.5z"/>
			<path fill="#E81F79" d="M37.8,221.9c-0.3,0-0.6-0.1-0.8-0.3s-0.3-0.5-0.3-0.8c0-0.3,0.1-0.6,0.3-0.8s0.5-0.3,0.8-0.3
				c0.3,0,0.6,0.1,0.8,0.3s0.3,0.5,0.3,0.8c0,0.3-0.1,0.6-0.3,0.8S38.1,221.9,37.8,221.9z"/>
		</g>
		<g>
			<path fill="#E81F79" d="M38.7,221.3c-0.7,0-1.3-0.3-1.7-0.9s-0.6-1.5-0.6-2.7s0.2-2.1,0.6-2.7c0.4-0.6,0.9-0.9,1.7-0.9
				c0.7,0,1.3,0.3,1.7,0.9c0.4,0.6,0.6,1.5,0.6,2.7s-0.2,2.1-0.6,2.7S39.4,221.3,38.7,221.3z M38.7,220.6c0.2,0,0.4-0.1,0.6-0.2
				c0.2-0.1,0.3-0.3,0.4-0.5s0.2-0.5,0.3-0.9s0.1-0.8,0.1-1.3s0-1-0.1-1.3s-0.2-0.7-0.3-0.9s-0.3-0.4-0.4-0.5
				c-0.2-0.1-0.4-0.2-0.6-0.2c-0.2,0-0.4,0.1-0.6,0.2c-0.2,0.1-0.3,0.3-0.4,0.5c-0.1,0.2-0.2,0.5-0.3,0.9s-0.1,0.8-0.1,1.3
				c0,1,0.1,1.8,0.4,2.2S38.3,220.6,38.7,220.6z"/>
			<path fill="#E81F79" d="M44.2,221.3c-0.7,0-1.3-0.3-1.7-0.9s-0.6-1.5-0.6-2.7s0.2-2.1,0.6-2.7c0.4-0.6,0.9-0.9,1.7-0.9
				c0.7,0,1.3,0.3,1.7,0.9c0.4,0.6,0.6,1.5,0.6,2.7s-0.2,2.1-0.6,2.7S44.9,221.3,44.2,221.3z M44.2,220.6c0.2,0,0.4-0.1,0.6-0.2
				c0.2-0.1,0.3-0.3,0.4-0.5s0.2-0.5,0.3-0.9s0.1-0.8,0.1-1.3s0-1-0.1-1.3s-0.2-0.7-0.3-0.9s-0.3-0.4-0.4-0.5
				c-0.2-0.1-0.4-0.2-0.6-0.2c-0.2,0-0.4,0.1-0.6,0.2c-0.2,0.1-0.3,0.3-0.4,0.5c-0.1,0.2-0.2,0.5-0.3,0.9s-0.1,0.8-0.1,1.3
				c0,1,0.1,1.8,0.4,2.2S43.8,220.6,44.2,220.6z"/>
			<path fill="#E81F79" d="M47.8,221.2v-0.7h1.6v-5.2h-1.3v-0.6c0.3-0.1,0.6-0.1,0.8-0.2c0.2-0.1,0.5-0.2,0.6-0.3h0.7v6.3h1.5v0.7
				H47.8z"/>
			<path fill="#E81F79" d="M53.2,221.2v-0.7h1.6v-5.2h-1.3v-0.6c0.3-0.1,0.6-0.1,0.8-0.2c0.2-0.1,0.5-0.2,0.6-0.3h0.7v6.3h1.5v0.7
				H53.2z"/>
			<path fill="#E81F79" d="M58.3,221.2v-0.5c0.5-0.5,1-1,1.4-1.4c0.4-0.4,0.8-0.8,1-1.2c0.3-0.4,0.5-0.7,0.6-1
				c0.1-0.3,0.2-0.6,0.2-0.9c0-0.4-0.1-0.7-0.3-1s-0.6-0.4-1-0.4c-0.3,0-0.6,0.1-0.8,0.2c-0.2,0.2-0.5,0.4-0.7,0.6l-0.5-0.5
				c0.3-0.3,0.6-0.6,0.9-0.8c0.3-0.2,0.7-0.3,1.2-0.3c0.7,0,1.2,0.2,1.5,0.6c0.4,0.4,0.6,0.9,0.6,1.5c0,0.3-0.1,0.7-0.2,1
				c-0.1,0.3-0.3,0.7-0.6,1s-0.6,0.7-0.9,1.1c-0.3,0.4-0.7,0.8-1.2,1.2c0.2,0,0.4,0,0.6,0c0.2,0,0.4,0,0.6,0h2v0.8H58.3z"/>
			<path fill="#E81F79" d="M63.7,221.2v-0.5c0.5-0.5,1-1,1.4-1.4c0.4-0.4,0.8-0.8,1-1.2s0.5-0.7,0.6-1c0.1-0.3,0.2-0.6,0.2-0.9
				c0-0.4-0.1-0.7-0.3-1s-0.6-0.4-1-0.4c-0.3,0-0.6,0.1-0.8,0.2s-0.5,0.4-0.7,0.6l-0.5-0.5c0.3-0.3,0.6-0.6,0.9-0.8
				c0.3-0.2,0.7-0.3,1.2-0.3c0.7,0,1.2,0.2,1.5,0.6c0.4,0.4,0.6,0.9,0.6,1.5c0,0.3-0.1,0.7-0.2,1c-0.1,0.3-0.3,0.7-0.6,1
				s-0.6,0.7-0.9,1.1c-0.3,0.4-0.7,0.8-1.1,1.2c0.2,0,0.4,0,0.6,0c0.2,0,0.4,0,0.6,0h2v0.8H63.7z"/>
			<path fill="#E81F79" d="M71.4,221.3c-0.3,0-0.5,0-0.8-0.1c-0.2-0.1-0.4-0.1-0.6-0.2c-0.2-0.1-0.4-0.2-0.5-0.3s-0.3-0.2-0.4-0.4
				l0.5-0.6c0.2,0.2,0.5,0.4,0.7,0.6c0.3,0.2,0.6,0.3,1.1,0.3c0.4,0,0.8-0.1,1-0.3s0.4-0.5,0.4-0.9c0-0.2,0-0.4-0.1-0.6
				c-0.1-0.2-0.2-0.3-0.4-0.4c-0.2-0.1-0.4-0.2-0.7-0.3s-0.6-0.1-1.1-0.1v-0.7c0.4,0,0.7,0,0.9-0.1c0.3-0.1,0.5-0.2,0.6-0.3
				c0.2-0.1,0.3-0.3,0.3-0.4c0.1-0.2,0.1-0.3,0.1-0.5c0-0.3-0.1-0.6-0.3-0.8c-0.2-0.2-0.5-0.3-0.9-0.3c-0.3,0-0.6,0.1-0.8,0.2
				c-0.2,0.1-0.5,0.3-0.7,0.5l-0.5-0.6c0.3-0.3,0.6-0.5,0.9-0.6c0.3-0.2,0.7-0.2,1.1-0.2c0.3,0,0.6,0,0.8,0.1s0.5,0.2,0.7,0.3
				c0.2,0.2,0.3,0.3,0.4,0.6c0.1,0.2,0.2,0.5,0.2,0.8c0,0.4-0.1,0.8-0.4,1c-0.2,0.3-0.5,0.5-0.9,0.6v0c0.2,0.1,0.4,0.1,0.6,0.2
				c0.2,0.1,0.3,0.2,0.5,0.4s0.2,0.3,0.3,0.5c0.1,0.2,0.1,0.4,0.1,0.7c0,0.3-0.1,0.6-0.2,0.8c-0.1,0.3-0.3,0.5-0.5,0.6
				c-0.2,0.2-0.5,0.3-0.7,0.4C72,221.2,71.7,221.3,71.4,221.3z"/>
			<path fill="#E81F79" d="M76.8,221.3c-0.3,0-0.5,0-0.8-0.1c-0.2-0.1-0.4-0.1-0.6-0.2c-0.2-0.1-0.4-0.2-0.5-0.3s-0.3-0.2-0.4-0.4
				l0.5-0.6c0.2,0.2,0.5,0.4,0.7,0.6c0.3,0.2,0.6,0.3,1.1,0.3c0.4,0,0.8-0.1,1-0.3s0.4-0.5,0.4-0.9c0-0.2,0-0.4-0.1-0.6
				c-0.1-0.2-0.2-0.3-0.4-0.4c-0.2-0.1-0.4-0.2-0.7-0.3s-0.6-0.1-1.1-0.1v-0.7c0.4,0,0.7,0,0.9-0.1c0.3-0.1,0.5-0.2,0.6-0.3
				c0.2-0.1,0.3-0.3,0.3-0.4c0.1-0.2,0.1-0.3,0.1-0.5c0-0.3-0.1-0.6-0.3-0.8c-0.2-0.2-0.5-0.3-0.9-0.3c-0.3,0-0.6,0.1-0.8,0.2
				c-0.2,0.1-0.5,0.3-0.7,0.5l-0.5-0.6c0.3-0.3,0.6-0.5,0.9-0.6c0.3-0.2,0.7-0.2,1.1-0.2c0.3,0,0.6,0,0.8,0.1s0.5,0.2,0.7,0.3
				c0.2,0.2,0.3,0.3,0.4,0.6c0.1,0.2,0.2,0.5,0.2,0.8c0,0.4-0.1,0.8-0.4,1c-0.2,0.3-0.5,0.5-0.9,0.6v0c0.2,0.1,0.4,0.1,0.6,0.2
				c0.2,0.1,0.3,0.2,0.5,0.4s0.2,0.3,0.3,0.5c0.1,0.2,0.1,0.4,0.1,0.7c0,0.3-0.1,0.6-0.2,0.8c-0.1,0.3-0.3,0.5-0.5,0.6
				c-0.2,0.2-0.5,0.3-0.7,0.4C77.5,221.2,77.2,221.3,76.8,221.3z"/>
			<path fill="#E81F79" d="M83.1,221.2v-1.9h-3.2v-0.6l3-4.5h1v4.4h1v0.7h-1v1.9H83.1z M80.9,218.5h2.2v-2c0-0.2,0-0.4,0-0.7
				s0-0.5,0-0.7h0c-0.1,0.2-0.2,0.3-0.3,0.5c-0.1,0.2-0.2,0.3-0.3,0.5L80.9,218.5z"/>
			<path fill="#E81F79" d="M88.5,221.2v-1.9h-3.2v-0.6l3-4.5h1v4.4h1v0.7h-1v1.9H88.5z M86.3,218.5h2.2v-2c0-0.2,0-0.4,0-0.7
				s0-0.5,0-0.7h0c-0.1,0.2-0.2,0.3-0.3,0.5c-0.1,0.2-0.2,0.3-0.3,0.5L86.3,218.5z"/>
			<path fill="#E81F79" d="M93.2,221.3c-0.3,0-0.5,0-0.8-0.1c-0.2-0.1-0.4-0.1-0.6-0.2c-0.2-0.1-0.4-0.2-0.5-0.3s-0.3-0.2-0.4-0.4
				l0.4-0.6c0.2,0.2,0.4,0.4,0.7,0.6s0.6,0.2,1,0.2c0.2,0,0.4,0,0.6-0.1c0.2-0.1,0.3-0.2,0.5-0.3c0.1-0.1,0.2-0.3,0.3-0.5
				c0.1-0.2,0.1-0.4,0.1-0.7c0-0.5-0.1-0.9-0.4-1.1s-0.6-0.4-1.1-0.4c-0.2,0-0.4,0-0.6,0.1c-0.2,0.1-0.4,0.2-0.6,0.3l-0.5-0.3
				l0.2-3.4h3.5v0.8h-2.7l-0.2,2.1c0.2-0.1,0.3-0.2,0.5-0.2c0.2-0.1,0.4-0.1,0.6-0.1c0.3,0,0.6,0,0.8,0.1c0.3,0.1,0.5,0.2,0.7,0.4
				s0.4,0.4,0.5,0.7c0.1,0.3,0.2,0.6,0.2,1s-0.1,0.7-0.2,1s-0.3,0.5-0.5,0.7c-0.2,0.2-0.5,0.4-0.8,0.5
				C93.8,221.2,93.5,221.3,93.2,221.3z"/>
		</g>
		<rect x="29.1" y="193.5" fill="none" stroke="#E81F79" stroke-width="2" stroke-miterlimit="10" width="94.7" height="32.8"/>
	</g>
</g>
<g id="Layer_2" display="none">
	<g display="inline" opacity="0.3">
		<path d="M434.9,0.7L272.2,0.6L156,0.6L43.3,0.5C19.8,0.5,0.6,19.7,0.6,43.2L0.5,248.1c0,23.5,19.2,42.7,42.7,42.7l391.6,0.2
			c23.5,0,42.7-19.2,42.7-42.7l0.1-204.9C477.6,19.9,458.4,0.7,434.9,0.7z M148,244.3H35.4v-50.9H148V244.3z"/>
	</g>
	<g display="inline" opacity="0.3">
		<path d="M-96.9,0.7l-162.7-0.1l-116.1-0.1l-112.7-0.1c-23.5,0-42.7,19.2-42.7,42.7l-0.1,204.9c0,23.5,19.2,42.7,42.7,42.7
			l391.6,0.2c23.5,0,42.7-19.2,42.7-42.7l0.1-204.9C-54.3,19.9-73.5,0.7-96.9,0.7z M-232.5,273.3h-114v-50.9h114V273.3z"/>
	</g>
</g>
</svg>
