<?xml version="1.0" encoding="utf-8"?>
<!-- Generator: Adobe Illustrator 16.0.0, SVG Export Plug-In . SVG Version: 6.00 Build 0)  -->
<!DOCTYPE svg PUBLIC "-//W3C//DTD SVG 1.1//EN" "http://www.w3.org/Graphics/SVG/1.1/DTD/svg11.dtd">
<svg version="1.1" id="Layer_1" xmlns="http://www.w3.org/2000/svg" xmlns:xlink="http://www.w3.org/1999/xlink" x="0px" y="0px"
	 width="154.509px" height="82.416px" viewBox="0 0 154.509 82.416" enable-background="new 0 0 154.509 82.416"
	 xml:space="preserve">
<path fill="#FFFFFF" d="M56.349,27.486c1.229,0,2.086-0.977,2.086-2.259c0-1.205-0.857-2.12-2.086-2.12h-2.892v4.379H56.349z
	 M48.997,19.445c0-0.286,0.228-0.544,0.544-0.544h6.894c3.776,0,6.407,2.862,6.407,6.326c0,3.545-2.63,6.434-6.379,6.434h-3.005
	v6.724c0,0.286-0.255,0.544-0.541,0.544h-3.375c-0.316,0-0.544-0.258-0.544-0.544V19.445z"/>
<path fill="#FFFFFF" d="M75.271,34.634c3.147,0,5.722-2.576,5.722-5.692c0-3.144-2.575-5.747-5.722-5.747
	c-3.12,0-5.692,2.603-5.692,5.747C69.579,32.059,72.151,34.634,75.271,34.634z M75.271,18.615c5.722,0,10.299,4.607,10.299,10.327
	c0,5.723-4.577,10.272-10.299,10.272c-5.72,0-10.269-4.549-10.269-10.272C65.002,23.222,69.551,18.615,75.271,18.615z"/>
<path fill="#FFFFFF" d="M98.078,27.455c1.174,0,2.175-0.946,2.175-2.287c0-1.347-1.001-2.178-2.175-2.178h-4.233v4.464H98.078z
	 M89.354,19.445c0-0.286,0.228-0.544,0.541-0.544h8.557c3.631,0,6.236,2.777,6.236,6.183c0,2.63-1.574,4.747-4.235,5.747
	l3.919,7.268c0.201,0.371,0,0.83-0.489,0.83h-3.804c-0.225,0-0.398-0.143-0.453-0.258l-3.807-7.581h-1.975v7.295
	c0,0.286-0.258,0.544-0.544,0.544h-3.405c-0.313,0-0.541-0.258-0.541-0.544V19.445z"/>
<path fill="#FFFFFF" d="M111.817,23.106h-4.09c-0.313,0-0.541-0.258-0.541-0.544v-3.117c0-0.286,0.229-0.544,0.541-0.544h12.705
	c0.313,0,0.541,0.259,0.541,0.544v3.117c0,0.286-0.229,0.544-0.541,0.544h-4.09v15.278c0,0.286-0.262,0.544-0.548,0.544h-3.43
	c-0.286,0-0.548-0.258-0.548-0.544V23.106z"/>
<path fill="#FFFFFF" d="M132.576,32.059l-2.178-4.716h-0.024l-2.146,4.716H132.576z M120.817,38.183l8.955-19.251
	c0.085-0.173,0.285-0.316,0.483-0.316h0.286c0.203,0,0.404,0.143,0.489,0.316l8.956,19.251c0.17,0.375-0.062,0.745-0.49,0.745
	h-3.172c-0.517,0-0.744-0.173-1.003-0.714l-1.031-2.263h-7.778l-1.031,2.29c-0.143,0.34-0.459,0.687-1.031,0.687h-3.143
	C120.875,38.928,120.647,38.558,120.817,38.183z"/>
<path fill="#FFFFFF" d="M142.655,19.445c0-0.286,0.227-0.544,0.543-0.544h3.403c0.289,0,0.544,0.259,0.544,0.544v15.278h6.809
	c0.316,0,0.545,0.258,0.545,0.544v3.117c0,0.286-0.229,0.544-0.545,0.544h-10.756c-0.316,0-0.543-0.258-0.543-0.544V19.445z"/>
<path fill="#FFFFFF" d="M48.826,64.363l0.259-0.341c0.201-0.228,0.398-0.316,0.629-0.116c0.286,0.26,2.402,2.202,5.291,2.202
	c2.603,0,4.804-1.401,4.804-3.831c0-2.549-2.085-3.691-5.549-4.862c-3.317-1.174-5.522-2.349-5.522-5.638
	c0-2.147,1.718-5.063,6.183-5.063c2.831,0,4.92,1.46,4.92,1.46c0.112,0.085,0.313,0.285,0.112,0.599l-0.228,0.374
	c-0.143,0.256-0.344,0.316-0.629,0.143c-0.085-0.057-2-1.347-4.206-1.347c-3.518,0-4.835,2.177-4.835,3.804
	c0,2.434,1.861,3.494,4.75,4.438c3.919,1.344,6.407,2.719,6.407,6.035c0,3.175-2.946,5.094-6.237,5.094
	c-3.402,0-5.689-2.004-6.063-2.348C48.738,64.822,48.595,64.679,48.826,64.363z"/>
<path fill="#FFFFFF" d="M81.593,60.388L76.7,49.003h-0.058l-4.978,11.385H81.593z M67.458,66.679l8.809-19.766
	c0.061-0.115,0.204-0.2,0.347-0.2H76.7c0.143,0,0.286,0.03,0.371,0.2l8.724,19.766c0.062,0.174,0.062,0.348-0.255,0.348h-0.746
	c-0.197,0-0.34-0.144-0.4-0.259l-2.318-5.264H71.147l-2.287,5.264c-0.058,0.115-0.201,0.259-0.401,0.259h-0.8
	C67.458,67.027,67.374,66.911,67.458,66.679z"/>
<path fill="#FFFFFF" d="M93.698,47.371c0-0.197,0.171-0.371,0.375-0.371h0.626c0.173,0,0.344,0.174,0.344,0.371v18.451h9.126
	c0.344,0,0.373,0.174,0.373,0.375v0.514c0,0.2-0.173,0.316-0.373,0.316H94.073c-0.204,0-0.375-0.174-0.375-0.375V47.371z"/>
<path fill="#FFFFFF" d="M111.675,47.371c0-0.197,0.173-0.371,0.374-0.371h0.603c0.197,0,0.371,0.174,0.371,0.371v12.33
	c0,3.688,2.316,6.295,6.121,6.295c3.834,0,6.178-2.576,6.178-6.268V47.371c0-0.229,0.113-0.371,0.398-0.371h0.575
	c0.2,0,0.371,0.174,0.371,0.371v12.473c0,4.379-2.974,7.469-7.522,7.469c-4.52,0-7.469-3.09-7.469-7.469V47.371z"/>
<path fill="#FFFFFF" d="M143.264,65.794c5.093,0,8.866-3.807,8.866-8.809c0-4.954-3.746-8.758-8.866-8.758h-4.835v17.566H143.264z
	 M137.085,47.371c0-0.197,0.17-0.371,0.344-0.371h6.063c5.553,0,10.072,4.491,10.072,9.986c0,5.576-4.52,10.041-10.072,10.041
	h-6.063c-0.174,0-0.344-0.174-0.344-0.375V47.371z"/>
<path fill="#FFFFFF" d="M102.073,82.28c-0.09,0-0.171-0.021-0.242-0.064c-0.078-0.048-0.137-0.119-0.167-0.204l-0.841-1.96
	l-1.463-3.386l-2.327,5.359c-0.067,0.163-0.204,0.255-0.381,0.255c-0.116,0-0.211-0.034-0.289-0.099
	c-0.075-0.068-0.122-0.152-0.136-0.248c-0.014-0.045-0.008-0.119,0.02-0.197l2.719-6.363c0.037-0.095,0.096-0.163,0.174-0.204
	c0.061-0.034,0.136-0.051,0.218-0.051c0.187,0,0.333,0.095,0.401,0.259l2.712,6.346c0.021,0.055,0.027,0.102,0.027,0.16
	c0,0.122-0.048,0.23-0.144,0.303C102.276,82.25,102.182,82.28,102.073,82.28z"/>
<path fill="#FFFFFF" d="M123.206,82.375c-0.535,0-0.575-0.33-0.575-0.429c0-0.208,0.149-0.429,0.575-0.429l0.081,0.003h2.511
	c0.787,0,1.389-0.258,1.787-0.766c0.398-0.504,0.602-1.188,0.602-2.034c0-0.518-0.088-0.99-0.262-1.415
	c-0.152-0.371-0.388-0.644-0.782-0.92c-0.304-0.211-0.708-0.303-1.345-0.303h-2.494h-0.043c-0.082,0-0.201-0.006-0.313-0.041
	c-0.286-0.088-0.316-0.292-0.316-0.377c0-0.102,0.044-0.432,0.619-0.432h2.647c0.755,0,1.313,0.143,1.756,0.452
	c0.489,0.34,0.833,0.763,1.055,1.29c0.225,0.541,0.333,1.111,0.333,1.745c0,0.663-0.108,1.249-0.333,1.782
	c-0.242,0.576-0.605,1.038-1.052,1.341c-0.514,0.351-1.106,0.527-1.759,0.527h-2.604L123.206,82.375z"/>
<path fill="#FFFFFF" d="M152.073,82.375c-0.524,0-0.994-0.089-1.389-0.263c-0.392-0.173-0.783-0.441-1.16-0.803
	c-0.086-0.078-0.129-0.184-0.129-0.299c0-0.113,0.043-0.211,0.132-0.303c0.089-0.089,0.194-0.137,0.307-0.137
	c0.122,0,0.231,0.055,0.33,0.156c0.241,0.272,0.53,0.48,0.857,0.619c0.333,0.144,0.687,0.215,1.052,0.215
	c0.469,0,0.86-0.109,1.156-0.316c0.282-0.197,0.415-0.439,0.415-0.762c-0.007-0.256-0.075-0.46-0.211-0.619
	c-0.149-0.174-0.333-0.313-0.552-0.419c-0.238-0.116-0.568-0.245-0.979-0.388c-0.473-0.17-0.847-0.324-1.108-0.453
	c-0.29-0.143-0.538-0.347-0.742-0.605c-0.215-0.275-0.324-0.633-0.324-1.064c0-0.357,0.106-0.688,0.314-0.977
	c0.203-0.289,0.492-0.518,0.867-0.678c0.36-0.16,0.782-0.238,1.256-0.238c0.422,0,0.826,0.072,1.207,0.218
	c0.389,0.153,0.705,0.368,0.936,0.644c0.105,0.143,0.15,0.244,0.15,0.34c0,0.082-0.023,0.201-0.153,0.307
	c-0.089,0.074-0.19,0.112-0.303,0.112c-0.119,0-0.218-0.044-0.292-0.13c-0.171-0.207-0.393-0.374-0.657-0.493
	c-0.266-0.122-0.565-0.184-0.888-0.184c-0.467,0-0.854,0.105-1.157,0.31c-0.282,0.19-0.415,0.432-0.415,0.759
	c0,0.225,0.064,0.408,0.197,0.562c0.143,0.166,0.33,0.307,0.548,0.408c0.241,0.115,0.544,0.234,0.908,0.361
	c0.477,0.162,0.86,0.316,1.144,0.452c0.303,0.146,0.568,0.364,0.782,0.646c0.225,0.292,0.337,0.681,0.337,1.146
	c0,0.341-0.105,0.66-0.313,0.949c-0.201,0.289-0.497,0.517-0.868,0.685C152.96,82.293,152.538,82.375,152.073,82.375z"/>
<path fill="#FFFFFF" d="M114.927,82.332c-0.133,0-0.252-0.059-0.33-0.16l-4.188-5.434v5.212c0,0.108-0.045,0.208-0.13,0.279
	c-0.078,0.067-0.17,0.103-0.278,0.103c-0.119,0-0.219-0.038-0.293-0.109c-0.075-0.071-0.116-0.167-0.116-0.272v-6.396
	c0-0.163,0.071-0.259,0.13-0.31c0.078-0.064,0.17-0.102,0.269-0.102c0.122,0,0.231,0.051,0.313,0.139l4.235,5.488v-5.227
	c0-0.111,0.044-0.211,0.122-0.289c0.079-0.071,0.178-0.111,0.287-0.111c0.152,0,0.244,0.064,0.299,0.118
	c0.071,0.079,0.109,0.174,0.109,0.282v6.359c0,0.17-0.072,0.27-0.133,0.324C115.142,82.296,115.043,82.332,114.927,82.332z"/>
<path fill="#FFFFFF" d="M136.608,76.083c-0.238,0-0.429-0.193-0.429-0.428c0-0.238,0.19-0.433,0.429-0.433h5.543
	c0.238,0,0.432,0.194,0.432,0.433c0,0.234-0.193,0.428-0.432,0.428H136.608z"/>
<path fill="#FFFFFF" d="M136.608,82.375c-0.238,0-0.429-0.194-0.429-0.433c0-0.234,0.19-0.429,0.429-0.429h5.543
	c0.238,0,0.432,0.194,0.432,0.429c0,0.238-0.193,0.433-0.432,0.433H136.608z"/>
<path fill="#FFFFFF" d="M136.542,78.372h5.385c0.011,0,0.017,0.006,0.017,0.017v0.828c0,0.012-0.006,0.017-0.017,0.017h-5.385
	c-0.012,0-0.018-0.005-0.018-0.017v-0.828C136.524,78.377,136.53,78.372,136.542,78.372z"/>
<path fill="#FFFFFF" d="M51,0.123c0.017-0.064,0.078-0.109,0.14-0.109h0.173c0.079,0,0.126,0.031,0.157,0.109l3.229,9.626h0.034
	l3.246-9.626c0.031-0.078,0.079-0.109,0.157-0.109h0.17c0.065,0,0.126,0.044,0.143,0.109l2.225,10.816
	c0.031,0.157-0.031,0.204-0.173,0.204h-0.375c-0.095,0-0.173-0.078-0.187-0.17l-1.773-9.19h-0.03l-3.168,9.391
	c-0.03,0.095-0.126,0.126-0.221,0.126h-0.061c-0.078,0-0.173-0.014-0.204-0.126l-3.168-9.391h-0.03l-1.773,9.19
	c-0.014,0.092-0.092,0.17-0.187,0.17h-0.378c-0.139,0-0.204-0.047-0.17-0.204L51,0.123z"/>
<path fill="#FFFFFF" d="M65.835,0.375c0-0.112,0.092-0.204,0.204-0.204h0.344c0.109,0,0.204,0.092,0.204,0.204v10.564
	c0,0.126-0.109,0.204-0.218,0.204h-0.33c-0.112,0-0.204-0.092-0.204-0.204V0.375z"/>
<path fill="#FFFFFF" d="M31.276,63.621c-0.248-0.092-0.418-0.337-0.418-0.6V48.888c0-0.549-0.997-0.568-0.997,0.003v13.229
	c0,0.469-0.487,0.778-0.898,0.555c-2.072-1.127-5.737-3.434-6.353-4.355c-0.119-0.184-0.143-0.398-0.143-0.616v-7.37
	c0-10.816,9.299-14.104,18.741-14.13v-2.157c-4.648-0.068-8.438-3.845-8.438-8.506c0-4.662,3.79-8.462,8.438-8.53V0
	C18.449,0,0,18.449,0,41.208c0,22.76,18.449,41.208,41.208,41.208V65.414C37.867,65.423,34.508,64.822,31.276,63.621z"/>
</svg>
