<svg id="Capa_1" data-name="Capa 1" xmlns="http://www.w3.org/2000/svg" viewBox="0 0 1201.77 1201.77"><defs><style>.cls-1{fill:#6e94c8;stroke:#7f7f7f;stroke-miterlimit:22.93;stroke-width:0.57px;}.cls-2{fill:#5d7ea9;}.cls-10,.cls-11,.cls-12,.cls-13,.cls-14,.cls-15,.cls-2,.cls-3,.cls-4,.cls-5,.cls-6,.cls-7,.cls-8,.cls-9{fill-rule:evenodd;}.cls-3{fill:#c5cad6;}.cls-4{fill:#fff;}.cls-5{fill:#af5339;}.cls-6{fill:#d28068;}.cls-7{fill:#f3d5b6;}.cls-8{fill:#eaab28;}.cls-9{fill:#38595e;}.cls-10{fill:#cfb496;}.cls-11{fill:#202020;opacity:0.15;}.cls-12{fill:#a9afbf;}.cls-13{fill:#eceff3;}.cls-14{fill:#c8cace;}.cls-15{fill:#fbf3ea;}</style></defs><title>agenda</title><rect class="cls-1" x="0.28" y="0.28" width="1201.2" height="1201.2"/><polygon class="cls-2" points="729.41 427.9 224.48 379.1 183.22 390.37 166.92 1058.67 750.31 1037.87 729.41 427.9"/><path class="cls-2" d="M820.54,591.92c10.74,51.16,39.22,88.76,60.44,100,25.49,13.47,50.23,26.95,65.27,39.63l3.18,1.72q-8.7,10.27-18,20.33l70.48,36.73q-5.36,6.05-10.92,12L1201.2,914.17V648.74l-84-40.62q-3,7.07-6.24,14.09l-70.23-36.85q-1.89,4.4-3.86,8.78c-.27-.17-.54-.35-.81-.52-31.42-18.66-31.58-155.18-36.23-193.13C861.11,472.06,811.28,593.85,820.54,591.92Z" transform="translate(0.28 0.28)"/><polygon class="cls-3" points="224.48 379.1 183.92 389.75 209.1 1021.64 249.66 1010.99 224.48 379.1"/><polygon class="cls-4" points="249.66 1010.99 803.27 995.95 732.44 425.25 224.48 379.1 249.66 1010.99"/><path class="cls-5" d="M285.4,440.48q98.9,1.15,197.94,2.25t198.07,2.2q4.63,44.27,9.21,88.39-100.18-.15-200.31-.41t-200.18-.46Q287.8,486.5,285.4,440.48Z" transform="translate(0.28 0.28)"/><path class="cls-6" d="M294,605.76q26.22-.08,52.53-.26c-1.12-18.88-2.19-37.8-3.35-56.68-17.39-.05-34.82-.05-52.17-.1Q292.53,577.27,294,605.76Z" transform="translate(0.28 0.28)"/><path class="cls-6" d="M352.5,605.5q26.28-.15,52.57-.26-1.81-28.16-3.71-56.42H349.1C350.27,567.7,351.38,586.63,352.5,605.5Z" transform="translate(0.28 0.28)"/><path class="cls-6" d="M411.06,605.2q26.22-.08,52.52-.26c-1.34-18.67-2.73-37.39-4.11-56.06-17.39-.05-34.82-.05-52.17,0C408.56,567.65,409.81,586.48,411.06,605.2Z" transform="translate(0.28 0.28)"/><path class="cls-6" d="M469.62,604.94l52.52-.31c-1.48-18.52-3-37.14-4.47-55.71q-26.15-.08-52.21-.05C466.85,567.55,468.23,586.27,469.62,604.94Z" transform="translate(0.28 0.28)"/><path class="cls-6" d="M528.18,604.63c17.48-.1,35-.15,52.52-.26-1.61-18.47-3.26-37-4.87-55.45H523.66C525.14,567.5,526.66,586.12,528.18,604.63Z" transform="translate(0.28 0.28)"/><path class="cls-6" d="M586.69,604.33c17.52-.05,35-.15,52.57-.2-1.74-18.36-3.53-36.78-5.23-55.14-17.43,0-34.82-.05-52.26,0C583.39,567.45,585.09,585.91,586.69,604.33Z" transform="translate(0.28 0.28)"/><path class="cls-6" d="M645.25,604.07l52.61-.31c-1.88-18.21-3.8-36.52-5.63-54.79-17.43.05-34.87,0-52.26,0C641.68,567.34,643.51,585.76,645.25,604.07Z" transform="translate(0.28 0.28)"/><path class="cls-3" d="M533.68,672.36q26.49-.31,53-.66c-1.65-18.41-3.31-36.93-4.92-55.45q-26.35.23-52.66.36C530.68,635.22,532.16,653.79,533.68,672.36Z" transform="translate(0.28 0.28)"/><path class="cls-3" d="M592.68,671.7c17.7-.26,35.36-.41,53.06-.66-1.79-18.31-3.58-36.73-5.32-55.14q-26.35.23-52.7.36C589.42,634.76,591,653.23,592.68,671.7Z" transform="translate(0.28 0.28)"/><path class="cls-3" d="M651.74,671l53.06-.61q-2.88-27.39-5.72-54.84-26.35.23-52.7.36C648.2,634.3,649.95,652.67,651.74,671Z" transform="translate(0.28 0.28)"/><path class="cls-3" d="M301.18,744.28l53.37-.92q-1.61-28.31-3.31-56.78-26.55.38-53,.67Q299.71,715.79,301.18,744.28Z" transform="translate(0.28 0.28)"/><path class="cls-3" d="M360.64,743.26q26.75-.54,53.46-1-1.88-28.16-3.71-56.42-26.55.31-53.11.67Q359,714.92,360.64,743.26Z" transform="translate(0.28 0.28)"/><path class="cls-3" d="M420.18,742.19c17.75-.31,35.58-.67,53.37-1q-2-28-4.07-56.12c-17.7.2-35.4.46-53.06.67Q418.3,714,420.18,742.19Z" transform="translate(0.28 0.28)"/><path class="cls-3" d="M479.68,741.11c17.79-.31,35.58-.66,53.42-1-1.48-18.57-3-37.14-4.51-55.81-17.66.26-35.36.46-53,.72C476.91,703.72,478.29,722.44,479.68,741.11Z" transform="translate(0.28 0.28)"/><path class="cls-3" d="M539.22,740c17.75-.31,35.58-.61,53.37-1q-2.41-27.7-4.87-55.45c-17.7.21-35.4.46-53.06.66Q536.94,712.21,539.22,740Z" transform="translate(0.28 0.28)"/><path class="cls-3" d="M598.67,739q26.75-.46,53.46-1-2.61-27.54-5.27-55.14-26.55.38-53.11.67Q596.24,711.29,598.67,739Z" transform="translate(0.28 0.28)"/><path class="cls-3" d="M658.22,737.89q26.69-.46,53.46-1-2.82-27.39-5.68-54.84c-17.7.26-35.4.46-53.11.72Q655.51,710.34,658.22,737.89Z" transform="translate(0.28 0.28)"/><path class="cls-3" d="M304.76,813.54q26.82-.61,53.82-1.28-1.68-28.39-3.31-56.78c-17.84.31-35.67.66-53.46,1Z" transform="translate(0.28 0.28)"/><path class="cls-3" d="M364.7,812.11c18-.46,35.94-.87,53.87-1.33q-1.81-28.24-3.71-56.47-26.75.54-53.51,1Z" transform="translate(0.28 0.28)"/><path class="cls-3" d="M424.69,810.68q26.89-.69,53.87-1.33-2.08-28.08-4.11-56.17l-53.51,1.07C422.24,773,423.44,791.86,424.69,810.68Z" transform="translate(0.28 0.28)"/><path class="cls-3" d="M484.73,809.2c17.93-.46,35.85-.87,53.82-1.33Q536.27,780,534,752.06c-17.84.36-35.67.67-53.46,1Q482.65,781.09,484.73,809.2Z" transform="translate(0.28 0.28)"/><path class="cls-3" d="M544.72,807.71q26.89-.62,53.87-1.33c-1.65-18.47-3.26-37-4.92-55.45-17.84.36-35.72.67-53.51,1C541.68,770.52,543.2,789.14,544.72,807.71Z" transform="translate(0.28 0.28)"/><path class="cls-3" d="M604.71,806.28c17.93-.46,35.9-.87,53.87-1.33-1.79-18.36-3.53-36.78-5.32-55.14q-26.76.46-53.51,1C601.4,769.3,603,787.81,604.71,806.28Z" transform="translate(0.28 0.28)"/><path class="cls-3" d="M664.7,804.8q27-.61,53.91-1.33-2.88-27.39-5.72-54.84-26.82.54-53.55,1C661.12,768,662.91,786.43,664.7,804.8Z" transform="translate(0.28 0.28)"/><path class="cls-3" d="M308.38,882.81q27.09-.77,54.22-1.64-1.61-28.39-3.26-56.78-27,.69-53.91,1.33Z" transform="translate(0.28 0.28)"/><path class="cls-3" d="M368.82,881c18.1-.56,36.16-1.07,54.27-1.64q-1.81-28.24-3.67-56.47l-54,1.38Q367.14,852.55,368.82,881Z" transform="translate(0.28 0.28)"/><path class="cls-3" d="M429.3,879.12l54.27-1.69q-2.08-28-4.11-56.12l-53.91,1.38Q427.42,850.86,429.3,879.12Z" transform="translate(0.28 0.28)"/><path class="cls-3" d="M489.78,877.28,544,875.59q-2.28-27.85-4.52-55.81l-53.91,1.38Q487.7,849.17,489.78,877.28Z" transform="translate(0.28 0.28)"/><path class="cls-3" d="M550.26,875.44l54.27-1.69q-2.48-27.7-4.92-55.5l-53.91,1.38Q548,847.48,550.26,875.44Z" transform="translate(0.28 0.28)"/><path class="cls-3" d="M610.7,873.55c18.1-.56,36.21-1.07,54.31-1.64q-2.68-27.55-5.32-55.19l-54,1.38Q608.22,845.8,610.7,873.55Z" transform="translate(0.28 0.28)"/><path class="cls-3" d="M671.18,871.71,725.49,870q-2.82-27.39-5.68-54.84l-54,1.38C667.6,834.93,669.39,853.34,671.18,871.71Z" transform="translate(0.28 0.28)"/><path class="cls-3" d="M312,952l54.67-2c-1.16-18.88-2.23-37.8-3.35-56.73L309,895Q310.48,923.52,312,952Z" transform="translate(0.28 0.28)"/><path class="cls-3" d="M372.88,949.82q27.36-1.08,54.76-2c-1.3-18.77-2.5-37.6-3.75-56.42-18.1.56-36.25,1.18-54.4,1.74Q371.16,921.48,372.88,949.82Z" transform="translate(0.28 0.28)"/><path class="cls-3" d="M433.86,947.57c18.19-.67,36.43-1.38,54.72-2-1.43-18.62-2.77-37.39-4.16-56.06q-27.22.84-54.36,1.74C431.31,910,432.56,928.84,433.86,947.57Z" transform="translate(0.28 0.28)"/><path class="cls-3" d="M494.83,945.31c18.19-.67,36.43-1.38,54.67-2-1.52-18.52-3-37.14-4.52-55.76-18.15.56-36.25,1.18-54.36,1.74C492,908,493.4,926.69,494.83,945.31Z" transform="translate(0.28 0.28)"/><path class="cls-3" d="M555.76,943.06q27.36-1,54.72-2c-1.65-18.42-3.26-36.93-4.92-55.4l-54.36,1.69Q553.48,915.24,555.76,943.06Z" transform="translate(0.28 0.28)"/><path class="cls-3" d="M616.69,940.81q27.36-1,54.76-2c-1.79-18.31-3.53-36.73-5.32-55.09q-27.22.92-54.4,1.74C613.38,903.88,615,922.4,616.69,940.81Z" transform="translate(0.28 0.28)"/><path class="cls-7" d="M987.08,714.94c-16.58-12.06-42.95-24.87-70.07-37.67s-69.32-61.79-80.62-125.83S990.25,367.91,999.21,395.62s25.63,169.61,61,188.21,39.18,108.5,28.63,140.15S1033.8,737.55,987.08,714.94Z" transform="translate(0.28 0.28)"/><path class="cls-8" d="M1063.84,576A466.38,466.38,0,0,1,974.9,735.9l103.43,48.2c37.49-43.9,67.39-97.53,91.74-158.3Z" transform="translate(0.28 0.28)"/><path class="cls-9" d="M1143.07,597.62C1121.85,663,1089,725,1040.38,782.28l160.82,76.39V625.26Z" transform="translate(0.28 0.28)"/><polygon class="cls-3" points="209.1 1021.64 771.47 1005.75 803.27 995.95 249.66 1010.99 209.1 1021.64"/><path class="cls-10" d="M873.3,444.44c8.54,13.18,87.77,77.27,113.77,100.28-10.32-24.27-12.43-80.59-39.25-99.66C930.83,433,891.66,458.4,873.3,444.44Z" transform="translate(0.28 0.28)"/><path class="cls-11" d="M1048.52,383.85,667.88,107.14C483,209.83,466.88,316.25,398.13,395.08L224.2,378.26c.17,38.89,15.44,63.77,42.92,74.37l490.6,189.24-2.87-23.11C890.6,664.85,832.38,457.59,1048.52,383.85Z" transform="translate(0.28 0.28)"/><path class="cls-12" d="M224.2,378.81c1.21,30.4,16.83,58.61,47.13,67.77,20.66,6.24,116.65,32.89,151,16.07,25.5-12.46,24.25-35.3,34-62.74Z" transform="translate(0.28 0.28)"/><path class="cls-13" d="M790.38,630.9,270.8,446.42c20.72,6.45,48.38,3.94,83.08-13C459.18,381.94,439.3,202,649,83.29L1049.2,384.13c-43.38,8.81-112.76,45.16-173.51,102.45C844.85,515.67,877.14,610,790.38,630.9Z" transform="translate(0.28 0.28)"/><path class="cls-14" d="M889.67,473.89q-7,6.16-14,12.69c-9.39,8.86-12.93,23.76-15.75,40.8-9.31-7.82-21.13-14.51-36.21-21.9-38.43-18.84-69.62-61.15-49.73-83.64s60.28-4.52,98,35.41A223.33,223.33,0,0,0,889.67,473.89Z" transform="translate(0.28 0.28)"/><path class="cls-10" d="M966,663.71c-30.89-14.32-68.57-58-76.86-98s-25.62-54.25-64-73.09C863.51,511.5,873,537.07,881.25,577S935.09,649.39,966,663.71Z" transform="translate(0.28 0.28)"/><path class="cls-7" d="M966,663.71c-30.89-14.32-68.57-58-76.86-98s-25.62-54.25-64-73.09S755.46,431.51,775.35,409s60.28-4.52,98,35.41,102.71,69,127.57,123.29S1039.07,680.28,966,663.71Z" transform="translate(0.28 0.28)"/><path class="cls-15" d="M815.84,449.23c11.06-15.73,6.59-27.28-3.4-37.84s-25.48-11.05-34,.85-3,22.53,3.4,28.49S805.21,460.71,815.84,449.23Z" transform="translate(0.28 0.28)"/></svg>