<svg xmlns="http://www.w3.org/2000/svg" viewBox="0 0 1200 1200"><defs><style>.cls-1{isolation:isolate;}.cls-2{fill:#add7d7;}.cls-10,.cls-3{fill:#d1d3d4;}.cls-15,.cls-18,.cls-24,.cls-27,.cls-3,.cls-5,.cls-8{mix-blend-mode:multiply;}.cls-31,.cls-4{fill:#fff;}.cls-5,.cls-6{fill:#e6e7e8;}.cls-15,.cls-7,.cls-8{fill:#f7cdb9;}.cls-9{fill:#e7e7e7;}.cls-11{fill:#bcbec0;}.cls-12{fill:#f15d44;}.cls-13{fill:#2d1b10;}.cls-14{fill:#3c2415;}.cls-15{opacity:0.6;}.cls-16{fill:#f1f2f2;}.cls-17{fill:#67bee1;}.cls-18,.cls-32{fill:#a4d8ed;}.cls-19{fill:#fcefcf;}.cls-20{fill:#65c6bb;}.cls-21{fill:#a7a9ac;}.cls-22{fill:#42404d;}.cls-23,.cls-30{fill:#d6d6d6;}.cls-24{fill:#c1e8e4;}.cls-25{fill:#f79e8f;}.cls-26{fill:#dcc2a7;}.cls-27{fill:#b3b3b8;}.cls-28{fill:#231f20;}.cls-29{fill:#a3ddd6;}.cls-30,.cls-31{opacity:0.8;}.cls-33{fill:#85cbe7;}.cls-34{fill:#a9a9a9;}.cls-35{mix-blend-mode:soft-light;}</style></defs><title>profesionales</title><g class="cls-1"><g id="bg"><rect class="cls-2" width="1200" height="1200"/></g><g id="doctors_and_nurses" data-name="doctors and nurses"><g id="nurse"><ellipse class="cls-3" cx="1088.77" cy="1021.36" rx="57.5" ry="7.67"/><rect class="cls-4" x="1062.6" y="889.21" width="25" height="122.33"/><polygon class="cls-5" points="1062.53 889.54 1087.6 889.54 1087.6 901.79 1062.53 891.21 1062.53 889.54"/><path class="cls-6" d="M1087.85,1017.4c0,5.84-26,5.84-26,0s5.82-8.34,13-8.34S1087.85,1011.56,1087.85,1017.4Z"/><rect class="cls-4" x="1090.94" y="889.21" width="25" height="122.33"/><polygon class="cls-5" points="1090.91 889.54 1115.98 889.54 1115.98 901.79 1090.91 891.21 1090.91 889.54"/><path class="cls-6" d="M1116.68,1017.4c0,5.84-26,5.84-26,0s5.82-8.34,13-8.34S1116.68,1011.56,1116.68,1017.4Z"/><rect class="cls-7" x="1077.75" y="751.55" width="23" height="46.39"/><polygon class="cls-8" points="1077.76 753.63 1077.76 755.26 1100.76 763.3 1100.76 753.63 1077.76 753.63"/><path class="cls-4" d="M1126.75,797.07c5.65-17.54-5.65-35.32-24.32-35.32l-13.18,19.5-13.18-19.5c-18.67,0-30,17.77-24.32,35.32l4.81,3.48-4,90.75H1126l-4-90.75Z"/><polygon class="cls-5" points="1055.69 820.42 1066.23 790.83 1056.38 804.93 1055.69 820.42"/><polygon class="cls-5" points="1122.82 820.42 1112.28 790.83 1122.13 804.93 1122.82 820.42"/><circle class="cls-6" cx="1089.25" cy="793.66" r="2.5"/><circle class="cls-6" cx="1089.36" cy="786.51" r="2.5"/><path class="cls-6" d="M1077.07,761.75a38.63,38.63,0,0,0-5.34.37c.23,10.39,2.59,30.62,17.52,19.13Z"/><path class="cls-9" d="M1101.44,761.75a38.63,38.63,0,0,1,5.34.37c-.23,10.39-2.59,30.62-17.52,19.13Z"/><path class="cls-4" d="M1107.57,827.32,1087.19,792l-5.46-1.46-10.4-18a4,4,0,0,0-6.93,4l10.4,18-1.46,5.46,20.38,35.31a8,8,0,0,0,10.93,2.93h0A8,8,0,0,0,1107.57,827.32Z"/><path class="cls-10" d="M1100.65,840.32h0a9,9,0,0,1-7.8-4.5l-20.59-35.67,1.46-5.46L1063.53,777a5,5,0,0,1,4.33-7.5,5,5,0,0,1,4.33,2.5l10.19,17.65,5.46,1.46,20.59,35.67a9,9,0,0,1-7.79,13.5Zm-26.25-40.45,20.18,34.95a7,7,0,0,0,12.12-7l-20.18-34.95-5.46-1.46L1070.46,773a3,3,0,1,0-5.2,3l10.61,18.37Z"/><path class="cls-11" d="M1100.89,831.74a.77.77,0,0,0,.17-.15l2.63-1.52a.8.8,0,0,0-.8-1.39l-2.13,1.23-3.22-5.58,2.13-1.23a.8.8,0,1,0-.8-1.39l-2.13,1.23-3.22-5.58,2.13-1.23a.8.8,0,1,0-.8-1.39l-2.13,1.23-3.22-5.58,2.13-1.23a.8.8,0,0,0-.8-1.39l-2.13,1.23-3.22-5.58,2.13-1.23a.8.8,0,1,0-.8-1.39l-2.13,1.23-3.22-5.58,2.13-1.23a.8.8,0,1,0-.8-1.39l-2.13,1.23-.53-.92a.8.8,0,0,0-1.39.8l.53.92-2.13,1.23a.8.8,0,0,0,.8,1.39l2.13-1.23,3.22,5.58-2.13,1.23a.8.8,0,1,0,.8,1.39l2.13-1.23,3.22,5.58-2.13,1.23a.8.8,0,0,0,.8,1.39l2.13-1.23,3.22,5.58L1089.2,818a.8.8,0,0,0,.8,1.39l2.13-1.23,3.22,5.58-2.13,1.23a.8.8,0,1,0,.8,1.39l2.13-1.23,3.22,5.58-2.13,1.23a.8.8,0,0,0,.8,1.39l2.63-1.52A.77.77,0,0,0,1100.89,831.74Z"/><path class="cls-12" d="M1088.57,807.21l-16.15-28,1-.6-2.9-5a2.8,2.8,0,0,0-4.85,2.8l2.9,5,1-.6,16.15,28a1.6,1.6,0,0,0,2.77-1.6Z"/><path class="cls-4" d="M1120.88,811.87c-4.06-16.82-11.76-25.45-11.84-25.53l12.9-15.84c1.15,1.22,12.09,14.74,17.38,36.69Z"/><path class="cls-7" d="M1143,831.77l-6.21-23.94-13.57,3.45,4.53,17.44-24.39,6.86a7,7,0,1,0,3.94,13.43l30.89-8.77A7,7,0,0,0,1143,831.77Z"/><path class="cls-7" d="M1114.69,838.1a2.49,2.49,0,0,1-1.86-.83c-1-1.08-2.47-2.13-3-2.13h0a2.48,2.48,0,0,1-2.95-1.92,2.52,2.52,0,0,1,1.94-3c3.45-.75,6.81,2.62,7.75,3.68a2.5,2.5,0,0,1-1.86,4.17Z"/><polygon class="cls-8" points="1127.74 828.72 1134.66 826.77 1126.97 825.78 1127.74 828.72"/><path class="cls-7" d="M1091.93,817.31a7,7,0,0,0-8.79-4.56l-30.2,9.57,2.27-12L1041.59,807l-4.76,24.19a7,7,0,0,0,9,8.08l41.57-13.17A7,7,0,0,0,1091.93,817.31Z"/><path class="cls-7" d="M1077.11,820.63a2.5,2.5,0,0,1-2.42-3.14c.48-1.81,1.5-5,3-6.37a2.5,2.5,0,1,1,3.3,3.76,16.28,16.28,0,0,0-1.48,3.88A2.5,2.5,0,0,1,1077.11,820.63Z"/><polygon class="cls-8" points="1052.94 822.32 1045.35 825.04 1053.55 819.07 1052.94 822.32"/><path class="cls-4" d="M1057.63,811.87l-18.44-4.69c5.29-21.95,17.48-36.81,18.63-38l11.59,17.25.06-.06a35.78,35.78,0,0,0-3.23,4.49A71,71,0,0,0,1057.63,811.87Z"/><path class="cls-13" d="M1132.46,770.51c-3.9-1.17-7.71-4.62-11.39-6.35.41.86.92,3.67,1.52,4.4-4-1.55-7.16-4.72-9.62-8.22-6.25-8.91-8.42-20.24-7.65-31.09a21.4,21.4,0,0,1,1.49-7.17,12.86,12.86,0,0,1,3.24-4.43,6.89,6.89,0,0,1,3.05-1.69,6.44,6.44,0,0,1,4.39.87c3.17,1.77,5.14,5.13,6.44,8.52,4,10.37,3,21.88,4.38,32.9C1128.89,762.58,1129.88,767,1132.46,770.51Z"/><path class="cls-7" d="M1089.25,681.65c-11,0-25,14-25,25v26c0,11,14,25,25,25s25-14,25-25v-26C1114.25,695.61,1100.3,681.65,1089.25,681.65Z"/><path class="cls-14" d="M1089.25,674.06c-36.84,0-33.34,47.14-24,54.63,0,0-8.61-36.44,24-36.39s24,36.39,24,36.39C1122.59,721.21,1126.09,674.06,1089.25,674.06Z"/><path class="cls-7" d="M1064.25,717.05a5,5,0,0,0-5,5v5.2a5,5,0,0,0,10,0v-5.2A5,5,0,0,0,1064.25,717.05Z"/><path class="cls-7" d="M1114.25,717.05a5,5,0,0,0-5,5v5.2a5,5,0,0,0,10,0v-5.2A5,5,0,0,0,1114.25,717.05Z"/><path class="cls-14" d="M1108,713.33a19.1,19.1,0,0,1-5.13-6.31,23.15,23.15,0,0,0,14.17,5.3c-6.11-9-3.07-17.07-7.91-22.08-24.55-25.37-43.51,5.79-43.51,5.79s-9.08,21.25-1.33,21c5-.16,11.38-11.37,15.34-19.4a39.15,39.15,0,0,0,15,12.67,14.46,14.46,0,0,1-4.38-7.51A36.91,36.91,0,0,0,1108,713.33Z"/><path class="cls-15" d="M1119.12,720.93a5.24,5.24,0,0,0-4.86-3.88v-4.94a23.86,23.86,0,0,1-11.42-5.09,19.1,19.1,0,0,0,5.13,6.31,36.91,36.91,0,0,1-17.78-10.52,14.46,14.46,0,0,0,4.38,7.51,32.06,32.06,0,0,1-5.31-3.06v14.89a68.92,68.92,0,0,0-5,16l5,1v18.5c11,0,25-14,25-25v-.4a5,5,0,0,0,5-5v-5.2A5,5,0,0,0,1119.12,720.93Z"/><circle class="cls-8" cx="1076.75" cy="723.82" r="3.95" transform="translate(-24.61 38.03) rotate(-2)"/><circle class="cls-14" cx="1076.75" cy="722.82" r="3.95" transform="translate(-24.57 38.02) rotate(-2)"/><circle class="cls-4" cx="1078.1" cy="721.58" r="0.99" transform="translate(-24.52 38.06) rotate(-2)"/><path class="cls-14" d="M1081.56,719.66a5.76,5.76,0,0,0-4.65-3.19,6.2,6.2,0,0,0-5.64,2.61h-.3a2.93,2.93,0,0,1-.84-.22,3.9,3.9,0,0,1-1.14-.77.13.13,0,0,0-.14,0,.12.12,0,0,0-.06.16,4.31,4.31,0,0,0,.23.42,4.06,4.06,0,0,0,.67.85,3.92,3.92,0,0,0,.93.67,3.07,3.07,0,0,0,.38.16l.18,0a.65.65,0,0,0,.64-.35,5.41,5.41,0,0,1,5-2.56,4.8,4.8,0,0,1,3.83,2.6.5.5,0,1,0,.92-.4Z"/><circle class="cls-8" cx="1101.75" cy="723.82" r="3.95" transform="translate(-24.59 38.9) rotate(-2)"/><circle class="cls-14" cx="1101.75" cy="722.82" r="3.95" transform="translate(-24.56 38.9) rotate(-2)"/><circle class="cls-4" cx="1103.1" cy="721.58" r="0.99" transform="translate(-24.51 38.93) rotate(-2)"/><path class="cls-14" d="M1097,719.66a5.76,5.76,0,0,1,4.65-3.19,6.2,6.2,0,0,1,5.64,2.61h.3a2.93,2.93,0,0,0,.84-.22,3.9,3.9,0,0,0,1.14-.77.13.13,0,0,1,.14,0,.12.12,0,0,1,.06.16,4.31,4.31,0,0,1-.23.42,4.07,4.07,0,0,1-.67.85,3.92,3.92,0,0,1-.93.67,3.07,3.07,0,0,1-.37.16l-.18,0a.65.65,0,0,1-.64-.35,5.41,5.41,0,0,0-5-2.56,4.8,4.8,0,0,0-3.83,2.6.5.5,0,1,1-.92-.4Z"/><path class="cls-16" d="M1107,696.42a59.87,59.87,0,0,0-35.53,0q-4-11.47-8.23-22.84a84.13,84.13,0,0,1,52,0Q1111,685,1107,696.42Z"/><polygon class="cls-17" points="1096.75 678.99 1092.14 678.99 1092.14 674.37 1086.37 674.37 1086.37 678.99 1081.75 678.99 1081.75 684.75 1086.37 684.75 1086.37 689.37 1092.14 689.37 1092.14 684.75 1096.75 684.75 1096.75 678.99"/></g><g id="nurse-2" data-name="nurse"><ellipse class="cls-3" cx="941.79" cy="1021.36" rx="57.5" ry="7.67"/><rect class="cls-17" x="914.78" y="889.21" width="25" height="122.33"/><polygon class="cls-18" points="914.71 889.55 939.78 889.55 939.78 901.8 914.71 891.21 914.71 889.55"/><path class="cls-4" d="M939.8,1017.4c0,5.84-26,5.84-26,0s5.82-8.34,13-8.34S939.8,1011.56,939.8,1017.4Z"/><rect class="cls-17" x="943.12" y="889.21" width="25" height="122.33"/><polygon class="cls-18" points="943.09 889.55 968.16 889.55 968.16 901.8 943.09 891.21 943.09 889.55"/><path class="cls-4" d="M968.62,1017.4c0,5.84-26,5.84-26,0s5.82-8.34,13-8.34S968.62,1011.56,968.62,1017.4Z"/><path class="cls-7" d="M882.74,835.1a7.06,7.06,0,0,0,5.6-2.76l16.57-21.54-11.19-8.61-7,9.09-3.64-19-13.87,2.65,6.6,34.46a7.06,7.06,0,0,0,6.93,5.73Z"/><polygon class="cls-8" points="886.72 811.29 887.96 818.86 889.28 807.96 886.72 811.29"/><path class="cls-19" d="M867.19,764.58c3.44-1,7.92,3.92,10.76,11.33.29-3,1-4.91,2.6-4.86,3.36.1,2.18,8,1.88,17.74,0,.74.47,2.19.44,2.85l.84,3.73-13.81,2.94-3.34-8a37.91,37.91,0,0,1-2.68-6.87C861.25,774.17,863.25,765.7,867.19,764.58Z"/><path class="cls-7" d="M971.87,871.1a7,7,0,0,0,5.5-2.67c24.4-30.93,16.08-56.74,11.5-64.74a7.1,7.1,0,0,0-.54-1l0,0a5.83,5.83,0,0,1,.37.65,10.2,10.2,0,0,0-1.42-2,7,7,0,0,0-10.69,8.92c1,1.62,11.91,21.44-10.18,49.44a7,7,0,0,0,5.49,11.34Z"/><rect class="cls-7" x="929.8" y="751.55" width="23" height="46.39"/><polygon class="cls-8" points="929.79 753.63 929.79 755.26 952.79 763.3 952.79 753.63 929.79 753.63"/><path class="cls-17" d="M902.84,797.07c0-17.1,6.87-35.32,26.25-35.32l12.2,26.5,12.2-26.5c19.38,0,26.25,18.22,26.25,35.32l-5,3.48,5,90.67H902.84l5-90.67Z"/><polygon class="cls-18" points="960.32 797.93 976.56 833.37 975.38 812.02 960.32 797.93"/><polygon class="cls-18" points="922.27 797.93 906.03 833.37 907.21 812.02 922.27 797.93"/><polygon class="cls-17" points="973.44 819.09 994.06 804.96 973.73 772.75 949.77 784.53 973.44 819.09"/><polygon class="cls-17" points="905.08 818.86 885.76 802.99 909.67 771.55 931.67 786.5 905.08 818.86"/><circle class="cls-13" cx="968.45" cy="727.99" r="13.67"/><path class="cls-7" d="M941.78,681.65c-11,0-25,14-25,25v26c0,11,14,25,25,25s25-14,25-25v-26C966.78,695.61,952.83,681.65,941.78,681.65Z"/><path class="cls-14" d="M941.78,674.06c-36.84,0-33.34,47.14-24,54.63,0,0-8.61-36.44,24-36.39s24,36.39,24,36.39C975.12,721.21,978.62,674.06,941.78,674.06Z"/><path class="cls-7" d="M916.78,717.05a5,5,0,0,0-5,5v5.2a5,5,0,1,0,10,0v-5.2A5,5,0,0,0,916.78,717.05Z"/><path class="cls-7" d="M966.78,717.05a5,5,0,0,0-5,5v5.2a5,5,0,1,0,10,0v-5.2A5,5,0,0,0,966.78,717.05Z"/><path class="cls-14" d="M960.5,713.33a19.1,19.1,0,0,1-5.13-6.31,23.15,23.15,0,0,0,14.17,5.3c-6.11-9-8.35-15.13-7.91-22.08-27.49-23-43.51,5.79-43.51,5.79s-9.08,21.25-1.33,21c5-.16,11.38-11.37,15.34-19.4a39.15,39.15,0,0,0,15,12.67,14.46,14.46,0,0,1-4.38-7.51A36.91,36.91,0,0,0,960.5,713.33Z"/><path class="cls-15" d="M971.65,720.93a5.24,5.24,0,0,0-4.86-3.88v-4.94A23.86,23.86,0,0,1,955.37,707a19.1,19.1,0,0,0,5.13,6.31,36.91,36.91,0,0,1-17.78-10.52,14.46,14.46,0,0,0,4.38,7.51,32.06,32.06,0,0,1-5.31-3.06v14.89a68.92,68.92,0,0,0-5,16l5,1v18.5c11,0,25-14,25-25v-.4a5,5,0,0,0,5-5v-5.2A5,5,0,0,0,971.65,720.93Z"/><circle class="cls-8" cx="929.28" cy="723.82" r="3.95" transform="translate(-24.7 32.88) rotate(-2)"/><circle class="cls-14" cx="929.28" cy="722.82" r="3.95" transform="translate(-24.66 32.88) rotate(-2)"/><circle class="cls-4" cx="930.62" cy="721.58" r="0.99" transform="translate(-24.61 32.91) rotate(-2)"/><path class="cls-14" d="M934.09,719.66a5.76,5.76,0,0,0-4.65-3.19,6.2,6.2,0,0,0-5.64,2.61h-.3a2.93,2.93,0,0,1-.84-.22,3.9,3.9,0,0,1-1.14-.77.13.13,0,0,0-.14,0,.12.12,0,0,0-.06.16,4.31,4.31,0,0,0,.23.42,4.06,4.06,0,0,0,.67.85,3.92,3.92,0,0,0,.93.67,3.07,3.07,0,0,0,.38.16l.18,0a.65.65,0,0,0,.64-.35,5.41,5.41,0,0,1,5-2.56,4.8,4.8,0,0,1,3.83,2.6.5.5,0,1,0,.92-.4Z"/><circle class="cls-8" cx="954.28" cy="723.82" r="3.95" transform="translate(-24.68 33.75) rotate(-2)"/><circle class="cls-14" cx="954.28" cy="722.82" r="3.95" transform="translate(-24.65 33.75) rotate(-2)"/><circle class="cls-4" cx="955.62" cy="721.58" r="0.99" transform="translate(-24.6 33.78) rotate(-2)"/><path class="cls-14" d="M949.48,719.66a5.76,5.76,0,0,1,4.65-3.19,6.2,6.2,0,0,1,5.64,2.61h.3a2.93,2.93,0,0,0,.84-.22,3.9,3.9,0,0,0,1.14-.77.13.13,0,0,1,.14,0,.12.12,0,0,1,.06.16,4.31,4.31,0,0,1-.23.42,4.06,4.06,0,0,1-.67.85,3.92,3.92,0,0,1-.93.67,3.07,3.07,0,0,1-.37.16l-.18,0a.65.65,0,0,1-.64-.35,5.41,5.41,0,0,0-5-2.56,4.8,4.8,0,0,0-3.83,2.6.5.5,0,1,1-.92-.4Z"/><path class="cls-17" d="M966.23,732.2a41.16,41.16,0,0,1-1.59,7.92A37.41,37.41,0,0,1,959.91,730l7.3-12.7a.5.5,0,0,0-.87-.5l-7.25,12.6H924.46l-7.25-12.6a.5.5,0,0,0-.87.5l7.3,12.7a37.4,37.4,0,0,1-4.73,10.11,41.17,41.17,0,0,1-1.59-7.92,4.94,4.94,0,0,1-.55.06c-.16,0-.3,0-.46,0,.76,6.69,2.14,9.57,2.19,9.69l0,0c3.78,9.24,14.77,15.78,23.21,15.78s19.43-6.54,23.21-15.78l0,0c.06-.12,1.44-3,2.19-9.69-.15,0-.3,0-.46,0A4.94,4.94,0,0,1,966.23,732.2Z"/><path class="cls-17" d="M969,687.54s-6.11-16.12-27.13-16.1-27.13,16.1-27.13,16.1a45.18,45.18,0,0,0-3.08,23.5c1.8-1,5.24-2.35,8.5-3.68a58.82,58.82,0,0,1,21.7-4.68,67.71,67.71,0,0,1,21.43,3.93c3.39,1.16,6.73,2.36,8.7,3.27A44.46,44.46,0,0,0,969,687.54Z"/></g><g id="doctor"><ellipse class="cls-3" cx="749.86" cy="1021.36" rx="57.5" ry="7.67"/><rect class="cls-4" x="720.35" y="897.21" width="25" height="114.33"/><polygon class="cls-5" points="720.28 903.54 745.35 903.54 745.35 915.79 720.28 905.21 720.28 903.54"/><path class="cls-6" d="M747.86,1016.09c0,7.86-35,7.86-35,0s7.83-11.22,17.5-11.22S747.86,1008.23,747.86,1016.09Z"/><rect class="cls-4" x="752.69" y="897.21" width="25" height="114.33"/><polygon class="cls-5" points="752.65 903.54 777.72 903.54 777.72 915.79 752.65 905.21 752.65 903.54"/><path class="cls-6" d="M785.69,1016.09c0,7.86-35,7.86-35,0s7.83-11.22,17.5-11.22S785.69,1008.23,785.69,1016.09Z"/><rect class="cls-7" x="737.35" y="751.55" width="23" height="43.39"/><polygon class="cls-8" points="737.36 753.63 737.36 755.26 760.36 763.3 760.36 753.63 737.36 753.63"/><path class="cls-4" d="M760.36,761.75s1,16.5-11.5,16.5-11.5-16.5-11.5-16.5c-19.38,0-35.95,18.22-35.95,35.32l9,3.48v95.67h76.91V800.55l9-3.48C796.31,780,779.74,761.75,760.36,761.75Z"/><path class="cls-4" d="M763.37,761.75,748.85,811.6l-14.52-49.85c-17.49,4.27-27.48,20-27.48,38.85v104h84v-104C790.85,781.79,780.87,766,763.37,761.75Z"/><polygon class="cls-5" points="773.41 807.25 780.35 829.67 790.85 825.21 790.86 819.93 773.41 807.25"/><polygon class="cls-5" points="724.3 807.25 717.36 829.67 706.86 825.21 706.85 819.93 724.3 807.25"/><polygon class="cls-9" points="766.08 780.41 775.52 775.08 763.38 761.75 749.35 809.6 748.36 809.6 734.34 761.75 722.19 775.08 731.63 780.41 726.36 785.12 747.86 810.02 747.86 904.6 749.86 904.6 749.86 810.02 771.36 785.12 766.08 780.41"/><rect class="cls-6" x="711.16" y="865.7" width="29.7" height="3.09"/><rect class="cls-4" x="711.16" y="868.79" width="29.7" height="27.58"/><rect class="cls-6" x="756.85" y="865.7" width="29.7" height="3.09" transform="translate(1543.39 1734.49) rotate(180)"/><rect class="cls-4" x="756.85" y="868.79" width="29.7" height="27.58"/><path class="cls-7" d="M725.94,883.43a2.5,2.5,0,0,1-2.25-1.24,17.46,17.46,0,0,0-7.09-6.18,2.5,2.5,0,0,1,2-4.59,22.29,22.29,0,0,1,9.42,8.25,2.5,2.5,0,0,1-2.07,3.76Z"/><path class="cls-7" d="M718.86,897a7.5,7.5,0,0,1-6.68-4.08c-32.39-63.19-8.77-95.6-7.75-96.95a7.5,7.5,0,0,1,12,9c-.88,1.23-18.55,27.16,9.09,81.11A7.5,7.5,0,0,1,718.86,897Z"/><polygon class="cls-4" points="716.5 825.33 692.33 812.99 704.28 784.38 731 791.18 716.5 825.33"/><path class="cls-7" d="M842.14,771.06a7.5,7.5,0,0,0-10.23-2.78l-19.48,12.43-6.16,33-7.43-9.66-11.89,9.15,17.61,22.89A7.5,7.5,0,0,0,817.86,833l6.89-42.59,14.6-9.07A7.5,7.5,0,0,0,842.14,771.06Z"/><rect class="cls-4" x="819.94" y="737.54" width="16.67" height="7.75"/><rect class="cls-4" x="815.77" y="745.29" width="25" height="30.09" rx="5" ry="5"/><rect class="cls-6" x="822.09" y="737.54" width="1" height="7.56"/><rect class="cls-6" x="824.93" y="737.54" width="1" height="7.56"/><rect class="cls-6" x="827.77" y="737.54" width="1" height="7.56"/><rect class="cls-6" x="830.62" y="737.54" width="1" height="7.56"/><rect class="cls-6" x="833.46" y="737.54" width="1" height="7.56"/><polygon class="cls-20" points="835.39 756.28 831.33 756.28 831.33 752.22 825.22 752.22 825.22 756.28 821.15 756.28 821.15 762.39 825.22 762.39 825.22 766.46 831.33 766.46 831.33 762.39 835.39 762.39 835.39 756.28"/><polygon class="cls-8" points="803.33 809.92 806.26 813.75 806.26 825.21 803.33 809.92"/><path class="cls-7" d="M815,783a2.5,2.5,0,0,1-2.13-3.8,95.42,95.42,0,0,1,6.28-9,2.5,2.5,0,1,1,3.88,3.15,92,92,0,0,0-5.89,8.47A2.5,2.5,0,0,1,815,783Z"/><polygon class="cls-4" points="781.21 825.33 805.38 812.99 793.43 784.38 766.71 791.18 781.21 825.33"/><path class="cls-21" d="M771.43,787.58c0-.92-1-20.79-11.08-25.86V764c8.18,5.34,9.07,23.43,9.08,23.64l0,1,2-.08Z"/><path class="cls-21" d="M737.35,763.79v-2.31c-16.46,8.34-9.55,51.36-9.23,53.24l.16,1,2-.33-.16-1C730,814,723.37,772.7,737.35,763.79Z"/><path class="cls-21" d="M777.29,818.9a13.15,13.15,0,0,1-5.14-1.69c5.43-4.54,8.55-12.45,8.17-19.42s-4.16-11.17-9.89-11.17-9.53,4.28-9.89,11.17,2.74,14.88,8.17,19.42a13.16,13.16,0,0,1-5.14,1.69,1,1,0,0,0,.11,2h.11a15.13,15.13,0,0,0,6.65-2.41,15.13,15.13,0,0,0,6.65,2.41h.11a1,1,0,0,0,.11-2Zm-14.76-21c.15-2.79,1.22-9.28,7.9-9.28s7.75,6.49,7.9,9.28c.35,6.61-2.67,14.14-7.9,18.17C765.2,812,762.18,804.51,762.53,797.9Z"/><path class="cls-22" d="M762.11,821.47a17,17,0,0,1-1.76-.09,1.5,1.5,0,0,1,.31-3,13.65,13.65,0,0,0,2.85,0,1.5,1.5,0,0,1,.32,3A16.13,16.13,0,0,1,762.11,821.47Z"/><path class="cls-22" d="M778.74,821.47a16.13,16.13,0,0,1-1.72-.09,1.5,1.5,0,1,1,.32-3,13.66,13.66,0,0,0,2.85,0,1.5,1.5,0,0,1,.31,3A17,17,0,0,1,778.74,821.47Z"/><circle class="cls-6" cx="729.1" cy="814.83" r="6"/><path class="cls-21" d="M729.1,808.83a6,6,0,1,1-6,6,6,6,0,0,1,6-6m0-2a8,8,0,1,0,8,8,8,8,0,0,0-8-8Z"/><circle class="cls-21" cx="729.1" cy="814.83" r="4.28"/><path class="cls-7" d="M748.85,681a25,25,0,0,0-25,25v26a25,25,0,1,0,50,0V706A25,25,0,0,0,748.85,681Z"/><path class="cls-14" d="M776,687.54s-6.11-16.12-27.13-16.1-27.13,16.1-27.13,16.1c-4.71,11.09-3.39,26.33,2.16,40.53.1.24.21.48.32.71a28.4,28.4,0,0,1-.49-3.46c.07-4.55,0-13,.58-12.51,4.24-5.64,5.24-15.48,5.24-15.48a129.17,129.17,0,0,0,19.32,2.35,129.17,129.17,0,0,0,19.32-2.35s1,9.84,5.24,15.48c.58-.52.51,8,.58,12.51a28.42,28.42,0,0,1-.49,3.46c.11-.24.22-.47.32-.71C779.38,713.87,780.69,698.63,776,687.54Z"/><circle class="cls-8" cx="737.35" cy="719.54" r="3.95" transform="translate(-24.66 26.17) rotate(-2)"/><circle class="cls-14" cx="737.35" cy="718.54" r="3.95" transform="translate(-24.62 26.17) rotate(-2)"/><circle class="cls-4" cx="738.7" cy="717.31" r="0.99" transform="translate(-24.58 26.21) rotate(-2)"/><circle class="cls-8" cx="760.35" cy="719.54" r="3.95" transform="translate(-24.64 26.97) rotate(-2)"/><circle class="cls-14" cx="760.35" cy="718.54" r="3.95" transform="translate(-24.61 26.97) rotate(-2)"/><circle class="cls-4" cx="761.7" cy="717.31" r="0.99" transform="translate(-24.57 27.01) rotate(-2)"/><path class="cls-7" d="M723.85,716.42a5,5,0,0,0-5,5v5.2a5,5,0,1,0,10,0v-5.2A5,5,0,0,0,723.85,716.42Z"/><path class="cls-7" d="M773.85,716.42a5,5,0,0,0-5,5v5.2a5,5,0,1,0,10,0v-5.2A5,5,0,0,0,773.85,716.42Z"/><path class="cls-15" d="M777.08,717.63a5,5,0,0,0-3.21-1.21h0v-.63c-.07-1.9-.2-3.2-.44-3-4.24-5.64-5.24-15.48-5.24-15.48a129.18,129.18,0,0,1-19.32,2.35v16.85c-3.65,7.76-6,19-6,19h6V757a25,25,0,0,0,25-25v-.4a5,5,0,0,0,5-5v-5.2A5,5,0,0,0,777.08,717.63Z"/><path class="cls-22" d="M773.67,715.05l-3.36.64a5,5,0,0,0-5-4.54h-10a5,5,0,0,0-5,4.77h-3a5,5,0,0,0-5-4.77h-10a5,5,0,0,0-5,4.54l-3.36-.64a1,1,0,0,0-.37,2l4,.75.74,4.48a5,5,0,0,0,5,4.91h8a5,5,0,0,0,5-4.91l.72-4.32h3.57l.71,4.32a5,5,0,0,0,5,4.91h8a5,5,0,0,0,5-4.91l.75-4.48L774,717a1,1,0,0,0-.37-2ZM744.37,722v.16a3,3,0,0,1-3,3h-8a3,3,0,0,1-3-3l-.85-5.17a1,1,0,0,0-.07-.44l-.08-.47a3,3,0,0,1,3-2.92h10a3,3,0,0,1,3,2.92Zm23,0v.16a3,3,0,0,1-3,3h-8a3,3,0,0,1-3-3l-1-6.08a3,3,0,0,1,3-2.92h10a3,3,0,0,1,3,2.92l-.08.47a1,1,0,0,0-.07.43Z"/></g><g id="nurse-3" data-name="nurse"><ellipse class="cls-3" cx="586.01" cy="1021.36" rx="57.5" ry="7.67"/><polygon class="cls-7" points="579.67 1013.95 567.67 1013.95 563.67 911.8 583.67 911.8 579.67 1013.95"/><polygon class="cls-8" points="563.67 914.3 583.27 922.03 583.67 911.8 563.67 911.8 563.67 914.3"/><polygon class="cls-4" points="580.18 1001.36 567.16 1001.36 567.66 1013.69 579.68 1013.69 580.18 1001.36"/><path class="cls-6" d="M582.84,1017.25c0,5.39-24,5.39-24,0s5.37-7.69,12-7.69S582.84,1011.86,582.84,1017.25Z"/><polygon class="cls-7" points="602.67 1010.95 590.67 1010.95 586.67 911.8 606.67 911.8 602.67 1010.95"/><polygon class="cls-8" points="586.67 914.3 606.27 922.03 606.67 911.8 586.67 911.8 586.67 914.3"/><polygon class="cls-4" points="603.18 1001.36 590.16 1001.36 590.66 1013.69 602.68 1013.69 603.18 1001.36"/><path class="cls-6" d="M610.67,1017.25c0,5.39-24,5.39-24,0s5.37-7.69,12-7.69S610.67,1011.86,610.67,1017.25Z"/><rect class="cls-7" x="573.75" y="751.55" width="23" height="46.39"/><polygon class="cls-8" points="573.75 753.63 573.75 755.26 596.75 763.3 596.75 753.63 573.75 753.63"/><path class="cls-4" d="M622.75,797.07c5.65-17.54-5.65-35.32-24.32-35.32l-13.18,19.5-13.18-19.5c-18.67,0-30,17.77-24.32,35.32l4.81,3.48s8.61,9.81-3,56.75H621c-11.64-46.94-3-56.75-3-56.75Z"/><path class="cls-4" d="M612.76,843.3h-55s-13.54,11.73-.3,70.36a1.07,1.07,0,0,0,1,.64h53.61a1.07,1.07,0,0,0,1-.64C626.29,855,612.76,843.3,612.76,843.3Z"/><path class="cls-5" d="M552.49,857.3l66.37,11.6a80.91,80.91,0,0,0-.86-11.6Z"/><circle class="cls-6" cx="585.25" cy="793.66" r="2.5"/><circle class="cls-6" cx="585.35" cy="786.51" r="2.5"/><path class="cls-6" d="M573.07,761.75a38.63,38.63,0,0,0-5.34.37c.23,10.39,2.59,30.62,17.52,19.13Z"/><path class="cls-6" d="M597.43,761.75a38.63,38.63,0,0,1,5.34.37c-.23,10.39-2.59,30.62-17.52,19.13Z"/><polygon class="cls-10" points="575.98 795.36 574.94 795.96 566.92 782.08 566.27 778.55 575.98 795.36"/><polygon class="cls-23" points="598.23 821.6 586.53 828.35 570.45 800.5 574.61 794.2 582.14 793.75 598.23 821.6"/><polygon class="cls-12" points="586.08 824.19 572.26 800.25 575.46 795.66 581.03 795.18 594.85 819.13 586.08 824.19"/><rect class="cls-10" x="593.18" y="824.21" width="3.37" height="10.15" transform="translate(-334.95 408.54) rotate(-30)"/><rect class="cls-22" x="584.65" y="817.15" width="10.12" height="6.4" transform="translate(-331.17 404.76) rotate(-30)"/><rect class="cls-10" x="591.35" y="832.54" width="13.5" height="4.68" transform="translate(-337.31 410.9) rotate(-30)"/><rect class="cls-10" x="584.42" y="820.54" width="13.5" height="4.68" transform="translate(-332.24 405.83) rotate(-30)"/><rect class="cls-21" x="581.42" y="795.14" width="1.69" height="1" transform="translate(-319.82 397.76) rotate(-30)"/><rect class="cls-21" x="591.13" y="811.95" width="1.69" height="1" transform="matrix(0.87, -0.5, 0.5, 0.87, -326.93, 404.86)"/><rect class="cls-21" x="583.85" y="799.34" width="1.69" height="1" transform="matrix(0.87, -0.5, 0.5, 0.87, -321.6, 399.53)"/><rect class="cls-21" x="586.27" y="803.54" width="1.69" height="1" transform="matrix(0.87, -0.5, 0.5, 0.87, -323.38, 401.31)"/><rect class="cls-21" x="588.7" y="807.75" width="1.69" height="1" transform="matrix(0.87, -0.5, 0.5, 0.87, -325.15, 403.08)"/><path class="cls-7" d="M639,831.77l-6.21-23.94-13.57,3.45,4.53,17.44-24.39,6.86A7,7,0,1,0,603.28,849l30.89-8.77A7,7,0,0,0,639,831.77Z"/><path class="cls-7" d="M610.68,838.1a2.49,2.49,0,0,1-1.86-.83c-1-1.08-2.47-2.13-3-2.13h0a2.48,2.48,0,0,1-2.95-1.92,2.52,2.52,0,0,1,1.94-3c3.45-.75,6.81,2.62,7.75,3.68a2.5,2.5,0,0,1-1.86,4.17Z"/><polygon class="cls-8" points="623.73 828.72 630.65 826.77 622.96 825.78 623.73 828.72"/><path class="cls-5" d="M616.15,804.76v0c-1,3.7-1.84,10.27-.82,21.34l-6.67-36.84Z"/><path class="cls-4" d="M616.87,811.87C612.82,795,605.11,786.42,605,786.34l12.9-15.84c1.15,1.22,12.09,14.74,17.38,36.69Z"/><path class="cls-5" d="M554.34,804.76v0c1,3.7,1.84,10.27.82,21.34l6.67-36.84Z"/><path class="cls-7" d="M587.92,817.31a7,7,0,0,0-8.79-4.56l-30.2,9.57,2.27-12L537.58,807l-4.76,24.19a7,7,0,0,0,9,8.08l41.57-13.17A7,7,0,0,0,587.92,817.31Z"/><path class="cls-7" d="M573.1,820.63a2.5,2.5,0,0,1-2.42-3.14c.48-1.81,1.5-5,3-6.37a2.5,2.5,0,0,1,3.3,3.76,16.16,16.16,0,0,0-1.48,3.88A2.5,2.5,0,0,1,573.1,820.63Z"/><polygon class="cls-8" points="548.93 822.32 541.34 825.04 549.64 818.57 548.93 822.32"/><path class="cls-4" d="M553.62,811.87l-18.44-4.69c5.29-21.95,17.48-36.81,18.63-38l11.59,17.25.06-.06C565.38,786.42,557.68,795,553.62,811.87Z"/><circle class="cls-13" cx="611.91" cy="727.99" r="13.67"/><path class="cls-7" d="M585.25,681.65c-11,0-25,14-25,25v26c0,11,14,25,25,25s25-14,25-25v-26C610.25,695.61,596.29,681.65,585.25,681.65Z"/><path class="cls-14" d="M585.25,674.06c-36.84,0-33.34,47.14-24,54.63,0,0-8.61-36.44,24-36.39s24,36.39,24,36.39C618.59,721.21,622.09,674.06,585.25,674.06Z"/><path class="cls-7" d="M560.25,717.05a5,5,0,0,0-5,5v5.2a5,5,0,1,0,10,0v-5.2A5,5,0,0,0,560.25,717.05Z"/><path class="cls-7" d="M610.25,717.05a5,5,0,0,0-5,5v5.2a5,5,0,1,0,10,0v-5.2A5,5,0,0,0,610.25,717.05Z"/><path class="cls-14" d="M604,713.33a19.1,19.1,0,0,1-5.13-6.31,23.15,23.15,0,0,0,14.17,5.3c-6.11-9-3.51-24.49-9.63-27.8C571,667,561.57,696,561.57,696s-9.08,21.25-1.33,21c5-.16,11.38-11.37,15.34-19.4a39.15,39.15,0,0,0,15,12.67,14.46,14.46,0,0,1-4.38-7.51A36.91,36.91,0,0,0,604,713.33Z"/><path class="cls-15" d="M615.11,720.93a5.24,5.24,0,0,0-4.86-3.88v-4.94A23.86,23.86,0,0,1,598.83,707a19.1,19.1,0,0,0,5.13,6.31,36.91,36.91,0,0,1-17.78-10.52,14.46,14.46,0,0,0,4.38,7.51,32.06,32.06,0,0,1-5.31-3.06v14.89a68.92,68.92,0,0,0-5,16l5,1v18.5c11,0,25-14,25-25v-.4a5,5,0,0,0,5-5v-5.2A5,5,0,0,0,615.11,720.93Z"/><circle class="cls-8" cx="572.75" cy="723.82" r="3.95" transform="translate(-24.92 20.43) rotate(-2)"/><circle class="cls-14" cx="572.75" cy="722.82" r="3.95" transform="translate(-24.88 20.43) rotate(-2)"/><circle class="cls-4" cx="574.09" cy="721.58" r="0.99" transform="translate(-24.83 20.47) rotate(-2)"/><path class="cls-14" d="M577.55,719.66a5.76,5.76,0,0,0-4.65-3.19,6.2,6.2,0,0,0-5.64,2.61H567a2.93,2.93,0,0,1-.84-.22,3.9,3.9,0,0,1-1.14-.77.13.13,0,0,0-.14,0,.12.12,0,0,0-.06.16,4.31,4.31,0,0,0,.23.42,4.06,4.06,0,0,0,.67.85,3.92,3.92,0,0,0,.93.67,3.07,3.07,0,0,0,.38.16l.18,0a.65.65,0,0,0,.64-.35,5.41,5.41,0,0,1,5-2.56,4.8,4.8,0,0,1,3.83,2.6.5.5,0,1,0,.92-.4Z"/><circle class="cls-8" cx="597.75" cy="723.82" r="3.95" transform="translate(-24.9 21.31) rotate(-2)"/><circle class="cls-14" cx="597.75" cy="722.82" r="3.95" transform="translate(-24.87 21.3) rotate(-2)"/><circle class="cls-4" cx="599.09" cy="721.58" r="0.99" transform="translate(-24.81 21.34) rotate(-2)"/><path class="cls-14" d="M592.94,719.66a5.76,5.76,0,0,1,4.65-3.19,6.2,6.2,0,0,1,5.64,2.61h.3a2.93,2.93,0,0,0,.84-.22,3.9,3.9,0,0,0,1.14-.77.13.13,0,0,1,.14,0,.12.12,0,0,1,.06.16,4.31,4.31,0,0,1-.23.42,4.06,4.06,0,0,1-.67.85,3.92,3.92,0,0,1-.93.67,3.07,3.07,0,0,1-.37.16l-.18,0a.65.65,0,0,1-.64-.35,5.41,5.41,0,0,0-5-2.56,4.8,4.8,0,0,0-3.83,2.6.5.5,0,1,1-.92-.4Z"/><path class="cls-16" d="M603,696.42a59.87,59.87,0,0,0-35.53,0q-4-11.47-8.23-22.84a84.13,84.13,0,0,1,52,0Q607,685,603,696.42Z"/><polygon class="cls-20" points="592.75 678.99 588.13 678.99 588.13 674.37 582.36 674.37 582.36 678.99 577.75 678.99 577.75 684.75 582.36 684.75 582.36 689.37 588.13 689.37 588.13 684.75 592.75 684.75 592.75 678.99"/></g><g id="doctor-2" data-name="doctor"><ellipse class="cls-3" cx="404.44" cy="1021.36" rx="57.5" ry="7.67"/><rect class="cls-20" x="375.75" y="888.4" width="25" height="122.33"/><polygon class="cls-24" points="375.68 893.73 400.75 893.73 400.75 905.98 375.68 895.4 375.68 893.73"/><path class="cls-4" d="M403.26,1015.27c0,7.86-35,7.86-35,0s7.83-11.22,17.5-11.22S403.26,1007.41,403.26,1015.27Z"/><rect class="cls-20" x="408.09" y="888.4" width="25" height="122.33"/><polygon class="cls-24" points="408.05 893.73 433.12 893.73 433.12 905.98 408.05 895.4 408.05 893.73"/><path class="cls-4" d="M441.09,1015.27c0,7.86-35,7.86-35,0s7.83-11.22,17.5-11.22S441.09,1007.41,441.09,1015.27Z"/><rect class="cls-7" x="392.75" y="750.73" width="23" height="43.39"/><polygon class="cls-8" points="392.75 752.82 392.75 754.45 415.75 762.49 415.75 752.82 392.75 752.82"/><path class="cls-7" d="M465.89,838.23a7.5,7.5,0,0,1-5.94-2.93l-17.61-22.89,11.89-9.15,7.43,9.66,3.87-20.22,14.73,2.82-7,36.61a7.5,7.5,0,0,1-7.37,6.09Z"/><path class="cls-19" d="M476.44,762.52c3.76.5,6.06,7.17,5.69,15.59,1.58-2.84,3-4.38,4.59-3.64,3.23,1.52-1.26,8.7-5.68,18.09-.34.71-.47,2.34-.78,3l-.76,4-14.7-3,.14-9.23a40.28,40.28,0,0,1,.3-7.83C466.6,769.35,472.13,761.94,476.44,762.52Z"/><polygon class="cls-8" points="458.72 809.11 461.66 812.93 461.66 824.4 458.72 809.11"/><path class="cls-7" d="M342.62,838.23a7.5,7.5,0,0,0,5.94-2.93l17.61-22.89-11.89-9.15-7.43,9.66L343,792.71l-14.73,2.82,7,36.61a7.5,7.5,0,0,0,7.37,6.09Z"/><path class="cls-19" d="M332.07,762.52c-3.76.5-6.06,7.17-5.69,15.59-1.58-2.84-3-4.38-4.59-3.64-3.23,1.52,1.26,8.7,5.68,18.09.34.71.47,2.34.78,3l.76,4,14.7-3-.14-9.23a40.28,40.28,0,0,0-.3-7.83C341.92,769.35,336.38,761.94,332.07,762.52Z"/><polygon class="cls-8" points="349.79 809.11 346.85 812.93 346.85 824.4 349.79 809.11"/><path class="cls-20" d="M416.46,760.94l-12.2,26.5-12.2-26.5c-19.38,0-35.25,18.22-35.25,35.32l9,3.48V895.4h76.91V799.73l9-3.48C451.71,779.16,435.84,760.94,416.46,760.94Z"/><polygon class="cls-24" points="383.25 796.54 365.8 834.98 365.8 809.56 383.25 796.54"/><polygon class="cls-20" points="365.8 821.73 345.72 802.18 363.11 777.18 390.63 785.68 365.8 821.73"/><polygon class="cls-24" points="425.26 796.54 442.71 834.98 442.71 809.56 425.26 796.54"/><polygon class="cls-20" points="442.71 821.73 462.79 801.18 444.4 775.78 417.89 785.68 442.71 821.73"/><path class="cls-21" d="M426.83,785.58c0-.92-1-20.79-11.08-25.86V762c8.18,5.34,9.07,23.43,9.08,23.64l0,1,2-.09Z"/><path class="cls-21" d="M392.75,761.8v-2.31c-16.46,8.34-9.55,51.36-9.23,53.24l.16,1,2-.33-.16-1C385.42,812,378.78,770.71,392.75,761.8Z"/><path class="cls-21" d="M432.7,816.91a13.15,13.15,0,0,1-5.14-1.69c5.43-4.54,8.55-12.44,8.17-19.42s-4.16-11.17-9.89-11.17-9.53,4.28-9.9,11.17,2.74,14.87,8.17,19.42a13.16,13.16,0,0,1-5.14,1.69,1,1,0,0,0,.11,2h.11a15.13,15.13,0,0,0,6.65-2.41,15.13,15.13,0,0,0,6.65,2.41h.11a1,1,0,0,0,.11-2Zm-14.76-21c.15-2.79,1.22-9.28,7.9-9.28s7.75,6.49,7.9,9.28c.35,6.61-2.67,14.14-7.9,18.17C420.6,810,417.58,802.52,417.93,795.9Z"/><path class="cls-22" d="M417.51,819.48a17.11,17.11,0,0,1-1.76-.09,1.5,1.5,0,1,1,.31-3,13.53,13.53,0,0,0,2.85,0,1.5,1.5,0,0,1,.32,3A16.3,16.3,0,0,1,417.51,819.48Z"/><path class="cls-22" d="M434.15,819.48a16.32,16.32,0,0,1-1.72-.09,1.5,1.5,0,0,1,.32-3,13.54,13.54,0,0,0,2.85,0,1.5,1.5,0,1,1,.31,3A17.1,17.1,0,0,1,434.15,819.48Z"/><circle class="cls-6" cx="384.51" cy="812.84" r="6"/><path class="cls-21" d="M384.51,806.84a6,6,0,1,1-6,6,6,6,0,0,1,6-6m0-2a8,8,0,1,0,8,8,8,8,0,0,0-8-8Z"/><circle class="cls-21" cx="384.51" cy="812.84" r="4.28"/><path class="cls-7" d="M404.25,680.21a25,25,0,0,0-25,25v26a25,25,0,1,0,50,0v-26A25,25,0,0,0,404.25,680.21Z"/><path class="cls-14" d="M431.38,686.72s-6.11-16.12-27.13-16.1-27.13,16.1-27.13,16.1c-4.71,11.09-3.39,26.33,2.16,40.53.1.24.21.48.32.72a28.43,28.43,0,0,1-.49-3.46c.07-4.55,0-13,.58-12.51,4.24-5.64,5.24-15.48,5.24-15.48a129.19,129.19,0,0,0,19.32,2.35,129.19,129.19,0,0,0,19.32-2.35s1,9.84,5.24,15.48c.58-.52.51,8,.58,12.51a28.39,28.39,0,0,1-.49,3.46c.11-.24.22-.47.32-.72C434.77,713.06,436.09,697.82,431.38,686.72Z"/><circle class="cls-8" cx="392.75" cy="718.73" r="3.95" transform="translate(-24.85 14.15) rotate(-2)"/><circle class="cls-14" cx="392.75" cy="717.73" r="3.95" transform="translate(-24.81 14.15) rotate(-2)"/><circle class="cls-4" cx="394.09" cy="716.5" r="0.99" transform="translate(-24.76 14.19) rotate(-2)"/><circle class="cls-8" cx="415.75" cy="718.73" r="3.95" transform="translate(-24.83 14.95) rotate(-2)"/><circle class="cls-14" cx="415.75" cy="717.73" r="3.95" transform="translate(-24.8 14.95) rotate(-2)"/><circle class="cls-4" cx="417.09" cy="716.5" r="0.99" transform="translate(-24.75 14.99) rotate(-2)"/><path class="cls-7" d="M379.25,715.61a5,5,0,0,0-5,5v5.2a5,5,0,1,0,10,0v-5.2A5,5,0,0,0,379.25,715.61Z"/><path class="cls-7" d="M429.25,715.61a5,5,0,0,0-5,5v5.2a5,5,0,1,0,10,0v-5.2A5,5,0,0,0,429.25,715.61Z"/><path class="cls-15" d="M432.48,716.82a5,5,0,0,0-3.21-1.21h0V715c-.07-1.9-.2-3.2-.44-3-4.24-5.64-5.24-15.48-5.24-15.48a129.19,129.19,0,0,1-19.32,2.35v16.85c-3.65,7.76-6,19-6,19h6v21.5a25,25,0,0,0,25-25v-.4a5,5,0,0,0,5-5v-5.2A5,5,0,0,0,432.48,716.82Z"/><path class="cls-4" d="M428.7,730.75a41.17,41.17,0,0,1-1.59,7.92,37.4,37.4,0,0,1-4.73-10.11l7.3-12.7a.5.5,0,0,0-.87-.5L421.57,728H386.93l-7.25-12.6a.5.5,0,0,0-.87.5l7.3,12.7a37.41,37.41,0,0,1-4.73,10.11,41.16,41.16,0,0,1-1.59-7.92,4.92,4.92,0,0,1-.55.06c-.16,0-.3,0-.46,0,.76,6.69,2.14,9.57,2.19,9.69l0,0a25,25,0,0,0,46.44,0l0,0c.06-.12,1.44-3,2.19-9.69-.15,0-.3,0-.46,0A4.92,4.92,0,0,1,428.7,730.75Z"/><path class="cls-20" d="M431.38,686.72s-6.11-16.12-27.13-16.1-27.13,16.1-27.13,16.1c-2.84,6.7-3.48,14.92-2.32,23.5a75.39,75.39,0,0,1,7.75-3.68,58.82,58.82,0,0,1,21.7-4.68,67.71,67.71,0,0,1,21.43,3.93,86.78,86.78,0,0,1,8.17,3.27C434.8,700.9,434.09,693.12,431.38,686.72Z"/></g><g id="doctor-3" data-name="doctor"><ellipse class="cls-3" cx="1088.77" cy="524.93" rx="57.5" ry="7.67"/><polygon class="cls-7" points="1084.93 517.52 1072.93 517.52 1069.93 431.36 1087.93 431.36 1084.93 517.52"/><polygon class="cls-8" points="1087.5 443.79 1087.81 434.91 1070.05 434.91 1070.09 435.91 1087.5 443.79"/><path class="cls-22" d="M1088.1,520.82c0,5.39-24,5.39-24,0s5.37-7.69,12-7.69S1088.1,515.43,1088.1,520.82Z"/><polygon class="cls-7" points="1105.93 517.52 1093.93 517.52 1090.93 431.36 1108.93 431.36 1105.93 517.52"/><polygon class="cls-7" points="1105.93 517.52 1093.93 517.52 1090.93 431.36 1108.93 431.36 1105.93 517.52"/><polygon class="cls-8" points="1108.5 443.79 1108.81 434.91 1091.05 434.91 1091.05 435.91 1108.5 443.79"/><path class="cls-22" d="M1113.93,520.82c0,5.39-24,5.39-24,0s5.37-7.69,12-7.69S1113.93,515.43,1113.93,520.82Z"/><ellipse class="cls-25" cx="1088.77" cy="304.14" rx="40.67" ry="35.29"/><rect class="cls-7" x="1077.52" y="255.11" width="23" height="22.39"/><polygon class="cls-8" points="1077.52 257.2 1077.52 258.83 1100.52 266.87 1100.52 257.2 1077.52 257.2"/><polygon class="cls-22" points="1094.49 281.22 1092.31 285.4 1085.66 285.4 1083.54 281.22 1089.02 276.74 1094.49 281.22"/><polygon class="cls-12" points="1077.52 266.11 1089.02 276.74 1082.02 284.11 1071.79 269.19 1077.52 266.11"/><polygon class="cls-12" points="1100.53 266.11 1089.02 276.74 1096.02 284.11 1106.25 269.19 1100.53 266.11"/><polygon class="cls-22" points="1092.31 286.4 1095.02 325.57 1089.02 332.2 1083.02 325.57 1085.66 286.4 1092.31 286.4"/><path class="cls-4" d="M1129.93,300.64a36.37,36.37,0,0,0-27.71-35.32l-13.2,53.5-13.2-53.5a36.37,36.37,0,0,0-27.71,35.32l-3.54,123.14h88.91Z"/><polygon class="cls-22" points="1046.56 423.78 1046.02 435.91 1132.02 435.91 1131.47 423.78 1046.56 423.78"/><polygon class="cls-6" points="1105.25 283.4 1114.69 278.07 1102.27 264.74 1089.57 316.59 1088.47 316.59 1075.78 264.74 1063.35 278.07 1072.79 283.4 1067.52 288.11 1088.02 317.39 1088.02 423.78 1090.02 423.78 1090.02 317.39 1110.52 288.11 1105.25 283.4"/><rect class="cls-7" x="1061" y="371.78" width="12.53" height="16.91" transform="translate(7.42 780.69) rotate(-40.31)"/><rect class="cls-6" x="1051.32" y="378.69" width="29.7" height="3.09"/><rect class="cls-4" x="1051.32" y="381.78" width="29.7" height="27.58"/><path class="cls-5" d="M1068.67,293.69c-26.12,20.53-10.13,53,7.42,72.88l-4.65,3.79C1054.93,348.53,1040,313.17,1068.67,293.69Z"/><path class="cls-4" d="M1058.26,381.09c-19.31-23.71-25.4-46.25-22-67,4-24.55,24.34-41.05,25.14-41.56l7.23,21.17.07,0a36.88,36.88,0,0,0-14.75,23.94c-2.27,14.77,4.4,31.88,19.84,50.84Z"/><rect class="cls-7" x="1104.5" y="371.78" width="12.53" height="16.91" transform="translate(1711.83 1388.74) rotate(-139.69)"/><rect class="cls-6" x="1097.01" y="378.69" width="29.7" height="3.09" transform="translate(2223.72 760.47) rotate(180)"/><rect class="cls-4" x="1097.01" y="381.78" width="29.7" height="27.58"/><path class="cls-5" d="M1109.36,293.69c26.12,20.53,10.13,53-7.42,72.88l4.65,3.79C1123.1,348.53,1138,313.17,1109.36,293.69Z"/><path class="cls-4" d="M1119.77,381.09c19.31-23.71,25.4-46.25,22-67-4-24.55-23.74-40.54-24.54-41.05l-7.83,20.66-.07,0a36.88,36.88,0,0,1,14.75,23.94c2.27,14.77-4.4,31.88-19.84,50.84Z"/><path class="cls-21" d="M1113.59,291c0-1-1.14-23.37-13.08-26.63v2.09c10,3.46,11.07,24.41,11.08,24.63l0,1,2-.08Z"/><path class="cls-21" d="M1077.52,266.18v-2.12l-.32.11c-18.6,6.2-11.24,52-10.92,53.94l.16,1,2-.33-.16-1C1068.18,317.32,1060.93,272.31,1077.52,266.18Z"/><path class="cls-21" d="M1119.46,322.29a13.16,13.16,0,0,1-5.14-1.69c5.43-4.54,8.55-12.44,8.17-19.42s-4.16-11.17-9.9-11.17-9.53,4.28-9.89,11.17,2.74,14.87,8.17,19.42a13.16,13.16,0,0,1-5.14,1.69,1,1,0,0,0,.11,2h.11a15.14,15.14,0,0,0,6.65-2.41,15.13,15.13,0,0,0,6.65,2.41h.11a1,1,0,0,0,.11-2Zm-14.76-21c.15-2.79,1.22-9.28,7.9-9.28s7.75,6.49,7.9,9.28c.35,6.61-2.67,14.14-7.9,18.17C1107.37,315.42,1104.34,307.9,1104.7,301.28Z"/><path class="cls-22" d="M1104.28,324.86a17.12,17.12,0,0,1-1.76-.09,1.5,1.5,0,1,1,.31-3,13.53,13.53,0,0,0,2.85,0,1.5,1.5,0,0,1,.32,3A16.26,16.26,0,0,1,1104.28,324.86Z"/><path class="cls-22" d="M1120.91,324.86a16.27,16.27,0,0,1-1.72-.09,1.5,1.5,0,0,1,.32-3,13.53,13.53,0,0,0,2.85,0,1.5,1.5,0,1,1,.31,3A17.11,17.11,0,0,1,1120.91,324.86Z"/><circle class="cls-6" cx="1067.27" cy="318.22" r="6"/><path class="cls-21" d="M1067.27,312.22a6,6,0,1,1-6,6,6,6,0,0,1,6-6m0-2a8,8,0,1,0,8,8,8,8,0,0,0-8-8Z"/><circle class="cls-21" cx="1067.27" cy="318.22" r="4.28"/><path class="cls-14" d="M1125.5,253.7c-6-4.67-6.84-12.31-7.45-19.37a170,170,0,0,1-.67-22.58c0-2-21.09-12.39-27.88-12.39s-27.91,10.39-27.88,12.39a170,170,0,0,1-.67,22.58c-.61,7.06-1.4,14.7-7.45,19.37,2.42,1.18,15.88,8.09,24.29,2.15a26.51,26.51,0,0,0,23.43,0C1109.63,261.8,1123.09,254.88,1125.5,253.7Z"/><path class="cls-7" d="M1089.5,185.22c-11,0-25,14-25,25v26c0,11,14,25,25,25s25-14,25-25v-26C1114.5,199.17,1100.55,185.22,1089.5,185.22Z"/><path class="cls-14" d="M1089.5,177.63c-36.84,0-34.34,47.14-25,54.63,0,0-7.61-36.44,25-36.39s25,36.39,25,36.39C1123.84,224.77,1126.34,177.63,1089.5,177.63Z"/><path class="cls-7" d="M1064.5,220.62a5,5,0,0,0-5,5v5.2a5,5,0,0,0,10,0v-5.2A5,5,0,0,0,1064.5,220.62Z"/><path class="cls-7" d="M1114.5,220.62a5,5,0,0,0-5,5v5.2a5,5,0,0,0,10,0v-5.2A5,5,0,0,0,1114.5,220.62Z"/><path class="cls-14" d="M1108.22,216.9a19.1,19.1,0,0,1-5.13-6.31,23.15,23.15,0,0,0,14.17,5.3c-6.11-9-2.13-18.2-7.91-22.08-28.94-19.35-43.51,5.79-43.51,5.79s-9.08,21.25-1.33,21c5-.16,11.38-11.37,15.34-19.4a39.15,39.15,0,0,0,15,12.67,14.46,14.46,0,0,1-4.38-7.51A36.91,36.91,0,0,0,1108.22,216.9Z"/><path class="cls-15" d="M1119.37,224.49a5.24,5.24,0,0,0-4.86-3.88v-4.94a23.86,23.86,0,0,1-11.42-5.09,19.1,19.1,0,0,0,5.13,6.31,36.91,36.91,0,0,1-17.78-10.52,14.46,14.46,0,0,0,4.38,7.51,32.06,32.06,0,0,1-5.31-3.06v14.89a68.92,68.92,0,0,0-5,16l5,1v18.5c11,0,25-14,25-25v-.4a5,5,0,0,0,5-5v-5.2A5,5,0,0,0,1119.37,224.49Z"/><circle class="cls-8" cx="1077" cy="227.38" r="3.95" transform="translate(-7.28 37.72) rotate(-2)"/><circle class="cls-14" cx="1077" cy="226.38" r="3.95" transform="translate(-7.24 37.72) rotate(-2)"/><circle class="cls-4" cx="1078.35" cy="225.15" r="0.99" transform="translate(-7.2 37.76) rotate(-2)"/><path class="cls-14" d="M1081.81,223.23a5.76,5.76,0,0,0-4.65-3.19,6.2,6.2,0,0,0-5.64,2.61h-.3a2.93,2.93,0,0,1-.84-.22,3.91,3.91,0,0,1-1.14-.77.13.13,0,0,0-.14,0,.12.12,0,0,0-.06.17,4.33,4.33,0,0,0,.23.42,4.06,4.06,0,0,0,.67.85,3.92,3.92,0,0,0,.93.67,3.05,3.05,0,0,0,.38.16l.18,0a.65.65,0,0,0,.64-.35,5.41,5.41,0,0,1,5-2.56,4.8,4.8,0,0,1,3.83,2.6.5.5,0,1,0,.92-.4Z"/><circle class="cls-8" cx="1102" cy="227.38" r="3.95" transform="translate(-7.26 38.59) rotate(-2)"/><circle class="cls-14" cx="1102" cy="226.38" r="3.95" transform="translate(-7.23 38.59) rotate(-2)"/><circle class="cls-4" cx="1103.35" cy="225.15" r="0.99" transform="translate(-7.18 38.63) rotate(-2)"/><path class="cls-14" d="M1097.2,223.23a5.76,5.76,0,0,1,4.65-3.19,6.2,6.2,0,0,1,5.64,2.61h.3a2.93,2.93,0,0,0,.84-.22,3.91,3.91,0,0,0,1.14-.77.13.13,0,0,1,.14,0,.12.12,0,0,1,.06.17,4.32,4.32,0,0,1-.23.42,4.07,4.07,0,0,1-.67.85,3.92,3.92,0,0,1-.93.67,3.05,3.05,0,0,1-.37.16l-.18,0a.65.65,0,0,1-.64-.35,5.41,5.41,0,0,0-5-2.56,4.8,4.8,0,0,0-3.83,2.6.5.5,0,1,1-.92-.4Z"/></g><g id="nurse-4" data-name="nurse"><ellipse class="cls-3" cx="935.28" cy="524.93" rx="57.5" ry="7.67"/><rect class="cls-20" x="908.77" y="392.78" width="25" height="122.33"/><polygon class="cls-24" points="908.7 393.11 933.77 393.11 933.77 405.36 908.7 394.78 908.7 393.11"/><path class="cls-4" d="M933.78,521c0,5.84-26,5.84-26,0s5.82-8.34,13-8.34S933.78,515.13,933.78,521Z"/><rect class="cls-20" x="937.11" y="392.78" width="25" height="122.33"/><polygon class="cls-24" points="937.08 393.11 962.15 393.11 962.15 405.36 937.08 394.78 937.08 393.11"/><path class="cls-4" d="M962.61,521c0,5.84-26,5.84-26,0s5.82-8.34,13-8.34S962.61,515.13,962.61,521Z"/><path class="cls-7" d="M904.71,374.66a7,7,0,0,1-5.66-2.87c-27.22-37.21-14.32-62.65-9.67-67a7,7,0,0,1,10.46,9.3,7,7,0,0,1-.71.89c-1.82,3.12-9.7,19.89,11.22,48.5a7,7,0,0,1-5.64,11.13Z"/><rect class="cls-7" x="923.78" y="255.11" width="23" height="46.39"/><polygon class="cls-8" points="923.78 257.2 923.78 258.83 946.78 266.87 946.78 257.2 923.78 257.2"/><path class="cls-20" d="M973.74,300.64c0-17.1-6.87-35.32-26.25-35.32l-12.2,26.5-12.2-26.5c-19.38,0-26.25,18.22-26.25,35.32l5,3.48-5,90.67h76.91l-5-90.67Z"/><polygon class="cls-24" points="916.26 301.5 900.02 336.94 901.2 315.59 916.26 301.5"/><polygon class="cls-24" points="954.31 301.5 970.55 336.94 969.37 315.59 954.31 301.5"/><polygon class="cls-20" points="903.11 322.66 882.49 308.53 903.19 275.77 926.78 288.1 903.11 322.66"/><polygon class="cls-20" points="971.5 322.43 990.82 306.56 966.8 274.96 944.91 290.06 971.5 322.43"/><polygon class="cls-26" points="958.61 361.28 912.61 361.28 907.61 296.28 963.61 296.28 958.61 361.28"/><polygon class="cls-21" points="941.92 305.67 929.29 305.67 926.29 296.28 944.92 296.28 941.92 305.67"/><path class="cls-7" d="M997.81,329.37l-12.87-18-10.84,8.91,2.64,3.7-10.08-1.56c-10.21-3.21-19.69.13-20.28,3.95s7.19,11.11,19.6,10.11l25.06,3.87a7,7,0,0,0,6.76-11Z"/><path class="cls-7" d="M969.07,327.5a2,2,0,0,1-1.8-1.13c-2-4.09-7.27-6.13-7.32-6.15a2,2,0,0,1,1.4-3.75c.28.1,6.83,2.6,9.52,8.15a2,2,0,0,1-1.8,2.87Z"/><polygon class="cls-8" points="974.88 321.37 976.75 323.99 989.2 325.92 974.88 321.37"/><path class="cls-13" d="M978.26,274.08c-3.9-1.17-7.71-4.62-11.39-6.35.41.86.92,3.67,1.52,4.4-4-1.55-7.16-4.72-9.62-8.22-6.25-8.91-8.42-20.24-7.65-31.09a21.4,21.4,0,0,1,1.49-7.17,12.86,12.86,0,0,1,3.24-4.43,6.89,6.89,0,0,1,3.05-1.69,6.44,6.44,0,0,1,4.39.87c3.17,1.77,5.14,5.13,6.44,8.52,4,10.37,3,21.88,4.38,32.9C974.68,266.14,975.68,270.57,978.26,274.08Z"/><path class="cls-7" d="M935.77,185.22c-11,0-25,14-25,25v26c0,11,14,25,25,25s25-14,25-25v-26C960.77,199.17,946.82,185.22,935.77,185.22Z"/><path class="cls-14" d="M935.77,177.63c-36.84,0-33.34,47.14-24,54.63,0,0-8.61-36.44,24-36.39s24,36.39,24,36.39C969.11,224.77,972.61,177.63,935.77,177.63Z"/><path class="cls-7" d="M910.77,220.62a5,5,0,0,0-5,5v5.2a5,5,0,1,0,10,0v-5.2A5,5,0,0,0,910.77,220.62Z"/><path class="cls-7" d="M960.77,220.62a5,5,0,0,0-5,5v5.2a5,5,0,1,0,10,0v-5.2A5,5,0,0,0,960.77,220.62Z"/><path class="cls-14" d="M954.49,216.9a19.1,19.1,0,0,1-5.13-6.31,23.15,23.15,0,0,0,14.17,5.3c-6.11-9-2.67-17.49-7.91-22.08-27.49-24-43.51,5.79-43.51,5.79s-9.08,21.25-1.33,21c5-.16,11.38-11.37,15.34-19.4a39.15,39.15,0,0,0,15,12.67,14.46,14.46,0,0,1-4.38-7.51A36.91,36.91,0,0,0,954.49,216.9Z"/><path class="cls-15" d="M965.63,224.49a5.24,5.24,0,0,0-4.86-3.88v-4.94a23.86,23.86,0,0,1-11.42-5.09,19.1,19.1,0,0,0,5.13,6.31,36.91,36.91,0,0,1-17.78-10.52,14.46,14.46,0,0,0,4.38,7.51,32.06,32.06,0,0,1-5.31-3.06v14.89a68.92,68.92,0,0,0-5,16l5,1v18.5c11,0,25-14,25-25v-.4a5,5,0,0,0,5-5v-5.2A5,5,0,0,0,965.63,224.49Z"/><circle class="cls-8" cx="923.27" cy="227.38" r="3.95" transform="translate(-7.37 32.35) rotate(-2)"/><circle class="cls-14" cx="923.27" cy="226.38" r="3.95" transform="translate(-7.34 32.35) rotate(-2)"/><circle class="cls-4" cx="924.61" cy="225.15" r="0.99" transform="translate(-7.29 32.4) rotate(-2)"/><path class="cls-14" d="M928.08,223.23a5.76,5.76,0,0,0-4.65-3.19,6.2,6.2,0,0,0-5.64,2.61h-.3a2.93,2.93,0,0,1-.84-.22,3.91,3.91,0,0,1-1.14-.77.13.13,0,0,0-.14,0,.12.12,0,0,0-.06.17,4.33,4.33,0,0,0,.23.42,4.06,4.06,0,0,0,.67.85,3.92,3.92,0,0,0,.93.67,3,3,0,0,0,.38.16l.18,0a.65.65,0,0,0,.64-.35,5.41,5.41,0,0,1,5-2.56,4.8,4.8,0,0,1,3.83,2.6.5.5,0,1,0,.92-.4Z"/><circle class="cls-8" cx="948.27" cy="227.38" r="3.95" transform="translate(-7.36 33.23) rotate(-2)"/><circle class="cls-14" cx="948.27" cy="226.38" r="3.95" transform="translate(-7.32 33.23) rotate(-2)"/><circle class="cls-4" cx="949.61" cy="225.15" r="0.99" transform="translate(-7.28 33.27) rotate(-2)"/><path class="cls-14" d="M943.47,223.23a5.76,5.76,0,0,1,4.65-3.19,6.2,6.2,0,0,1,5.64,2.61h.3a2.93,2.93,0,0,0,.84-.22,3.91,3.91,0,0,0,1.14-.77.13.13,0,0,1,.14,0,.12.12,0,0,1,.06.17,4.34,4.34,0,0,1-.23.42,4.07,4.07,0,0,1-.67.85,3.92,3.92,0,0,1-.93.67,3.06,3.06,0,0,1-.38.16l-.18,0a.65.65,0,0,1-.64-.35,5.41,5.41,0,0,0-5-2.56,4.8,4.8,0,0,0-3.83,2.6.5.5,0,1,1-.92-.4Z"/></g><g id="doctor-4" data-name="doctor"><ellipse class="cls-3" cx="768.25" cy="524.93" rx="57.5" ry="7.67"/><path class="cls-22" d="M751.92,522.61a12.5,12.5,0,0,1-12.5-12.5v-79.8a12.5,12.5,0,1,1,25,0v79.8A12.5,12.5,0,0,1,751.92,522.61Z"/><polygon class="cls-27" points="739.41 435.01 739.41 435.7 764.41 444.43 764.41 435.01 739.41 435.01"/><path class="cls-28" d="M767.74,519c0,7.86-35,7.86-35,0s7.83-12,17.5-12S767.74,511.17,767.74,519Z"/><path class="cls-22" d="M785.24,522.61a12.5,12.5,0,0,1-12.5-12.5v-79.8a12.5,12.5,0,1,1,25,0v79.8A12.5,12.5,0,0,1,785.24,522.61Z"/><polygon class="cls-27" points="772.74 435.01 772.74 435.7 797.74 444.43 797.74 435.01 772.74 435.01"/><path class="cls-28" d="M804.74,519c0,7.86-35,7.86-35,0s7.83-12,17.5-12S804.74,511.17,804.74,519Z"/><ellipse class="cls-29" cx="767.27" cy="305.35" rx="40.67" ry="35.29"/><rect class="cls-7" x="755.74" y="255.11" width="23" height="22.39"/><polygon class="cls-8" points="755.74 257.2 755.74 258.83 778.74 266.87 778.74 257.2 755.74 257.2"/><polygon class="cls-22" points="772.72 281.22 770.54 285.4 763.89 285.4 761.77 281.22 767.24 276.74 772.72 281.22"/><polygon class="cls-20" points="755.74 266.11 767.25 276.74 760.25 284.11 750.02 269.19 755.74 266.11"/><polygon class="cls-20" points="778.75 266.11 767.25 276.74 774.25 284.11 784.48 269.19 778.75 266.11"/><polygon class="cls-22" points="770.54 286.4 773.24 325.57 767.24 332.2 761.24 325.57 763.89 286.4 770.54 286.4"/><path class="cls-4" d="M781.76,267.74l-14.52,58.85-14.52-58.85a40,40,0,0,0-30.48,38.85v129h90v-129A40,40,0,0,0,781.76,267.74Z"/><polygon class="cls-5" points="806.69 319.58 812.25 336.96 812.25 322.13 806.69 319.58"/><polygon class="cls-6" points="784.48 286.4 793.91 281.07 781.77 267.74 767.74 324.59 766.75 324.59 752.73 267.74 740.58 281.07 750.02 286.4 744.75 291.11 766.25 325.01 766.25 435.59 768.25 435.59 768.25 325.01 789.75 291.11 784.48 286.4"/><rect class="cls-6" x="729.55" y="378.69" width="29.7" height="3.09"/><rect class="cls-4" x="729.55" y="381.78" width="29.7" height="27.58"/><rect class="cls-6" x="775.24" y="378.69" width="29.7" height="3.09" transform="translate(1580.18 760.47) rotate(180)"/><rect class="cls-4" x="775.24" y="381.78" width="29.7" height="27.58"/><rect class="cls-7" x="823.1" y="273.5" width="17.19" height="15" transform="translate(385.8 1037.21) rotate(-78.14)"/><path class="cls-19" d="M825.7,273.08l1.09-5.32,20.48-12.43a7.5,7.5,0,0,1,7.45,13l-14.6,9.07-.71,3.29Z"/><ellipse class="cls-5" cx="846.11" cy="263.8" rx="10.8" ry="1.2"/><path class="cls-4" d="M850.94,225.91c-1.91,0-4.46,2.24-5.52,2.24s-3.6-2.24-5.52-2.24c-7.08,0-11.34,8.61-8.69,16,3.53,9.79,3.89,21.94,8.69,21.94,2.35,0,2-15.73,5.52-15.73s3.17,15.73,5.52,15.73c4.8,0,5.16-12.14,8.69-21.94C862.28,234.52,858,225.91,850.94,225.91Z"/><path class="cls-6" d="M853.18,228.36c-1-2-6.89,1.75-7.69,1.75s-6.69-3.74-7.69-1.75c-.38.76,1.24,2,7.69,2.92C851.94,230.37,853.57,229.12,853.18,228.36Z"/><path class="cls-19" d="M829.41,270.09a2.5,2.5,0,0,1-2.13-3.8,95.55,95.55,0,0,1,6.28-9,2.5,2.5,0,1,1,3.88,3.15,92.19,92.19,0,0,0-5.89,8.48A2.5,2.5,0,0,1,829.41,270.09Z"/><path class="cls-4" d="M821.83,335.69a10,10,0,0,1-8.21-4.29L787.8,294.32l16.26-12,13,18.94,5.21-23.34,19.52,4.36-10.17,45.56a10,10,0,0,1-9.76,7.82Z"/><rect class="cls-11" x="769.69" y="320.73" width="21.2" height="4" transform="translate(0.36 646.33) rotate(-45)"/><rect class="cls-22" x="755.23" y="331.19" width="28.2" height="5" transform="translate(-10.63 641.74) rotate(-45)"/><circle class="cls-30" cx="794.03" cy="308.99" r="10" transform="translate(14.08 651.96) rotate(-45)"/><path class="cls-31" d="M787,316.06a10,10,0,0,1,14.14-14.14Z"/><path class="cls-22" d="M787,316.06a10,10,0,1,1,14.15,0A10,10,0,0,1,787,316.06Zm12.56-12.56a7.76,7.76,0,1,0,0,11A7.77,7.77,0,0,0,799.52,303.5Z"/><path class="cls-19" d="M752.91,352l3.09,0c5.21,2.51,16.47,4.38,17.84-7.67,1.65-14.5-3.43-7.46-7.57-7.43L752.7,337Z"/><polyline class="cls-7" points="752.7 337.01 740.4 336.96 740.81 352.02 752.91 352.01"/><path class="cls-19" d="M757.26,341.71a2.5,2.5,0,0,1-1.46-4.12c.57-.65,5.75-6.29,11.15-5.4a2.5,2.5,0,0,1-.82,4.93c-2.12-.35-5.41,2.45-6.59,3.78A2.5,2.5,0,0,1,757.26,341.71Z"/><polyline class="cls-4" points="745.76 295.33 728.66 323.12 752.72 335.17"/><polygon class="cls-6" points="745.76 295.33 729.59 323.69 729.15 322.14 753.62 333.38 751.83 336.96 728.17 324.1 727.09 323.51 727.73 322.55 745.76 295.33"/><polygon class="cls-5" points="722.24 340.09 722.24 345.84 743.77 353.05 722.24 340.09"/><path class="cls-4" d="M743.77,353.05l-33.82-16.94a10,10,0,0,1-4-14.18l23.74-38.51,16.12,11.91-17.1,27.79,24.06,12Z"/><path class="cls-7" d="M767.24,184.59a25,25,0,0,0-25,25v26a25,25,0,1,0,50,0v-26A25,25,0,0,0,767.24,184.59Z"/><path class="cls-14" d="M794.38,191.1a15.85,15.85,0,0,0,2.79-9.34,18,18,0,0,1-4.7.43,7.29,7.29,0,0,0,1.41-3.46.24.24,0,0,0-.35-.24c-5.19,2.49-11.48-.55-11.48-.55h0c-4.13-2-8.43-3.12-14.79-2.95-21,0-27.13,16.1-27.13,16.1-4.71,11.09-3.39,26.33,2.16,40.53.1.24.21.48.32.72a28.38,28.38,0,0,1-.49-3.46c.07-4.55-.44-9.42.14-8.89,4.24-5.64,5.69-17.1,5.69-17.1a129.18,129.18,0,0,0,19.32,2.35,129.18,129.18,0,0,0,19.32-2.35s1.44,11.46,5.68,17.1c.58-.52.08,4.34.15,8.89a28.42,28.42,0,0,1-.49,3.46c.11-.24.22-.47.32-.72C797.77,217.44,799.08,202.2,794.38,191.1Z"/><circle class="cls-8" cx="755.74" cy="223.11" r="3.95" transform="translate(-7.33 26.52) rotate(-2)"/><circle class="cls-14" cx="755.74" cy="222.11" r="3.95" transform="translate(-7.29 26.51) rotate(-2)"/><circle class="cls-4" cx="757.08" cy="220.88" r="0.99" transform="translate(-7.25 26.55) rotate(-2)"/><circle class="cls-8" cx="778.74" cy="223.11" r="3.95" transform="translate(-7.31 27.32) rotate(-2)"/><circle class="cls-14" cx="778.74" cy="222.11" r="3.95" transform="translate(-7.28 27.32) rotate(-2)"/><circle class="cls-4" cx="780.08" cy="220.88" r="0.99" transform="translate(-7.23 27.35) rotate(-2)"/><path class="cls-7" d="M742.24,220a5,5,0,0,0-5,5v5.2a5,5,0,1,0,10,0V225A5,5,0,0,0,742.24,220Z"/><path class="cls-7" d="M792.24,220a5,5,0,0,0-5,5v5.2a5,5,0,1,0,10,0V225A5,5,0,0,0,792.24,220Z"/><path class="cls-15" d="M795.48,221.2h0a5,5,0,0,0-3.09-1.2h-.14c-4.24-5.64-5.68-17.1-5.68-17.1a129.18,129.18,0,0,1-19.32,2.35h0v14.85c-3.65,7.76-6,19-6,19h6v21.5a25,25,0,0,0,25-25v-.4a5,5,0,0,0,5-5V225A5,5,0,0,0,795.48,221.2Z"/><path class="cls-23" d="M737.79,199.72a46.22,46.22,0,0,0-.49,5.66,72.16,72.16,0,0,1,59.93-.18,46,46,0,0,0-.51-5.64A77.14,77.14,0,0,0,737.79,199.72Z"/><circle class="cls-23" cx="767.27" cy="196.67" r="7.5"/><path class="cls-21" d="M767.27,189.17a7.5,7.5,0,1,1-7.5,7.5,7.5,7.5,0,0,1,7.5-7.5m0-2a9.5,9.5,0,1,0,9.5,9.5,9.51,9.51,0,0,0-9.5-9.5Z"/><circle class="cls-16" cx="767.27" cy="196.67" r="3.21"/></g><g id="doctor-5" data-name="doctor"><ellipse class="cls-3" cx="594.76" cy="524.93" rx="57.5" ry="7.67"/><rect class="cls-17" x="566.25" y="392.78" width="25" height="122.33"/><polygon class="cls-18" points="566.18 398.11 591.25 398.11 591.25 410.36 566.18 399.78 566.18 398.11"/><path class="cls-4" d="M593.76,519.65c0,7.86-35,7.86-35,0s7.83-11.22,17.5-11.22S593.76,511.8,593.76,519.65Z"/><rect class="cls-17" x="598.59" y="392.78" width="25" height="122.33"/><polygon class="cls-18" points="598.56 398.11 623.63 398.11 623.63 410.36 598.56 399.78 598.56 398.11"/><path class="cls-4" d="M631.59,519.65c0,7.86-35,7.86-35,0s7.83-11.22,17.5-11.22S631.59,511.8,631.59,519.65Z"/><path class="cls-7" d="M656.4,342.61a7.5,7.5,0,0,1-5.94-2.93L632.85,316.8l11.89-9.15,7.43,9.66L656,297.09l14.73,2.82-7,36.61a7.5,7.5,0,0,1-7.37,6.09Z"/><path class="cls-19" d="M672.91,267.68c-3.65-1-8.42,4.16-11.43,12-.31-3.23-1-5.22-2.76-5.16-3.57.11-2.31,8.48-2,18.85,0,.79-.5,2.33-.47,3l-.89,4L670,303.53l3.55-8.53a40.27,40.27,0,0,0,2.85-7.3C679.23,277.87,677.1,268.87,672.91,267.68Z"/><polygon class="cls-8" points="649.23 313.49 652.17 317.31 652.17 328.78 649.23 313.49"/><rect class="cls-7" x="583.26" y="255.11" width="23" height="43.39"/><polygon class="cls-8" points="583.26 257.2 583.26 258.83 606.26 266.87 606.26 257.2 583.26 257.2"/><path class="cls-17" d="M607,265.32l-12.2,26.5-12.2-26.5c-19.38,0-35.25,18.22-35.25,35.32l9,3.48v95.67h76.91V304.11l9-3.48C642.22,283.54,626.35,265.32,607,265.32Z"/><polygon class="cls-18" points="573.76 300.92 556.31 339.36 556.31 313.94 573.76 300.92"/><polygon class="cls-17" points="560.18 323.11 539.23 306.56 552.08 283.99 581.13 290.06 560.18 323.11"/><polygon class="cls-18" points="615.77 300.92 633.22 339.36 633.22 313.94 615.77 300.92"/><polygon class="cls-17" points="633.22 326.11 653.3 305.56 635.21 280.57 608.39 290.06 633.22 326.11"/><path class="cls-6" d="M594.56,305.45l5.1,1.86S612.8,278.69,605.3,276Z"/><rect class="cls-21" x="588.82" y="301.57" width="6.78" height="37.49" transform="translate(1039.14 823.87) rotate(-160)"/><path class="cls-19" d="M578.26,338.5l3-.53c5.55,1.62,17,1.63,16.35-10.48-.74-14.57-4.6-6.8-8.68-6.09l-13.37,2.34Z"/><path class="cls-7" d="M575.6,323.74l-23,3.68,3.67-7.39-12-9.5L532.58,334a7.5,7.5,0,0,0,8,10.72l37.67-6.25"/><path class="cls-19" d="M580.86,327.62a2.5,2.5,0,0,1-2.12-3.83c.46-.73,4.64-7.15,10.12-7.15a2.5,2.5,0,0,1,0,5c-2.15,0-4.94,3.3-5.88,4.8A2.5,2.5,0,0,1,580.86,327.62Z"/><polygon class="cls-8" points="554.2 324.2 543.57 329.18 552.61 327.42 554.2 324.2"/><path class="cls-7" d="M594.76,184.59a25,25,0,0,0-25,25v26a25,25,0,1,0,50,0v-26A25,25,0,0,0,594.76,184.59Z"/><path class="cls-14" d="M621.89,191.1S615.77,175,594.76,175s-27.13,16.1-27.13,16.1c-4.71,11.09-3.39,26.33,2.16,40.53.1.24.21.48.32.72a28.38,28.38,0,0,1-.49-3.46c.07-4.55,0-13,.58-12.51,4.24-5.64,5.24-15.48,5.24-15.48a129.18,129.18,0,0,0,19.32,2.35,129.18,129.18,0,0,0,19.32-2.35s1,9.84,5.24,15.48c.58-.52.51,8,.58,12.51a28.42,28.42,0,0,1-.49,3.46c.11-.24.22-.47.32-.72C625.28,217.44,626.59,202.2,621.89,191.1Z"/><circle class="cls-8" cx="583.26" cy="223.11" r="3.95" transform="translate(-7.43 20.49) rotate(-2)"/><circle class="cls-14" cx="583.26" cy="222.11" r="3.95" transform="translate(-7.4 20.49) rotate(-2)"/><circle class="cls-4" cx="584.6" cy="220.88" r="0.99" transform="translate(-7.35 20.53) rotate(-2)"/><circle class="cls-8" cx="606.26" cy="223.11" r="3.95" transform="translate(-7.42 21.3) rotate(-2)"/><circle class="cls-14" cx="606.26" cy="222.11" r="3.95" transform="translate(-7.38 21.3) rotate(-2)"/><circle class="cls-4" cx="607.6" cy="220.88" r="0.99" transform="translate(-7.34 21.33) rotate(-2)"/><path class="cls-7" d="M569.76,220a5,5,0,0,0-5,5v5.2a5,5,0,1,0,10,0V225A5,5,0,0,0,569.76,220Z"/><path class="cls-7" d="M619.76,220a5,5,0,0,0-5,5v5.2a5,5,0,1,0,10,0V225A5,5,0,0,0,619.76,220Z"/><path class="cls-15" d="M623,221.2a5,5,0,0,0-3.21-1.21h0v-.63c-.07-1.9-.2-3.2-.44-3-4.24-5.64-5.24-15.48-5.24-15.48a129.18,129.18,0,0,1-19.32,2.35v16.85c-3.65,7.76-6,19-6,19h6v21.5a25,25,0,0,0,25-25v-.4a5,5,0,0,0,5-5V225A5,5,0,0,0,623,221.2Z"/><path class="cls-4" d="M619.21,235.14a41.18,41.18,0,0,1-1.59,7.92,37.4,37.4,0,0,1-4.73-10.11l7.3-12.7a.5.5,0,0,0-.87-.5l-7.25,12.6H577.44l-7.25-12.6a.5.5,0,0,0-.87.5l7.3,12.7a37.4,37.4,0,0,1-4.73,10.11,41.17,41.17,0,0,1-1.59-7.92,4.94,4.94,0,0,1-.55.06c-.16,0-.3,0-.46,0,.76,6.69,2.14,9.57,2.19,9.69l0,0a25,25,0,0,0,46.44,0l0,0c.06-.12,1.44-3,2.19-9.69-.15,0-.3,0-.46,0A4.94,4.94,0,0,1,619.21,235.14Z"/><path class="cls-17" d="M621.89,191.1S615.77,175,594.76,175s-27.13,16.1-27.13,16.1c-2.84,6.7-3.48,14.92-2.32,23.5a75.4,75.4,0,0,1,7.75-3.68,58.82,58.82,0,0,1,21.7-4.68,67.71,67.71,0,0,1,21.43,3.93,86.81,86.81,0,0,1,8.17,3.27C625.3,205.28,624.6,197.5,621.89,191.1Z"/><path class="cls-23" d="M565.28,199.72a46.22,46.22,0,0,0-.49,5.66,72.16,72.16,0,0,1,59.93-.18,46,46,0,0,0-.51-5.64A77.14,77.14,0,0,0,565.28,199.72Z"/><circle class="cls-23" cx="594.76" cy="196.67" r="10"/><path class="cls-21" d="M594.76,186.67a10,10,0,1,1-10,10,10,10,0,0,1,10-10m0-2a12,12,0,1,0,12,12,12,12,0,0,0-12-12Z"/><circle class="cls-16" cx="594.76" cy="196.67" r="4.28"/></g><g id="doctor-6" data-name="doctor"><ellipse class="cls-3" cx="163.85" cy="1013.69" rx="115" ry="15.33"/><path class="cls-22" d="M128.26,1014.41a25,25,0,0,1-25-25V829.8a25,25,0,0,1,50,0V989.41A25,25,0,0,1,128.26,1014.41Z"/><polygon class="cls-27" points="103.26 835.2 103.26 836.58 153.26 854.05 153.26 835.2 103.26 835.2"/><path class="cls-28" d="M158.84,1007.25c0,15.72-70,15.72-70,0s15.67-23.95,35-23.95S158.84,991.53,158.84,1007.25Z"/><path class="cls-22" d="M194.92,1014.41a25,25,0,0,1-25-25V829.8a25,25,0,0,1,50,0V989.41A25,25,0,0,1,194.92,1014.41Z"/><polygon class="cls-27" points="169.92 835.2 169.92 836.58 219.92 854.05 219.92 835.2 169.92 835.2"/><path class="cls-28" d="M234.84,1007.25c0,15.72-70,15.72-70,0s15.67-23.95,35-23.95S234.84,991.53,234.84,1007.25Z"/><ellipse class="cls-32" cx="163.41" cy="572.13" rx="81.33" ry="70.58"/><rect class="cls-7" x="138.84" y="474.07" width="46" height="44.77"/><polygon class="cls-8" points="138.84 478.23 138.84 481.5 184.84 497.57 184.84 478.23 138.84 478.23"/><polygon class="cls-22" points="172.79 526.27 168.42 534.64 155.13 534.64 150.88 526.27 161.84 517.32 172.79 526.27"/><polygon class="cls-33" points="138.84 496.06 161.84 517.32 147.84 532.07 127.39 502.22 138.84 496.06"/><polygon class="cls-33" points="184.85 496.06 161.84 517.32 175.84 532.07 196.3 502.22 184.85 496.06"/><polygon class="cls-22" points="168.42 536.64 173.84 614.99 161.84 628.25 149.84 614.99 155.13 536.64 168.42 536.64"/><path class="cls-4" d="M190.87,499.32l-29,117.7-29-117.7a80,80,0,0,0-61,77.7V835h180V577A80,80,0,0,0,190.87,499.32Z"/><polygon class="cls-6" points="196.3 536.64 215.18 525.98 190.88 499.32 162.83 613.02 160.86 613.02 132.81 499.32 108.51 525.98 127.39 536.64 116.84 546.07 159.84 613.87 159.84 835.02 163.84 835.02 163.84 613.87 206.84 546.07 196.3 536.64"/><rect class="cls-6" x="86.45" y="721.22" width="59.4" height="6.18"/><rect class="cls-4" x="86.45" y="727.4" width="59.4" height="55.17"/><rect class="cls-6" x="177.83" y="721.22" width="59.4" height="6.18" transform="translate(415.05 1448.62) rotate(180)"/><rect class="cls-4" x="177.83" y="727.4" width="59.4" height="55.17"/><rect class="cls-26" x="113.41" y="639.54" width="100" height="130" transform="matrix(0.87, 0.5, -0.5, 0.87, 374.16, 12.68)"/><polygon class="cls-21" points="197.46 670.82 175.59 658.2 179.78 638.94 212.04 657.56 197.46 670.82"/><path class="cls-7" d="M198.24,754.87c6-13.29,4-12.79-9.25-23.24,6.36,1.34,10.57,1.16,11.51-2.19,1.93-6.88-14.81-9.49-34.79-15.08-1.52-.43-2.93-.8-4.29-1.16l-24-15.63L121.06,722.7l32.25,21a80.57,80.57,0,0,0,12.24,9.8C182.65,764.73,192.25,768.15,198.24,754.87Z"/><path class="cls-5" d="M125.31,670.54C98.06,637.05,82.56,594,117,557.22c-39.51,36.69-24,84.45,3.36,121.83Z"/><path class="cls-4" d="M122.79,733.18C77.46,692.11,54.68,650,55.09,608c.49-49.73,35.16-82.46,36.59-83.71l25.23,33,.12-.11c-.89.8-21.9,20.09-21.95,51.77,0,29.9,18.31,61.71,54.56,94.54Z"/><path class="cls-7" d="M377.64,514.85c-5.24-5.48-18.74-1.35-31.9,9.18,2.74-5.9,3.52-10,.47-11.71-6.27-3.43-12.59,12.29-22.55,30.49-.76,1.39-1.44,2.68-2.1,3.92l-20.64,19.83,20.78,21.63,27.77-26.67a80.57,80.57,0,0,0,12.31-9.71C376.56,537.69,383.66,521.14,377.64,514.85Z"/><polygon class="cls-5" points="232.61 585.73 251.84 623.89 251.84 596.03 232.61 585.73"/><path class="cls-4" d="M283.18,630.4h-.12a20,20,0,0,1-14.64-6.5l-35.82-38.17L228.93,521l54.42,60,34.17-36.47,29.19,27.35-48.94,52.23A20,20,0,0,1,283.18,630.4Z"/><path class="cls-21" d="M211,545.77c-.08-1.95-2.28-46.73-26.16-53.27v4.17C204.94,503.6,207,545.5,207,545.94l.09,2,4-.17Z"/><path class="cls-34" d="M138.84,496.2V492l-.63.21c-37.2,12.4-22.48,104-21.83,107.89l.33,2,3.95-.65-.33-2C120.16,598.49,105.67,508.46,138.84,496.2Z"/><path class="cls-21" d="M222.72,608.41A26.31,26.31,0,0,1,212.44,605c10.87-9.09,17.09-24.89,16.35-38.84-.74-13.78-8.32-22.34-19.79-22.34s-19.05,8.56-19.79,22.34c-.75,13.95,5.48,29.75,16.35,38.84a26.31,26.31,0,0,1-10.29,3.38,2,2,0,0,0,.21,4h.22a30.27,30.27,0,0,0,13.3-4.81,30.27,30.27,0,0,0,13.3,4.81h.22a2,2,0,0,0,.21-4Zm-29.52-42c.3-5.58,2.44-18.55,15.8-18.55s15.5,13,15.8,18.55c.71,13.23-5.34,28.28-15.8,36.33C198.54,594.69,192.49,579.64,193.2,566.41Z"/><path class="cls-22" d="M225.63,613.57a32,32,0,0,1-3.44-.18,3,3,0,0,1,.64-6,27.17,27.17,0,0,0,5.71,0,3,3,0,1,1,.62,6A34.34,34.34,0,0,1,225.63,613.57Z"/><path class="cls-22" d="M192.36,613.57a34.34,34.34,0,0,1-3.53-.18,3,3,0,0,1,.62-6,27.3,27.3,0,0,0,5.7,0,3,3,0,0,1,.64,6A32,32,0,0,1,192.36,613.57Z"/><circle class="cls-6" cx="118.34" cy="600.29" r="12"/><path class="cls-21" d="M118.34,588.29a12,12,0,1,1-12,12,12,12,0,0,1,12-12m0-4a16,16,0,1,0,16,16,16,16,0,0,0-16-16Z"/><circle class="cls-21" cx="118.34" cy="600.29" r="8.56"/><path class="cls-7" d="M161.84,333a50,50,0,0,0-50,50v52a50,50,0,0,0,100,0V383A50,50,0,0,0,161.84,333Z"/><path class="cls-14" d="M216.09,346a31.71,31.71,0,0,0,5.58-18.67c-12.24-.18-23.32-4.42-28-6.45-9-4.85-18-7.46-31.88-7.08-42,0-54.25,32.2-54.25,32.2-9.41,22.19-6.79,52.67,4.31,81.06.21.48.42,1,.64,1.43a56.81,56.81,0,0,1-1-6.92c.14-9.1,0-26.07,1.16-25,8.48-11.28,10.49-31,10.49-31a258.36,258.36,0,0,0,38.63,4.7,258.36,258.36,0,0,0,38.63-4.7s2,19.69,10.49,31c1.16-1,1,15.92,1.16,25a56.83,56.83,0,0,1-1,6.92c.22-.47.43-.95.64-1.43C222.88,398.72,225.51,368.24,216.09,346Z"/><circle class="cls-8" cx="138.84" cy="410.06" r="7.9" transform="translate(-14.23 5.09) rotate(-2)"/><circle class="cls-14" cx="138.84" cy="408.06" r="7.9" transform="translate(-14.16 5.09) rotate(-2)"/><circle class="cls-4" cx="141.52" cy="405.59" r="1.97" transform="translate(-14.07 5.18) rotate(-2)"/><circle class="cls-8" cx="184.84" cy="410.06" r="7.9" transform="translate(-14.2 6.7) rotate(-2)"/><circle class="cls-14" cx="184.84" cy="408.06" r="7.9" transform="translate(-14.13 6.7) rotate(-2)"/><circle class="cls-4" cx="187.52" cy="405.59" r="1.97" transform="translate(-14.04 6.79) rotate(-2)"/><path class="cls-7" d="M111.84,403.82a10,10,0,0,0-10,10v10.4a10,10,0,1,0,20,0v-10.4A10,10,0,0,0,111.84,403.82Z"/><path class="cls-7" d="M211.84,403.82a10,10,0,0,0-10,10v10.4a10,10,0,1,0,20,0v-10.4A10,10,0,0,0,211.84,403.82Z"/><path class="cls-15" d="M218.29,406.24a9.91,9.91,0,0,0-6.41-2.42h0v-1.26c-.15-3.81-.4-6.4-.88-6-8.48-11.28-10.49-31-10.49-31a258.36,258.36,0,0,1-38.63,4.7V404c-7.3,15.51-12,38-12,38h12v43a50,50,0,0,0,50-50v-.8a10,10,0,0,0,10-10v-10.4A9.93,9.93,0,0,0,218.29,406.24Z"/><path class="cls-4" d="M211.46,401.86l-6.72,1.27a10,10,0,0,0-9.91-9.07h-20a10,10,0,0,0-10,9.54h-6.09a10,10,0,0,0-10-9.53h-20a10,10,0,0,0-9.91,9.07l-6.73-1.27a2,2,0,0,0-.74,3.93l7.91,1.5,1.47,9a10,10,0,0,0,10,9.83h16a10,10,0,0,0,10-9.83l1.44-8.64h7.14l1.42,8.64a10,10,0,0,0,10,9.83h16a10,10,0,0,0,10-9.83l1.49-9,7.88-1.49a2,2,0,0,0-.74-3.93Zm-58.6,13.88,0,.33a6,6,0,0,1-6,6h-16a6,6,0,0,1-6-6l-1.7-10.34a1.94,1.94,0,0,0-.14-.87l-.16-.94a6,6,0,0,1,6-5.85h20a6,6,0,0,1,6,5.85Zm46,0,0,.33a6,6,0,0,1-6,6h-16a6,6,0,0,1-6-6l-2-12.15a6,6,0,0,1,6-5.85h20a6,6,0,0,1,6,5.85l-.16.95a1.94,1.94,0,0,0-.14.86Z"/></g></g><g id="icons"><g id="heart"><circle class="cls-4" cx="443.15" cy="517.71" r="40"/><path class="cls-23" d="M483.14,518.15c-3.13-3.15-6.22-6.34-9.35-9.47-4.58-4.56-8.65-10.38-15.58-11-5-.48-41.75,25.54-36.45,32.37a108.16,108.16,0,0,0,9.57,10.1c3.29,3.27,6.55,6.56,9.84,9.84q3.7,3.68,7.39,7.39A40,40,0,0,0,483.14,518.15Z"/><path class="cls-12" d="M470.55,509.06c-3.86-17.32-25.25-11.91-27.4-4.41-2.16-7.51-23.54-12.92-27.4,4.41-4.8,21.55,27.4,38.48,27.4,38.48S475.35,530.61,470.55,509.06Z"/><circle class="cls-4" cx="426.7" cy="508.21" r="4"/></g><g id="blood"><circle class="cls-22" cx="443.15" cy="384.34" r="40"/><path class="cls-35" d="M443.15,356.84l-12.8,49,20,17.87a40,40,0,0,0,31.24-28.37Z"/><path class="cls-12" d="M461,391.47c0,14.06-10.34,20.37-17.82,20.37s-17.82-6.31-17.82-20.37,17.82-34.63,17.82-34.63S461,377.41,461,391.47Z"/><circle class="cls-4" cx="435.19" cy="397.84" r="4"/></g><g id="tooth"><circle class="cls-17" cx="317.76" cy="384.34" r="40" transform="translate(-9.4 7.97) rotate(-1.42)"/><path class="cls-35" d="M357.7,386.42,333,362.9c-25.75,6.24-24.29,45.76-24.29,45.76l15.84,15.09A40,40,0,0,0,357.7,386.42Z"/><path class="cls-4" d="M324.42,359.17c-2.52.06-5.81,3.11-7.2,3.14s-4.83-2.84-7.35-2.78c-9.34.23-14.67,11.73-10.95,21.33,5,12.81,5.85,28.81,12.18,28.66,3.1-.08,2.1-20.81,6.76-20.93s4.69,20.64,7.79,20.57c6.33-.16,6.41-16.19,10.75-29.22C339.66,370.16,333.76,358.94,324.42,359.17Z"/><path class="cls-6" d="M327.46,362.33c-1.38-2.59-9,2.54-10.08,2.56s-8.94-4.72-10.2-2.06c-.48,1,1.71,2.61,10.23,3.6C325.89,365,328,363.32,327.46,362.33Z"/></g><g id="pills_bottle" data-name="pills bottle"><circle class="cls-20" cx="443.15" cy="250.97" r="40"/><path class="cls-35" d="M483.1,252.77l-28.29-28.29L428,276.7,442.27,291l.87,0A40,40,0,0,0,483.1,252.77Z"/><rect class="cls-4" x="431.48" y="224.49" width="23.33" height="10.85"/><rect class="cls-4" x="425.65" y="235.33" width="35" height="42.13" rx="5" ry="5"/><rect class="cls-6" x="434.49" y="224.49" width="1.4" height="10.59"/><rect class="cls-6" x="438.47" y="224.49" width="1.4" height="10.59"/><rect class="cls-6" x="442.45" y="224.49" width="1.4" height="10.59"/><rect class="cls-6" x="446.43" y="224.49" width="1.4" height="10.59"/><rect class="cls-6" x="450.41" y="224.49" width="1.4" height="10.59"/><polygon class="cls-20" points="453.12 250.72 447.43 250.72 447.43 245.03 438.87 245.03 438.87 250.72 433.18 250.72 433.18 259.28 438.87 259.28 438.87 264.97 447.43 264.97 447.43 259.28 453.12 259.28 453.12 250.72"/></g><g id="cross"><circle class="cls-12" cx="317.76" cy="250.97" r="40"/><path class="cls-35" d="M292.76,260.59l30.05,30.06A40,40,0,0,0,357.43,256L327.38,226Z"/><polygon class="cls-4" points="342.76 241.36 327.38 241.36 327.38 225.97 308.15 225.97 308.15 241.36 292.76 241.36 292.76 260.59 308.15 260.59 308.15 275.98 327.38 275.98 327.38 260.59 342.76 260.59 342.76 241.36"/></g></g></g></svg>