<svg xmlns="http://www.w3.org/2000/svg" xmlns:xlink="http://www.w3.org/1999/xlink" viewBox="0 0 800 800"><defs><style>.cls-1{isolation:isolate;}.cls-2{fill:#89c9b7;}.cls-3{fill:#f5c09a;}.cls-4{fill:#dde1e6;}.cls-5,.cls-6{fill:#103c5b;}.cls-5{opacity:0.8;}.cls-12,.cls-47,.cls-5,.cls-51{mix-blend-mode:multiply;}.cls-7{fill:#fcfcfc;}.cls-8{fill:#fbd998;}.cls-9{fill:#fde2bf;}.cls-10{fill:#246b9e;}.cls-11{fill:#fff;}.cls-12,.cls-22{opacity:0.2;}.cls-13{fill:url(#linear-gradient);}.cls-14{fill:#802502;}.cls-15{fill:#1a1a1a;}.cls-16{fill:#666;}.cls-17{fill:#999;}.cls-18{fill:#fec56b;}.cls-19{fill:#feb646;}.cls-20{fill:#995135;}.cls-21{fill:#a75c2c;}.cls-22,.cls-38,.cls-40{fill:#ccc;}.cls-22,.cls-38{mix-blend-mode:lighten;}.cls-23,.cls-47{fill:#b3b3b3;}.cls-24{fill:#70854c;}.cls-25{fill:#cf7330;}.cls-26{fill:#91ac5c;}.cls-27{fill:#aaca72;}.cls-28{fill:#abca75;}.cls-29{fill:#f2f2f2;}.cls-30{fill:#e14546;}.cls-31{fill:#fec162;}.cls-32{fill:#fecc7e;}.cls-33{fill:#fec874;}.cls-34{fill:#febd59;}.cls-35{fill:#fed390;}.cls-36{fill:#66aad1;}.cls-37{fill:#0072b2;}.cls-39{fill:#333;}.cls-41{fill:gray;}.cls-42{fill:#69686a;}.cls-43{fill:#b37c67;}.cls-44{fill:#4d9cc9;}.cls-45{fill:#a9ba7b;}.cls-46{fill:#478d7c;}.cls-47,.cls-51{opacity:0.5;}.cls-48{fill:#7ac2ae;}.cls-49{fill:#ffdba2;}.cls-50,.cls-51{fill:#59b39a;}</style><linearGradient id="linear-gradient" x1="275.05" y1="299.97" x2="277.3" y2="319.22" gradientUnits="userSpaceOnUse"><stop offset="0" stop-color="#fff"/><stop offset="1"/></linearGradient></defs><title>recepcion</title><g class="cls-1"><g id="Background"><path d="M288.49,784.76v-.26a6.56,6.56,0,0,1-1,1,3.83,3.83,0,0,1-1.1.57,4.08,4.08,0,0,1-1.3.2,3.82,3.82,0,0,1-1.72-.39,4,4,0,0,1-1.37-1.13,5.1,5.1,0,0,1-.88-1.72,7.35,7.35,0,0,1-.3-2.14,5.57,5.57,0,0,1,1.19-3.79,4,4,0,0,1,3.12-1.36,4.22,4.22,0,0,1,1.89.38,5.3,5.3,0,0,1,1.5,1.18v-3.83a1.93,1.93,0,0,1,.32-1.21,1.08,1.08,0,0,1,.91-.41,1.12,1.12,0,0,1,.91.38,1.67,1.67,0,0,1,.32,1.11v11.44a1.59,1.59,0,0,1-.34,1.11,1.15,1.15,0,0,1-.88.37,1.13,1.13,0,0,1-.88-.38A1.59,1.59,0,0,1,288.49,784.76Zm-5.1-3.81a4.43,4.43,0,0,0,.33,1.79,2.49,2.49,0,0,0,.9,1.12,2.21,2.21,0,0,0,1.24.38,2.29,2.29,0,0,0,1.25-.36,2.45,2.45,0,0,0,.9-1.09,4.42,4.42,0,0,0,.34-1.84,4.3,4.3,0,0,0-.34-1.78,2.68,2.68,0,0,0-.91-1.14,2.19,2.19,0,0,0-1.26-.39,2.13,2.13,0,0,0-1.27.4,2.58,2.58,0,0,0-.87,1.16A4.6,4.6,0,0,0,283.39,780.95Z"/><path d="M299.93,781.6h-5.07a3.43,3.43,0,0,0,.36,1.56,2.38,2.38,0,0,0,2.19,1.36,3.14,3.14,0,0,0,.85-.11,2.79,2.79,0,0,0,.75-.34,5.54,5.54,0,0,0,.66-.5l.79-.72a.86.86,0,0,1,.57-.17.94.94,0,0,1,.64.22.78.78,0,0,1,.25.62,1.7,1.7,0,0,1-.28.82,3.3,3.3,0,0,1-.83.9,4.75,4.75,0,0,1-1.4.72,6,6,0,0,1-1.93.29,5.17,5.17,0,0,1-3.88-1.42,5.3,5.3,0,0,1-1.39-3.87,6.44,6.44,0,0,1,.34-2.13,4.72,4.72,0,0,1,1-1.69,4.33,4.33,0,0,1,1.62-1.08,5.8,5.8,0,0,1,2.13-.37,5,5,0,0,1,2.61.64,4.21,4.21,0,0,1,1.63,1.66,4.38,4.38,0,0,1,.54,2.07,1.3,1.3,0,0,1-.56,1.27A3.5,3.5,0,0,1,299.93,781.6Zm-5.07-1.47h4.7a3.15,3.15,0,0,0-.72-2,2.14,2.14,0,0,0-1.64-.66,2.07,2.07,0,0,0-1.59.67A3.34,3.34,0,0,0,294.85,780.13Z"/><path d="M311.74,782.85a3,3,0,0,1-2.07,3,6.92,6.92,0,0,1-2.48.39,6.06,6.06,0,0,1-2.39-.43,3.49,3.49,0,0,1-1.47-1.07,2.16,2.16,0,0,1-.48-1.29,1,1,0,0,1,.3-.73,1,1,0,0,1,.77-.3.9.9,0,0,1,.63.2,2.17,2.17,0,0,1,.42.56,2.85,2.85,0,0,0,1,1,2.88,2.88,0,0,0,1.52.34,2.19,2.19,0,0,0,1.28-.35,1,1,0,0,0,.5-.79,1.08,1.08,0,0,0-.52-1,6.41,6.41,0,0,0-1.7-.6,14,14,0,0,1-2.18-.7,3.57,3.57,0,0,1-1.34-1,2.21,2.21,0,0,1-.5-1.47,2.6,2.6,0,0,1,.47-1.47,3.2,3.2,0,0,1,1.37-1.11,5.23,5.23,0,0,1,2.19-.41,7.12,7.12,0,0,1,1.81.21,4.46,4.46,0,0,1,1.34.56,2.75,2.75,0,0,1,.82.78,1.53,1.53,0,0,1,.28.84,1,1,0,0,1-.3.73,1.19,1.19,0,0,1-.85.29,1,1,0,0,1-.68-.23,4.46,4.46,0,0,1-.64-.68,2.35,2.35,0,0,0-.69-.61,2.18,2.18,0,0,0-1.08-.23,2.11,2.11,0,0,0-1.17.3.87.87,0,0,0-.47.74.81.81,0,0,0,.34.67,2.81,2.81,0,0,0,.92.43c.39.11.92.25,1.6.42a8.63,8.63,0,0,1,2,.7,3.28,3.28,0,0,1,1.16,1A2.14,2.14,0,0,1,311.74,782.85Z"/><path d="M314.39,774.49a1.37,1.37,0,0,1-.93-.33,1.29,1.29,0,0,1,0-1.85,1.32,1.32,0,0,1,.92-.36,1.35,1.35,0,0,1,.89.32,1.15,1.15,0,0,1,.39.94,1.19,1.19,0,0,1-.38.94A1.31,1.31,0,0,1,314.39,774.49Zm1.28,2.68v7.49a1.67,1.67,0,0,1-.37,1.18,1.23,1.23,0,0,1-.94.4,1.17,1.17,0,0,1-.93-.41,1.72,1.72,0,0,1-.36-1.17v-7.42a1.66,1.66,0,0,1,.36-1.16,1.2,1.2,0,0,1,.93-.39,1.24,1.24,0,0,1,.94.39A1.51,1.51,0,0,1,315.67,777.17Z"/><path d="M327,777.59v7.53a7.88,7.88,0,0,1-.28,2.22,3.54,3.54,0,0,1-.88,1.54,3.7,3.7,0,0,1-1.59.9,8.62,8.62,0,0,1-2.45.29,7.12,7.12,0,0,1-2.39-.37,4.16,4.16,0,0,1-1.62-1,1.77,1.77,0,0,1-.57-1.22,1,1,0,0,1,.32-.77,1.1,1.1,0,0,1,.78-.3,1.28,1.28,0,0,1,1,.5l.43.52a2.55,2.55,0,0,0,.49.45,2,2,0,0,0,.65.27,3.9,3.9,0,0,0,.87.09,3.53,3.53,0,0,0,1.56-.28,1.6,1.6,0,0,0,.78-.78,3.13,3.13,0,0,0,.26-1.08q0-.58.06-1.85a4.24,4.24,0,0,1-1.38,1.27,3.78,3.78,0,0,1-1.87.44,3.94,3.94,0,0,1-2.28-.66,4.24,4.24,0,0,1-1.5-1.86,6.85,6.85,0,0,1-.52-2.76,6.55,6.55,0,0,1,.32-2.11,4.44,4.44,0,0,1,.91-1.59,3.89,3.89,0,0,1,1.36-1,4.28,4.28,0,0,1,1.69-.33,4.09,4.09,0,0,1,1.91.42,4.67,4.67,0,0,1,1.5,1.33v-.35a1.51,1.51,0,0,1,.33-1,1.1,1.1,0,0,1,.86-.37,1,1,0,0,1,1,.49A3.21,3.21,0,0,1,327,777.59Zm-7.51,3.29a3.59,3.59,0,0,0,.69,2.38,2.23,2.23,0,0,0,1.78.81,2.33,2.33,0,0,0,1.22-.35,2.55,2.55,0,0,0,.94-1,3.67,3.67,0,0,0,.36-1.7,3.89,3.89,0,0,0-.7-2.47,2.23,2.23,0,0,0-1.84-.88,2.16,2.16,0,0,0-1.78.85A3.78,3.78,0,0,0,319.52,780.88Z"/><path d="M331.15,777.13v.31a4.53,4.53,0,0,1,1.5-1.33,4,4,0,0,1,1.87-.42,3.72,3.72,0,0,1,1.83.45,2.84,2.84,0,0,1,1.21,1.26,3,3,0,0,1,.33,1,10.59,10.59,0,0,1,.08,1.41v4.82a1.72,1.72,0,0,1-.36,1.18,1.28,1.28,0,0,1-1.87,0,1.71,1.71,0,0,1-.36-1.17v-4.32a4.32,4.32,0,0,0-.36-2,1.45,1.45,0,0,0-1.42-.68,2.1,2.1,0,0,0-1.26.41,2.38,2.38,0,0,0-.84,1.14,8.13,8.13,0,0,0-.19,2.16v3.25a1.69,1.69,0,0,1-.37,1.18,1.23,1.23,0,0,1-.94.39,1.17,1.17,0,0,1-.92-.41,1.71,1.71,0,0,1-.36-1.17v-7.49a1.63,1.63,0,0,1,.32-1.11,1.12,1.12,0,0,1,.88-.37,1.2,1.2,0,0,1,.62.16,1.17,1.17,0,0,1,.44.48A1.71,1.71,0,0,1,331.15,777.13Z"/><path d="M346.93,781.6h-5.07a3.44,3.44,0,0,0,.36,1.56,2.38,2.38,0,0,0,2.19,1.36,3.14,3.14,0,0,0,.85-.11,2.82,2.82,0,0,0,.75-.34,5.75,5.75,0,0,0,.67-.5l.79-.72a.85.85,0,0,1,.57-.17.94.94,0,0,1,.65.22.78.78,0,0,1,.25.62,1.68,1.68,0,0,1-.28.82,3.27,3.27,0,0,1-.83.9,4.75,4.75,0,0,1-1.4.72,6,6,0,0,1-1.93.29,5.18,5.18,0,0,1-3.89-1.42,5.31,5.31,0,0,1-1.39-3.87,6.45,6.45,0,0,1,.34-2.13,4.7,4.7,0,0,1,1-1.69,4.33,4.33,0,0,1,1.61-1.08,5.8,5.8,0,0,1,2.13-.37,5,5,0,0,1,2.61.64,4.22,4.22,0,0,1,1.63,1.66,4.37,4.37,0,0,1,.54,2.07c0,.65-.19,1.08-.56,1.27A3.5,3.5,0,0,1,346.93,781.6Zm-5.07-1.47h4.7a3.15,3.15,0,0,0-.72-2,2.15,2.15,0,0,0-1.64-.66,2.08,2.08,0,0,0-1.59.67A3.33,3.33,0,0,0,341.86,780.13Z"/><path d="M357.5,784.76v-.26a6.54,6.54,0,0,1-1,1,3.83,3.83,0,0,1-1.1.57,4.08,4.08,0,0,1-1.3.2,3.82,3.82,0,0,1-1.72-.39,4,4,0,0,1-1.37-1.13,5.11,5.11,0,0,1-.88-1.72,7.34,7.34,0,0,1-.3-2.14,5.57,5.57,0,0,1,1.19-3.79,4,4,0,0,1,3.13-1.36,4.22,4.22,0,0,1,1.89.38,5.3,5.3,0,0,1,1.5,1.18v-3.83a1.93,1.93,0,0,1,.32-1.21,1.08,1.08,0,0,1,.91-.41,1.12,1.12,0,0,1,.91.38,1.67,1.67,0,0,1,.32,1.11v11.44a1.59,1.59,0,0,1-.34,1.11,1.15,1.15,0,0,1-.88.37,1.13,1.13,0,0,1-.88-.38A1.59,1.59,0,0,1,357.5,784.76Zm-5.1-3.81a4.42,4.42,0,0,0,.33,1.79,2.49,2.49,0,0,0,.9,1.12,2.21,2.21,0,0,0,1.24.38,2.29,2.29,0,0,0,1.25-.36,2.44,2.44,0,0,0,.9-1.09,4.42,4.42,0,0,0,.34-1.84,4.3,4.3,0,0,0-.34-1.78,2.68,2.68,0,0,0-.91-1.14,2.19,2.19,0,0,0-1.26-.39,2.13,2.13,0,0,0-1.27.4,2.59,2.59,0,0,0-.87,1.16A4.6,4.6,0,0,0,352.4,780.95Z"/><path d="M368.09,773.32v4a6,6,0,0,1,1.49-1.16,4,4,0,0,1,1.88-.4,4.18,4.18,0,0,1,2.27.61,4,4,0,0,1,1.51,1.78,6.54,6.54,0,0,1,.54,2.76,7.41,7.41,0,0,1-.3,2.16,5.14,5.14,0,0,1-.87,1.7,3.93,3.93,0,0,1-1.38,1.12,4,4,0,0,1-1.79.39,4.26,4.26,0,0,1-1.13-.14,3.25,3.25,0,0,1-.9-.37,4,4,0,0,1-.63-.48c-.17-.16-.4-.41-.69-.74v.26a1.57,1.57,0,0,1-.35,1.11,1.17,1.17,0,0,1-.89.37,1.11,1.11,0,0,1-.88-.37,1.64,1.64,0,0,1-.33-1.11V773.43a1.9,1.9,0,0,1,.32-1.19,1.07,1.07,0,0,1,.89-.4,1.14,1.14,0,0,1,.92.38A1.67,1.67,0,0,1,368.09,773.32Zm.12,7.7a3.56,3.56,0,0,0,.71,2.38,2.32,2.32,0,0,0,1.86.83,2.13,2.13,0,0,0,1.69-.85,3.71,3.71,0,0,0,.71-2.44,4.77,4.77,0,0,0-.29-1.77A2.57,2.57,0,0,0,372,778a2.06,2.06,0,0,0-1.26-.4,2.26,2.26,0,0,0-1.32.4,2.68,2.68,0,0,0-.91,1.17A4.55,4.55,0,0,0,368.22,781Z"/><path d="M379.14,786.56l.24-.58-3.19-8a3,3,0,0,1-.29-1,1.17,1.17,0,0,1,.17-.62,1.27,1.27,0,0,1,.47-.46,1.23,1.23,0,0,1,.62-.17,1,1,0,0,1,.85.36,3.27,3.27,0,0,1,.5,1l2.19,6.38,2.08-5.94a10.23,10.23,0,0,1,.45-1.13,1.31,1.31,0,0,1,.42-.55,1.17,1.17,0,0,1,.63-.14,1.15,1.15,0,0,1,1,.58,1.14,1.14,0,0,1,.15.56c0,.12-.07.29-.12.51s-.13.45-.21.67l-3.38,8.85a10.39,10.39,0,0,1-.86,1.83,2.8,2.8,0,0,1-1.11,1,4.06,4.06,0,0,1-1.86.36,4.52,4.52,0,0,1-1.71-.25.9.9,0,0,1-.57-.9.87.87,0,0,1,.27-.69,1.17,1.17,0,0,1,.8-.24,1.45,1.45,0,0,1,.41.06,2,2,0,0,0,.43.06,1.53,1.53,0,0,0,.7-.13,1.22,1.22,0,0,0,.46-.46A7,7,0,0,0,379.14,786.56Z"/><path d="M416.7,775.92h.62v-.78a5,5,0,0,1,.31-1.94,2,2,0,0,1,1-1,5.09,5.09,0,0,1,2-.33c1.52,0,2.27.37,2.27,1.11a.87.87,0,0,1-.24.62.73.73,0,0,1-.56.26,3.74,3.74,0,0,1-.53-.06,4.77,4.77,0,0,0-.62-.06.91.91,0,0,0-.91.41,2.9,2.9,0,0,0-.2,1.18v.62h.63c1,0,1.48.3,1.48.9,0,.42-.13.69-.39.8a2.79,2.79,0,0,1-1.09.17h-.63v6.87a1.65,1.65,0,0,1-.37,1.17,1.27,1.27,0,0,1-1.86,0,1.68,1.68,0,0,1-.36-1.17v-6.87h-.71a1.34,1.34,0,0,1-.89-.26.84.84,0,0,1-.31-.68c0-.62.43-.93,1.3-.93"/><path d="M425.19,782.49v2.17a1.69,1.69,0,0,1-.37,1.18,1.22,1.22,0,0,1-.94.39,1.17,1.17,0,0,1-.93-.4,1.71,1.71,0,0,1-.36-1.17v-7.22q0-1.75,1.26-1.75a1.05,1.05,0,0,1,.93.41,2.29,2.29,0,0,1,.32,1.21,4.51,4.51,0,0,1,.95-1.21,2,2,0,0,1,1.31-.41,3.31,3.31,0,0,1,1.58.41,1.22,1.22,0,0,1,.77,1.08,1,1,0,0,1-.33.78,1,1,0,0,1-.71.31,3.27,3.27,0,0,1-.69-.18,3.34,3.34,0,0,0-1-.17,1.43,1.43,0,0,0-.93.3,2,2,0,0,0-.56.89,6.71,6.71,0,0,0-.27,1.4c0,.54-.07,1.2-.07,2"/><path d="M437.11,781.6H432a3.49,3.49,0,0,0,.35,1.56,2.51,2.51,0,0,0,.92,1,2.44,2.44,0,0,0,1.27.34,2.91,2.91,0,0,0,.85-.11,2.68,2.68,0,0,0,.75-.34,5,5,0,0,0,.66-.5l.79-.72a.86.86,0,0,1,.57-.17.94.94,0,0,1,.65.22.78.78,0,0,1,.24.62,1.7,1.7,0,0,1-.27.82,3.29,3.29,0,0,1-.84.91,4.8,4.8,0,0,1-1.4.71,6,6,0,0,1-1.93.29,5.17,5.17,0,0,1-3.89-1.42,5.32,5.32,0,0,1-1.39-3.87,6.4,6.4,0,0,1,.35-2.13,4.6,4.6,0,0,1,1-1.69,4.26,4.26,0,0,1,1.61-1.08,5.81,5.81,0,0,1,2.13-.37,5,5,0,0,1,2.61.65,4.15,4.15,0,0,1,1.63,1.65,4.37,4.37,0,0,1,.54,2.07,1.3,1.3,0,0,1-.56,1.27,3.48,3.48,0,0,1-1.58.29M432,780.13h4.7a3.12,3.12,0,0,0-.71-2,2.14,2.14,0,0,0-1.64-.66,2.07,2.07,0,0,0-1.59.67,3.32,3.32,0,0,0-.75,2"/><path d="M447.9,781.6h-5.07a3.46,3.46,0,0,0,.35,1.56,2.49,2.49,0,0,0,.92,1,2.44,2.44,0,0,0,1.27.34,2.87,2.87,0,0,0,.84-.11,2.7,2.7,0,0,0,.75-.34,5,5,0,0,0,.66-.5l.79-.72a.86.86,0,0,1,.57-.17.94.94,0,0,1,.65.22.78.78,0,0,1,.24.62,1.64,1.64,0,0,1-.27.82,3.08,3.08,0,0,1-.83.91,4.77,4.77,0,0,1-1.4.71,6,6,0,0,1-1.93.29,5.18,5.18,0,0,1-3.89-1.42,5.32,5.32,0,0,1-1.39-3.87,6.38,6.38,0,0,1,.35-2.13,4.68,4.68,0,0,1,1-1.69,4.27,4.27,0,0,1,1.61-1.08,5.82,5.82,0,0,1,2.13-.37,5.07,5.07,0,0,1,2.61.65,4.16,4.16,0,0,1,1.62,1.65A4.39,4.39,0,0,1,450,780a1.3,1.3,0,0,1-.56,1.27,3.49,3.49,0,0,1-1.58.29m-5.07-1.47h4.7a3.16,3.16,0,0,0-.71-2,2.15,2.15,0,0,0-1.64-.66,2.07,2.07,0,0,0-1.59.67,3.3,3.3,0,0,0-.75,2"/><path d="M453.58,777.15v.31a5.08,5.08,0,0,1,1.52-1.32,3.66,3.66,0,0,1,1.78-.43,4.18,4.18,0,0,1,2.21.62,4.28,4.28,0,0,1,1.59,1.81,6.32,6.32,0,0,1,.59,2.81,6.92,6.92,0,0,1-.34,2.2,4.93,4.93,0,0,1-.93,1.68,4.09,4.09,0,0,1-1.39,1,4.18,4.18,0,0,1-1.73.36,3.6,3.6,0,0,1-1.87-.45,5.34,5.34,0,0,1-1.44-1.31v3.89c0,1.14-.42,1.71-1.24,1.71a1,1,0,0,1-1-.44,2.9,2.9,0,0,1-.23-1.29V777.16a1.65,1.65,0,0,1,.32-1.11,1.14,1.14,0,0,1,.88-.36,1.16,1.16,0,0,1,.9.37,1.53,1.53,0,0,1,.35,1.08m5.08,3.77a4.5,4.5,0,0,0-.31-1.76,2.57,2.57,0,0,0-.87-1.13,2.08,2.08,0,0,0-1.23-.4,2.32,2.32,0,0,0-1.81.84,3.7,3.7,0,0,0-.74,2.49,3.59,3.59,0,0,0,.74,2.41,2.28,2.28,0,0,0,1.81.86,2.12,2.12,0,0,0,1.2-.37,2.55,2.55,0,0,0,.88-1.13,4.49,4.49,0,0,0,.33-1.82"/><path d="M463.88,774.48a1.36,1.36,0,0,1-.92-.33,1.28,1.28,0,0,1,0-1.85,1.33,1.33,0,0,1,.91-.36,1.36,1.36,0,0,1,.89.32,1.17,1.17,0,0,1,.39.95,1.19,1.19,0,0,1-.38.94,1.33,1.33,0,0,1-.91.34m1.28,2.68v7.5a1.66,1.66,0,0,1-.37,1.17,1.22,1.22,0,0,1-.94.4,1.18,1.18,0,0,1-.93-.41,1.76,1.76,0,0,1-.36-1.17v-7.43a1.68,1.68,0,0,1,.36-1.15,1.19,1.19,0,0,1,.93-.39,1.23,1.23,0,0,1,.94.39,1.51,1.51,0,0,1,.37,1.08"/><path d="M473.52,785.05l-2.28-3.77-1.41,1.33v2.07a1.57,1.57,0,0,1-.4,1.15,1.22,1.22,0,0,1-.91.41,1.16,1.16,0,0,1-.94-.4,1.76,1.76,0,0,1-.34-1.17V773.6a2.24,2.24,0,0,1,.33-1.31,1.11,1.11,0,0,1,1-.45,1.19,1.19,0,0,1,.95.41,1.8,1.8,0,0,1,.35,1.2v6.29l2.92-3.06a7.11,7.11,0,0,1,.83-.78,1.13,1.13,0,0,1,.69-.21,1.15,1.15,0,0,1,.82.31,1,1,0,0,1,.32.77c0,.38-.35.89-1.05,1.52L473,779.56l2.66,4.18c.19.31.34.54.42.71a1,1,0,0,1,.13.46,1.36,1.36,0,0,1-.34,1,1.17,1.17,0,0,1-.89.35,1,1,0,0,1-.73-.26,6.48,6.48,0,0,1-.7-.93"/><path d="M479.16,786.24a1.47,1.47,0,0,1-1-.38,1.34,1.34,0,0,1-.43-1.06,1.37,1.37,0,0,1,.41-1,1.35,1.35,0,0,1,1-.42,1.43,1.43,0,0,1,1,.41,1.47,1.47,0,0,1,0,2.06,1.44,1.44,0,0,1-1,.39"/><path d="M492.06,783a2.23,2.23,0,0,1-.29,1,3.48,3.48,0,0,1-.89,1,4.51,4.51,0,0,1-1.5.8,6.36,6.36,0,0,1-2,.31,5,5,0,0,1-3.76-1.4,5.21,5.21,0,0,1-1.35-3.76,6.15,6.15,0,0,1,.62-2.82,4.41,4.41,0,0,1,1.78-1.89,6.08,6.08,0,0,1,4.65-.37,4.9,4.9,0,0,1,1.42.76,3.75,3.75,0,0,1,.89,1,2,2,0,0,1,.31,1,1,1,0,0,1-.34.79,1.2,1.2,0,0,1-.84.32.86.86,0,0,1-.54-.17,2.47,2.47,0,0,1-.48-.54,3.85,3.85,0,0,0-1-1.08,2.22,2.22,0,0,0-1.31-.36,2.24,2.24,0,0,0-1.85.9,3.89,3.89,0,0,0-.7,2.45,4.77,4.77,0,0,0,.18,1.35,3,3,0,0,0,.52,1,2.28,2.28,0,0,0,.83.65,2.46,2.46,0,0,0,1.06.23,2.4,2.4,0,0,0,1.34-.36,3.1,3.1,0,0,0,1-1.1,2.6,2.6,0,0,1,.51-.68,1,1,0,0,1,.68-.25,1,1,0,0,1,.79.36,1.15,1.15,0,0,1,.32.77"/><path d="M503.25,781a6.33,6.33,0,0,1-.36,2.14,4.76,4.76,0,0,1-1,1.68,4.65,4.65,0,0,1-1.63,1.08,5.88,5.88,0,0,1-2.14.38,5.6,5.6,0,0,1-2.12-.38,4.67,4.67,0,0,1-1.63-1.08,4.84,4.84,0,0,1-1.05-1.68,6.66,6.66,0,0,1,0-4.29,4.69,4.69,0,0,1,1-1.67,4.63,4.63,0,0,1,1.63-1.07,5.83,5.83,0,0,1,2.12-.37,5.7,5.7,0,0,1,2.14.38,4.58,4.58,0,0,1,2.68,2.75,6.29,6.29,0,0,1,.35,2.14m-2.6,0a3.89,3.89,0,0,0-.7-2.47,2.25,2.25,0,0,0-1.87-.89,2.34,2.34,0,0,0-1.34.39,2.48,2.48,0,0,0-.89,1.16,4.75,4.75,0,0,0-.32,1.8,4.65,4.65,0,0,0,.31,1.77,2.54,2.54,0,0,0,.89,1.17,2.32,2.32,0,0,0,1.35.4,2.25,2.25,0,0,0,1.87-.89,3.88,3.88,0,0,0,.7-2.45"/><path d="M513.14,781.16v3.45a1.77,1.77,0,0,1-.37,1.23,1.26,1.26,0,0,1-1,.41,1.2,1.2,0,0,1-1-.41,1.78,1.78,0,0,1-.37-1.23v-4.13a13.85,13.85,0,0,0-.06-1.52,1.67,1.67,0,0,0-.36-.88,1.15,1.15,0,0,0-.93-.35,1.65,1.65,0,0,0-1.68.88,6.15,6.15,0,0,0-.41,2.51v3.5a1.83,1.83,0,0,1-.36,1.22,1.34,1.34,0,0,1-1.93,0,1.76,1.76,0,0,1-.38-1.22v-7.42a1.62,1.62,0,0,1,.34-1.11,1.14,1.14,0,0,1,.89-.38,1.23,1.23,0,0,1,.89.36,1.34,1.34,0,0,1,.35,1v.25a4.54,4.54,0,0,1,1.44-1.18,3.74,3.74,0,0,1,1.71-.39,3.41,3.41,0,0,1,1.68.39,3.1,3.1,0,0,1,1.16,1.18,4.6,4.6,0,0,1,1.41-1.18,3.58,3.58,0,0,1,1.66-.39,3.82,3.82,0,0,1,1.83.42,2.69,2.69,0,0,1,1.15,1.2,5.54,5.54,0,0,1,.33,2.22v5.06a1.79,1.79,0,0,1-.37,1.23,1.36,1.36,0,0,1-1.94,0,1.77,1.77,0,0,1-.38-1.22v-4.36a10.27,10.27,0,0,0-.07-1.34,1.54,1.54,0,0,0-.38-.85,1.24,1.24,0,0,0-1-.34,1.76,1.76,0,0,0-1,.31,2.1,2.1,0,0,0-.72.81,6.63,6.63,0,0,0-.28,2.32"/><path d="M392.44,780.34a0,0,0,0,1,0,0A0,0,0,0,0,392.44,780.34Z"/><path d="M392.57,781.17h0c0-.24-.09-.47-.12-.7C392.48,780.7,392.52,780.93,392.57,781.17Z"/><path d="M393.42,783.57l0,0Z"/><path d="M393.34,783.41l-.07-.13Z"/><path d="M392.81,782.09a8.93,8.93,0,0,0,.46,1.16,8.94,8.94,0,0,1-.45-1.16Z"/><path d="M402.47,770.4a7.25,7.25,0,0,1,1.29.11l.12-.76a7.94,7.94,0,0,0-2.71-.23l-.12-.42a1.06,1.06,0,1,0-.44,0l.13.46a10.75,10.75,0,0,0-2.94.86l.23.71a12.67,12.67,0,0,1,2.62-.61A17.31,17.31,0,0,1,402.47,770.4Z"/><path d="M393.4,774.26h0l.11-.14-.31-.23-.49-.36a7.24,7.24,0,0,0-1.4,2l-.09-.12a1,1,0,0,0-.76-.29h0A.62.62,0,0,1,390,775a.66.66,0,0,0,.14-.41.67.67,0,1,0-.67.67l.17,0a1,1,0,0,0,.81.33.55.55,0,0,1,.44.16.73.73,0,0,1,.16.43h0a7.27,7.27,0,0,0-.31,2.67l1.06,0a8,8,0,0,1,.37-2.23A10.39,10.39,0,0,1,393.4,774.26Z"/><path d="M411.67,771.28a.67.67,0,0,0-.67.67.61.61,0,0,0,0,.17,1,1,0,0,0-.34.81.54.54,0,0,1-.15.44.68.68,0,0,1-.3.14,8.14,8.14,0,0,0-1.76-1.78l-.76.81a11.82,11.82,0,0,1,1.73,2,13.88,13.88,0,0,1,1.14,2l1-.49a15.6,15.6,0,0,0-1.13-2.19,1,1,0,0,0,.33-.19,1,1,0,0,0,.29-.76.63.63,0,0,1,.15-.44.68.68,0,0,0,.41.14.67.67,0,1,0,0-1.34Z"/><path d="M409,780.49a22.76,22.76,0,0,1-6.78,2,25.06,25.06,0,0,1-3.43.23,28.69,28.69,0,0,1-3.56-.22c-1.08-.14-1.92-.3-2.43-.42a8.94,8.94,0,0,0,.45,1.16v0l.07.13.06.13,0,0a7.56,7.56,0,0,0,1.08,1.55,5.65,5.65,0,0,0,2.92,1.83h0a11.62,11.62,0,0,0,3.29.42,14.42,14.42,0,0,0,5.67-1.17,9.26,9.26,0,0,0,3.25-2.67,7.46,7.46,0,0,0,1-2.29,6,6,0,0,0,.15-1.83A15.79,15.79,0,0,1,409,780.49Z"/><path d="M393.86,774.59a10.2,10.2,0,0,0-1.14,2.25,8.43,8.43,0,0,0-.35,2.46h0a9,9,0,0,0,.06,1,0,0,0,0,0,0,0s0,.08,0,.13c0,.23.07.47.12.7a26.88,26.88,0,0,0,9.55.5,21.92,21.92,0,0,0,6.5-1.93,14.32,14.32,0,0,0,2.12-1.24,14,14,0,0,0-1.74-3.65c-2-2.87-4.17-3.6-5.28-3.78a7,7,0,0,0-1.24-.11,17.05,17.05,0,0,0-1.74.11,11.85,11.85,0,0,0-2.53.6,9.77,9.77,0,0,0-3.53,2l0,0A6.85,6.85,0,0,0,393.86,774.59Zm12.27-.67a1.74,1.74,0,1,1-1.74,1.74A1.74,1.74,0,0,1,406.13,773.93Zm-8.24-.07a2.82,2.82,0,1,1-2.82,2.82A2.82,2.82,0,0,1,397.89,773.86Z"/><rect class="cls-2" width="800" height="800"/></g><g id="Objects"><path class="cls-3" d="M271,239v56s-.5,10,.25,14,2,8.25,3.5,10,2.12,4.25,5.25,4.25c1.5,0,3.25-2,3.25-4.5s-.75-7-1-9.25,1.13-6.5-.12-8.75a10.58,10.58,0,0,0-2.62-3.25l.25-54.5Z"/><path class="cls-4" d="M288.67,206.33C273.22,204.4,267,214.33,267,223v17.67s1,7.45,5.67,9.33c10,4,21.33-3.33,21.33-3.33l-1.33-20.33C292.67,218.33,294,207,288.67,206.33Z"/><path class="cls-5" d="M267,234.56v6.11s1,7.45,5.67,9.33c10,4,21.33-3.33,21.33-3.33l-.24-3.73C282.3,245.67,270.75,246.09,267,234.56Z"/><path class="cls-6" d="M293.33,267.33C284.44,268.29,280,272,280,278v65s3,13.33,19.17,19.17S338.67,368,348,364s10-13.33,10-17.33V300.49a21.4,21.4,0,0,0-12.22-19.36,211.31,211.31,0,0,0-21.11-8.46C307.33,266.67,298,266.83,293.33,267.33Z"/><path class="cls-7" d="M327,199.25c13.84,5.81,28.5,15.88,28.5,45.88s-.5,36.44-.5,36.44,2.5,6.44-9.5,12.44-22,2-22,2l-34.1-10.95a15.06,15.06,0,0,1-9.66-9.42A66.11,66.11,0,0,1,277,263.5c-1-6.93,0-47.5,0-47.5s-3.32-9.17,13-17.33C299.33,194,314.5,194,327,199.25Z"/><path class="cls-4" d="M290,198.67a36.27,36.27,0,0,0-7.55,4.89c4.83,5.95,11.1,12.22,14.22,18.45,5.85,11.7,5.36,45.69,5.33,67.11l1.13.36,2.61.84c-.31-19.26-5.47-42.24,2.93-57.65,4-7.33,18.67-8.67,38.66-18.34q-.5-.71-1-1.38l0,0-.1-.13c-.31-.39-.63-.78-.95-1.15l-.2-.23c-.3-.34-.6-.68-.91-1l-.26-.27c-.29-.31-.59-.61-.89-.9l0,0-.27-.26-.88-.82-.25-.22-.08-.07-.88-.75-.14-.11-.22-.18-.88-.69-.38-.29-.88-.63-.41-.28-.88-.58-.43-.28-.88-.55-.22-.13-.22-.13-.88-.51-.26-.15-.19-.11-.88-.47-.1-.05-.36-.19-.88-.45-.31-.15-.16-.08-.89-.43-.46-.22-.95-.43-.21-.1-.18-.08-1.34-.57C314.5,194,299.33,194,290,198.67Z"/><path class="cls-3" d="M359,322.18V249.42c0-5.37-6.34-9.71-11.71-9.67h0l.25,84c-1.15,2.1-4,4.91-4.89,7a22.36,22.36,0,0,0-1.14,14.28c.29,1.16,1.37,2.57,2.37,1.92a1.94,1.94,0,0,0,.67-1.25,34.55,34.55,0,0,0,.85-5.87c1.69,3.58,2.32,7.16.72,10.75a3.56,3.56,0,0,0,.18,3.36c1.32,2.07,3.57,1,4.93-.28,3.37-3.21,4.82-8,5.3-12.61s2.08-9.32,2.51-14A14,14,0,0,0,359,322.18Z"/><path class="cls-8" d="M280,150v22c0,7.5-6,19.5-6,19.5s7-.75,12.25-3.5,3.5-1.75,3.5-1.75l-3-37.25Z"/><path class="cls-3" d="M283,151v25c0,11.33,5.33,33.33,13.33,37.33s21.5-.67,28.17-5.33S341,191,341,191V157c0-10.67-5.67-20.67-20.67-22.67S283,139,283,151Z"/><path class="cls-9" d="M276.25,148.75c.32-6.4,1-16.08,17-22.75a53.57,53.57,0,0,1,45,2C350,134,356,146.15,356,163.5c0,29.5-21.25,39.5-21.25,39.5a80.53,80.53,0,0,0,3.5-22.75c0-3.51-1.25-9.58-5.92-7.58s-4.17,8-4.17,8L324,183.33V170s-9.67,1.33-21.67-4.67-12-13.33-12-13.33a47.24,47.24,0,0,1-4.33,6.33,20.89,20.89,0,0,1-3.25,3.17S275.92,155.42,276.25,148.75Z"/><path class="cls-8" d="M332,163c-16,0-38-2-42-21,.93,6.54-6,16.57-12.62,12.14a24.48,24.48,0,0,0,5.37,7.36,20.89,20.89,0,0,0,3.25-3.17,47.24,47.24,0,0,0,4.33-6.33s0,7.33,12,13.33S324,170,324,170v13.33l4.17-2.67s-.5-6,4.17-8,5.92,4.07,5.92,7.58a80.53,80.53,0,0,1-3.5,22.75s.41-.19,1.09-.59A38.21,38.21,0,0,0,345,186C346,177,343,163,332,163Z"/><path class="cls-4" d="M346.33,226.33c5.33-3.33,8.88-1.74,15,5,4.17,4.58,3.67,8.33,3.67,16.67v14s-4,9.33-13,9.33-13-8-13-8v-14c0-4.33,1.17-12,1.5-15.33S345,227.17,346.33,226.33Z"/><path class="cls-5" d="M339,259.13v4.2s4,8,13,8S365,262,365,262v-1.37c-1.62.64-5.31,3.09-7,3.37C351.57,265.61,343.86,264,339,259.13Z"/><polygon class="cls-4" points="312 243.33 329 249.33 329 264 320 267.33 312 258 312 243.33"/><polygon class="cls-10" points="278.67 232 294 237.67 294.67 251 279.33 245.67 278.67 232"/><polygon class="cls-11" points="280 235.25 292.78 239.47 293.33 249.42 280.56 245.44 280 235.25"/><g class="cls-12"><path class="cls-13" d="M272,303.75c-.05,4.77,0,7.51,1.74,11.2a2.89,2.89,0,0,0,1.06,1.32,1.25,1.25,0,0,0,1.57-.19,1.8,1.8,0,0,0,.29-1,20,20,0,0,0,.07-3.26,2.43,2.43,0,0,1,.07-1,2.71,2.71,0,0,1,.69-.9,7.81,7.81,0,0,0,.29-10.23"/></g><polygon class="cls-14" points="205 320 230 306 547 464 521 478 205 320"/><polygon class="cls-15" points="225.5 319 209 303.5 287.5 339 322 367.5 309 362.5 225.5 319"/><polygon class="cls-16" points="220.5 324 229 316 278.5 340 271.5 350 220.5 324"/><polyline class="cls-17" points="278.5 340 309 362.5 306.67 366.67 271.5 350"/><polygon class="cls-17" points="291 333.5 290.87 333.44 287.21 338.87 287.5 339 322 367.5 325.5 364 291 333.5"/><polygon class="cls-16" points="212.5 299 209 303.5 287.21 338.87 290.87 333.44 212.5 299"/><polygon class="cls-15" points="410.5 412 394 396.5 472.5 432 507 460.5 494 455.5 410.5 412"/><polygon class="cls-16" points="405.5 417 414 409 463.5 433 456.5 443 405.5 417"/><polyline class="cls-17" points="463.5 433 494 455.5 491.67 459.67 456.5 443"/><polygon class="cls-17" points="476 426.5 475.87 426.44 472.21 431.87 472.5 432 507 460.5 510.5 457 476 426.5"/><polygon class="cls-16" points="397.5 392 394 396.5 472.21 431.87 475.87 426.44 397.5 392"/><polygon class="cls-18" points="511 578 704.25 481.25 704 496 511 593 511 578"/><polygon class="cls-14" points="74 384 74 517 511 736 510 603 74 384"/><polygon class="cls-19" points="83 379 83 363 511 578 511 593 83 379"/><polygon class="cls-20" points="510 603 712 500 712 634 511 736 510 603"/><polygon class="cls-20" points="511 578 714 477 714 445 511 547 511 578"/><polygon class="cls-21" points="74 327 150 288 513 469 634 406 714 445 511 547 74 327"/><path class="cls-22" d="M620.43,492c-2-9.55-9.29-18.79-22-26.12-15-8.69-34.76-13-54.47-13L513,469l-14.83-7.39a81.32,81.32,0,0,0-8.62,4.29c-30.07,17.36-30.07,45.51,0,62.88,10,5.76,22,9.6,34.76,11.54Z"/><polyline class="cls-23" points="644 388 674 404 674 433 644 433 644 392"/><polygon class="cls-16" points="612 405 644 388 644 434 612 405"/><path class="cls-24" d="M620.18,352.94a151.32,151.32,0,0,1,8.34,54.57c-.06,1.93,2.94,1.93,3,0a153.66,153.66,0,0,0-8.45-55.37c-.63-1.81-3.53-1-2.89.8Z"/><polygon class="cls-25" points="618.25 407.25 643.5 394.5 668.75 407.25 642.75 421 618 409.75 618.25 407.25"/><path class="cls-26" d="M636,419.5s8-13.5-6-33-36-28-36-28,17.5,16.5,24.5,31a323.41,323.41,0,0,1,13,32.5Z"/><path class="cls-27" d="M639.5,403s-3-4.5-3-19,2.5-22.5,3.5-35,0-18.5,0-18.5,6,12.5,8.5,23,5,21.5,3,32.5a37.55,37.55,0,0,1-8,17.5Z"/><path class="cls-28" d="M649,405.33s-.67-10.67,12-18.67,32.67-9.33,32.67-9.33-19.08,4.75-24,17.33-8.67,12.67-12,14a13,13,0,0,1-6.67.67Z"/><path class="cls-24" d="M649.38,406.61c.72-15.85,13.16-26.42,26.54-32.78,1.74-.83.22-3.42-1.51-2.59-14.41,6.85-27.25,18.43-28,35.37-.09,1.93,2.91,1.93,3,0Z"/><polygon class="cls-29" points="643 463 673 448 674 404 643 419 643 463"/><path class="cls-24" d="M647.26,403.79c-.93-23.63,3.35-48.62,21.67-65.2,1.43-1.3-.69-3.41-2.12-2.12-18.88,17.09-23.51,42.94-22.55,67.33.08,1.92,3.08,1.93,3,0Z"/><path class="cls-24" d="M632.37,416c-3.43-10.36-8.34-20.65-15.39-29-.62-.74-1.68.33-1.06,1.06,6.87,8.18,11.67,18.3,15,28.38.3.91,1.75.52,1.45-.4Z"/><path class="cls-24" d="M638.17,418.86a48.63,48.63,0,0,1,3.32-42.54,1.5,1.5,0,0,0-2.59-1.51,51.48,51.48,0,0,0-3.62,44.85c.69,1.78,3.6,1,2.89-.8Z"/><path class="cls-26" d="M638.33,414s-.83-7.75,9.17-11.75,16.56-.3,21.25,5a26.67,26.67,0,0,1,6.25,14.5S669.58,411,658.25,409s-14,5.58-16,6.25S638.33,414,638.33,414Z"/><polygon class="cls-23" points="612 448 612 405 643 419 643 463 612 448"/><path class="cls-29" d="M675.61,344.52a9.21,9.21,0,1,1-12.21-13.79c3.81-3.37,11.24-9.58,17.07-3S679.41,341.14,675.61,344.52Z"/><path class="cls-30" d="M682.7,333.34h0A9,9,0,0,0,676,325a1.65,1.65,0,0,0-.46.28c-1.21,1.07-.59,3.75,1.39,6S681.49,334.41,682.7,333.34Z"/><path class="cls-19" d="M680.63,333.68a9.39,9.39,0,0,0-5.71-6.71,7.31,7.31,0,0,0,2,4.27A7.62,7.62,0,0,0,680.63,333.68Z"/><path class="cls-29" d="M629.52,343.25a10.5,10.5,0,1,1-19.83,6.91c-1.91-5.48-2.23-15.28,4.45-17.61S627.61,337.77,629.52,343.25Z"/><path class="cls-30" d="M614.14,332.55a7.48,7.48,0,0,0-4.25,3.79,1.9,1.9,0,0,0,.09.48c.61,1.74,3.63,2.26,6.76,1.17,2.79-1,4.71-2.9,4.67-4.54A8.74,8.74,0,0,0,614.14,332.55Z"/><path class="cls-19" d="M620.59,335.47a8.13,8.13,0,0,0-5.46-.09,7.28,7.28,0,0,0-3.66,2.82,7.93,7.93,0,0,0,5.28-.21A8.61,8.61,0,0,0,620.59,335.47Z"/><path class="cls-29" d="M651.41,374.55a9.35,9.35,0,1,1-15.49-10.49c2.9-4.28,9.73-9.73,14.95-6.19S654.31,370.27,651.41,374.55Z"/><path class="cls-30" d="M653.48,362.5a2.17,2.17,0,0,0,.28-.58,7.27,7.27,0,0,0-2.88-4.05,6.76,6.76,0,0,0-5.36-1l-.1.13c-1,1.47,0,3.88,2.24,5.39S652.48,364,653.48,362.5Z"/><path class="cls-19" d="M647.65,362.42a5.91,5.91,0,0,0,4.06,1.1,2.65,2.65,0,0,0,.14-.32,5.39,5.39,0,0,0-2.19-3.58,5.13,5.13,0,0,0-4.53-.48A6,6,0,0,0,647.65,362.42Z"/><path class="cls-29" d="M618.36,378.74a8.25,8.25,0,1,1-12.73,10.51c-2.9-3.51-5.82-10.65-1.53-14.2S615.46,375.23,618.36,378.74Z"/><path class="cls-30" d="M608.68,374a1.91,1.91,0,0,0-.42-.38,6.42,6.42,0,0,0-4.15,1.43,6,6,0,0,0-2.14,4.3l.08.12c1,1.2,3.28,1,5.12-.56S609.67,375.21,608.68,374Z"/><path class="cls-19" d="M607.16,378.92a5.21,5.21,0,0,0,1.94-3.16l-.24-.2a4.75,4.75,0,0,0-3.58,1,4.52,4.52,0,0,0-1.53,3.71A5.25,5.25,0,0,0,607.16,378.92Z"/><path class="cls-29" d="M681.85,378.27a9.86,9.86,0,1,1-7.71-18.14c5-2.13,14.18-3,16.78,3.07S686.86,376.14,681.85,378.27Z"/><path class="cls-30" d="M690.57,368.78a2.28,2.28,0,0,0,.58-.35,7.67,7.67,0,0,0-.23-5.24,7.12,7.12,0,0,0-4.2-3.91l-.16.05c-1.72.73-2.21,3.44-1.1,6S688.85,369.52,690.57,368.78Z"/><path class="cls-19" d="M685.45,365.38a6.23,6.23,0,0,0,3,3.3,2.78,2.78,0,0,0,.31-.2,5.68,5.68,0,0,0,.11-4.42,5.4,5.4,0,0,0-3.73-3A6.28,6.28,0,0,0,685.45,365.38Z"/><polygon class="cls-31" points="526.13 451.63 540 491.42 543.33 490.17 529.88 449.88 526.13 451.63"/><polygon class="cls-19" points="534.25 449.25 538.13 447 529.88 449.88 526.13 451.63 534.25 449.25"/><polygon class="cls-21" points="536.58 495.25 532.25 493.33 536.25 491.92 540.33 493.58 536.58 495.25"/><polyline class="cls-32" points="543.33 490.17 540.33 493.58 536.58 495.25 540 491.42"/><polygon class="cls-32" points="557.67 494 553.33 496 548.67 494 552.67 492 557.67 494"/><polygon class="cls-19" points="553.33 496 548.06 491.88 544 490.33 548.67 494 553.33 496"/><polyline class="cls-33" points="544 490.33 554.96 450.25 560.21 452.46 548.06 491.88 544 490.33"/><polygon class="cls-19" points="560.21 452.46 550 449.5 544.83 446.83 554.96 450.25 560.21 452.46"/><polygon class="cls-19" points="549.33 451.33 555.33 462.67 550.67 465.33 544.33 454 549.33 451.33"/><polygon class="cls-34" points="555.33 462.67 550.67 465.33 544 494.33 548.33 491.67 555.33 462.67"/><polygon class="cls-33" points="548.33 491.67 550.67 498.33 546.33 500.67 544 494.33 548.33 491.67"/><polygon class="cls-31" points="550.67 498.33 556.67 501 552.33 503.33 546.33 500.67 550.67 498.33"/><polygon class="cls-19" points="534 452.33 528 463.67 532.67 466.33 539 455 534 452.33"/><polygon class="cls-35" points="528 463.67 532.67 466.33 543.33 494.33 539 491.67 528 463.67"/><polygon class="cls-19" points="539 491.67 536.67 498.33 541 500.67 543.33 494.33 539 491.67"/><polygon class="cls-32" points="536.67 498.33 530.67 501 535 503.33 541 500.67 536.67 498.33"/><path class="cls-32" d="M548.3,447.95c3.57,2.15,3.69,5.41.27,7.3s-9.08,1.68-12.64-.47-3.69-5.41-.27-7.3S544.73,445.8,548.3,447.95Z"/><path class="cls-19" d="M542,453a2,2,0,0,1-2-2V433a2,2,0,0,1,4,0v18A2,2,0,0,1,542,453Z"/><path class="cls-36" d="M561.29,377.57c10.2,6.14,10.55,15.49.77,20.88s-26,4.79-36.17-1.34-10.55-15.49-.78-20.88S551.09,371.44,561.29,377.57Z"/><path class="cls-37" d="M574.5,403c-1.79-5.52-3.17-11.33-6-18a2.67,2.67,0,0,0-.32-.5c2.42,5,.41,10.36-6.12,14-9.77,5.4-26,4.79-36.17-1.34-5.35-3.22-8-7.31-7.88-11.26,0-.22,0-.45,0-.67-2.25,4.45-5.61,14.48-8,20.82-4.67,12.45-6.36,21.31,7.62,29.66,16,9.54,35.93,9.94,51.38,1.34S580,420,574.5,403Z"/><path class="cls-38" d="M562.06,398.46a20.23,20.23,0,0,0,1.79-1.11,24,24,0,0,0-2.56-1.77c-10.2-6.14-26.39-6.74-36.17-1.34a20.21,20.21,0,0,0-1.79,1.11,24,24,0,0,0,2.56,1.77C536.1,403.25,552.29,403.85,562.06,398.46Z"/><polygon class="cls-39" points="303 377 386.5 418.5 331.5 445.5 249 404 303 377"/><polygon class="cls-29" points="305.5 382.5 261 404 292.5 420 336 398 305.5 382.5"/><polygon class="cls-40" points="458 616 432 628.5 467 646 496.5 632 458 616"/><polygon class="cls-15" points="429 664.5 443 658 442.5 643.5 467.5 656.5 485 648.5 486 684 466.5 695.5 433.5 681 429 664.5"/><polygon class="cls-16" points="458 604.75 499 625 499 638 458 616 458 604.75"/><polygon class="cls-23" points="466 748 499 732 499 625 466 640 466 661 482 653 482 676 466 684 466 748"/><polygon class="cls-23" points="428 620.75 458 604.5 458 616 428 631.5 428 620.75"/><polygon class="cls-41" points="466 640 428 620.75 427.83 642.33 466 661 466 640"/><polygon class="cls-41" points="466 684.25 429 664.5 429 728 466 748 466 684.25"/><polygon class="cls-17" points="134.33 330.83 179 306.83 179 325 134 349 134.33 330.83"/><polygon class="cls-23" points="139.67 272 95 296 118.01 306.23 162.68 282.23 139.67 272"/><path class="cls-4" d="M162.68,282.23l-44.67,24,16.32,24.61,44.67-24s2-8.83-1.33-14.83C174.16,285.7,162.68,282.23,162.68,282.23Z"/><path class="cls-16" d="M111.67,296.33l29.83-15.17,12.17,6a39.7,39.7,0,0,0-6.67-.83,21.15,21.15,0,0,0-3.12.46l-22.95,11.4a.77.77,0,0,0-.11,1.34l2.18,2.31-4.83-2.33Z"/><path class="cls-42" d="M95,329V296l23,10.23a27.24,27.24,0,0,1,16.32,24.61L134,349Z"/><path class="cls-11" d="M116.33,298s-4-13.67-7.78-21.26A169.47,169.47,0,0,0,99,260.33l26.67-11.67s4.58,7.33,8.69,15.8c4,8.2,7,21.2,7,21.2Z"/><polygon class="cls-42" points="148 336 148 341 167 350.33 167 345 148 336"/><polygon class="cls-17" points="167 350.33 190 338.33 190 333.42 167 345 167 350.33"/><polygon class="cls-4" points="148 336 171.38 324.25 190 333.42 167 345 148 336"/><polygon class="cls-14" points="616.52 320.5 426.67 225.31 426.68 58.83 615.5 152.5 616.52 320.5"/><polygon class="cls-11" points="608 305.5 435.63 220.14 435.63 74.34 607.5 160.5 608 305.5"/><polygon class="cls-20" points="426.68 58.83 434.67 53.33 622.67 147.33 615.5 152.5 426.68 58.83"/><polygon class="cls-43" points="623 147 623 317 616.52 320.5 615.5 152.5 623 147"/><path class="cls-44" d="M598.22,163.41l-153.59-77q0,65.06,0,130.12l154,76.29Q598.44,228.11,598.22,163.41Z"/><path class="cls-45" d="M497.66,216.11s9.6-6.54,19.21-3.12,14.57,8.15,20.78,15.3,9.63,12,9.63,12Z"/><path class="cls-45" d="M583,243c-8.92-2.77-17.84,6.67-17.84,6.67l33.36,16.16c0-4.82,0-7.22,0-12C594.26,248.64,589.94,245.12,583,243Z"/><path class="cls-46" d="M541.07,236.76s8.16-2.93,16.33.29,12.39,6.72,17.67,11.85,8.19,8.53,8.19,8.53Z"/><path class="cls-23" d="M444.63,188.87c0-6.53,0-9.79,0-16.32l16.73-25.21q12.09,31.16,24.21,62.31Z"/><path class="cls-11" d="M465.91,159.08l-4.55-11.73L456,155.43a3.79,3.79,0,0,0,2,2c2.48,1.24,3.72,0,5.27.36A11.57,11.57,0,0,1,465.91,159.08Z"/><path class="cls-47" d="M444.63,172.55c0,6.53,0,9.79,0,16.32l16.24,8.24,0-49.4Z"/><path class="cls-48" d="M598.57,265.07,444.63,188.64q0,14.17,0,28.35l154,76.28Z"/><path class="cls-19" d="M518.31,147.74c0,6.49-3.59,10-8,7.73s-8.06-9.29-8.07-15.79,3.59-10,8-7.73S518.3,141.25,518.31,147.74Z"/><path class="cls-49" d="M515.83,146.5c0,4.5-2.48,6.89-5.56,5.35s-5.58-6.43-5.58-10.93,2.48-6.89,5.56-5.35S515.82,142,515.83,146.5Z"/><path class="cls-23" d="M470.37,201.89l19.51-20.18q9.93,19.87,19.88,39.73Z"/><path class="cls-11" d="M493.12,188l-3.25-6.5-3.56,3.68C489,188,491.27,189.17,493.12,188Z"/><path class="cls-47" d="M470.37,201.89l18.74,9.3,0-29.64Z"/><path class="cls-14" d="M514.72,226l-.94-.47c0-2.77,0-4.16,0-6.93l.94.47C514.71,221.85,514.72,223.24,514.72,226Z"/><path class="cls-50" d="M517,215.16c0,4.5-1.1,7.59-2.47,6.91s-2.49-4.88-2.49-9.37,1.09-13.77,2.46-13.09S517,210.66,517,215.16Z"/><path class="cls-51" d="M514.18,199.46s.31.16-.4-.17c0,9,0,13.45,0,22.42.71.36.36.2.4.21,1.37.68,2.48-2.41,2.47-6.91S515.55,200.14,514.18,199.46Z"/><path class="cls-14" d="M542.93,246.33l-.82-.41v-6.06l.82.41C542.92,242.7,542.92,243.91,542.93,246.33Z"/><path class="cls-50" d="M544.89,236.84c0,3.93-1,6.63-2.16,6s-2.18-4.26-2.19-8.19.94-12,2.14-11.44S544.88,232.91,544.89,236.84Z"/><path class="cls-51" d="M542.76,223.28s0,0,0,0c0,7.84,0,11.76,0,19.6,0,0,0,0,0,0,1.2.59,2.16-2.11,2.16-6S544,223.88,542.76,223.28Z"/><path class="cls-14" d="M585.55,263l-.76-.38,0-5.62.76.38Z"/><path class="cls-50" d="M587.36,254.18c0,3.64-.88,6.15-2,5.6s-2-4-2-7.6.87-11.16,2-10.61S587.35,250.53,587.36,254.18Z"/><path class="cls-51" d="M585.23,241.53l-.16-.06c0,7.27,0,10.9.06,18.17l.16.09c1.11.55,2-2,2-5.6S586.35,242.08,585.23,241.53Z"/><path class="cls-14" d="M537.67,238.31l-.94-.47c0-2.77,0-4.16,0-6.93l.94.47C537.66,234.15,537.67,235.54,537.67,238.31Z"/><path class="cls-50" d="M541.16,227.66c0,3.23-1.65,5-3.71,4s-3.73-4.46-3.73-7.69,1.65-9.45,3.7-8.43S541.15,224.43,541.16,227.66Z"/><path class="cls-51" d="M537.3,215.48s.49.26-.22-.09c0,6.44,0,9.65,0,16.09.71.35.19.1.22.12,2.05,1,3.72-.77,3.71-4S539.35,216.5,537.3,215.48Z"/><path class="cls-14" d="M575.15,258.71l-.7-.35v-5.19l.7.35Z"/><path class="cls-50" d="M577.76,250.74c0,2.42-1.24,3.75-2.78,3s-2.8-3.34-2.8-5.76,1.23-7.08,2.77-6.31S577.75,248.32,577.76,250.74Z"/><path class="cls-51" d="M574.76,241.57l-.26-.11,0,12,.26.14c1.54.77,2.78-.57,2.78-3S576.3,242.33,574.76,241.57Z"/><path class="cls-14" d="M550.69,243l-.94-.47,0-6.93.94.47C550.68,238.81,550.69,240.2,550.69,243Z"/><path class="cls-50" d="M555.11,234c0,4-2.06,6.28-4.63,5s-4.66-5.58-4.67-9.62,2.05-11.83,4.62-10.55S555.1,230,555.11,234Z"/><path class="cls-51" d="M550.15,218.71s.33.17-.38-.18c0,8.06,0,12.09,0,20.16.71.35.34.18.38.2,2.57,1.28,4.64-1,4.63-5S552.72,220,550.15,218.71Z"/><path class="cls-14" d="M594.12,266.33l-.94-.47c0-2.77,0-4.15,0-6.92l.94.47C594.1,262.18,594.11,263.56,594.12,266.33Z"/><path class="cls-50" d="M598.53,261.32c0,2.36-2.07,3.24-4.64,2s-4.66-4.22-4.67-6.59,2.06-6.49,4.63-5.21S598.52,259,598.53,261.32Z"/><path class="cls-51" d="M598.89,261.5c0-2.35-2.51-8.68-4.62-9.8l0,11.79C596.42,264.52,598.9,263.85,598.89,261.5Z"/><path class="cls-14" d="M530.61,234.8l-1-.5v-7.48l1,.5C530.6,230.32,530.61,231.81,530.61,234.8Z"/><path class="cls-50" d="M535.39,229.39c0,2.55-2.24,3.51-5,2.13s-5-4.56-5-7.12,2.23-7,5-5.64S535.38,226.84,535.39,229.39Z"/><path class="cls-51" d="M535.72,229.55c0-2.54-2.16-9.12-5-10.6,0,5.1,0,7.65,0,12.75C533.59,233.08,535.72,232.09,535.72,229.55Z"/><path class="cls-14" d="M520.31,233.3l-.94-.47c0-2.77,0-4.16,0-6.93l.94.47C520.3,229.14,520.31,230.53,520.31,233.3Z"/><path class="cls-50" d="M523,227.16c0,2.5-1.28,3.89-2.88,3.1s-2.89-3.46-2.89-6,1.28-5.3,2.88-4.51S523,224.66,523,227.16Z"/><path class="cls-51" d="M519.82,219.66s.34.18-.36-.17c0,4.18,0,6.27,0,10.45.71.35.33.18.36.2,1.59.79,2.88-.6,2.88-3.1S521.41,220.45,519.82,219.66Z"/><path class="cls-14" d="M561.36,251.87,560,251.2l0-10,1.35.67C561.35,245.9,561.35,247.89,561.36,251.87Z"/><path class="cls-50" d="M565.18,243.05c0,3.6-1.84,5.59-4.13,4.45s-4.16-5-4.17-8.57,1.84-7.61,4.13-6.47S565.17,239.46,565.18,243.05Z"/><path class="cls-51" d="M560.77,232.34c-.05,0,.32.17-.39-.17,0,6,0,9,0,15,.71.35.34.19.39.22,2.29,1.14,4.14-.85,4.13-4.45S563.06,233.48,560.77,232.34Z"/><path class="cls-37" d="M598.64,293.25c0-7.8,0-11.7-.07-19.5l-99.36-49.29c-5.91-2.93-10.8,1.29-10.79,9.92,0,1.72,0,2.58,0,4.3Z"/><path class="cls-11" d="M577.81,198.68l-9.6-4.79a2.9,2.9,0,0,1-1.24-2.42h0c0-1,.55-1.53,1.23-1.19l9.6,4.79a2.9,2.9,0,0,1,1.24,2.42h0C579,198.49,578.49,199,577.81,198.68Z"/><path class="cls-11" d="M473.12,134.19l-5.66-2.83c-.51-.25-1,.06-1,.79a2.14,2.14,0,0,0,1.08,2l.31.15a2.17,2.17,0,0,1,.93,1.82h0c0,.75-.42,1.15-.93.9l-14.29-7.14c-.89-.44-1.68.18-1.66,1.49a3.56,3.56,0,0,0,1.7,3.07L471,143.1c.89.44,1.68-.18,1.66-1.49a3.85,3.85,0,0,0-1.36-2.83,3.14,3.14,0,0,1-.5-.82,2.36,2.36,0,0,1-.16-1c0-.73.41-1.13.91-.88l1.65.83c.51.25,1-.06,1-.79A2.14,2.14,0,0,0,473.12,134.19Z"/><path class="cls-11" d="M501.64,176.71l-.16-.08a2.53,2.53,0,0,1-1.09-2.12h0c0-.87.49-1.34,1.08-1l.15.08a2.54,2.54,0,0,1,1.09,2.12h0C502.72,176.54,502.23,177,501.64,176.71Z"/><path class="cls-11" d="M486.89,133.16l-.31-.15a2.9,2.9,0,0,1-1.24-2.43h0c0-1,.56-1.53,1.24-1.19l.31.15a2.9,2.9,0,0,1,1.24,2.43h0C488.12,133,487.57,133.5,486.89,133.16Z"/><path class="cls-11" d="M482.39,120.73l-3-1.51c-.62-.31-1.19,0-1.29.85a2.89,2.89,0,0,0,.76,2.27c.46.23.47,1.25.47,1.25s0,0,0,.22c0,.94-.52,1.44-1.16,1.12l-4.63-2.31c-.69-.35-1.32.11-1.33,1.12a2.86,2.86,0,0,0,1.39,2.53l6.73,3.36c.72.36,1.38-.05,1.46-1.06a3.56,3.56,0,0,0-.3-1.67,3.41,3.41,0,0,1-.31-1.31v-.17c0-.94.52-1.44,1.16-1.12h0c.62.31,1.19,0,1.29-.85A2.94,2.94,0,0,0,482.39,120.73Z"/><path class="cls-11" d="M496.91,171.41l-3-1.51a2.16,2.16,0,0,1-.93-1.82h0c0-.75.41-1.15.93-.89l2.71,1.35c.62.31,1.19,0,1.29-.85a2.94,2.94,0,0,0-1.22-2.73l-5.5-2.74a.84.84,0,0,0-1.3.85c0,1.09.34,1.86.73,2s.5.77.5,1.14v.91c0,.75-.41,1.15-.93.89l-10.77-5.37c-.62-.31-1.19,0-1.3.86a2.94,2.94,0,0,0,1.22,2.73l17.66,8.8c.75.37,1.35-.32,1.22-1.51A2.86,2.86,0,0,0,496.91,171.41Z"/><path class="cls-11" d="M538.18,184.76l-17.91-8.94c-.71-.35-1.36,0-1.54.88a3.68,3.68,0,0,0,1.5,3.62s.44.28.52.48a2.63,2.63,0,0,1,.11,1.18c0,.75-.41,1.15-.93.89l-7-3.48c-.77-.38-1.39.45-1.39,1.57a3.71,3.71,0,0,0,1.4,3l11.77,5.87c.77.38,1.39-.45,1.39-1.57a3.71,3.71,0,0,0-1.4-3l-1.7-.85a2.16,2.16,0,0,1-.93-1.82h0c0-.75.41-1.15.93-.89l15.13,7.54c.71.35,1.36,0,1.54-.87A3.68,3.68,0,0,0,538.18,184.76Z"/><path class="cls-11" d="M570.26,174.63l-12.95-6.48a1.45,1.45,0,0,1-.62-1.21h0c0-.5.27-.76.62-.59l4.26,2.13c.64.32,1.16-.29,1.16-1.23a2.94,2.94,0,0,0-1.17-2.39L553.82,161c-.64-.32-1.16.29-1.16,1.23a2.94,2.94,0,0,0,1.17,2.39l.39.19a1.45,1.45,0,0,1,.62,1.21h0c0,.5-.27.76-.62.59L536.94,158c-.7-.35-1.36,0-1.54.87a3.68,3.68,0,0,0,1.5,3.62l33.44,16.72c1,.49,1.76-.48,1.48-2.12A3.44,3.44,0,0,0,570.26,174.63Z"/><polygon class="cls-21" points="74 384 83 379 511 593 704 496 712 500 510 603 74 384"/><polygon class="cls-14" points="74 363 511 578 511 547 74 327 74 363"/></g></g></svg>