<?xml version="1.0" encoding="utf-8"?>
<!-- Generator: Adobe Illustrator 16.0.0, SVG Export Plug-In . SVG Version: 6.00 Build 0)  -->
<!DOCTYPE svg PUBLIC "-//W3C//DTD SVG 1.1//EN" "http://www.w3.org/Graphics/SVG/1.1/DTD/svg11.dtd">
<svg version="1.1" id="Capa_3" xmlns="http://www.w3.org/2000/svg" xmlns:xlink="http://www.w3.org/1999/xlink" x="0px" y="0px"
	 width="190px" height="190px" viewBox="4.509 -29.805 190 190" enable-background="new 4.509 -29.805 190 190"
	 xml:space="preserve">
<title>andes-logo-v-white</title>
<g>
	<path fill="#002637" d="M184.907,91.201c-10.201-1-13.401-5.9-16.901-11.103c-4.5-6.898-9.199-14-29.4-8.2l0,0
		c-6.699,1-10.3,9.302-13.899,17.5l-2.101,4.701c-1.375-2.531-2.608-5.135-3.7-7.801c-3-7.2-6-16.201-8.899-25.1
		c-2.898-8.9-5.398-16.103-7.699-22.103c-3.7-10.1-6.9-15.9-10.5-16.8c-0.801-0.3-11.4-3.602-19.201,1.1
		c-5,2.7-9,12.7-14.602,26.401c-3.101,7.5-6.5,16-10.5,24.201c-3.601-5.4-7.101-10.299-11.399-10.299s-6.7,3.5-11.399,8.398
		c-4.7,4.9-11.801,12.2-19.399,14.9l1.199,3.5c8.301-3,15.201-10.102,20.701-15.8c3.5-3.602,7-7.302,8.8-7.302
		c1.801,0,6.102,5.4,9,9.7c1.301,1.9,2.5,3.8,3.801,5.4c0.723,0.997,1.525,1.933,2.399,2.8c1.332,1.539,3.183,2.535,5.199,2.801h0.9
		c8.199,0,14.101-16.801,20.301-34.501c1.5-4.2,3.2-9,4.899-13.399c2.601,6.699,5.301,15,8.101,23.802
		c8.7,26.8,14.501,43.201,21.602,44.301v0.2c3.062,0.635,6.176,0.969,9.301,1c15.4,0,19.5-10.103,23.101-19.104
		c1.177-3.296,2.72-6.447,4.603-9.398l3.199,3.601c4.601,5.5,9.899,11.7,17.899,12.5h2c4.462-0.064,8.884-0.843,13.103-2.301
		l8.3-2.699L184.907,91.201z M74.203,52.301c-4.801,13.5-11.302,32-16.802,32c-1.481-0.135-2.851-0.855-3.8-2
		c-0.713-0.795-1.381-1.63-2-2.5l-1.7-2.5c4.5-8.8,8.2-18.1,11.5-26.201c4.899-12.1,9.102-22.5,13-24.601h0.101
		c3.8-2.301,8.601-2.2,12-1.7l-0.2,0.2c-1.562,1.87-2.842,3.959-3.8,6.199C79.803,36.501,77.203,43.599,74.203,52.301z
		 M94.203,62.701c-3.301-10.302-6.5-20.103-9.602-27.401l1.101-2.601c0.571-1.231,1.206-2.434,1.899-3.601
		c0.779-1.346,1.879-2.479,3.199-3.3c2.5,1.399,5.301,7,8.101,14.3c2.802,7.3,4.701,13.301,7.201,20.801
		c3,9.102,6.101,18.401,9.198,25.901V87l0.701,1.7l0.299,0.8l0.4,0.8l0.6,1.301l0.302,0.602l0.601,1.197l0.399,0.803l0.399,0.8
		l0.601,1.101l0.198,0.4l0.701,1.199l0,0c-1.5,2.698-3.201,4.898-5.102,6c-0.843,0.5-1.825,0.711-2.8,0.6
		c-5.102-0.5-12.802-24.2-18.4-41.5v-0.102H94.203z M141.305,88.899c-3.602,9.001-7.102,17.604-21.701,16.803l0.399-0.4l0,0
		l0.3-0.299c1.662-1.806,3.075-3.822,4.2-6l0.5-1h-0.101c1.101-2.201,2.101-4.501,3.101-6.801c3.301-7.603,6.7-15.401,11.802-15.401
		c3,0,4.6,1.1,6.5,2.8C144.305,81.4,142.805,85.201,141.305,88.899z M170.706,93.399c-6.601-0.697-11.102-6-15.5-11.198
		l-3.602-4.102h0.102l-1-0.898c-1.104-1.111-2.311-2.115-3.602-3h-0.399c11.602-1.802,14.602,2.8,18.301,8.3
		c2.7,4,5.602,8.398,11.7,10.898c-1.997,0.195-4.011,0.161-6-0.1V93.399L170.706,93.399z"/>
</g>
</svg>
