<svg id="Capa_3" data-name="Capa 3" xmlns="http://www.w3.org/2000/svg" width="68.3mm" height="46mm" viewBox="0 0 193.6 130.3">
  <title>andes-logo-v-white</title>
  <g>
    <path d="M17.6,130l-.7-.2a1.1,1.1,0,0,1-.5-.6l-2.5-5.9L9.4,113.1l-7,16.1a1.2,1.2,0,0,1-1.1.8,1.3,1.3,0,0,1-.9-.3A1.2,1.2,0,0,1,0,129a1.1,1.1,0,0,1,.1-.6l8.2-19.1a1.2,1.2,0,0,1,.5-.6h.7a1.2,1.2,0,0,1,1.2.8l8.2,19.1a1.4,1.4,0,0,1,.1.5,1.1,1.1,0,0,1-.4.9A1.3,1.3,0,0,1,17.6,130Z" fill="#fff"/>
    <path d="M81.1,130.3c-1.6,0-1.7-1-1.7-1.3s.5-1.3,1.7-1.3h7.8a6.5,6.5,0,0,0,5.4-2.3,9.6,9.6,0,0,0,1.8-6.1,11.2,11.2,0,0,0-.8-4.3,6,6,0,0,0-2.3-2.8,6.8,6.8,0,0,0-4-.9H80.3a1.2,1.2,0,0,1-1-1.1c0-.3.1-1.3,1.9-1.3h8a8.9,8.9,0,0,1,5.3,1.4,8.7,8.7,0,0,1,3.2,3.9,13.4,13.4,0,0,1,1,5.2,13.6,13.6,0,0,1-1,5.4,9,9,0,0,1-3.2,4,9.2,9.2,0,0,1-5.3,1.6H81.1Z" fill="#fff"/>
    <path d="M167.8,130.3a10.3,10.3,0,0,1-4.2-.8,12.4,12.4,0,0,1-3.5-2.4,1.2,1.2,0,0,1-.4-.9,1.3,1.3,0,0,1,.4-.9,1.3,1.3,0,0,1,.9-.4,1.3,1.3,0,0,1,1,.5,7.3,7.3,0,0,0,2.6,1.9,8,8,0,0,0,3.2.6,5.9,5.9,0,0,0,3.5-.9,2.6,2.6,0,0,0,1.2-2.3,2.8,2.8,0,0,0-.6-1.9,5,5,0,0,0-1.7-1.3l-2.9-1.2L164,119a6.4,6.4,0,0,1-2.2-1.8,5,5,0,0,1-1-3.2,5,5,0,0,1,.9-2.9,6.1,6.1,0,0,1,2.6-2,9.4,9.4,0,0,1,3.8-.7,10.1,10.1,0,0,1,3.6.7,6.8,6.8,0,0,1,2.8,1.9,1.7,1.7,0,0,1,.5,1,1.2,1.2,0,0,1-.5.9,1.4,1.4,0,0,1-.9.3,1.1,1.1,0,0,1-.9-.4,5.4,5.4,0,0,0-2-1.5,6.4,6.4,0,0,0-2.7-.5,6.1,6.1,0,0,0-3.5.9,2.6,2.6,0,0,0-1.2,2.3,2.5,2.5,0,0,0,.6,1.7,4.9,4.9,0,0,0,1.7,1.2l2.7,1.1,3.4,1.4a6.6,6.6,0,0,1,2.4,1.9,5.6,5.6,0,0,1,1,3.4,4.9,4.9,0,0,1-.9,2.9,6.2,6.2,0,0,1-2.6,2A9.3,9.3,0,0,1,167.8,130.3Z" fill="#fff"/>
    <path d="M56.2,130.2a1.2,1.2,0,0,1-1-.5L42.6,113.3V129a1.1,1.1,0,0,1-.4.8,1.2,1.2,0,0,1-.8.3,1.2,1.2,0,0,1-.9-.3,1.1,1.1,0,0,1-.4-.8V109.8a1.2,1.2,0,0,1,.4-.9,1.2,1.2,0,0,1,.8-.3,1.2,1.2,0,0,1,.9.4L55,125.5V109.8a1.2,1.2,0,0,1,.4-.9,1.2,1.2,0,0,1,.9-.3,1.2,1.2,0,0,1,1.2,1.2v19.1a1.2,1.2,0,0,1-.4,1A1.3,1.3,0,0,1,56.2,130.2Z" fill="#fff"/>
    <path d="M121.4,111.4a1.3,1.3,0,1,1,0-2.6H138a1.3,1.3,0,1,1,0,2.6Z" fill="#fff"/>
    <path d="M121.4,130.3a1.3,1.3,0,0,1,0-2.6H138a1.3,1.3,0,1,1,0,2.6Z" fill="#fff"/>
    <rect x="128" y="111.4" width="2.6" height="16.28" rx="0.9" ry="0.9" transform="translate(248.8 -9.7) rotate(90)" fill="#fff"/>
    <path d="M184.9,70.3c-10.2-1-13.4-5.9-16.9-11.1-4.5-6.9-9.2-14-29.4-8.2h0c-6.7,1-10.3,9.3-13.9,17.5l-2.1,4.7a79,79,0,0,1-3.7-7.8c-3-7.2-6-16.2-8.9-25.1s-5.4-16.1-7.7-22.1C98.6,8.1,95.4,2.3,91.8,1.4,91,1.1,80.4-2.2,72.6,2.5c-5,2.7-9,12.7-14.6,26.4-3.1,7.5-6.5,16-10.5,24.2-3.6-5.4-7.1-10.3-11.4-10.3s-6.7,3.5-11.4,8.4S12.9,63.4,5.3,66.1l1.2,3.5c8.3-3,15.2-10.1,20.7-15.8,3.5-3.6,7-7.3,8.8-7.3s6.1,5.4,9,9.7c1.3,1.9,2.5,3.8,3.8,5.4a22.9,22.9,0,0,0,2.4,2.8,8.3,8.3,0,0,0,5.2,2.8h.9c8.2,0,14.1-16.8,20.3-34.5,1.5-4.2,3.2-9,4.9-13.4,2.6,6.7,5.3,15,8.1,23.8,8.7,26.8,14.5,43.2,21.6,44.3v.2a48.1,48.1,0,0,0,9.3,1c15.4,0,19.5-10.1,23.1-19.1a46.5,46.5,0,0,1,4.6-9.4l3.2,3.6c4.6,5.5,9.9,11.7,17.9,12.5h2a42,42,0,0,0,13.1-2.3l8.3-2.7ZM74.2,31.4c-4.8,13.5-11.3,32-16.8,32a5.6,5.6,0,0,1-3.8-2,28.4,28.4,0,0,1-2-2.5l-1.7-2.5c4.5-8.8,8.2-18.1,11.5-26.2,4.9-12.1,9.1-22.5,13-24.6h.1c3.8-2.3,8.6-2.2,12-1.7l-.2.2a25,25,0,0,0-3.8,6.2C79.8,15.6,77.2,22.7,74.2,31.4Zm20,10.4c-3.3-10.3-6.5-20.1-9.6-27.4l1.1-2.6a39.9,39.9,0,0,1,1.9-3.6,9.5,9.5,0,0,1,3.2-3.3c2.5,1.4,5.3,7,8.1,14.3s4.7,13.3,7.2,20.8c3,9.1,6.1,18.4,9.2,25.9v.2l.7,1.7.3.8.4.8.6,1.3.3.6.6,1.2.4.8.4.8.6,1.1.2.4.7,1.2h0c-1.5,2.7-3.2,4.9-5.1,6a4.5,4.5,0,0,1-2.8.6C107.5,82.9,99.8,59.2,94.2,41.9ZM141.3,68c-3.6,9-7.1,17.6-21.7,16.8l.4-.4h0l.3-.3a27.4,27.4,0,0,0,4.2-6l.5-1h-.1c1.1-2.2,2.1-4.5,3.1-6.8,3.3-7.6,6.7-15.4,11.8-15.4,3,0,4.6,1.1,6.5,2.8C144.3,60.5,142.8,64.3,141.3,68Zm29.4,4.5c-6.6-.7-11.1-6-15.5-11.2l-3.6-4.1h.1l-1-.9a25,25,0,0,0-3.6-3h-.4c11.6-1.8,14.6,2.8,18.3,8.3,2.7,4,5.6,8.4,11.7,10.9A26.5,26.5,0,0,1,170.7,72.4Z" fill="#fff"/>
  </g>
</svg>
