<svg xmlns="http://www.w3.org/2000/svg" xmlns:xlink="http://www.w3.org/1999/xlink" viewBox="0 0 724.3 117.05"><defs><style>.cls-1{isolation:isolate;}.cls-2{fill:#30a3dc;}.cls-3{fill:#062837;}.cls-4{mix-blend-mode:multiply;fill:url(#Degradado_sin_nombre_2);}</style><linearGradient id="Degradado_sin_nombre_2" y1="58.53" x2="249.1" y2="58.53" gradientUnits="userSpaceOnUse"><stop offset="0" stop-color="#fff" stop-opacity="0"/><stop offset="0" stop-color="#fcfefe" stop-opacity="0.01"/><stop offset="0.02" stop-color="#c2e7f1" stop-opacity="0.24"/><stop offset="0.05" stop-color="#8fd2e6" stop-opacity="0.44"/><stop offset="0.08" stop-color="#63c1dc" stop-opacity="0.62"/><stop offset="0.1" stop-color="#40b3d4" stop-opacity="0.76"/><stop offset="0.13" stop-color="#24a8ce" stop-opacity="0.86"/><stop offset="0.17" stop-color="#11a0c9" stop-opacity="0.94"/><stop offset="0.21" stop-color="#069bc7" stop-opacity="0.99"/><stop offset="0.26" stop-color="#029ac6"/><stop offset="0.62" stop-color="#853288"/><stop offset="1" stop-color="#f4a47e"/></linearGradient></defs><title>Recurso 1</title><g class="cls-1"><g id="Capa_2" data-name="Capa 2"><g id="Capa_3" data-name="Capa 3"><path class="cls-2" d="M291.83,109.9l-2.24-5.72h-7.21l-2.22,5.72H278l7.11-18.07h1.76L294,109.9Zm-2.89-7.61-2.09-5.57q-.41-1.06-.84-2.6a23,23,0,0,1-.77,2.6l-2.12,5.57Z"/><path class="cls-2" d="M312.92,97.15a5,5,0,0,1-1.86,4.21,8.46,8.46,0,0,1-5.33,1.47H303.6v7.08h-2.09v-18h4.66Q312.92,91.91,312.92,97.15ZM303.6,101h1.88a7,7,0,0,0,4-.9,3.31,3.31,0,0,0,1.24-2.88,3.1,3.1,0,0,0-1.17-2.66,6.11,6.11,0,0,0-3.64-.87H303.6Z"/><path class="cls-2" d="M333.13,97.15a5,5,0,0,1-1.86,4.21,8.46,8.46,0,0,1-5.33,1.47h-2.12v7.08h-2.09v-18h4.66Q333.13,91.91,333.13,97.15ZM323.82,101h1.88a7,7,0,0,0,4-.9A3.31,3.31,0,0,0,331,97.25a3.1,3.1,0,0,0-1.17-2.66,6.11,6.11,0,0,0-3.64-.87h-2.34Z"/><path class="cls-2" d="M352.09,105.11a4.41,4.41,0,0,1-1.72,3.7,7.46,7.46,0,0,1-4.68,1.33,11.72,11.72,0,0,1-4.92-.83v-2a13.36,13.36,0,0,0,5,1,5.2,5.2,0,0,0,3.15-.8,2.6,2.6,0,0,0,1.06-2.21,2.84,2.84,0,0,0-.37-1.53,3.53,3.53,0,0,0-1.26-1.1,17.65,17.65,0,0,0-2.68-1.14,8.53,8.53,0,0,1-3.59-2.13A4.69,4.69,0,0,1,341,96.19a4,4,0,0,1,1.56-3.31,6.5,6.5,0,0,1,4.13-1.23,12.14,12.14,0,0,1,4.93,1L351,94.45a11.19,11.19,0,0,0-4.33-.93,4.18,4.18,0,0,0-2.6.72,2.35,2.35,0,0,0-.94,2,3,3,0,0,0,.35,1.53,3.21,3.21,0,0,0,1.16,1.09,14.12,14.12,0,0,0,2.5,1.1,9.92,9.92,0,0,1,3.89,2.17A4.26,4.26,0,0,1,352.09,105.11Z"/><path class="cls-2" d="M386.45,109.9h-2.39l-9.83-15.1h-.1q.2,2.66.2,4.87V109.9H372.4v-18h2.36l9.81,15h.1c0-.22-.05-.93-.11-2.14s-.08-2.06-.06-2.58V91.91h2Z"/><path class="cls-2" d="M406.47,109.9h-10v-18h10v1.86h-7.94v5.8H406v1.85h-7.46V108h7.94Z"/><path class="cls-2" d="M429.08,91.91v11.64a6.35,6.35,0,0,1-1.86,4.84,7.14,7.14,0,0,1-5.11,1.76,6.82,6.82,0,0,1-5-1.77,6.58,6.58,0,0,1-1.78-4.87V91.91h2.09v11.74a4.62,4.62,0,0,0,1.23,3.46,5,5,0,0,0,3.62,1.21,4.78,4.78,0,0,0,3.51-1.22,4.66,4.66,0,0,0,1.23-3.47V91.91Z"/><path class="cls-2" d="M454.51,100.88a10.89,10.89,0,0,1-1.39,5.75,6.93,6.93,0,0,1-3.93,3.1l4.28,4.45h-3l-3.51-4.06-.68,0a7.78,7.78,0,0,1-6.14-2.43,10,10,0,0,1-2.16-6.86A9.87,9.87,0,0,1,440.12,94a7.84,7.84,0,0,1,6.15-2.42,7.67,7.67,0,0,1,6.06,2.46A9.9,9.9,0,0,1,454.51,100.88Zm-14.34,0a8.54,8.54,0,0,0,1.56,5.54,6.35,6.35,0,0,0,9,0,8.66,8.66,0,0,0,1.53-5.55,8.58,8.58,0,0,0-1.52-5.5,5.44,5.44,0,0,0-4.5-1.88,5.56,5.56,0,0,0-4.55,1.89A8.46,8.46,0,0,0,440.17,100.88Z"/><path class="cls-2" d="M477.14,91.91v11.64a6.35,6.35,0,0,1-1.86,4.84,7.14,7.14,0,0,1-5.11,1.76,6.82,6.82,0,0,1-5-1.77,6.58,6.58,0,0,1-1.78-4.87V91.91h2.09v11.74a4.62,4.62,0,0,0,1.23,3.46,5,5,0,0,0,3.62,1.21,4.78,4.78,0,0,0,3.51-1.22,4.66,4.66,0,0,0,1.23-3.47V91.91Z"/><path class="cls-2" d="M486.95,109.9v-18H489v18Z"/><path class="cls-2" d="M513.07,109.9h-2.39l-9.83-15.1h-.1q.2,2.66.2,4.87V109.9H499v-18h2.36l9.81,15h.1c0-.22-.05-.93-.11-2.14s-.08-2.06-.06-2.58V91.91h2Z"/><path class="cls-2" d="M534.36,109.9l-2.24-5.72h-7.21l-2.22,5.72h-2.12l7.11-18.07h1.76l7.08,18.07Zm-2.89-7.61-2.09-5.57q-.41-1.06-.84-2.6a23,23,0,0,1-.77,2.6l-2.12,5.57Z"/><path class="cls-2" d="M554.2,105.11a4.41,4.41,0,0,1-1.72,3.7,7.46,7.46,0,0,1-4.68,1.33,11.72,11.72,0,0,1-4.92-.83v-2a13.36,13.36,0,0,0,5,1,5.2,5.2,0,0,0,3.15-.8,2.6,2.6,0,0,0,1.06-2.21,2.84,2.84,0,0,0-.37-1.53,3.53,3.53,0,0,0-1.26-1.1,17.65,17.65,0,0,0-2.68-1.14,8.53,8.53,0,0,1-3.59-2.13,4.69,4.69,0,0,1-1.08-3.21,4,4,0,0,1,1.56-3.31,6.5,6.5,0,0,1,4.13-1.23,12.14,12.14,0,0,1,4.93,1l-.65,1.82a11.19,11.19,0,0,0-4.33-.93,4.18,4.18,0,0,0-2.6.72,2.35,2.35,0,0,0-.94,2,3,3,0,0,0,.35,1.53,3.21,3.21,0,0,0,1.16,1.09,14.12,14.12,0,0,0,2.5,1.1,9.92,9.92,0,0,1,3.89,2.17A4.26,4.26,0,0,1,554.2,105.11Z"/><path class="cls-2" d="M588.87,100.73q0,4.45-2.42,6.81t-7,2.36h-5v-18H580a8.08,8.08,0,0,1,8.85,8.83Zm-2.22.07a7.25,7.25,0,0,0-1.77-5.3,7.08,7.08,0,0,0-5.25-1.78h-3v14.37h2.55a7.75,7.75,0,0,0,5.62-1.84A7.28,7.28,0,0,0,586.65,100.8Z"/><path class="cls-2" d="M607.95,109.9h-10v-18h10v1.86H600v5.8h7.46v1.85H600V108h7.94Z"/><path class="cls-2" d="M638.72,105.11a4.41,4.41,0,0,1-1.72,3.7,7.46,7.46,0,0,1-4.68,1.33,11.72,11.72,0,0,1-4.92-.83v-2a13.36,13.36,0,0,0,5,1,5.2,5.2,0,0,0,3.15-.8,2.6,2.6,0,0,0,1.06-2.21,2.84,2.84,0,0,0-.37-1.53,3.53,3.53,0,0,0-1.26-1.1,17.65,17.65,0,0,0-2.68-1.14,8.53,8.53,0,0,1-3.59-2.13,4.69,4.69,0,0,1-1.08-3.21,4,4,0,0,1,1.56-3.31,6.5,6.5,0,0,1,4.13-1.23,12.14,12.14,0,0,1,4.93,1l-.65,1.82a11.19,11.19,0,0,0-4.33-.93,4.18,4.18,0,0,0-2.6.72,2.35,2.35,0,0,0-.94,2,3,3,0,0,0,.35,1.53,3.21,3.21,0,0,0,1.16,1.09,14.12,14.12,0,0,0,2.5,1.1,9.92,9.92,0,0,1,3.89,2.17A4.26,4.26,0,0,1,638.72,105.11Z"/><path class="cls-2" d="M658.75,109.9l-2.24-5.72H649.3l-2.22,5.72H645l7.11-18.07h1.76l7.08,18.07Zm-2.89-7.61-2.09-5.57q-.41-1.06-.84-2.6a23,23,0,0,1-.77,2.6L650,102.29Z"/><path class="cls-2" d="M668.43,109.9v-18h2.09V108h7.94v1.9Z"/><path class="cls-2" d="M700.13,91.91v11.64a6.35,6.35,0,0,1-1.86,4.84,7.14,7.14,0,0,1-5.11,1.76,6.82,6.82,0,0,1-5-1.77,6.58,6.58,0,0,1-1.78-4.87V91.91h2.09v11.74a4.62,4.62,0,0,0,1.23,3.46,5,5,0,0,0,3.62,1.21,4.78,4.78,0,0,0,3.51-1.22,4.66,4.66,0,0,0,1.23-3.47V91.91Z"/><path class="cls-2" d="M724.3,100.73q0,4.45-2.42,6.81t-7,2.36h-5v-18h5.51a8.08,8.08,0,0,1,8.85,8.83Zm-2.22.07a7.25,7.25,0,0,0-1.77-5.3,7.08,7.08,0,0,0-5.25-1.78h-3v14.37h2.55a7.75,7.75,0,0,0,5.62-1.84A7.28,7.28,0,0,0,722.08,100.8Z"/><path class="cls-3" d="M322.68,59.71a3.42,3.42,0,0,1-1.83-.5,2.91,2.91,0,0,1-1.27-1.55l-6.42-15L302,16.89,284.24,57.77a3,3,0,0,1-2.9,1.94,3.24,3.24,0,0,1-2.2-.77,3,3,0,0,1-1-1.88,2.67,2.67,0,0,1,.15-1.51L299,7a2.92,2.92,0,0,1,1.32-1.57A3.52,3.52,0,0,1,302,5.09a3.14,3.14,0,0,1,3.07,2l20.69,48.37a3.49,3.49,0,0,1,.21,1.23A2.88,2.88,0,0,1,324.85,59,3.39,3.39,0,0,1,322.68,59.71Z"/><path class="cls-3" d="M483.86,60.42c-4.08,0-4.4-2.5-4.4-3.26,0-1.58,1.15-3.26,4.38-3.26.38,0,.62,0,.62,0h19.15c6,0,10.59-2,13.64-5.83s4.57-9.07,4.57-15.5a28.32,28.32,0,0,0-2-10.8,15.28,15.28,0,0,0-6-7c-2.33-1.61-5.39-2.3-10.26-2.3H484.27a8.39,8.39,0,0,1-2.39-.32,3,3,0,0,1-2.42-2.89c0-.77.34-3.29,4.72-3.29h20.21c5.75,0,10,1.09,13.37,3.44a22.12,22.12,0,0,1,8,9.86,33.89,33.89,0,0,1,2.55,13.3,34.51,34.51,0,0,1-2.55,13.61,22.87,22.87,0,0,1-8,10.22,23.36,23.36,0,0,1-13.39,4H484.52Z"/><path class="cls-3" d="M704,60.44a26.22,26.22,0,0,1-10.59-2,31.56,31.56,0,0,1-8.86-6.13,3.08,3.08,0,0,1-1-2.29,3.2,3.2,0,0,1,1-2.29,3.24,3.24,0,0,1,2.33-1,3.37,3.37,0,0,1,2.51,1.18A18.41,18.41,0,0,0,696,52.59a20.29,20.29,0,0,0,8,1.62,15.08,15.08,0,0,0,8.83-2.4A6.67,6.67,0,0,0,716,46a7.22,7.22,0,0,0-1.61-4.71,12.67,12.67,0,0,0-4.19-3.2,74.21,74.21,0,0,0-7.48-3,83.94,83.94,0,0,1-8.46-3.44A16.26,16.26,0,0,1,688.57,27a12.81,12.81,0,0,1-2.47-8.11,12.64,12.64,0,0,1,2.39-7.46,15.52,15.52,0,0,1,6.61-5.16,23.82,23.82,0,0,1,9.59-1.82,25.55,25.55,0,0,1,9.21,1.68,17.16,17.16,0,0,1,7.14,4.9,4.4,4.4,0,0,1,1.15,2.59A3,3,0,0,1,721,16a3.57,3.57,0,0,1-2.32.85,2.89,2.89,0,0,1-2.24-1,13.62,13.62,0,0,0-5-3.76,16.31,16.31,0,0,0-6.78-1.39,15.45,15.45,0,0,0-8.81,2.35,6.54,6.54,0,0,0-3.16,5.8,6.26,6.26,0,0,0,1.48,4.26,12.53,12.53,0,0,0,4.19,3.13A68,68,0,0,0,705.3,29,77.73,77.73,0,0,1,714,32.45a16.66,16.66,0,0,1,6,4.94,14.1,14.1,0,0,1,2.57,8.75,12.31,12.31,0,0,1-2.39,7.24,15.73,15.73,0,0,1-6.64,5.2A23.55,23.55,0,0,1,704,60.44Z"/><path class="cls-3" d="M420.72,60.09a3.16,3.16,0,0,1-2.53-1.22L386.27,17.43V57.19a2.75,2.75,0,0,1-1,2.13,3.14,3.14,0,0,1-2.12.77,3.1,3.1,0,0,1-2.22-.83,2.8,2.8,0,0,1-.9-2.07V8.39A3,3,0,0,1,381,6a3.09,3.09,0,0,1,2-.77,3.14,3.14,0,0,1,2.39,1.06l32.3,41.84V8.32a3,3,0,0,1,.94-2.19,3.11,3.11,0,0,1,2.18-.86,3,3,0,0,1,3.12,3v48.5a3.12,3.12,0,0,1-1,2.46A3.32,3.32,0,0,1,420.72,60.09Z"/><path class="cls-3" d="M586.06,12.46a3.29,3.29,0,1,1,0-6.57h42.27a3.29,3.29,0,1,1,0,6.57Z"/><path class="cls-3" d="M586.06,60.43a3.29,3.29,0,0,1,0-6.57h42.27a3.29,3.29,0,1,1,0,6.57Z"/><rect class="cls-3" x="602.79" y="12.52" width="6.57" height="41.32" rx="0.74" ry="0.74" transform="matrix(0, 1, -1, 0, 639.26, -572.9)"/><path class="cls-4" d="M237.64,93c-13.47-1.29-17.76-7.8-22.3-14.68-6-9.08-12.18-18.48-38.85-10.92l0,.12c-8.84,1.29-13.69,12.37-18.39,23.11-.91,2.07-1.82,4.15-2.76,6.16a104.58,104.58,0,0,1-4.88-10.35c-4-9.53-7.9-21.49-11.77-33.2-3.8-11.5-7.12-21.32-10.23-29.22-5.08-13.28-9.34-21-14.06-22.22-1-.34-15.06-4.71-25.47,1.47-6.65,3.6-12,16.76-19.33,35-4,10-8.57,21.17-13.89,32C50.91,63,46.29,56.56,40.65,56.56c-4.35,0-8.86,4.69-15.11,11.18C18.61,75,10,83.95,0,87.49l1.63,4.58c11-3.93,20.13-13.37,27.42-21,4.58-4.76,9.32-9.69,11.6-9.69,3.37,0,8.1,7.1,11.89,12.8,1.68,2.52,3.33,5,5,7.17a30.24,30.24,0,0,0,3.2,3.71c2.16,2.14,4.4,3.53,6.82,3.68a9.33,9.33,0,0,0,1.23.08c10.81,0,18.61-22.17,26.87-45.65,2-5.6,4.2-11.94,6.5-17.76,3.46,8.85,7,19.88,10.78,31.45,11.49,35.47,19.16,57.15,28.61,58.58l0,.24a63.69,63.69,0,0,0,12.33,1.34c20.38,0,25.75-13.34,30.57-25.31,1.83-4.55,3.59-8.88,6.06-12.39,1.37,1.49,2.75,3.12,4.18,4.81,6.12,7.24,13.06,15.45,23.64,16.51a23.29,23.29,0,0,0,2.62.12,55.63,55.63,0,0,0,17.28-3.06l10.92-3.63ZM91.08,41.6C84.78,59.5,76.15,84,68.79,84c-1.7,0-3.37-1.07-5-2.69a37.62,37.62,0,0,1-2.71-3.26c-.76-1-1.5-2.16-2.21-3.28,5.93-11.71,10.86-23.9,15.23-34.7,6.47-16,12.05-29.8,17.17-32.53l.1-.06c5-3,11.33-2.89,15.84-2.27l-.24.3a33,33,0,0,0-5.09,8.27C98.57,20.59,95.14,30,91.08,41.6Zm26.48,13.8c-4.42-13.65-8.6-26.57-12.69-36.2.48-1.22,1-2.35,1.45-3.4a52.84,52.84,0,0,1,2.57-4.75,12.52,12.52,0,0,1,4.22-4.35c3.25,1.83,7,9.32,10.77,18.87,3.08,8,6.25,17.54,9.58,27.55,4,12,8.09,24.34,12.19,34.31l.11.26c.32.78.64,1.55,1,2.3l.44,1,.48,1.09q.4.89.8,1.75l.38.8q.39.83.79,1.62l.51,1,.53,1c.26.49.52,1,.78,1.41l.3.53c.33.56.65,1.1,1,1.61l.06.09c-2,3.58-4.2,6.49-6.69,8a6,6,0,0,1-3.76.8C135.15,109.74,125,78.33,117.56,55.4Zm62.35,34.53c-4.79,11.92-9.34,23.26-28.67,22.18.19-.18.38-.37.57-.56l.06-.06.43-.44a36.21,36.21,0,0,0,5.52-8l.71-1.32-.09-.12c1.45-2.88,2.81-6,4.15-9,4.37-10,8.89-20.33,15.68-20.33,3.93,0,6.12,1.5,8.64,3.71C183.86,80.09,181.86,85.08,179.91,89.93Zm38.91,5.92c-8.67-.87-14.66-8-20.46-14.82-1.56-1.85-3.14-3.7-4.77-5.43l.08-.09-1.28-1.15a33,33,0,0,0-4.76-4l-.27-.19L187.1,70c15.35-2.39,19.33,3.66,24.19,11,3.51,5.32,7.37,11.18,15.55,14.46A35.06,35.06,0,0,1,218.82,95.84Z"/></g></g></g></svg>