<?xml version="1.0" encoding="utf-8"?>
<!-- Generator: Adobe Illustrator 21.0.0, SVG Export Plug-In . SVG Version: 6.00 Build 0)  -->
<svg version="1.1" id="Capa_1" xmlns="http://www.w3.org/2000/svg" xmlns:xlink="http://www.w3.org/1999/xlink" x="0px" y="0px"
	 viewBox="0 0 176.4 90.8" style="enable-background:new 0 0 176.4 90.8;" xml:space="preserve">
<style type="text/css">
	.st0{fill:#00A7DF;}
	.st1{fill:#B2B2B2;}
	.st2{fill:#FFFFFF;}
</style>
<g>
	<path class="st0" d="M82.7,58.5c-16.1,0-29.3-13.1-29.3-29.3S66.5,0,82.7,0s29.3,13.1,29.3,29.3S98.8,58.5,82.7,58.5z"/>
	<g>
		<g>
			<path class="st1" d="M0,77.4h3.3c4.1,0,6.2,2.3,6.2,6.5c0,4.2-2.2,6.6-6.1,6.6H0V77.4z M3.2,89.2c3.1,0,4.6-1.9,4.6-5.3
				c0-3.3-1.5-5.2-4.6-5.2H1.7v10.4H3.2z"/>
			<path class="st1" d="M15.8,80.6c2.5,0,3.9,1.8,3.9,4.6c0,0.3,0,0.7-0.1,0.9h-6.6c0.1,2.1,1.4,3.4,3.3,3.4c0.9,0,1.7-0.3,2.4-0.8
				l0.6,1.1c-0.8,0.5-1.9,1-3.2,1c-2.6,0-4.7-1.9-4.7-5.1S13.6,80.6,15.8,80.6z M18.3,85c0-2-0.9-3.1-2.4-3.1
				c-1.4,0-2.6,1.1-2.8,3.1H18.3z"/>
			<path class="st1" d="M21.9,88.3c0.8,0.7,1.7,1.2,2.9,1.2c1.3,0,1.9-0.7,1.9-1.5c0-1-1.2-1.4-2.2-1.8c-1.4-0.5-2.9-1.2-2.9-2.8
				c0-1.6,1.2-2.8,3.4-2.8c1.2,0,2.3,0.5,3,1.1l-0.8,1c-0.7-0.5-1.4-0.9-2.2-0.9c-1.2,0-1.8,0.7-1.8,1.4c0,0.9,1.1,1.3,2.2,1.7
				c1.4,0.5,3,1.1,3,3c0,1.6-1.3,2.9-3.6,2.9c-1.4,0-2.7-0.6-3.6-1.3L21.9,88.3z"/>
			<path class="st1" d="M34.5,80.6c1.3,0,2.2,0.5,2.9,1.2l-0.8,1.1c-0.6-0.5-1.2-0.9-2-0.9c-1.8,0-3.1,1.5-3.1,3.8
				c0,2.2,1.2,3.7,3,3.7c0.9,0,1.7-0.5,2.3-1l0.7,1.1c-0.9,0.8-2,1.3-3.2,1.3c-2.6,0-4.6-1.9-4.6-5.1C29.8,82.4,32,80.6,34.5,80.6z"
				/>
			<path class="st1" d="M39.7,80.8h1.4l0.1,1.8h0.1c0.7-1.2,1.7-2,2.8-2c0.4,0,0.7,0.1,1,0.2l-0.3,1.4c-0.3-0.1-0.5-0.2-0.9-0.2
				c-0.8,0-1.8,0.6-2.5,2.2v6.3h-1.6V80.8z"/>
			<path class="st1" d="M46.4,77.7c0-0.6,0.5-1.1,1.1-1.1s1.1,0.4,1.1,1.1c0,0.6-0.5,1.1-1.1,1.1S46.4,78.3,46.4,77.7z M46.7,80.8
				h1.6v9.8h-1.6V80.8z"/>
			<path class="st1" d="M51.6,76.3h1.6v3.9l0,1.8c0.9-0.8,2-1.4,3.1-1.4c2.5,0,3.9,1.9,3.9,5c0,3.3-2,5.3-4.2,5.3
				c-0.9,0-1.9-0.4-2.8-1.2h-0.1l-0.1,1h-1.3V76.3z M55.7,89.4c1.6,0,2.8-1.5,2.8-3.9c0-2.1-0.7-3.6-2.6-3.6c-0.8,0-1.7,0.5-2.6,1.3
				v5.1C54.1,89.1,55,89.4,55.7,89.4z"/>
			<path class="st1" d="M62.5,77.7c0-0.6,0.5-1.1,1.1-1.1s1.1,0.4,1.1,1.1c0,0.6-0.5,1.1-1.1,1.1S62.5,78.3,62.5,77.7z M62.8,80.8
				h1.6v9.8h-1.6V80.8z"/>
			<path class="st1" d="M67.7,80.8h1.4l0.1,1.8h0.1c0.7-1.2,1.7-2,2.8-2c0.4,0,0.7,0.1,1,0.2l-0.3,1.4c-0.3-0.1-0.5-0.2-0.9-0.2
				c-0.8,0-1.8,0.6-2.5,2.2v6.3h-1.6V80.8z"/>
		</g>
		<g>
			<path class="st1" d="M79,82.1h-1.4v-1.2l1.5-0.1l0.2-2.7h1.4v2.7h2.6v1.3h-2.6v5.4c0,1.2,0.4,1.9,1.5,1.9c0.3,0,0.8-0.1,1.1-0.3
				l0.3,1.2c-0.5,0.2-1.2,0.4-1.8,0.4c-2.1,0-2.8-1.3-2.8-3.3V82.1z"/>
			<path class="st1" d="M85.5,80.8h1.4l0.1,1.8h0.1c0.7-1.2,1.7-2,2.8-2c0.4,0,0.7,0.1,1,0.2l-0.3,1.4C90.2,82.1,90,82,89.6,82
				c-0.8,0-1.8,0.6-2.5,2.2v6.3h-1.6V80.8z"/>
			<path class="st1" d="M97.5,84.4c0-1.2-0.4-2.4-2-2.4c-1.1,0-2.1,0.5-2.9,1l-0.7-1.1c0.9-0.6,2.3-1.3,3.8-1.3c2.4,0,3.4,1.6,3.4,4
				v6h-1.4l-0.1-1.2h0c-0.9,0.8-2,1.4-3.2,1.4c-1.6,0-2.9-1-2.9-2.8C91.5,85.9,93.3,84.8,97.5,84.4z M94.8,89.5
				c0.9,0,1.7-0.5,2.7-1.3v-2.7c-3.3,0.4-4.4,1.2-4.4,2.4C93.1,89,93.9,89.5,94.8,89.5z"/>
			<path class="st1" d="M102.5,82.1h-1.4v-1.2l1.5-0.1l0.2-2.7h1.4v2.7h2.6v1.3h-2.6v5.4c0,1.2,0.4,1.9,1.5,1.9
				c0.3,0,0.8-0.1,1.1-0.3l0.3,1.2c-0.5,0.2-1.2,0.4-1.8,0.4c-2.1,0-2.8-1.3-2.8-3.3V82.1z"/>
			<path class="st1" d="M114.2,84.4c0-1.2-0.4-2.4-2-2.4c-1.1,0-2.1,0.5-2.9,1l-0.7-1.1c0.9-0.6,2.3-1.3,3.8-1.3
				c2.4,0,3.4,1.6,3.4,4v6h-1.4l-0.1-1.2h0c-0.9,0.8-2,1.4-3.2,1.4c-1.6,0-2.9-1-2.9-2.8C108.2,85.9,110,84.8,114.2,84.4z
				 M111.5,89.5c0.9,0,1.7-0.5,2.7-1.3v-2.7c-3.3,0.4-4.4,1.2-4.4,2.4C109.8,89,110.6,89.5,111.5,89.5z"/>
			<path class="st1" d="M119,80.8h1.4l0.1,1.4h0.1c0.8-0.9,1.9-1.6,3-1.6c1.5,0,2.3,0.7,2.7,1.9c1-1.1,2-1.9,3.2-1.9
				c2,0,3,1.3,3,3.8v6.2h-1.6v-6c0-1.8-0.6-2.6-1.8-2.6c-0.8,0-1.5,0.5-2.5,1.5v7.1h-1.6v-6c0-1.8-0.6-2.6-1.8-2.6
				c-0.7,0-1.5,0.5-2.5,1.5v7.1H119V80.8z"/>
			<path class="st1" d="M135.3,77.7c0-0.6,0.5-1.1,1.1-1.1s1.1,0.4,1.1,1.1c0,0.6-0.5,1.1-1.1,1.1S135.3,78.3,135.3,77.7z
				 M135.6,80.8h1.6v9.8h-1.6V80.8z"/>
			<path class="st1" d="M144.2,80.6c2.5,0,3.9,1.8,3.9,4.6c0,0.3,0,0.7-0.1,0.9h-6.6c0.1,2.1,1.4,3.4,3.3,3.4c0.9,0,1.7-0.3,2.4-0.8
				l0.6,1.1c-0.8,0.5-1.9,1-3.2,1c-2.6,0-4.7-1.9-4.7-5.1S142,80.6,144.2,80.6z M146.6,85c0-2-0.9-3.1-2.4-3.1
				c-1.4,0-2.6,1.1-2.8,3.1H146.6z"/>
			<path class="st1" d="M150.5,80.8h1.4l0.1,1.4h0.1c0.9-0.9,1.9-1.6,3.3-1.6c2,0,3,1.3,3,3.8v6.2h-1.6v-6c0-1.8-0.6-2.6-1.8-2.6
				c-1,0-1.7,0.5-2.7,1.5v7.1h-1.6V80.8z"/>
			<path class="st1" d="M161.8,82.1h-1.4v-1.2l1.5-0.1l0.2-2.7h1.4v2.7h2.6v1.3h-2.6v5.4c0,1.2,0.4,1.9,1.5,1.9
				c0.3,0,0.8-0.1,1.1-0.3l0.3,1.2c-0.5,0.2-1.2,0.4-1.8,0.4c-2.1,0-2.8-1.3-2.8-3.3V82.1z"/>
			<path class="st1" d="M171.9,80.6c2.4,0,4.5,1.9,4.5,5.1c0,3.2-2.1,5.1-4.5,5.1s-4.5-1.9-4.5-5.1
				C167.3,82.4,169.5,80.6,171.9,80.6z M171.9,89.4c1.7,0,2.8-1.5,2.8-3.7c0-2.2-1.1-3.8-2.8-3.8c-1.7,0-2.8,1.5-2.8,3.8
				C169.1,87.9,170.2,89.4,171.9,89.4z"/>
		</g>
	</g>
	<path class="st2" d="M94.9,18.6l-2.5-2.5c-0.7-0.7-1.6-1-2.5-1c-0.9,0-1.8,0.3-2.5,1L72.2,31.3c-0.7,0.7-2.8,3.4-2.8,4.3l-1.8,7.8
		l7.8-1.8c0,0,3.6-2.1,4.3-2.8l15.2-15.2C96.3,22.2,96.3,20,94.9,18.6z M68.4,42.6l0.7-3l2,2.3L68.4,42.6z M72.1,34.1
		c0.5-0.6,1-1.3,1.3-1.6l15.9-15.9l1.6,1.6L73.6,35.6L72.1,34.1z M78.5,37.5c-0.2,0.2-0.9,0.7-1.7,1.2l-1.5-1.5l17.4-17.4l1.8,1.8
		L78.5,37.5z"/>
</g>
<g>
</g>
<g>
</g>
<g>
</g>
<g>
</g>
<g>
</g>
<g>
</g>
<g>
</g>
<g>
</g>
<g>
</g>
<g>
</g>
<g>
</g>
<g>
</g>
<g>
</g>
<g>
</g>
<g>
</g>
</svg>
