<?xml version="1.0" encoding="utf-8"?>
<!-- Generator: Adobe Illustrator 21.0.0, SVG Export Plug-In . SVG Version: 6.00 Build 0)  -->
<svg version="1.1" id="Schedule" xmlns="http://www.w3.org/2000/svg" xmlns:xlink="http://www.w3.org/1999/xlink" x="0px" y="0px"
	 viewBox="0 0 1200 1200" style="enable-background:new 0 0 1200 1200;" xml:space="preserve">
<style type="text/css">
	.st0{fill:#00A0A2;}
	.st1{fill:#12B2B2;}
	.st2{fill:#7A7A7A;}
	.st3{fill:#FFFFFF;}
	.st4{fill:#00C3C0;}
	.st5{opacity:0.8;enable-background:new    ;}
	.st6{fill:#FFBF2B;}
	.st7{fill:#FF512B;}
	.st8{fill:#D87819;}
	.st9{opacity:0.3;fill:#FFFFFF;enable-background:new    ;}
	.st10{fill:#FFA438;}
	.st11{fill:#223666;}
	.st12{fill:#E2E2E2;}
	.st13{fill:#FFB945;}
	.st14{opacity:0.1;enable-background:new    ;}
	.st15{fill:#2B3437;}
	.st16{fill:#FF3137;}
	.st17{fill:#232526;}
	.st18{opacity:0.2;fill:#2B3437;enable-background:new    ;}
	.st19{fill:#FFA834;}
	.st20{fill:#EB5B00;}
	.st21{fill:#FFFEFE;}
	.st22{fill:#FF454A;}
</style>
<title>agenda2</title>
<g id="Background">
	<rect id="Background_1" class="st0" width="1200" height="1200"/>
	<circle id="Background_2" class="st1" cx="600" cy="600" r="399"/>
</g>
<g id="Schedule-3">
	<g id="Calender">
		<polygon class="st2" points="783.1,790.4 359.1,790.4 336.6,767.5 358.3,362 761.5,339 783.1,366 		"/>
		<rect x="336.6" y="339" class="st3" width="424.8" height="428.4"/>
		<rect x="336.6" y="339" class="st4" width="424.8" height="99.9"/>
		<circle class="st5" cx="444.1" cy="380.3" r="12.5"/>
		<circle class="st5" cx="666.9" cy="380.3" r="12.5"/>
		<path class="st6" d="M485.4,316.8h-47.3v62.6h0.1c0,0.1-0.1,0.3-0.1,0.4c0,3.1,2.8,5.5,6.2,5.5s6.3-2.5,6.3-5.5
			c0-0.1-0.1-0.3-0.1-0.4h0.1v-51.8h34.8v11.6h12.1v-22.3H485.4z"/>
		<path class="st6" d="M707.2,316.8H660v62.6h0.1c0,0.1-0.1,0.3-0.1,0.4c0,3.1,2.8,5.5,6.2,5.5s6.3-2.5,6.3-5.5
			c0-0.1-0.1-0.3-0.1-0.4h0.1v-51.8h34.8v11.6h12.2v-22.3H707.2z"/>
		<rect x="368.8" y="471.8" class="st7" width="36.5" height="36.5"/>
		<rect x="422.8" y="471.8" class="st4" width="36.5" height="36.5"/>
		<rect x="476.8" y="471.8" class="st4" width="36.4" height="36.5"/>
		<rect x="530.8" y="471.8" class="st4" width="36.5" height="36.5"/>
		<rect x="584.8" y="471.8" class="st4" width="36.5" height="36.5"/>
		<rect x="638.8" y="471.8" class="st4" width="36.5" height="36.5"/>
		<rect x="692.8" y="471.8" class="st4" width="36.5" height="36.5"/>
		<rect x="368.8" y="524.5" class="st4" width="36.5" height="36.5"/>
		<rect x="422.8" y="524.5" class="st4" width="36.5" height="36.5"/>
		<rect x="476.8" y="524.5" class="st4" width="36.4" height="36.5"/>
		<rect x="530.8" y="524.5" class="st4" width="36.5" height="36.5"/>
		<rect x="584.8" y="524.5" class="st4" width="36.5" height="36.5"/>
		<rect x="638.8" y="524.5" class="st4" width="36.5" height="36.5"/>
		<rect x="692.8" y="524.5" class="st4" width="36.5" height="36.5"/>
		<rect x="368.8" y="577.1" class="st4" width="36.5" height="36.5"/>
		<rect x="422.8" y="577.1" class="st4" width="36.5" height="36.5"/>
		<rect x="476.8" y="577.1" class="st4" width="36.4" height="36.5"/>
		<rect x="530.8" y="577.1" class="st4" width="36.5" height="36.5"/>
		<rect x="584.8" y="577.1" class="st4" width="36.5" height="36.5"/>
		<rect x="638.8" y="577.1" class="st4" width="36.5" height="36.5"/>
		<rect x="692.8" y="577.1" class="st4" width="36.5" height="36.5"/>
		<rect x="368.8" y="629.8" class="st4" width="36.5" height="36.5"/>
		<rect x="422.8" y="629.8" class="st4" width="36.5" height="36.5"/>
		<rect x="476.8" y="629.8" class="st4" width="36.4" height="36.5"/>
		<rect x="530.8" y="629.8" class="st4" width="36.5" height="36.5"/>
		<rect x="584.8" y="629.8" class="st4" width="36.5" height="36.5"/>
		<rect x="638.8" y="629.8" class="st4" width="36.5" height="36.5"/>
		<rect x="692.8" y="629.8" class="st4" width="36.5" height="36.5"/>
		<rect x="368.8" y="682.4" class="st4" width="36.5" height="36.5"/>
		<rect x="422.8" y="682.4" class="st4" width="36.5" height="36.5"/>
		<rect x="476.8" y="682.4" class="st4" width="36.4" height="36.5"/>
		<rect x="530.8" y="682.4" class="st4" width="36.5" height="36.5"/>
		<rect x="584.8" y="682.4" class="st4" width="36.5" height="36.5"/>
		<rect x="638.8" y="682.4" class="st4" width="36.5" height="36.5"/>
		<rect x="692.8" y="682.4" class="st4" width="36.5" height="36.5"/>
	</g>
	<g id="Clock">
		<path class="st8" d="M388.7,863.7c-29.3-25.8-16-86.1-16-86.1h-87.2c0,0,13.3,60.3-16,86.1s-63.4,25.8-63.4,25.8v14.5h246v-14.5
			C452.1,889.5,418,889.5,388.7,863.7z"/>
		<rect x="206.1" y="889.5" class="st9" width="246" height="14.5"/>
		<path class="st10" d="M182.7,497.2h298c17.5,0,31.7,14.2,31.7,31.7v276.2c0,17.5-14.2,31.7-31.7,31.7h-298
			c-17.5,0-31.7-14.2-31.7-31.7V528.9C151,511.4,165.2,497.2,182.7,497.2z"/>
		<circle class="st11" cx="331.7" cy="667.1" r="146.5"/>
		<circle class="st12" cx="331.7" cy="667.1" r="105.5"/>
		<circle class="st11" cx="331.7" cy="667.1" r="11.8"/>
		<rect x="329.1" y="583.8" class="st13" width="5.3" height="86.6"/>
		
			<rect x="355.3" y="638.9" transform="matrix(1.570732e-03 -1 1 1.570732e-03 -310.2141 1024.5265)" class="st13" width="5.3" height="57.5"/>
		<rect x="229.7" y="667.1" class="st11" width="10.6" height="3.3"/>
		<rect x="330.1" y="564.2" class="st11" width="3.3" height="10.6"/>
		<rect x="332.8" y="756.8" class="st11" width="3.3" height="10.6"/>
		<rect x="422.8" y="666" class="st11" width="10.6" height="3.3"/>
		<path class="st14" d="M480.7,497.2h-149v339.7h149c17.5,0,31.7-14.2,31.7-31.7V529C512.5,511.4,498.3,497.2,480.7,497.2
			C480.7,497.2,480.7,497.2,480.7,497.2z"/>
	</g>
	<g id="Pen">
		<polygon class="st15" points="684.8,937.6 684.8,932.2 560.8,933 560.7,915.9 555.3,915.9 555.4,938.4 		"/>
		
			<rect x="532.7" y="883.3" transform="matrix(1 -6.283144e-03 6.283144e-03 1 -5.657 3.7436)" class="st16" width="120.7" height="37.8"/>
		
			<rect x="666" y="882" transform="matrix(1 -6.283144e-03 6.283144e-03 1 -5.6449 4.9886)" class="st16" width="250.3" height="37.8"/>
		
			<rect x="653.4" y="882.9" transform="matrix(1 -6.283144e-03 6.283144e-03 1 -5.6529 4.1625)" class="st17" width="12.6" height="37.8"/>
		<polygon class="st18" points="532.7,898.1 532.6,883.7 653.2,882.9 665.8,882.8 916.2,881.2 916.2,895.7 		"/>
		<polygon class="st15" points="764,856.4 764,851 887.9,850.2 887.8,833.1 893.2,833.1 893.3,855.6 		"/>
		<path class="st15" d="M906.7,826.9c-4.1,0-7.4-3.3-7.5-7.4l0,0c0-4.1,3.3-7.4,7.4-7.5c0,0,0,0,0,0l12.6-0.1c4.1,0,7.4,3.3,7.5,7.4
			l0,0c0,4.1-3.3,7.4-7.4,7.5c0,0,0,0,0,0L906.7,826.9z"/>
		
			<rect x="795" y="800.9" transform="matrix(1 -6.283144e-03 6.283144e-03 1 -5.1338 5.3903)" class="st19" width="120.7" height="37.8"/>
		
			<rect x="532.1" y="802.1" transform="matrix(1 -6.457673e-03 6.457673e-03 1 -5.288 4.2616)" class="st19" width="250.3" height="37.8"/>
		
			<rect x="782.4" y="801.3" transform="matrix(1 -6.283144e-03 6.283144e-03 1 -5.138 4.9717)" class="st17" width="12.6" height="37.8"/>
		<polygon class="st18" points="915.6,814.9 915.5,800.5 794.9,801.3 782.3,801.3 532,802.9 532,817.3 		"/>
	</g>
	<g id="Books">
		<g id="Book1">
			<path class="st20" d="M976,527.5H821.8c-9.7,0-17.5,7.8-17.5,17.5v199.2l0,0c0,0.4,0,0.8,0,1.3c0,10.6,7.9,19.2,17.6,19.2H976
				V527.5z"/>
			<path class="st14" d="M817.2,528.2c-7.6,2.1-12.9,9-12.9,16.9v199.2l0,0c0,0.4,0,0.8,0,1.3c0,8.8,5.5,16.3,12.9,18.5V528.2z"/>
			<path class="st21" d="M974.7,530.6H823c-8.8,0.5-15.6,8-15.1,16.9c0.5,8.1,6.9,14.6,15.1,15.1h151.7V530.6z"/>
		</g>
		<g id="Book1-2">
			<path class="st22" d="M1049,552.4l-149.4-38.1c-9.4-2.4-18.9,3.3-21.3,12.6c0,0,0,0,0,0L829,720l0,0c-0.1,0.4-0.2,0.8-0.3,1.2
				c-2.6,10.3,2.9,20.6,12.3,23l149.3,38.1L1049,552.4z"/>
			<path class="st14" d="M895,513.7c-7.9,0.2-14.7,5.5-16.7,13.2L829,720l0,0c-0.1,0.4-0.2,0.8-0.3,1.2c-2.2,8.5,1.3,17.1,7.9,21.1
				L895,513.7z"/>
			<path class="st21" d="M1047,555.1l-147-37.5c-8.6-2-17.2,3.4-19.2,12c-1.9,8.3,3.1,16.7,11.3,19l147,37.5L1047,555.1z"/>
		</g>
	</g>
</g>
</svg>
