<svg xmlns="http://www.w3.org/2000/svg" viewBox="0 0 800 800"><defs><style>.cls-1{isolation:isolate;}.cls-2{fill:#ef5350;}.cls-12,.cls-15,.cls-3{fill:#bdbdbd;}.cls-3{opacity:0.5;}.cls-12,.cls-3{mix-blend-mode:multiply;}.cls-4{fill:#424242;}.cls-5{fill:#353535;}.cls-6{fill:#f5f5f5;}.cls-7{fill:#e0e0e0;}.cls-8{fill:#f8d8b2;}.cls-9{fill:#f7c797;}.cls-10{fill:#4fc3f7;}.cls-11{fill:#fafafa;}.cls-12{opacity:0.3;}.cls-13{fill:#d3d3d3;}.cls-14{fill:#eee;}.cls-16{fill:#757575;}.cls-17{fill:#66bb6a;}.cls-18{fill:none;}.cls-19{fill:#f9ebd9;}</style></defs><title>checklist</title><g class="cls-1"><g id="BACKGROUND"><rect class="cls-2" width="800" height="800"/><path class="cls-3" d="M798,653.95l-8.54,7.15-10.87-13h0a116.79,116.79,0,0,0-4.93-20l-.09-.27c-.5-1.44-1-2.88-1.56-4.3l-.09-.23q-.53-1.37-1.09-2.72c-.32-.77-.65-1.53-1-2.29l-.3-.69-.15-.32a115.15,115.15,0,0,0-9.48-16.92l-.28-.4q-.89-1.3-1.8-2.57l-.91-1.23c-.38-.51-.76-1-1.15-1.52-.59-.77-1.19-1.54-1.81-2.29l-.11-.14-.08-.1c-.39-.48-.77-1-1.17-1.45L682.55,507,675.92,499,665,486c-.15-.18-.32-.34-.47-.52l-.1-.12a10.76,10.76,0,0,0-.8-.89,20,20,0,0,0-12.94-6.3,18.79,18.79,0,0,0-5.61.34c-.35.06-.7.13-1,.21l-.27.07c-.19,0-.37.12-.56.17a5.26,5.26,0,0,0-1.13.34l-.29.09-.2.07a19.06,19.06,0,0,0-4.12,2.12,20.68,20.68,0,0,0-2.44,2V216.77a13.19,13.19,0,0,0-13.19-13.19H503.9v-4a4.25,4.25,0,0,0-4.25-4.25H462.88v-6.64a22.5,22.5,0,0,0-22.5-22.5h0a22.5,22.5,0,0,0-22.5,22.5v6.64H381.12a4.25,4.25,0,0,0-4.25,4.25v4H258.93a13.19,13.19,0,0,0-13.19,13.19V508.7l-5.48-17.51a20.29,20.29,0,0,0-26.88-13.45c-9.89,3.8-14.8,15-12,25.2L229.06,619l.12.52h0l.4,1.29,10.59,34.24-.07-.07-12.25,11.69-7.69-8.05L185,692.18l-8.52-8.93L54.16,800H309.81l23.7-22.62-7.69-8.05,12.25-11.69.06.06h0a116.47,116.47,0,0,0,11.54-3.2h.06l1.21-.42.34-.12,1.29-.46.33-.12q4.75-1.73,9.32-3.84l.21-.1q1.33-.62,2.65-1.27l.16-.08c.91-.45,1.82-.92,2.73-1.39,1.42-.76,2.82-1.56,4.22-2.38q3.2-1.87,6.28-4c.6-.41,1.2-.81,1.79-1.23l1-.7,1.73-1.27,1.13-.85c.61-.47,1.21-.94,1.81-1.42l1.47-1.2,1.17-1,1.44-1.24c.79-.67,1.57-1.36,2.3-2.06.51-.43,1-.88,1.47-1.34l14.13-13.48H563.39L532.13,722l3.33-.58-29.14,7.09a20.29,20.29,0,0,0-15.17,26c2.78,8.92,11.54,14.34,20.68,14h0a20.78,20.78,0,0,0,3.68-.43l2.76-.5,115.38-19.66,36.16-8.67h0l10.87,13-8.54,7.15,31.21,37.27-4.06,3.4H800V656.31ZM440.38,187.63a5.3,5.3,0,1,1,5.3-5.3A5.3,5.3,0,0,1,440.38,187.63ZM639.19,529.8l-4.17-5V513.38l9.8,11.71Z"/><polygon class="cls-4" points="266.48 779.49 203.8 713.81 144.63 651.8 144.63 651.8 136.11 642.87 0 772.77 0 800 173.65 800 232.48 743.86 266.48 779.49"/><polygon class="cls-5" points="266.48 779.49 232.48 743.86 173.65 800 244.99 800 266.48 779.49"/><polygon class="cls-6" points="293.13 737 285.44 728.94 285.44 728.94 293.13 737"/><polygon class="cls-6" points="203.8 713.81 241.11 752.9 276.28 719.34 236.46 677.62 179.79 618.24 144.63 651.8 144.63 651.8 203.8 713.81"/><polygon class="cls-7" points="285.44 728.94 285.44 728.94 285.44 728.94 276.28 719.34 241.11 752.9 241.11 752.9 257.96 770.56 293.13 737 285.44 728.94 285.44 728.94"/><path class="cls-8" d="M285.44,728.94h0l-6.8-7.13,5.12-4.88a9.85,9.85,0,0,1,13.93.33L199.79,614.68h0l-.07-.07-12.25,11.69,49,51.32,39.82,41.72Z"/><path class="cls-9" d="M297.69,717.26a9.85,9.85,0,0,0-13.93-.33l-5.12,4.88,6.8,7.13h0l12.25-11.69Z"/><path class="cls-8" d="M319.14,710.36l-.26.11q-1.36.59-2.73,1.14l-.09,0c-1.28.51-2.56,1-3.85,1.47l-1.29.46a117.2,117.2,0,0,0,10.94-4.43l-.84.38Z"/><polygon class="cls-8" points="188.8 579.15 189.2 580.43 188.8 579.14 188.8 579.15"/><path class="cls-8" d="M241.74,532.3h0Z"/><path class="cls-8" d="M219.16,512.31c.06.16.12.31.18.47C219.28,512.62,219.22,512.47,219.16,512.31Z"/><path class="cls-8" d="M219.7,513.73c.08.19.16.38.24.57C219.87,514.11,219.78,513.92,219.7,513.73Z"/><path class="cls-8" d="M242.84,532.28h0Z"/><path class="cls-8" d="M239.93,532.19l.51.05Z"/><path class="cls-8" d="M324.71,707.78q-1.31.65-2.65,1.27C323,708.64,323.84,708.22,324.71,707.78Z"/><path class="cls-8" d="M348.19,692.33l-1.17,1Z"/><path class="cls-8" d="M238.38,531.95l.75.14Z"/><path class="cls-8" d="M221,516.49l.32.59Z"/><path class="cls-8" d="M309.3,714.12c-1.73.55-3.47,1.11-5.26,1.6-2,.61-4.18,1.12-6.28,1.6h0a117.17,117.17,0,0,0,12.81-3.62l-1.21.42Z"/><path class="cls-8" d="M220.31,515.13c.09.2.19.39.28.59C220.5,515.52,220.4,515.33,220.31,515.13Z"/><path class="cls-8" d="M236.64,531.51c.39.12.79.23,1.19.32Q237.23,531.7,236.64,531.51Z"/><path class="cls-8" d="M229.91,527.58l-.55-.46.17.15Z"/><path class="cls-8" d="M227.65,525.55l-.08-.08,0,0Z"/><path class="cls-8" d="M226.59,524.47l-.33-.36.09.1Z"/><path class="cls-8" d="M218.68,520.3l-9.84-40.87-9-28.62A20.29,20.29,0,0,0,173,437.36c-9.89,3.8-14.8,15-12,25.2l27.64,116.05-5.74-24.2Z"/><path class="cls-8" d="M228.69,526.53l-.48-.44.13.13Z"/><path class="cls-8" d="M225.47,523.23l-.37-.43.18.22Z"/><path class="cls-8" d="M244.23,532.17h0Z"/><path class="cls-8" d="M233.34,530.07l.5.29a1.69,1.69,0,0,0,.2.1,15.53,15.53,0,0,0,2.51,1,15.31,15.31,0,0,1-3.58-1.67l.27.18Z"/><path class="cls-8" d="M231.1,528.52l-.06,0,0,0Z"/><path class="cls-9" d="M231.68,528.94l-.58-.43,0,0Z"/><path class="cls-9" d="M224,521.32l-.22-.3Z"/><path class="cls-9" d="M221.54,517.57l-.26-.48-.32-.59c-.13-.26-.25-.52-.38-.78s-.19-.39-.28-.59-.24-.55-.36-.83-.17-.38-.24-.57-.24-.63-.36-1c-.06-.16-.12-.31-.18-.47q-.26-.72-.48-1.45L208,476.15l.79,3.29,9.84,40.87Z"/><path class="cls-9" d="M233.85,530.36l-.5-.29Z"/><path class="cls-9" d="M227,524.89l-.4-.42-.24-.25Z"/><path class="cls-9" d="M230.23,527.84l-.32-.26-.39-.31Z"/><path class="cls-9" d="M228.34,526.22l-.13-.13-.56-.54,0,0Z"/><path class="cls-9" d="M225.29,523l-.18-.22-.12-.15Z"/><path class="cls-8" d="M339.89,698.76c-.59.42-1.19.82-1.79,1.23C338.7,699.58,339.29,699.18,339.89,698.76Z"/><path class="cls-8" d="M342.61,696.78l-1.73,1.27Z"/><path class="cls-8" d="M297.69,717.26h0l.06.06h0c2.1-.48,4.24-1,6.28-1.6,1.79-.49,3.53-1,5.26-1.6h.06l1.21-.42.34-.12,1.29-.46c1.29-.47,2.57-1,3.85-1.47a116,116,0,0,1-12,4.05l108.9-103.93L306,499.75l-10.83-11.35L253.71,528l-13.18,12.58a11,11,0,0,1-18.24-5.34l-3.59-15,2.85-2.72h0l-2.86,2.73-35.75,34.11,5.74,24.2.12.52h0l.4,1.29,10.59,34.24h0Z"/><path class="cls-8" d="M343.73,695.93c.61-.47,1.21-.94,1.81-1.42C344.94,695,344.34,695.47,343.73,695.93Z"/><path class="cls-8" d="M327.6,706.31q-1.36.72-2.73,1.4c.91-.45,1.82-.92,2.73-1.39,1.42-.76,2.82-1.56,4.22-2.38C330.42,704.75,329,705.55,327.6,706.31Z"/><path class="cls-8" d="M319.14,710.36l1.87-.84Z"/><path class="cls-8" d="M316.15,711.61q1.37-.55,2.73-1.14Q317.52,711.06,316.15,711.61Z"/><path class="cls-8" d="M351.93,689c-.76.7-1.53,1.39-2.31,2.07.79-.67,1.57-1.36,2.3-2.06.51-.43,1-.88,1.47-1.34l69.08-65.92h0l0,0Z"/><path class="cls-8" d="M253.71,528a17,17,0,0,1-9.4,4.15h-.08c-.4,0-.8.08-1.2.1h-.2q-.55,0-1.1,0h-.34l-1-.05-.51-.05-.8-.1-.75-.14-.55-.11c-.4-.09-.8-.2-1.19-.32l-.09,0a15.53,15.53,0,0,1-2.51-1A16.61,16.61,0,0,0,253.71,528Z"/><path class="cls-9" d="M351.93,689l70.51-67.29h0l-9.5-10h0L304,715.7a116,116,0,0,0,12-4.05l.09,0q1.37-.55,2.73-1.14l.26-.11,1.87-.84.84-.38.21-.1q1.33-.62,2.65-1.27l.16-.08q1.37-.68,2.73-1.4c1.42-.76,2.82-1.55,4.21-2.36q3.2-1.87,6.28-4c.6-.41,1.2-.81,1.79-1.23l1-.7,1.73-1.27,1.13-.85c.61-.47,1.21-.94,1.81-1.42l1.47-1.2,1.17-1,1.44-1.24C350.4,690.4,351.18,689.72,351.93,689Z"/><path class="cls-9" d="M218.7,520.28l3.59,15a11,11,0,0,0,18.24,5.34L253.71,528A16.61,16.61,0,0,1,234,530.46a1.69,1.69,0,0,1-.2-.1l-.5-.29-.1-.06-.27-.18q-.66-.42-1.29-.88l-.6-.44,0,0-.81-.63-.71-.57-.17-.15-.66-.58-.35-.31-.73-.7,0,0-.58-.58-.64-.67-.09-.1q-.4-.44-.78-.89l-.18-.21-.3-.37c-.35-.43-.69-.87-1-1.32l-.22-.3a34.62,34.62,0,0,1-2.19-3.47Z"/><rect class="cls-10" x="205.36" y="163.2" width="389.28" height="511" rx="13.19" ry="13.19"/><polygon class="cls-11" points="580 178.75 580 549.05 490.41 638.65 220 638.65 220 178.75 580 178.75"/><rect class="cls-7" x="336.49" y="154.94" width="127.03" height="38.34" rx="4.25" ry="4.25"/><path class="cls-7" d="M400,125.8h0a22.5,22.5,0,0,0-22.5,22.5v9.8h45v-9.8A22.5,22.5,0,0,0,400,125.8Zm0,21.45a5.3,5.3,0,1,1,5.3-5.3A5.3,5.3,0,0,1,400,147.25Z"/><rect class="cls-12" x="377.5" y="151.16" width="45" height="3.79"/><path class="cls-13" d="M451.87,159.87H348.47a2.52,2.52,0,1,0,0,5h103.4a2.52,2.52,0,1,0,0-5Z"/><path class="cls-13" d="M451.87,168.26H348.47a2.52,2.52,0,0,0,0,5h103.4a2.52,2.52,0,0,0,0-5Z"/><path class="cls-13" d="M451.87,176.65H348.47a2.52,2.52,0,0,0,0,5h103.4a2.52,2.52,0,0,0,0-5Z"/><polygon class="cls-14" points="490.4 638.65 580 549.05 490.4 549.05 490.4 638.65"/><polygon class="cls-12" points="490.41 638.65 560.04 618.69 580 549.06 490.41 638.65"/><rect class="cls-15" x="340.45" y="248.46" width="204.69" height="15.18"/><rect class="cls-16" x="297.83" y="214.08" width="204.69" height="15.18"/><rect class="cls-15" x="340.45" y="275.54" width="204.69" height="15.18"/><rect class="cls-15" x="340.45" y="302.62" width="204.69" height="15.18"/><rect class="cls-15" x="340.45" y="361.13" width="204.69" height="15.18"/><rect class="cls-15" x="340.45" y="388.21" width="204.69" height="15.18"/><rect class="cls-15" x="340.45" y="415.29" width="204.69" height="15.18"/><rect class="cls-15" x="340.45" y="473.8" width="204.69" height="15.18"/><rect class="cls-15" x="340.45" y="500.88" width="204.69" height="15.18"/><rect class="cls-15" x="340.45" y="527.95" width="204.69" height="15.18"/><path class="cls-12" d="M463.52,186.7V189a4.25,4.25,0,0,1-4.25,4.25H340.74a4.25,4.25,0,0,1-4.25-4.25V186.7Z"/><polygon class="cls-12" points="463.52 189.03 475.05 163.2 463.52 163.2 463.52 189.03"/><path class="cls-7" d="M254.86,248.46V317.8H324.2V248.46Zm57.1,57.1H267.1V260.7H312Z"/><path class="cls-7" d="M254.86,361.13v69.33H324.2V361.13Zm57.1,57.1H267.1V373.37H312Z"/><path class="cls-7" d="M254.86,473.8v69.33H324.2V473.8ZM312,530.9H267.1V486H312Z"/><polygon class="cls-17" points="284.73 300.98 262.82 271.15 274.11 262.87 287.03 280.46 323.96 248.47 333.13 259.05 284.73 300.98"/><polygon class="cls-17" points="284.73 413.64 262.82 383.82 274.11 375.53 287.03 393.13 323.96 361.13 333.13 371.71 284.73 413.64"/><polygon class="cls-17" points="284.73 526.31 262.82 496.49 274.11 488.2 287.03 505.8 323.96 473.8 333.13 484.38 284.73 526.31"/><polygon class="cls-18" points="744.05 688.34 786.46 652.83 782.3 656.32 744.05 688.34"/><polygon class="cls-4" points="798.31 642.91 788.78 650.89 788.78 650.89 798.31 642.91"/><polygon class="cls-4" points="800 721.65 760.54 674.53 788.14 651.43 786.46 652.83 744.05 688.34 662.98 756.22 662.98 756.22 653.52 764.14 683.54 800 800 800 800 721.65"/><polygon class="cls-5" points="788.78 650.89 788.14 651.43 760.54 674.53 800 721.65 800 644.94 798.31 642.91 788.78 650.89 788.78 650.89"/><polygon class="cls-6" points="757.58 613.62 788.78 650.89 788.84 650.84 757.64 613.57 749.1 620.71 749.1 620.71 757.58 613.62"/><path class="cls-6" d="M744.05,688.34l38.25-32-12.23,10.24-10.83-12.94a9.15,9.15,0,0,1-9.54-11.39l-10.83-12.94L640.31,711.8h0L631.77,719,663,756.22h0Z"/><path class="cls-7" d="M749.1,620.71h0l-10.24,8.57,10.83,12.94a9.17,9.17,0,1,1,9.54,11.39l10.83,12.94,12.23-10.24,4.16-3.48,1.68-1.4.64-.54h0l-31.21-37.27Z"/><path class="cls-15" d="M765.61,638.59a9.16,9.16,0,1,0-1.14,12.92A9.17,9.17,0,0,0,765.61,638.59Z"/><path class="cls-8" d="M738.86,629.29l10.24-8.57L741.55,627,737,621.62a9.85,9.85,0,0,1,1.23-13.88l-36,30.1-72.84,61,10.87,13h0Z"/><path class="cls-9" d="M737,621.62l4.54,5.42,7.56-6.33h0l-10.87-13h0A9.85,9.85,0,0,0,737,621.62Z"/><path class="cls-8" d="M539.41,667.6l.58-.43Z"/><path class="cls-8" d="M522.84,483.86l.82.06Z"/><path class="cls-8" d="M518.76,484.13l.28,0Z"/><path class="cls-8" d="M516.52,484.65l.51-.15Z"/><path class="cls-8" d="M536.89,669.26l.6-.37Z"/><path class="cls-8" d="M540.61,666.69l.57-.46Z"/><path class="cls-8" d="M542.91,664.72l.53-.51Z"/><path class="cls-8" d="M520.84,483.88l.34,0Z"/><path class="cls-8" d="M541.78,665.73l.55-.49Z"/><path class="cls-8" d="M538.17,668.46l.59-.4Z"/><path class="cls-8" d="M528.56,672.85l.47-.14Z"/><path class="cls-8" d="M544.5,663.12l-.51.54Z"/><path class="cls-8" d="M545,662.55l.49-.56Z"/><path class="cls-8" d="M546,661.39l.47-.59Z"/><path class="cls-8" d="M531.45,671.89l.59-.24Z"/><path class="cls-8" d="M535.58,670l.6-.34Z"/><path class="cls-8" d="M534.23,670.69l.61-.31Z"/><path class="cls-8" d="M532.85,671.32l.6-.27Z"/><path class="cls-8" d="M530,672.4l.56-.2Z"/><path class="cls-8" d="M526.4,484.3c.36.07.71.15,1.07.25C527.11,484.46,526.75,484.38,526.4,484.3Z"/><path class="cls-8" d="M528.57,484.89l.73.25Z"/><path class="cls-8" d="M716.58,555.79l.91,1.23Z"/><path class="cls-8" d="M604.69,438.14c-.35.06-.7.13-1,.21l.47-.09Z"/><path class="cls-8" d="M530.67,485.71l.45.2Z"/><path class="cls-8" d="M713.62,552c.61.76,1.21,1.52,1.81,2.29Q714.54,553.11,713.62,552Z"/><path class="cls-8" d="M532.71,486.79l.17.1Z"/><path class="cls-8" d="M712.26,550.29l-70.09-83.71-6.62-7.91-10.92-13c-.15-.18-.32-.34-.47-.52l89.28,106.63C713,551.25,712.66,550.76,712.26,550.29Z"/><path class="cls-8" d="M602.92,438.56a4.65,4.65,0,0,1,.45-.14,19.24,19.24,0,0,0-2,.6.29.29,0,0,1,.11,0A5.31,5.31,0,0,1,602.92,438.56Z"/><path class="cls-8" d="M524.16,484c.49,0,1,.11,1.47.19C525.14,484.07,524.65,484,524.16,484Z"/><path class="cls-8" d="M729.49,577.93l-.45-1,.15.32Z"/><path class="cls-8" d="M719.29,559.59l.28.4Z"/><path class="cls-8" d="M730.47,580.22q.56,1.35,1.09,2.72C731.21,582,730.85,581.12,730.47,580.22Z"/><path class="cls-8" d="M738.23,607.73h0a117.2,117.2,0,0,0-6.58-24.57A116.56,116.56,0,0,1,737,601.36L601.18,439.1h0a19.06,19.06,0,0,0-4.12,2.12A20.29,20.29,0,0,0,593,471l11.48,13.71-5.63,4.72-10.55,8.83-38.49-46a19.06,19.06,0,0,0-4.13,2.13,20.29,20.29,0,0,0-4.12,29.78L562,508.68l-5.62,4.71h0l-10.58,8.86-31-37,.7-.25a20.31,20.31,0,0,0-7.84,4.94c-7.44,7.54-7.31,19.77-.5,27.89L531,546.22l-5.63,4.72-79.55-95-.22-.24,79.75,95.25-10.55,8.83-69.12-82.56a10.95,10.95,0,0,1-19.06,4.51l-5.07-6a10.95,10.95,0,0,1,7.79-18l-6.95-8.29c.39-.16.78-.3,1.18-.43a19.1,19.1,0,0,0-5.3,2.54,20.29,20.29,0,0,0-4.12,29.78L494.23,577l6.62,7.91,45.43,54.26c4.77,5.7,5,15.18.58,21.15l.26-.34a16.69,16.69,0,0,0-.66-20.59l11.72,14a11,11,0,0,1-6.55,17.87L495.08,681l-29.14,7.09a20.29,20.29,0,0,0-15.17,26c2.78,8.91,11.54,14.34,20.68,14a11.13,11.13,0,0,1-3.64-5.93,10.93,10.93,0,0,1,8.11-13.19l7.7-1.83A11,11,0,0,1,495.15,724l-17.24,3.1,115.38-19.66,36.16-8.67,72.84-61,36-30.1Z"/><path class="cls-9" d="M737,601.36a116.56,116.56,0,0,0-5.38-18.19l-.09-.23q-.53-1.37-1.09-2.72c-.32-.77-.65-1.53-1-2.29l-.3-.69-.15-.32A115.15,115.15,0,0,0,719.56,560l-.28-.4q-.88-1.3-1.8-2.57l-.91-1.23c-.38-.51-.76-1-1.15-1.52-.59-.77-1.19-1.54-1.81-2.29l-.11-.14-.08-.1L624.15,445.1,624,445a10.76,10.76,0,0,0-.8-.89,20,20,0,0,0-12.94-6.3,18.79,18.79,0,0,0-5.61.34l-.58.12-.47.09-.27.07a4.65,4.65,0,0,0-.45.14,5.31,5.31,0,0,0-1.42.44.29.29,0,0,0-.11,0l-.2.07h0Z"/><path class="cls-9" d="M598.81,489.42l-26.18-31.26a20.25,20.25,0,0,0-13.77-7.22,19.91,19.91,0,0,0-9.1,1.33h0l38.49,46Z"/><path class="cls-9" d="M545.82,522.25l10.58-8.86h0l-18.67-22.3a20.18,20.18,0,0,0-4.85-4.19l-.17-.1c-.52-.32-1.05-.61-1.6-.88l-.45-.2c-.45-.21-.9-.4-1.37-.58l-.73-.25c-.37-.12-.73-.24-1.11-.34s-.71-.17-1.07-.25l-.77-.15c-.49-.08-1-.15-1.47-.19l-.21,0-.3,0-.82-.06c-.55,0-1.11,0-1.66,0l-.34,0q-.9.06-1.8.2l-.28,0c-.58.1-1.17.22-1.74.37l-.51.15q-.5.15-1,.32l-.7.25Z"/><path class="cls-9" d="M429.32,457.71a10.94,10.94,0,0,1,9,3.9l5.07,6a10.94,10.94,0,0,1,2.25,9.57l69.12,82.56,10.55-8.83-79.75-95.25-.36-.43a20.15,20.15,0,0,0-13.74-7.18,19.69,19.69,0,0,0-7.92.9c-.39.13-.79.27-1.18.43Z"/><path class="cls-19" d="M496.81,715.28a11,11,0,0,0-13.18-8.17l-7.7,1.83a10.93,10.93,0,0,0-8.11,13.19,11.13,11.13,0,0,0,3.64,5.93h0a20.78,20.78,0,0,0,3.68-.43l2.76-.5,17.24-3.1A11,11,0,0,0,496.81,715.28Z"/><path class="cls-9" d="M558.19,653.36l-11.72-14a16.69,16.69,0,0,1,.66,20.59l-.26.34-.39.5-.47.59-.5.6-.49.56-.53.57-.51.54-.55.55-.53.51-.58.52-.55.49-.6.5-.57.46-.63.48-.58.43-.65.45-.59.4-.68.43-.6.37-.71.41-.6.34-.74.38-.61.31-.77.36-.6.27-.81.33-.59.24-.88.31-.56.2-1,.3-.47.14q-.73.21-1.48.39l-35.33,8.36,3.33-.58,56.56-9.79A11,11,0,0,0,558.19,653.36Z"/><path class="cls-19" d="M443.41,467.65l-5.07-6a11,11,0,0,0-16.81,14.08l5.07,6a11,11,0,0,0,16.81-14.08Z"/></g></g></svg>