<svg id="Layer_1" data-name="Layer 1" xmlns="http://www.w3.org/2000/svg" viewBox="0 0 4996.32 5005"><defs><style>.cls-1{fill:#8ebedc;}.cls-2{fill:#fff;}.cls-3{fill:#d9effd;}.cls-4{fill:#0098a6;}.cls-5{fill:none;}.cls-6{fill:#d93c39;}.cls-7{fill:#424651;}.cls-8{fill:#009f9f;}.cls-9{fill:#555f6d;}.cls-10{fill:#36393c;}.cls-11{fill:#494c55;}.cls-12{fill:#f0f8f9;}.cls-13{fill:#fccb67;}.cls-14{fill:#f1910d;}.cls-15{fill:#cb2886;}.cls-16{fill:#e5b35f;}.cls-17{fill:#efeceb;}.cls-18{fill:#fffcfb;}.cls-19{fill:#de5252;}.cls-20{fill:#fbfcfd;}.cls-21{fill:#455052;}.cls-22{fill:#c63936;}.cls-23{fill:#373c3c;}.cls-24{fill:#dd1219;}.cls-25{fill:#5aa6d4;}.cls-26{fill:#fcfcfd;}.cls-27{fill:#13110c;}.cls-28{fill:#ea591a;}.cls-29{fill:#edeced;}.cls-30{fill:#134466;}.cls-31{fill:#59c1d2;}.cls-32{fill:#dcb69a;}.cls-33{fill:#f6cfad;}.cls-34{fill:#dbdce4;}.cls-35{fill:#445879;}.cls-36{fill:#c9d1cd;}.cls-37{fill:#e7c0a0;}.cls-38{fill:#432b1b;}.cls-39{fill:#1c606c;}.cls-40{fill:#324a56;}.cls-41{fill:#3b3739;}.cls-42{fill:#bebbbb;}.cls-43{fill:#312c2a;}.cls-44{fill:#345157;}</style></defs><title>medico</title><rect class="cls-1" width="4996.32" height="5005"/><path class="cls-2" d="M534,2556.5s.17-12.64.51-37.12c.12-6.12,0-13,.39-20.57s.62-15.89,1-24.93.58-18.78,1.29-29.2,1.38-21.57,2.15-33.39c3.47-47.25,8.94-105.5,19.57-173.41a2067.33,2067.33,0,0,1,49.9-230.71c1.47-5.33,2.88-10.71,4.43-16.1s3.21-10.77,4.83-16.22q4.91-16.3,9.93-33c7.3-22.12,14.33-44.93,22.73-67.89,7.9-23.12,17-46.4,26.1-70.29,9.66-23.67,19.27-47.94,30.23-72.25a2035.5,2035.5,0,0,1,164.58-302.81A2069.77,2069.77,0,0,1,1450.5,845.4a2101.55,2101.55,0,0,1,199.69-117.7c70-36.28,143.58-68.71,220-97.48a2003.34,2003.34,0,0,1,238-72.93c20.44-5.2,41.18-9.42,61.93-14,10.35-2.37,20.85-4.16,31.3-6.21s20.95-4.06,31.47-5.91l31.73-5.23,15.9-2.62,16-2.23,32.07-4.46c10.71-1.38,21.49-2.48,32.27-3.74,21.53-2.67,43.23-4.34,65-6.28,10.87-1.08,21.8-1.55,32.74-2.29s21.87-1.45,32.87-2l33.08-1.22,16.57-.6,16.51-.19,33.07-.39c11.32,0,22.26.26,33.44.37,22.25.06,44.56,1.21,66.93,2,11.19.3,22.37,1.3,33.57,1.95s22.44,1.28,33.65,2.32c22.43,2.09,45,3.76,67.43,6.61,11.25,1.34,22.53,2.5,33.78,4l33.77,4.75c11.3,1.49,22.54,3.39,33.8,5.29s22.54,3.67,33.81,5.71c22.45,4.45,45.09,8.35,67.51,13.54,45.06,9.43,89.82,21.21,134.53,33.83,22.27,6.66,44.65,13.13,66.77,20.58,22.28,7,44.26,15,66.38,22.81,11,4,22,8.31,33,12.44l16.47,6.28c5.49,2.12,10.91,4.43,16.36,6.64l32.73,13.42L3427,676.82a2058.57,2058.57,0,0,1,1132.87,1284.1c58.07,192.32,87.38,394,87.2,595.58s-30,403.14-88.38,595.21A2057.52,2057.52,0,0,1,3425,4431.77l-32.42,14.13q-16.35,6.66-32.67,13.32c-5.45,2.2-10.86,4.49-16.33,6.61l-16.45,6.22c-11,4.11-21.87,8.42-32.89,12.34-22.08,7.72-44,15.68-66.26,22.61-22.08,7.4-44.42,13.82-66.63,20.42-44.63,12.47-89.29,24.14-134.24,33.46-22.38,5.13-44.94,9-67.34,13.36-11.24,2-22.51,3.75-33.73,5.63s-22.45,3.76-33.71,5.19l-33.69,4.69c-11.23,1.46-22.47,2.6-33.69,3.91-22.42,2.8-44.88,4.41-67.24,6.45-11.18,1-22.38,1.48-33.56,2.25-11.18.61-22.31,1.6-33.48,1.87-22.31.78-44.61,1.88-66.73,1.9-11.1.07-22.09.31-33.23.3l-33.11-.46-16.53-.22-16.49-.63-32.9-1.28c-10.94-.54-21.85-1.37-32.75-2s-21.78-1.25-32.6-2.35c-21.68-2-43.31-3.69-64.76-6.41-10.74-1.27-21.47-2.38-32.15-3.78l-31.94-4.51-15.94-2.25-15.84-2.64-31.59-5.26c-10.49-1.86-20.92-4-31.35-6s-20.87-3.86-31.18-6.24c-20.66-4.56-41.32-8.82-61.66-14A1995.87,1995.87,0,0,1,1873,4475.22c-76.08-28.82-149.31-61.25-218.92-97.53a2089.06,2089.06,0,0,1-198.6-117.61,2060.17,2060.17,0,0,1-575-581.55A2025.51,2025.51,0,0,1,717.44,3377c-10.84-24.21-20.35-48.37-29.91-71.91-9-23.77-18-46.94-25.8-70-8.3-22.82-15.24-45.52-22.46-67.53q-5-16.64-9.8-32.86l-4.77-16.13c-1.54-5.36-2.92-10.71-4.37-16a2053.13,2053.13,0,0,1-49.13-229.42c-10.42-67.53-15.74-125.43-19.09-172.39q-1.1-17.63-2.07-33.19c-.68-10.37-.82-20.06-1.22-29s-.64-17.24-.93-24.78-.23-14.36-.35-20.43c-.28-24.34-.43-36.9-.43-36.9Zm13.15,0s.17,12.56.51,36.9c.13,6.08.05,12.89.4,20.43s.61,15.8,1,24.77.57,18.65,1.28,29,1.37,21.43,2.13,33.17c3.46,47,8.89,104.84,19.44,172.31a2050.3,2050.3,0,0,0,49.59,229.22c1.45,5.3,2.85,10.66,4.39,16s3.2,10.7,4.81,16.1l9.86,32.83c7.25,22,14.24,44.63,22.57,67.44,7.85,23,16.9,46.12,25.94,69.84,9.61,23.51,19.16,47.64,30,71.78a2023.15,2023.15,0,0,0,163.54,300.87,2057,2057,0,0,0,575.25,579.46,2079.38,2079.38,0,0,0,198.42,117c69.52,36.06,142.66,68.25,218.59,96.85a1991.41,1991.41,0,0,0,236.41,72.47c20.29,5.16,40.91,9.36,61.52,13.86,10.3,2.37,20.71,4.14,31.11,6.18s20.81,4,31.27,5.88l31.52,5.19,15.81,2.6,15.89,2.21q15.91,2.19,31.86,4.43c10.64,1.37,21.35,2.46,32.06,3.71,21.39,2.67,43,4.32,64.57,6.25,10.81,1.08,21.67,1.55,32.53,2.28s21.75,1.44,32.64,1.95l32.8,1.21,16.42.6,16.47.2q16.5.2,33,.38c10.95,0,22.07-.25,33.14-.36,22.17-.06,44.29-1.21,66.5-2,11.1-.28,22.23-1.3,33.35-1.93,11.13-.78,22.29-1.27,33.43-2.3,22.28-2.09,44.67-3.73,67-6.56,11.17-1.34,22.38-2.49,33.57-4l33.57-4.74c11.21-1.48,22.38-3.35,33.57-5.24s22.41-3.66,33.6-5.68c22.31-4.43,44.8-8.3,67.08-13.45,44.76-9.36,89.23-21.09,133.67-33.61,22.13-6.62,44.36-13,66.35-20.47,22.13-6.95,44-14.93,65.95-22.67,11-3.92,21.81-8.25,32.73-12.35l16.38-6.25c5.45-2.11,10.83-4.41,16.25-6.6l32.51-13.35,32.25-14.14A2045.42,2045.42,0,0,0,4547.24,3148.27c57.7-191.08,86.81-391.44,86.64-591.76s-29.76-400.57-87.81-591.41A2044.4,2044.4,0,0,0,3419.66,693.26q-16.11-7-32.2-14L3355,666c-5.41-2.18-10.79-4.45-16.23-6.55l-16.34-6.19c-10.91-4.08-21.73-8.37-32.68-12.27-21.94-7.66-43.74-15.58-65.83-22.47-21.94-7.35-44.13-13.71-66.2-20.28-44.35-12.4-88.73-24-133.37-33.24-22.23-5.09-44.66-8.92-66.92-13.27-11.17-2-22.35-3.73-33.51-5.6s-22.3-3.73-33.49-5.17L2857,536.31c-11.16-1.45-22.34-2.58-33.48-3.88-22.27-2.79-44.59-4.39-66.81-6.41-11.11-1-22.24-1.47-33.34-2.24-11.1-.6-22.17-1.58-33.27-1.85-22.16-.77-44.25-1.88-66.31-1.88-11-.09-22.14-.34-32.91-.31l-33.07.46-16.49.21L2525,521l-32.62,1.28c-10.86.53-21.71,1.35-32.54,2s-21.64,1.23-32.4,2.33c-21.54,2-43,3.66-64.34,6.35-10.68,1.27-21.34,2.39-32,3.78l-31.73,4.48-15.84,2.23-15.74,2.62-31.39,5.24c-10.43,1.85-20.78,4-31.15,5.92s-20.73,3.83-31,6.2c-20.53,4.54-41.05,8.76-61.26,14a1983.87,1983.87,0,0,0-235.36,72.66c-75.57,28.64-148.34,60.86-217.5,96.91a2078.4,2078.4,0,0,0-197.32,116.85,2047.3,2047.3,0,0,0-571.32,577.83,2010.8,2010.8,0,0,0-162,299.57c-10.78,24-20.21,48.05-29.72,71.44-8.93,23.6-17.89,46.63-25.64,69.49-8.25,22.69-15.14,45.24-22.3,67.1q-4.94,16.52-9.74,32.64l-4.75,16c-1.52,5.33-2.9,10.65-4.33,15.92a2038.14,2038.14,0,0,0-48.82,227.93c-10.35,67.09-15.63,124.63-19,171.29q-1.1,17.53-2.06,33c-.66,10.31-.81,19.93-1.21,28.85s-.63,17.12-.9,24.6-.23,14.28-.36,20.32c-.28,24.18-.42,36.67-.42,36.67Z"/><path class="cls-3" d="M3933.23,1489.46c0,199.77,161.94,361.71,361.72,361.71s361.71-161.94,361.71-361.71-161.95-361.73-361.71-361.73S3933.23,1289.69,3933.23,1489.46Z"/><circle class="cls-3" cx="3418.88" cy="551.45" r="398.03"/><path class="cls-3" d="M1332,620.23c0,227.65,184.54,412.2,412.18,412.2s412.2-184.54,412.2-412.2S1971.78,208,1744.13,208,1332,392.59,1332,620.23Z"/><path class="cls-3" d="M1092.28,1579.45c0,206.06-167,373.1-373.09,373.1s-373.1-167-373.1-373.1,167-373.1,373.1-373.1S1092.28,1373.38,1092.28,1579.45Z"/><circle class="cls-4" cx="4466.95" cy="2744.42" r="278.53"/><path class="cls-3" d="M1731.32,4530.79c0,177.16,143.61,320.8,320.79,320.8s320.78-143.63,320.78-320.8S2229.27,4210,2052.11,4210,1731.32,4353.62,1731.32,4530.79Z"/><path class="cls-3" d="M3977,3839.51c0,199.77,161.94,361.71,361.72,361.71s361.71-161.94,361.71-361.71-161.95-361.73-361.71-361.73S3977,3639.74,3977,3839.51Z"/><circle class="cls-4" cx="802.91" cy="3868.69" r="398.03" transform="translate(-2135.75 1227.53) rotate(-36.33)"/><path class="cls-3" d="M250.84,2773.69c0,199.77,161.94,361.71,361.72,361.71s361.71-161.94,361.71-361.71S812.32,2412,612.56,2412,250.84,2573.92,250.84,2773.69Z"/><polygon class="cls-2" points="2084.63 4657.05 2021.05 4657.05 2021.05 4593.43 1957.44 4593.43 1957.42 4593.43 1957.42 4513.95 2021.02 4513.95 2021.02 4450.38 2084.62 4450.38 2084.62 4513.95 2148.22 4513.95 2148.22 4593.43 2084.63 4593.43 2084.63 4657.05"/><polygon class="cls-5" points="2021.02 4450.38 2084.62 4450.38 2084.62 4513.95 2148.22 4513.95 2148.22 4593.43 2084.63 4593.43 2084.63 4657.05 2021.05 4657.05 2021.05 4593.43 1957.44 4593.43 1957.42 4593.43 1957.42 4513.95 2021.02 4513.95 2021.02 4450.38"/><polygon class="cls-5" points="2021.02 4450.38 2084.62 4450.38 2084.62 4513.95 2148.22 4513.95 2148.22 4593.43 2084.63 4593.43 2084.63 4657.05 2021.05 4657.05 2021.05 4593.43 1957.44 4593.43 1957.42 4593.43 1957.42 4513.95 2021.02 4513.95 2021.02 4450.38"/><path class="cls-6" d="M1815,4442v219.25a59.5,59.5,0,0,0,59.33,59.35H2231.3a59.51,59.51,0,0,0,59.39-59.35V4442c0-32.65-26.67-55.23-59.39-55.23h-67.15v-.13h-31.83v.13h-258C1841.71,4386.78,1815,4409.36,1815,4442Zm142.39,71.94H2021v-63.57h63.6v63.57h63.6v79.48h-63.59V4657h-63.58v-63.62h-63.63Z"/><path class="cls-6" d="M2132.32,4363.68c0-14.58-13-27.58-27.56-27.58H2000.89c-14.51,0-27.54,13-27.54,27.58v23.09h-31.8v-23.09a59.49,59.49,0,0,1,59.33-59.37h103.88a59.56,59.56,0,0,1,59.38,59.37v23h-31.83Z"/><path class="cls-2" d="M1609.39,502.64l-18.66,142.48L1494.05,674s-5.09,69.54-20.35,78-45.8-1.69-45.8-1.69V682.44l66.15-62.76,28.84-106.86Z"/><rect class="cls-2" x="1731.19" y="495.82" width="207.79" height="173.44"/><path class="cls-6" d="M1496.52,779.43A66.44,66.44,0,1,0,1563,713,66.45,66.45,0,0,0,1496.52,779.43ZM1576.37,794a19.83,19.83,0,1,1,6.09-18.19,20.39,20.39,0,0,1,.34,3.6A19.77,19.77,0,0,1,1576.37,794Z"/><path class="cls-6" d="M1901,779.43A66.45,66.45,0,1,0,1967.45,713,66.45,66.45,0,0,0,1901,779.43Zm46.61,0a20.12,20.12,0,0,1,.34-3.6,19.82,19.82,0,0,1,39,0,20.11,20.11,0,0,1,.34,3.6,19.83,19.83,0,0,1-39.67,0Z"/><path class="cls-6" d="M1700.07,477.6v217h246.59v-217Zm58.11,86.12h48.05V515.66h48.05v48.06h48.05v48.05h-48.05v48.05h-48.05V611.77h-48.05Z"/><path class="cls-7" d="M1411.42,734.46c0,10.57.28,21.42.28,32,25.32,0,50.63,0,76-.28,8.34-36.73,44-66.22,82.35-60.66,33.77,1.9,57.56,30,67.84,59.9v2.71H1894a74.45,74.45,0,0,1,147.13,0h13.59V452.76H1741.64v-1h-73.45c0,.38,0,.74,0,1h-30.34v17.08c-38.93-.27-77.88-.54-117.09,0,3.06,38.4-15.31,73.17-24.2,109.63-5.57,13.91-4.73,33.95-21.15,40.34-16.42,8.07-33.12,15.58-49.52,23.09-1.12,30.34-.29,60.38-.56,90.71Zm321.65-146.72a97.19,97.19,0,1,1,97.19,97.19A97.2,97.2,0,0,1,1733.07,587.74Zm-230.66,26.51c7.79-29.49,17.25-58.43,25-87.64,19.75-.84,39.79-.56,59.54-.56,1.12,29.49.56,59,.28,88.47C1558.89,614.53,1530.79,614.81,1502.41,614.25Zm-73.57,91.05q25.79-.45,51.57,0c.3,10.37.3,20.45,0,30.83-17.19.29-34.67.29-51.87-.3C1428.24,725.76,1428.24,715.68,1428.83,705.31Z"/><path class="cls-6" d="M1668.16,412.19a36.76,36.76,0,0,1,73.53,0c0,6.84,0,31.64,0,39.53h-73.45C1668.16,443.71,1668.16,419,1668.16,412.19Z"/><path class="cls-7" d="M1662.5,450.2a6.67,6.67,0,0,0,6.67,6.67H1743a6.67,6.67,0,0,0,6.67-6.67h0a6.67,6.67,0,0,0-6.67-6.67h-73.83a6.67,6.67,0,0,0-6.67,6.67Z"/><path class="cls-6" d="M3138,513.41a150.3,150.3,0,0,0,4.1,34.77c.1.39.2.77.28,1.16.15.65.34,1.32.48,2,5,20.59,14.05,40.54,25.51,59.46,14.94,24.67,34,47.6,53.94,67.95h154.31a12,12,0,0,1,11.2,7.67l25,65.23,88.5-219.5a12,12,0,0,1,10.71-7.5,12.3,12.3,0,0,1,11.18,6.73L3563.9,615h76.58a10.34,10.34,0,0,1,1.84.18A253.19,253.19,0,0,0,3659,584.42a191.09,191.09,0,0,0,11.58-33.1c.15-.67.33-1.34.48-2,.08-.39.18-.77.28-1.16a150.46,150.46,0,0,0,4.1-34.77c0-.66,0-1.32,0-2a149,149,0,0,0-89.48-134.67c-2.09-.73-4.18-1.41-6.3-2a147,147,0,0,0-169.91,46.07c-1.9,1.41-2.86,2.24-2.86,2.24l-.16-.12,0,0A148.77,148.77,0,0,0,3288.3,364.4H3287a148.56,148.56,0,0,0-59.52,12.37c-26.44,9.29-50.73,28.75-70.29,62.27a162.59,162.59,0,0,0-9.36,19.26,134.08,134.08,0,0,0-9.84,53.13C3138,512.09,3138,512.75,3138,513.41Zm493.57-.15a5.75,5.75,0,0,1-.56-2.17c-2.51-52.69-48.44-98.61-101.13-101.09-4.21-.24-7.71-5.36-7.79-11.46s4.11-10.85,9.37-10.56c63.38,3.07,118.48,58.17,121.56,121.57a8,8,0,0,1-.7,3.72c-1.51,3.36-5.31,5.68-9.87,5.63C3637.43,518.81,3633.06,516.46,3631.55,513.26Z"/><path class="cls-6" d="M3401.4,788.64a12,12,0,0,0,11.08,7.69h.11a12,12,0,0,0,11.12-7.53l89.79-222.7,32.16,66.16a12,12,0,0,0,10.78,6.72h69.3c-51.56,67.55-127.25,117.54-143.57,129-15.83,11.09-35.93,23.75-51.44,33.25-14.93,9.67-23.83,14.57-23.83,14.57l-.19-.11-.19.11s-8.9-4.9-23.83-14.57c-15.51-9.5-35.61-22.16-51.44-33.25-10.6-7.42-46.24-31.12-84.05-65.32l121.19,0Z"/><polygon class="cls-2" points="959.44 3928.12 665.7 3759.03 641.38 3772.94 619.75 3818.71 633.66 3843.03 918.51 4002.06 959.44 3928.12"/><rect class="cls-7" x="818.52" y="3914.49" width="44.51" height="9.96" transform="translate(-2977.64 2699.27) rotate(-60.17)"/><polygon class="cls-7" points="879.14 3967.11 901.27 3928.51 892.64 3923.55 870.5 3962.16 879.14 3967.11"/><rect class="cls-7" x="843.98" y="3932.44" width="32.95" height="9.95" transform="translate(-2983.43 2725.73) rotate(-60.18)"/><rect class="cls-7" x="889.1" y="3958.31" width="32.94" height="9.95" transform="translate(-2983.21 2777.94) rotate(-60.18)"/><path class="cls-6" d="M642,3793.17s12.46-29,35.59-15.71l167.61,96.09-32,55.76-171.36-98.24S625.44,3821.66,642,3793.17Z"/><path class="cls-5" d="M676.32,3770.93l275.3,157.84-4.82,8.41-.17.29-28.36,49.46-.17.3-4.84,8.45L636.08,3836.77s-16.86-15.53.88-46.47C637,3790.3,652.55,3757.3,676.32,3770.93Z"/><path class="cls-7" d="M616.57,3802.8c0-.11.07-.22.11-.34h0Z"/><path class="cls-7" d="M635,3769.88a64.6,64.6,0,0,1,6.47-6.22,62.94,62.94,0,0,0-6.25,6.43Z"/><polygon class="cls-5" points="595.62 3775.52 595.83 3775.13 595.84 3775.14 595.62 3775.52"/><polygon class="cls-5" points="601.11 3765.93 601.33 3765.54 601.11 3765.93 601.11 3765.93"/><path class="cls-8" d="M601.11,3765.93l.22-.39c2.33-4.06,9.41-4.39,15.8-.72l10.36,5.93a5,5,0,0,1,6.65-1.52,4.87,4.87,0,0,1,.84.65,85.56,85.56,0,0,0-18.3,32.58,4.93,4.93,0,0,1-3.35-7L603,3789.53c-6.4-3.67-9.7-9.95-7.37-14l.22-.38h0l5.28-9.2Z"/><polygon class="cls-2" points="474.39 3693.28 601.11 3765.93 595.83 3775.13 484.68 3711.41 474.39 3693.28"/><path class="cls-5" d="M676.32,3770.93l275.3,157.84-4.82,8.41-.17.29-28.36,49.46-.17.3-4.84,8.45L636.08,3836.77s-16.86-15.53.88-46.47C637,3790.3,652.55,3757.3,676.32,3770.93Z"/><path class="cls-7" d="M627.06,3843.26h0l280,160.51-5.59,9.77,17.42,10,4.71-8.22,9.32-16.25,33.47-58.78.35-.21,12-20.87-17.43-10-5.47,9.55-280-160.51c-13.61-7.8-25.58-2.33-34.34,5.41a62.94,62.94,0,0,0-6.25,6.43l-.22-.2a85.56,85.56,0,0,0-18.3,32.58h0l-.12.33C612.22,3815.56,610.1,3833.53,627.06,3843.26Zm9.9-53s15.59-33,39.36-19.37l275.3,157.84-4.82,8.41-.17.29-28.36,49.46-.17.3-4.84,8.45L636.08,3836.77S619.22,3821.24,637,3790.3Z"/><polygon class="cls-9" points="932.88 3999.05 966.35 3940.26 966.7 3940.06 964.29 3944.26 1084.86 4013.39 1053.45 4068.17 932.88 3999.05"/><polygon class="cls-7" points="1084.86 4013.39 1103.33 3981.19 1125.95 3994.16 1057.76 4113.1 1035.13 4100.13 1053.45 4068.17 1084.86 4013.39"/><rect class="cls-10" x="651.8" y="1374.69" width="170.74" height="52.99"/><path class="cls-11" d="M557.75,1525.55c0-68.43,48.25-123.92,107.77-123.92H808.81c59.53,0,107.77,55.49,107.77,123.92v277.67c0,3.81-.21,7.55-.53,11.27a15.09,15.09,0,0,1-.91,7.9c-.06.45-.1.92-.16,1.38h-.49c-2.27,4.65-6.53,7.82-11.5,7.82H571.34c-5,0-9.22-3.17-11.49-7.82h-.5c-.07-.47-.1-.94-.17-1.41a17.29,17.29,0,0,1-1.06-6,15.58,15.58,0,0,1,.17-1.86c-.34-3.72-.55-7.48-.55-11.3Z"/><path class="cls-12" d="M585.32,1661.79c0,39,27.47,70.57,61.37,70.57h181c33.91,0,61.38-31.59,61.38-70.57V1614c0-39-27.47-70.56-61.38-70.56h-181c-33.9,0-61.37,31.6-61.37,70.56Z"/><rect class="cls-13" x="629.14" y="1573.67" width="216.06" height="28.54"/><rect class="cls-13" x="629.14" y="1625.94" width="216.06" height="28.54"/><rect class="cls-13" x="652.56" y="1678.21" width="169.22" height="28.54"/><rect class="cls-14" x="693.93" y="1304.34" width="8.55" height="70.36"/><rect class="cls-14" x="713.49" y="1304.34" width="8.55" height="70.36"/><rect class="cls-14" x="830.92" y="1304.34" width="8.56" height="70.36"/><rect class="cls-14" x="811.35" y="1304.34" width="8.55" height="70.36"/><rect class="cls-14" x="733.06" y="1304.34" width="8.55" height="70.36"/><rect class="cls-14" x="752.63" y="1304.34" width="8.56" height="70.36"/><rect class="cls-14" x="674.35" y="1304.34" width="8.55" height="70.36"/><rect class="cls-14" x="791.78" y="1304.34" width="8.55" height="70.36"/><rect class="cls-14" x="654.78" y="1304.34" width="8.56" height="70.36"/><rect class="cls-14" x="635.21" y="1304.34" width="8.55" height="70.36"/><rect class="cls-14" x="772.2" y="1304.34" width="8.55" height="70.36"/><rect class="cls-14" x="616.68" y="1304.34" width="7.53" height="70.36"/><rect class="cls-14" x="850.48" y="1304.34" width="7.18" height="70.36"/><line class="cls-15" x1="850.48" y1="1304.34" x2="839.47" y2="1304.34"/><rect class="cls-16" x="839.47" y="1304.34" width="11.01" height="70.36"/><line class="cls-15" x1="830.92" y1="1304.34" x2="819.9" y2="1304.34"/><rect class="cls-16" x="819.9" y="1304.34" width="11.02" height="70.36"/><line class="cls-15" x1="811.35" y1="1304.34" x2="800.33" y2="1304.34"/><rect class="cls-16" x="800.33" y="1304.34" width="11.02" height="70.36"/><line class="cls-15" x1="791.78" y1="1304.34" x2="780.76" y2="1304.34"/><rect class="cls-16" x="780.76" y="1304.34" width="11.02" height="70.36"/><line class="cls-15" x1="772.2" y1="1304.34" x2="761.19" y2="1304.34"/><rect class="cls-16" x="761.19" y="1304.34" width="11.02" height="70.36"/><line class="cls-15" x1="752.63" y1="1304.34" x2="741.62" y2="1304.34"/><rect class="cls-16" x="741.62" y="1304.34" width="11.01" height="70.36"/><line class="cls-15" x1="733.06" y1="1304.34" x2="722.04" y2="1304.34"/><rect class="cls-16" x="722.04" y="1304.34" width="11.02" height="70.36"/><line class="cls-15" x1="713.49" y1="1304.34" x2="702.48" y2="1304.34"/><rect class="cls-16" x="702.48" y="1304.34" width="11.01" height="70.36"/><line class="cls-15" x1="693.93" y1="1304.34" x2="682.91" y2="1304.34"/><rect class="cls-16" x="682.91" y="1304.34" width="11.02" height="70.36"/><line class="cls-15" x1="674.35" y1="1304.34" x2="663.34" y2="1304.34"/><rect class="cls-16" x="663.34" y="1304.34" width="11.02" height="70.36"/><line class="cls-15" x1="654.78" y1="1304.34" x2="643.77" y2="1304.34"/><rect class="cls-16" x="643.77" y="1304.34" width="11.01" height="70.36"/><line class="cls-15" x1="635.21" y1="1304.34" x2="624.21" y2="1304.34"/><rect class="cls-16" x="624.21" y="1304.34" width="11.01" height="70.36"/><path class="cls-2" d="M628.11,1740.53a47.1,47.1,0,0,1,16.17,60l-77.72-51.76A47.11,47.11,0,0,1,628.11,1740.53Z"/><path class="cls-2" d="M575.89,1818.94a47.1,47.1,0,0,1-16.17-60l77.72,51.76A47.1,47.1,0,0,1,575.89,1818.94Z"/><path class="cls-17" d="M4311.27,2815.26c.59-74,52.7-122.28,122.22-137.53V2561.08h-10.16a14.95,14.95,0,1,1,0-29.89H4467v284.07Z"/><path class="cls-18" d="M4467,2531.19h43.64a14.95,14.95,0,0,1,0,29.89H4500.4v116.65c69.54,15.25,121.62,63.55,122.22,137.53H4467Z"/><path class="cls-19" d="M4622.62,2815.26c0,.43.1.83.1,1.25,0,86-68.22,141.14-154.26,141.14-.5,0-1-.06-1.51-.06V2815.26Z"/><path class="cls-6" d="M4311.17,2816.52c0-.42.1-.82.1-1.25H4467V2957.6C4381.61,2957,4311.17,2902,4311.17,2816.52Z"/><path class="cls-7" d="M665.25,2640.75H615a7.53,7.53,0,1,1,0-15.05h50.21a7.53,7.53,0,1,1,0,15.05Z"/><path class="cls-7" d="M665.25,2595.58H615a7.53,7.53,0,1,1,0-15.07h50.21a7.53,7.53,0,1,1,0,15.07Z"/><path class="cls-6" d="M560.89,2654.85c-24.83,0-56.55,6.33-69.85,9.26V2776.7s27.58,55.67,120.37,55.67,105.08-59.79,105.08-59.79V2664c-15.72-3.21-55.86-9.63-84.31,1.5C632.18,2665.55,593.14,2654.85,560.89,2654.85Zm46.61,114a7.53,7.53,0,0,1,7.54-7.53h50.21a7.53,7.53,0,1,1,0,15.07H615A7.54,7.54,0,0,1,607.5,2768.82Zm0-41.44a7.52,7.52,0,0,1,7.54-7.52h50.21a7.53,7.53,0,1,1,0,15.06H615A7.54,7.54,0,0,1,607.5,2727.39Zm0-41.42a7.53,7.53,0,0,1,7.54-7.55h50.21a7.54,7.54,0,1,1,0,15.08H615A7.54,7.54,0,0,1,607.5,2686Z"/><path class="cls-7" d="M471.41,2506.7v262.09a85.67,85.67,0,0,0,85.43,85.43h15.09c.3,8.23,10.05,15.08,23.34,17.46v48.62h-.45a14.29,14.29,0,0,0-14.26,14.22v49.39a14.29,14.29,0,0,0,14.26,14.23h.45v89.94h20.11v-89.94h.47a14.3,14.3,0,0,0,14.24-14.23v-49.39a14.3,14.3,0,0,0-14.24-14.22h-.47v-48.62c13.32-2.38,23-9.23,23.34-17.46h15.12a85.66,85.66,0,0,0,85.42-85.43V2506.7a20.07,20.07,0,0,0-20.08-20.08H491.49A20.08,20.08,0,0,0,471.41,2506.7ZM491,2540.3H716.49v232.28s-12.28,59.79-105.08,59.79S491,2776.7,491,2776.7V2540.3Z"/><polygon class="cls-20" points="4309.6 1327.55 4429.74 1654.03 4398.26 1712.86 4336.11 1696.29 4210.16 1361.53 4309.6 1327.55"/><polygon class="cls-21" points="4218.01 1361.4 4340.11 1689.02 4385.27 1707.33 4400.32 1701.72 4422.48 1658.32 4300.39 1330.7 4316.83 1323.6 4440.78 1656.17 4409.6 1717.24 4432.77 1779.42 4422.45 1783.26 4421.91 1783.46 4411.59 1787.31 4388.42 1725.13 4324.87 1699.37 4200.93 1366.8 4218.01 1361.4"/><polygon class="cls-6" points="4355.26 1495.5 4413.29 1651.2 4395.19 1691.13 4382.23 1695.95 4342.41 1677.62 4284.38 1521.91 4355.26 1495.5"/><path class="cls-6" d="M4196.73,1333.6l-21.53-57.78a54.18,54.18,0,0,1,31.85-69.69l40.45,108.55Z"/><path class="cls-22" d="M4207.05,1206.13a54.18,54.18,0,0,1,69.7,31.85l21.53,57.78-50.77,18.92Z"/><path class="cls-23" d="M4298.28,1295.76l18.08-6.74c10.1-3.77,21.67,2.23,25.83,13.39s-.66,23.26-10.76,27l-68.86,25.66-5.53-14.85-9.53-25.57Z"/><path class="cls-21" d="M4178.65,1340.34l18.08-6.74,50.77-18.92,9.53,25.57,5.53,14.85-68.86,25.66c-10.1,3.77-21.66-2.22-25.83-13.39S4168.55,1344.11,4178.65,1340.34Z"/><path class="cls-6" d="M4441,3661c.77.7,1.52,1.44,2.28,2.17l50-38.63s-12.44-121-144.22-126.34c-131.77,7.13-144.48,126.13-144.48,126.13l51.17,39.51c1.93-2.05,3.1-3.1,3.1-3.1l0,.15c23.44-24.11,58.12-39.71,103.71-33.17,0,0,43.2,1.25,78.21,33h0ZM4394,3577.77h-31.34v31.37h-27.29v-31.37H4304v-27.29h31.38v-31.33h27.29v31.33H4394Z"/><path class="cls-23" d="M4351.71,3985.37l3,5.83,0,.08,2.94-5.91,41-80.53,1.27-2.31,1.26-2.66-.73-3.12-3.91-16.62a108.8,108.8,0,0,0,15.37-8.81c15.46,24.34,66.17,22,66.17,22-14.55-28.77-1.62-31.84,3.85-106.23h0a107.89,107.89,0,0,0,.71-30.59c-5.4-39.41-21.05-65.7-39.33-83.3-.76-.73-1.51-1.48-2.28-2.17l-.27-.26h0c-35-31.78-78.21-33-78.21-33-45.59-6.54-80.27,9.06-103.71,33.17l0-.15s-1.16,1.05-3.1,3.1c-10.33,11-42.68,50.58-38.07,113.23,5.46,74.38,18.4,77.46,3.85,106.23,0,0,47.35,2.14,64.48-19.69a69.66,69.66,0,0,0,11,2.34,109,109,0,0,0,13,6.36l-3.08,13.09-.26,1.1,3.65,7.64Zm43.83-109.93a12.67,12.67,0,0,0-1.39.67A103,103,0,0,1,4275.23,3853c-17.38-25.67-18.79-60.73-15.89-79.54,71.6-27.15,103.22-77.42,103.22-77.42,28.3,77.42,94.79,63,75,128.35-4.85,18.19-13.09,30.12-21.31,38A104.33,104.33,0,0,1,4395.54,3875.44Zm-40.86,104.09-42.43-83.31.08-.33,2.73-11.62a107.51,107.51,0,0,0,76.58-2l4,16.88Z"/><circle class="cls-21" cx="4394.36" cy="3779.41" r="9.27"/><circle class="cls-21" cx="4309.55" cy="3778.85" r="8.71"/><path class="cls-23" d="M4404.38,3899.73c43.9,11,81.11,34.67,105.3,65.92,18.91,24.42,29.87,53.45,29.87,84.58h-177v-62.85h49.12Z"/><path class="cls-23" d="M4100.7,4001.83l7.34-3.34c19.05-8.66,38.1-4.05,50.72,1.35l4,1.7,2.53,1.08.46-9.56,1.81-37.68a32.27,32.27,0,1,0-64.46-3.11Zm10.58-15.07,1.64-34a22.43,22.43,0,0,1,44.81,2.16l-1.61,33.39C4144.7,3984.45,4128.35,3981.46,4111.27,3986.76Z"/><path class="cls-24" d="M4172.57,3998.41l.58.29.47.24-1.29.18Z"/><path class="cls-23" d="M4171,4003.7l.57.29.47.24,6.69-.92c20.74-2.84,37.67,7,48.21,15.82l5.44,4.52,15.71-44.61a32.27,32.27,0,1,0-60.87-21.44L4186,3961l-11.28,32-3,8.48Zm14.2-10.71,11.31-32.11a22.43,22.43,0,0,1,42.31,14.89l-11.11,31.54C4217.88,4000.35,4203.07,3992.81,4185.19,3993Z"/><path class="cls-6" d="M4099.48,4048.69A30.82,30.82,0,0,0,4153,4071q.7-.76,1.36-1.59c.5-.62,1-1.27,1.44-1.94a30.74,30.74,0,0,0,4.84-12,31.18,31.18,0,0,0,.43-3.86l.78-16.06.76-15.7.63-13.17.11-2.31-.37-.19-1.29.17.25-.71c-.88-.45-1.89-.93-3-1.42-8.6-3.89-23.3-8.65-39.17-5.43.28.47-5.41,1.43-5.41,1.43a51.12,51.12,0,0,0-12.17,5.7l-.64.4Zm8.66-41.8,14.63-4.4c-7,4.1-7.95,8.95-7.95,8.95-14.69,45.22.91,60.26.91,60.26C4093.86,4058.69,4108.13,4006.89,4108.13,4006.89Z"/><path class="cls-6" d="M4160.17,4072.91c.65-.6,3.61-4,3.8-4.2s.59-.79.87-1.2.59-.89.87-1.35a30.78,30.78,0,0,0,4.42-14.49l.77-16.06,1.39-28.87c9.84-3.47,21.18-1.27,21.18-1.27v0c17.13,2.54,30.09,13.07,35.93,18.71l.68.65-10.81,30.68-4.91,13.93a30.8,30.8,0,0,1-55.9,4.93C4159,4073.91,4159.62,4073.42,4160.17,4072.91Z"/><path class="cls-23" d="M4239.85,4023.72c.5-1.06,1-2.15,1.42-3.24l.07-.15c.39-.68.73-1.37,1-2.08,0-.09.08-.18.13-.27l.45.38,15.71-44.61a32.32,32.32,0,0,0-33.9-42.83c22.6-16,49.8-27.79,79.76-33.7l-7.48,90.15h50.17v62.85H4229.84l8.38-23.78A19.7,19.7,0,0,0,4239.85,4023.72Z"/><path class="cls-4" d="M3201.82,4496c0,180.4,146.26,326.66,326.66,326.66S3855.19,4676.4,3855.19,4496s-146.26-326.68-326.71-326.68S3201.82,4315.56,3201.82,4496Z"/><path class="cls-2" d="M3621.95,4340.07a80.77,80.77,0,1,0-80.77,80.78A80.92,80.92,0,0,0,3621.95,4340.07Z"/><path class="cls-2" d="M3665.78,4429.82c50.16,19.24,49.73,54.44,49.91,56.18l.25,124.91c0,.35.1,11.59-6.72,18.58-3.72,3.81-9,5.76-15.74,5.76l-4.75,0ZM3372.27,4682V4496.62c6.41-76,93.3-75.79,97.09-75.77H3604.5l-41.57,156.25h-23.8a34.38,34.38,0,0,0,0,68.76h96.45l0,58.19-198.31.14.08-189.84-12.64,16.32v145.52l-.06,5.52a26.2,26.2,0,1,1-52.41.28Zm177.36-47.17-10.49,0a23.31,23.31,0,0,1,0-46.62H3559C3554.06,4600.51,3546.86,4621.92,3549.62,4634.82Z"/><path class="cls-6" d="M3677.66,4634.79l-20.66-205c-7.72-2.66-11.36-6.53-41.11-8.7,0,0-58.59,207.53-54.92,213.15.18.25.34.52,1.39.52h115.3Z"/><path class="cls-25" d="M2378.2,3148.49l.06-16c.94-17.09,1.91-35.46,2.85-54.79l-150.64,289.06a136.76,136.76,0,0,1-97.54,71.47l-366,6.94L1687,3459.54l-124.66,33.18c210.68,214.79,489.35,362.64,801.18,408.71l3-363.1Z"/><path class="cls-25" d="M3986.29,2502.5c0-781.05-633.17-1414.22-1414.22-1414.22S1157.84,1721.45,1157.84,2502.5c0,176.66,32.4,345.75,91.56,501.67a136.71,136.71,0,0,1,240.3-96.52q16.36,64,38.18,125.75l26.74,229,70.1-12.35,394.36-69.49,203.85-391.17A162.7,162.7,0,0,1,2381,2588.18c.88,0,1.75.05,2.63.07,0-.27,0-.55-.06-.82h137v-.05a271.7,271.7,0,0,0,109.11-28.76c.2.28.42.55.63.85l-16.08,9.5-65.16,267.23,89.4,22.35-59.59,111.74,250,494.58,46.47,68.3,59,117.23.24-6.19,26-74.14,303.21-599.78-59.59-111.74,89.4-22.35L3228.53,2569l-16.08-9.5c.2-.29.42-.57.64-.85a271.63,271.63,0,0,0,109.1,28.76v.05H3477s79.67-1.37,104.67,23.77l-102.75,381-.22-.14v.93l-.12.46.13.33c.42,128.68,3.74,272.54,12.35,421.8l-3.11-13.71,2.66,175.95C3794,3318.46,3986.29,2932.95,3986.29,2502.5Z"/><path class="cls-26" d="M3491,3415.61c-8.61-149.25-11.93-293.12-12.35-421.8l-.12-.33.12-.46v-.93l.22.14,102.75-381c-25-25.14-104.67-23.77-104.67-23.77h-154.8v-.05a271.63,271.63,0,0,1-109.1-28.76c-.22.28-.43.55-.64.85l16.08,9.5,65.16,267.23-89.4,22.35,59.59,111.74-303.21,599.78-26,74.14-.24,6.19,17.78,35.32L2929,3871.28a1410.44,1410.44,0,0,0,561.6-293.44l-2.66-175.95Z"/><path class="cls-26" d="M1250.1,3012.5l49.69,425.61a136.75,136.75,0,0,0,54.15,93.81c23.77,17.7,58.19-11.22,87.41-11.22a136.69,136.69,0,0,0,23.73-2.07l97.31-25.9a1415.18,1415.18,0,0,1-313-488.55C1249.56,3006.93,1249.77,3009.71,1250.1,3012.5Z"/><path class="cls-26" d="M2925.74,3872.14l8.71-221.75-59-117.23-46.47-68.3-250-494.58,59.59-111.74-89.4-22.35L2614.29,2569l16.08-9.5c-.21-.29-.43-.57-.63-.85a271.7,271.7,0,0,1-109.11,28.76v.05h-137c0,.27,0,.55.06.82-.87,0-1.74-.07-2.63-.07a162.7,162.7,0,0,0-158.08,201.23l-203.85,391.17-394.36,69.49-70.1,12.35-26.74-229q-21.79-61.67-38.18-125.75a136.71,136.71,0,0,0-240.3,96.52,1415.18,1415.18,0,0,0,313,488.55L1687,3459.54l79.84-14.37,366-6.94a136.76,136.76,0,0,0,97.54-71.47l150.64-289.06c-.94,19.34-1.91,37.7-2.85,54.79l-.06,16-11.6,389.84-3,363.1a1426.6,1426.6,0,0,0,562.16-29.29Z"/><path class="cls-26" d="M2929,3871.28l23.25-185.57-17.78-35.32-8.71,221.75Z"/><path class="cls-5" d="M2918.37,3707.47h0Z"/><path class="cls-27" d="M3259,2573c-63.57-87.38-172.59-131.69-324-131.69-171.56,0-292.38,45.61-359.14,135.56l-.11.16c13-3.59,38.87-12,70.61-29,65.06-50.7,161.76-76.34,288.64-76.34,110.63,0,196.43,24.64,256.06,73.36,21,10.49,52.33,23.28,69.53,30.15C3260,2574.49,3259.51,2573.74,3259,2573Z"/><path class="cls-5" d="M1624.72,3250.07a1473.08,1473.08,0,0,1-96.84-216.67l26.74,229Z"/><path class="cls-28" d="M2918.25,3707.46h0Z"/><path class="cls-26" d="M1521.74,2980.78a136,136,0,0,0-32-73.13q16.36,64,38.18,125.75Z"/><path class="cls-5" d="M2918.25,3707.46h0Z"/><polygon class="cls-29" points="2934.69 3644.2 2934.69 3640.37 2922.25 3640.37 2922.25 3646.06 2928.64 3661.48 2934.69 3644.2"/><path class="cls-29" d="M2928.64,3661.48l-6.39-15.42v9.4l2.41,0c3.35,0,6.69,0,10-.06V3644.2Z"/><path class="cls-5" d="M3478.68,2993l.22-.79-.22-.14Z"/><path class="cls-5" d="M2918.37,3707.47h0Z"/><path class="cls-30" d="M3478.68,2993.81c0-.26,0-.53,0-.79l-.12.46Z"/><path class="cls-31" d="M2918.37,3707.47h0Z"/><path class="cls-32" d="M3096.18,2401.84l.14.11V2347H2760.7v79.34h-1.12a274.27,274.27,0,0,1-58.15,83.13C2963.42,2534.59,3096.18,2401.84,3096.18,2401.84Z"/><path class="cls-33" d="M3096.32,2453.11v-51.16l-.14-.11s-132.76,132.75-394.76,107.67a274.41,274.41,0,0,1-68.53,49.11A355.19,355.19,0,0,0,2760.7,2670.3v73.8h.42v5h319v-5h16.2v-80.87a355.56,355.56,0,0,0,115.49-105.65A275.05,275.05,0,0,1,3096.32,2453.11Z"/><path class="cls-34" d="M3159,2614.63a351.74,351.74,0,0,1-464.42,14L2928.5,3661.74Z"/><polygon class="cls-35" points="2988.44 3492.02 3041.26 3362.74 2978.43 2775.23 2928.78 2760.75 2928.78 2760.12 2927.7 2760.43 2926.63 2760.12 2926.63 2760.75 2876.98 2775.23 2809.82 3401.66 2889.74 3553.18 2927.97 3660.22 2940.48 3637.97 2971.76 3549.71 2988.44 3492.02"/><polygon class="cls-35" points="3003.68 2678.75 2925.98 2668.1 2848.26 2678.75 2833.16 2721.92 2869.85 2780.2 2925.98 2782.36 2982.1 2780.2 3018.79 2721.92 3003.68 2678.75"/><polygon class="cls-36" points="2673.24 2534.13 2922.44 2668.1 2745.59 2844.96 2614.29 2568.96 2673.24 2534.13"/><polygon class="cls-36" points="3172.24 2534.13 2923.03 2668.1 3099.88 2844.96 3227.96 2571.8 3172.24 2534.13"/><path class="cls-33" d="M3355.49,1816.92c0-302.45-181.84-397.68-418.2-397.68-2.91,0-5.8,0-8.7.08V2457.09C3164.46,2456.13,3355.49,2119,3355.49,1816.92Z"/><path class="cls-37" d="M2917.81,1419.58c-227.76,7.42-418.12,103.23-418.12,397.33,0,298.29,186.36,633.21,418.12,639.87,3.29.1,6.53.33,9.78.33l1,0V1419.32Q2923.2,1419.41,2917.81,1419.58Z"/><path class="cls-38" d="M3384,1778.67c-10.23-135.26-65.37-233.1-65.37-233.1,36.88-164.58-117-210.42-279.16-214.38-150-3.62-307,28.49-327.33,35.89-22,8-52.91,10.79-77.4,11.62-22.49.74-39.64-.1-39.64-.1.92,3.71,4.53,12.38,8.07,20.33,3.67,8.45,7.26,16.09,7.26,16.09-4.31.45-12.16-1.71-21.59-5.19-32.83-12-85.89-40.83-85.89-40.83-5.73,44.15,4.83,83.51,16.82,111.81s25.41,45.56,25.41,45.56c-9.63,1.93-36.48-9.59-36.48-9.59,7.71,36.46,15.4,53.75,15.4,53.75-57.74,42.13-71.12,163.78-72.18,258.95l99,115.56,34.22-83c.73.11,1.42.12,2.17.22,24.16-87.33,44.28-218.87,44.28-218.87,258.2,165.77,495.79,33.32,536.84,7.88,7.79-8.54,11.91-13.67,11.91-13.67,14.64,165.88,126.8,278.07,126.8,278.07-9.36-70.44,71.45-125.68,77.47-129.69l.56-.38C3384.8,1783.26,3384.38,1781,3384,1778.67Z"/><path class="cls-33" d="M3299.45,1887.47c-16.15,61.71-4.67,118.24,25.58,126.2s68-35.55,84.16-97.29,4.66-118.21-25.6-126.2S3315.65,1825.74,3299.45,1887.47Z"/><path class="cls-37" d="M2544.34,1889.09c16.79,60.31,8,115.45-19.54,123.1s-63.37-35-80.12-95.35-8-115.46,19.53-123.13S2527.66,1828.75,2544.34,1889.09Z"/><path class="cls-5" d="M2921.41,3647.7l39.25-77.64c-29.15-30.69-90.63,32.65-90.63,32.65v15.21l33.4-5.78Z"/><polygon class="cls-29" points="2928.5 3661.74 2694.62 2628.59 2673.24 2534.13 2630.38 2559.46 2614.29 2568.96 2549.14 2836.19 2638.54 2858.53 2578.95 2970.27 2928.5 3661.74"/><polygon class="cls-29" points="3300.87 2836.19 3235.71 2568.96 3235 2568.54 3175.23 2536.55 3159.04 2614.64 2928.5 3661.74 3271.08 2970.27 3211.47 2858.53 3300.87 2836.19"/><rect class="cls-39" x="1170.8" y="2076.3" width="1098.94" height="1391.98" transform="translate(-514.61 395.27) rotate(-11.41)"/><rect class="cls-2" x="1228.63" y="2149.55" width="983.27" height="1245.46" transform="translate(-514.62 395.28) rotate(-11.41)"/><rect class="cls-40" x="1266.66" y="2550.79" width="73.27" height="73.25" transform="translate(-486.18 309.02) rotate(-11.41)"/><rect class="cls-40" x="1404.87" y="2468.86" width="608.36" height="73.25" transform="translate(-462.03 387.77) rotate(-11.41)"/><rect class="cls-40" x="1294.2" y="2687.2" width="73.25" height="73.25" transform="translate(-513.09 317.52) rotate(-11.42)"/><rect class="cls-40" x="1433.17" y="2612.86" width="531.66" height="73.25" transform="translate(-490.73 388.63) rotate(-11.41)"/><rect class="cls-40" x="1321.75" y="2823.6" width="73.27" height="73.25" transform="translate(-539.27 325.47) rotate(-11.42)"/><rect class="cls-40" x="1461.21" y="2754.28" width="481.12" height="73.25" transform="translate(-518.66 391.97) rotate(-11.41)"/><rect class="cls-40" x="1349.28" y="2960.01" width="73.27" height="73.25" transform="translate(-565.68 333.58) rotate(-11.42)"/><rect class="cls-40" x="1487.33" y="2876.56" width="623.94" height="73.25" transform="translate(-540.91 413.67) rotate(-11.41)"/><polygon class="cls-40" points="1456.62 3161.7 1384.8 3176.2 1370.3 3104.4 1442.13 3089.9 1456.62 3161.7"/><rect class="cls-40" x="1514.87" y="3012.97" width="623.94" height="73.25" transform="translate(-567.36 421.82) rotate(-11.41)"/><path class="cls-37" d="M1081.83,2832.71a56.91,56.91,0,0,0,8.09-.58l157.17-22.45a56.7,56.7,0,1,0-16-112.26l-157.17,22.45a56.7,56.7,0,0,0,7.95,112.84Z"/><path class="cls-37" d="M1073.77,2955.67l154-19.24a56.7,56.7,0,0,0-14.06-112.53l-154,19.25a56.7,56.7,0,1,0,14.06,112.52Z"/><path class="cls-37" d="M1260.58,3048.47a56.7,56.7,0,0,0-20.9-111.46l-154,28.86a56.7,56.7,0,1,0,20.9,111.45Z"/><path class="cls-37" d="M1334.79,3093.42a50.75,50.75,0,0,0-58.43-41.75l-137.89,23a50.79,50.79,0,0,0,8.29,100.88,49.9,49.9,0,0,0,8.41-.71l137.89-23A50.77,50.77,0,0,0,1334.79,3093.42Z"/><path class="cls-26" d="M3651.33,2689.13c38.53,81.6,14.81,173.7-53,205.71s-154-8.18-192.52-89.79-14.82-173.7,53-205.71S3612.79,2607.53,3651.33,2689.13Z"/><circle class="cls-41" cx="2902.85" cy="3407.85" r="18.85"/><ellipse class="cls-41" cx="2960.24" cy="3413.51" rx="18.85" ry="18.86"/><path class="cls-29" d="M3483.52,3438.61c-81.1-56.56-247.88-85-398.79-93.08l-73.46,149.92,477.42,22.48Z"/><path class="cls-27" d="M2518.63,2774.25c1.12,57.47,13.57,99.21,14.1,101l29.11-8.8c-.47-1.56-46.07-157.8,38.54-271.6a242.77,242.77,0,0,1,46-46.75c-31.74,17-57.6,25.38-70.61,29C2536.88,2629.44,2517.14,2697.63,2518.63,2774.25Z"/><polygon class="cls-27" points="3266.37 2968.77 3280.84 2973.44 3266.37 2968.76 3266.37 2968.77"/><path class="cls-27" d="M3260.55,2575.23c-17.2-6.86-48.49-19.66-69.53-30.15a245.3,245.3,0,0,1,43.3,45.72c54.72,75.15,60.69,173.33,56.06,242.46-5.1,76.07-23.79,134.8-24,135.49l14.46,4.68,14.46,4.68c.81-2.5,19.93-62.31,25.37-142C3327.87,2730.66,3307.07,2640.54,3260.55,2575.23Z"/><circle class="cls-29" cx="3283.57" cy="2973.37" r="92.64"/><path class="cls-27" d="M3283.57,3072.66a99.29,99.29,0,1,1,99.3-99.29A99.4,99.4,0,0,1,3283.57,3072.66Zm0-185.28a86,86,0,1,0,86,86A86.09,86.09,0,0,0,3283.57,2887.37Z"/><circle class="cls-42" cx="3283.57" cy="2973.36" r="66.99"/><path class="cls-42" d="M2552.71,3474.21c-73.85-3.93-82.62-51.37-83-53.38l-49.61-296.68,22.53-3.77,49.61,296.68c.22,1.12,6.94,31.43,61.63,34.33Z"/><path class="cls-42" d="M2723.74,3431.18c68.56-27.73,61.41-75.45,61.08-77.46L2735.22,3057l-22.53,3.77,49.6,296.68c.15,1.12,3.67,32-47.11,52.51Z"/><path class="cls-43" d="M2572.08,3437.8c21.69,4.31,37,19.18,34.23,33.22s-22.64,21.93-44.34,17.61-37-19.18-34.24-33.22S2550.38,3433.49,2572.08,3437.8Z"/><path class="cls-43" d="M2693.44,3417.51c-19.11,11.13-28.77,30.19-21.56,42.56s28.54,13.37,47.65,2.23,28.77-30.19,21.56-42.56S2712.54,3406.38,2693.44,3417.51Z"/><path class="cls-43" d="M2413.94,3132.41c-.44-2.63-10.67-65.11-2.37-131.78,11.61-93.29,54-148.66,122.51-160.12,162.49-27.17,206.49,224.46,208.28,235.19l-33.79,5.66c-.38-2.29-40-228.6-168.84-207.06-52.79,8.83-84.47,52.75-94.16,130.54-7.68,61.78,2.06,121.32,2.16,121.91Z"/><path class="cls-6" d="M1594.7,2246.69a108.84,108.84,0,1,0,127,86.93A108.84,108.84,0,0,0,1594.7,2246.69Zm95.13,115.18-49.53,9.29,9.28,49.51-43.09,8.08-9.28-49.51-49.48,9.27-8.08-43.08,49.48-9.27-9.28-49.47,43.09-8.08,9.27,49.47,49.53-9.29Z"/><path class="cls-44" d="M1773.1,2014.19,1576.75,2060,1378,2094s22.66,62.89,2.4,129.62l212.67-42.94,15.41-3.11,216.14-43.64C1780,2080.26,1773.1,2014.19,1773.1,2014.19Z"/><path class="cls-40" d="M1826.9,2129a23.52,23.52,0,0,1-18.39,27.72l-408.33,82.44a23.55,23.55,0,0,1-27.75-18.4h0a23.56,23.56,0,0,1,18.43-27.73l408.33-82.44A23.53,23.53,0,0,1,1826.9,2129Z"/><path class="cls-40" d="M1781,2014.87a21.24,21.24,0,0,1-16.62,25l-368.86,74.48a21.27,21.27,0,0,1-25.05-16.62h0a21.27,21.27,0,0,1,16.64-25.05L1756,1998.22a21.26,21.26,0,0,1,25,16.64Z"/><path class="cls-40" d="M1687.06,2002.54a121.14,121.14,0,1,0-237.5,47.95l7.07,35,237.5-47.95Zm-117.18,31.62a47.05,47.05,0,1,1,36.8-55.42A47.07,47.07,0,0,1,1569.88,2034.16Z"/><path class="cls-37" d="M2728.78,3134.63s16.93,19,63.25,31.64l-14,254.09s-42.1-8.22-82.81,10Z"/><path class="cls-2" d="M2885.36,3131.54l-98.22-4.77a24.65,24.65,0,0,0-25.82,23.42L2755,3279.3l-6.27,129.1a24.64,24.64,0,0,0,23.42,25.81l98.22,4.78a24.65,24.65,0,0,0,25.8-23.43l6.27-129.1,6.27-129.12A24.64,24.64,0,0,0,2885.36,3131.54Z"/><path class="cls-37" d="M2404.88,3386.73c1-21,18.44-37,39.08-37.4a3.25,3.25,0,0,0-.15-.54l-37-1.8a39.79,39.79,0,0,1,3.86-79.49l-39.74-1.93a39.78,39.78,0,1,1,3.86-79.47l-159-7.72a39.78,39.78,0,1,1,3.86-79.47l25.38,1.23,213.06,10.36,28.72,1.4c4.85.23,9.37-4,11-8.59a11.88,11.88,0,0,0-3.81-13.17c-36.71-31.11-74.48-31.08-72.43-73.23a27.58,27.58,0,0,1,42.15-22.15l261.92,137.53a19.9,19.9,0,0,1,9.35,17.88c-1.69,34.77-7.65,157.4-11.28,232.14a59.66,59.66,0,0,1-62.5,56.71l-218.56-10.62A39.87,39.87,0,0,1,2404.88,3386.73Z"/><path class="cls-26" d="M3728.12,3502.51c-2.4,0-4.79-.05-7.2-.15l-925.84-38.58,14.35-344.48,703.78,55.47L3361.75,2816l295.86-112.72L3881.28,3251a172.4,172.4,0,0,1-153.16,251.49Z"/></svg>