<svg id="Layer_1" data-name="Layer 1" xmlns="http://www.w3.org/2000/svg" viewBox="0 0 3000 3000"><defs><style>.cls-1{fill:#9cd6e7;}.cls-2{fill:#c5e6ee;}.cls-3{fill:#fcfeff;}.cls-4{fill:#f3fafc;}.cls-5{fill:#50596b;}.cls-6{fill:#333c50;}.cls-7{fill:#e6aa00;}.cls-8{fill:#d49a08;}.cls-9{fill:#fff;}.cls-10{fill:#efeeef;}.cls-11{fill:#d0cecd;}.cls-12{fill:#726e6d;}.cls-13{fill:#63929f;}.cls-14{fill:#383532;}.cls-15{fill:#fbc54c;}.cls-16{fill:#d55a4c;}.cls-17{fill:#eb6f5b;}.cls-18{fill:#cf9a0b;}.cls-19{fill:#f2ba00;}.cls-20{fill:#ffd25f;}.cls-21{fill:#71bccc;}.cls-22{fill:#5e9cb5;}.cls-23{fill:#f8bb00;}.cls-24{fill:#e5a529;}.cls-25{fill:#f8f7f9;}.cls-26{fill:#948a8c;}.cls-27{fill:#d3da47;}.cls-28{fill:#f6c151;}.cls-29{fill:#ccc9c9;}.cls-30{fill:#edafa8;}.cls-31{fill:#97d3f3;}.cls-32{fill:#6a717c;}.cls-33{fill:#c7e1f2;}.cls-34{fill:#53647c;}.cls-35{fill:#31425c;}.cls-36{fill:#518fa2;}.cls-37{fill:#f6ede5;}.cls-38{fill:#dad9cd;}.cls-39{fill:#f39b81;}.cls-40{fill:#ea7865;}.cls-41{fill:#e55d46;}.cls-42{fill:#809ba7;}.cls-43{fill:#fffefa;}</style></defs><title>pantallas</title><rect class="cls-1" width="3000" height="3000"/><path class="cls-2" d="M940.89,1977.7a182.76,182.76,0,0,0,1,74l-63.4,27,27.43,64.4,63.4-27a180.36,180.36,0,0,0,52.6,51.93l-25.59,63.77,65,26.11,25.65-63.66a181.77,181.77,0,0,0,74-.89l27,63.28,64.45-27.44-27-63.31a183.63,183.63,0,0,0,51.86-52.69l63.76,25.58,26.14-64.88-63.6-25.82a185.17,185.17,0,0,0-1-74l63.26-26.93-27.49-64.44-63.23,26.94a188.4,188.4,0,0,0-52.67-51.95l25.51-63.62-64.89-26.15-25.68,63.69a184,184,0,0,0-74,.86l-26.92-63.25L992,1796.66l27,63.31A185.12,185.12,0,0,0,967,1912.73l-63.57-25.58-26.27,64.93Zm151.3-35.1a76.42,76.42,0,1,1-40.31,100.26A76.48,76.48,0,0,1,1092.18,1942.61Z"/><path class="cls-2" d="M816.12,1154.66a247.36,247.36,0,0,0,1.29,100.14l-85.81,36.55,37.13,87.17L854.54,1342a244.09,244.09,0,0,0,71.19,70.28l-34.63,86.31,88,35.34,34.72-86.17a246,246,0,0,0,100.1-1.21l36.47,85.64,87.23-37.14-36.48-85.69a248.54,248.54,0,0,0,70.2-71.31l86.29,34.62,35.38-87.81-86.08-34.94a250.62,250.62,0,0,0-1.32-100.15l85.62-36.45-37.2-87.22-85.58,36.46a255,255,0,0,0-71.28-70.31l34.53-86.1-87.82-35.39-34.76,86.21A249,249,0,0,0,1009,958.11L972.53,872.5l-87.2,37.13,36.49,85.69a250.56,250.56,0,0,0-70.3,71.41l-86-34.62L729.92,1120Zm204.77-47.51a103.44,103.44,0,1,1-54.56,135.7A103.51,103.51,0,0,1,1020.89,1107.16Z"/><path class="cls-2" d="M2225.34,1747a243.58,243.58,0,0,0,4.85-98.51l86.56-30.69-31.15-87.92L2199,1560.53a240.52,240.52,0,0,0-65.66-73.43l39.32-82.71-84.35-40.11-39.4,82.57a242.37,242.37,0,0,0-98.45-4.93l-30.62-86.4-88,31.18,30.62,86.44a244.77,244.77,0,0,0-73.34,65.8l-82.69-39.3-40.15,84.14,82.48,39.6a246.61,246.61,0,0,0-4.84,98.51l-86.37,30.6,31.22,88,86.34-30.61a250.91,250.91,0,0,0,65.77,73.46l-39.21,82.51,84.16,40.16,39.42-82.61a245.46,245.46,0,0,0,98.52,5l30.58,86.37,88-31.16-30.61-86.45a246.7,246.7,0,0,0,73.46-65.89l82.45,39.29,40.32-84.21Zm-204.16,34.17a101.86,101.86,0,1,1,61.92-130A101.93,101.93,0,0,1,2021.17,1781.16Z"/><path class="cls-2" d="M1500,2477c-131.89,0-259.84-25.83-380.3-76.78a980.42,980.42,0,0,1-519.92-519.92C548.83,1759.84,523,1631.89,523,1500s25.83-259.84,76.78-380.29a980.43,980.43,0,0,1,519.92-519.92C1240.16,548.83,1368.11,523,1500,523s259.84,25.83,380.29,76.78a980.43,980.43,0,0,1,519.93,519.92c50.95,120.45,76.78,248.4,76.78,380.29s-25.83,259.84-76.78,380.29a980.42,980.42,0,0,1-519.93,519.92C1759.84,2451.17,1631.89,2477,1500,2477Zm0-1940c-531,0-963,432-963,963s432,963,963,963,963-432,963-963S2031,537,1500,537Z"/><polygon class="cls-3" points="536.87 1034.52 374.56 1299.7 566.88 1417.41 709.48 1184.42 699.01 1133.76 536.87 1034.52"/><path class="cls-4" d="M1646.31,1379.33s158.57-114.77,205-161.2,47.31-110.39,47.31-110.39V873l-392.48-28.88v-.9l-6.13.45-6.13-.45v.9L1101.38,873v234.79s.88,64,47.31,110.39,205,161.2,205,161.2,47,34.06,50.59,130.23c-3.58,96.17-50.59,130.23-50.59,130.23s-158.57,114.77-205,161.2-47.31,110.39-47.31,110.39v234.79L1493.87,2175v.9l6.13-.45,6.13.45v-.9l392.48-28.88V1911.38s-.87-64-47.31-110.39-205-161.2-205-161.2-47-34.06-50.59-130.23C1599.29,1413.39,1646.31,1379.33,1646.31,1379.33Z"/><path class="cls-5" d="M1073.62,750.12a23.52,23.52,0,0,0-23.52,23.52V875.89a23.52,23.52,0,0,0,23.52,23.52H1500V750.12Z"/><path class="cls-6" d="M1949.91,875.89V773.64a23.52,23.52,0,0,0-23.52-23.52H1500v149.3h426.38A23.52,23.52,0,0,0,1949.91,875.89Z"/><path class="cls-6" d="M1926.38,2269a23.52,23.52,0,0,0,23.52-23.52V2143.22a23.52,23.52,0,0,0-23.52-23.52H1500V2269Z"/><path class="cls-5" d="M1050.1,2143.22v102.25a23.52,23.52,0,0,0,23.52,23.52H1500V2119.7H1073.62A23.52,23.52,0,0,0,1050.1,2143.22Z"/><path class="cls-7" d="M1174.89,1043.52c.84,15.9,9,114.46,89.41,178.76,89.51,71.61,235.7,167.08,235.7,167.08V1043.52Z"/><path class="cls-8" d="M1825.11,1043.52c-.84,15.9-9,114.46-89.41,178.76-89.51,71.61-235.7,167.08-235.7,167.08V1043.52Z"/><path class="cls-8" d="M1825.11,2023c-.84-15.9-9-114.46-89.41-178.76-89.51-71.61-235.7-167.08-235.7-167.08V2023Z"/><path class="cls-7" d="M1174.89,2023c.84-15.9,9-114.46,89.41-178.76,89.51-71.61,235.7-167.08,235.7-167.08V2023Z"/><path class="cls-8" d="M1510.16,1432.69a10,10,0,0,0-10-10v20A10,10,0,0,0,1510.16,1432.69Z"/><path class="cls-7" d="M1490.12,1432.69a10,10,0,0,0,10,10v-20A10,10,0,0,0,1490.12,1432.69Z"/><path class="cls-7" d="M1490.12,1521.37a10,10,0,0,0,10,10v-20A10,10,0,0,0,1490.12,1521.37Z"/><path class="cls-8" d="M1510.16,1521.37a10,10,0,0,0-10-10v20A10,10,0,0,0,1510.16,1521.37Z"/><path class="cls-8" d="M1510.16,1610.05a10,10,0,0,0-10-10v20A10,10,0,0,0,1510.16,1610.05Z"/><path class="cls-7" d="M1490.12,1610.05a10,10,0,0,0,10,10v-20A10,10,0,0,0,1490.12,1610.05Z"/><path class="cls-2" d="M1500,2691.5c-160.85,0-316.89-31.5-463.79-93.64a1195.67,1195.67,0,0,1-634.07-634.07C340,1816.89,308.5,1660.85,308.5,1500s31.5-316.89,93.64-463.79a1195.69,1195.69,0,0,1,634.07-634.07C1183.11,340,1339.15,308.5,1500,308.5s316.89,31.5,463.79,93.64a1195.69,1195.69,0,0,1,634.07,634.07c62.13,146.9,93.64,302.94,93.64,463.79s-31.5,316.89-93.64,463.79a1195.68,1195.68,0,0,1-634.07,634.07C1816.89,2660,1660.85,2691.5,1500,2691.5Zm0-2365.93C852.42,325.57,325.57,852.42,325.57,1500S852.42,2674.43,1500,2674.43,2674.43,2147.58,2674.43,1500,2147.58,325.57,1500,325.57Z"/><path class="cls-9" d="M2526.29,1367.05l-82.66,11.14,48.94,363,82.66-11.14a57.84,57.84,0,0,0,49.6-65.05l-33.49-248.39A57.84,57.84,0,0,0,2526.29,1367.05Z"/><path class="cls-10" d="M2363.88,1388.95a57.84,57.84,0,0,0-49.59,65l33.49,248.39a57.84,57.84,0,0,0,65.05,49.59l79.75-10.75-48.94-363Z"/><path class="cls-11" d="M2560.51,1431.89a4.86,4.86,0,0,1-4.16,5.46l-206.93,27.9a4.86,4.86,0,0,1-5.47-4.16h0a4.86,4.86,0,0,1,4.17-5.46l206.93-27.9a4.86,4.86,0,0,1,5.46,4.16Z"/><path class="cls-11" d="M2565.58,1469.51a4.86,4.86,0,0,1-4.16,5.46l-206.93,27.9a4.86,4.86,0,0,1-5.47-4.16h0a4.86,4.86,0,0,1,4.17-5.46l206.93-27.9a4.86,4.86,0,0,1,5.46,4.16Z"/><path class="cls-11" d="M2570.65,1507.12a4.86,4.86,0,0,1-4.16,5.46l-206.93,27.9a4.86,4.86,0,0,1-5.47-4.16h0a4.86,4.86,0,0,1,4.17-5.46l206.93-27.9a4.86,4.86,0,0,1,5.46,4.16Z"/><path class="cls-11" d="M2575.72,1544.73a4.86,4.86,0,0,1-4.16,5.46l-206.93,27.9a4.86,4.86,0,0,1-5.47-4.16h0a4.86,4.86,0,0,1,4.17-5.46l206.93-27.9a4.86,4.86,0,0,1,5.46,4.16Z"/><path class="cls-11" d="M2580.79,1582.34a4.86,4.86,0,0,1-4.16,5.46l-206.93,27.9a4.86,4.86,0,0,1-5.47-4.16h0a4.86,4.86,0,0,1,4.17-5.46l206.93-27.9a4.86,4.86,0,0,1,5.46,4.16Z"/><path class="cls-11" d="M2585.86,1620a4.86,4.86,0,0,1-4.16,5.46l-206.93,27.9a4.86,4.86,0,0,1-5.46-4.16h0a4.86,4.86,0,0,1,4.17-5.46l206.93-27.9a4.86,4.86,0,0,1,5.46,4.17Z"/><path class="cls-11" d="M2590.93,1657.57a4.86,4.86,0,0,1-4.16,5.46l-206.93,27.9a4.86,4.86,0,0,1-5.47-4.17h0a4.86,4.86,0,0,1,4.17-5.46l206.93-27.9a4.86,4.86,0,0,1,5.46,4.16Z"/><path class="cls-11" d="M2596,1695.18a4.86,4.86,0,0,1-4.16,5.46l-206.93,27.9a4.86,4.86,0,0,1-5.47-4.16h0a4.86,4.86,0,0,1,4.17-5.46l206.93-27.9a4.86,4.86,0,0,1,5.46,4.16Z"/><circle class="cls-12" cx="2371.26" cy="1398.74" r="8.51" transform="translate(-165.63 329.38) rotate(-7.68)"/><circle class="cls-12" cx="2400.2" cy="1394.84" r="8.51" transform="translate(-164.84 333.18) rotate(-7.68)"/><circle class="cls-12" cx="2428.63" cy="1391.01" r="8.51" transform="translate(-164.09 337) rotate(-7.68)"/><circle class="cls-12" cx="2458.28" cy="1387.01" r="8.51" transform="translate(-163.3 340.95) rotate(-7.68)"/><circle class="cls-12" cx="2486.26" cy="1383.24" r="8.51" transform="translate(-162.52 344.58) rotate(-7.68)"/><circle class="cls-12" cx="2515.12" cy="1379.35" r="8.51" transform="matrix(0.99, -0.13, 0.13, 0.99, -161.76, 348.45)"/><path class="cls-11" d="M2377.17,1394.92a6.37,6.37,0,0,1-5.47,7.17h0a6.37,6.37,0,0,1-7.17-5.46l-2.11-15.64a6.37,6.37,0,0,1,5.46-7.17h0a6.37,6.37,0,0,1,7.17,5.47Z"/><path class="cls-11" d="M2406.12,1391a6.37,6.37,0,0,1-5.47,7.17h0a6.37,6.37,0,0,1-7.17-5.46l-2.11-15.64a6.37,6.37,0,0,1,5.46-7.17h0a6.37,6.37,0,0,1,7.17,5.47Z"/><path class="cls-11" d="M2434.54,1387.19a6.37,6.37,0,0,1-5.46,7.17h0a6.38,6.38,0,0,1-7.17-5.46l-2.11-15.64a6.37,6.37,0,0,1,5.47-7.17h0a6.37,6.37,0,0,1,7.17,5.47Z"/><path class="cls-11" d="M2464.19,1383.19a6.37,6.37,0,0,1-5.47,7.17h0a6.37,6.37,0,0,1-7.17-5.46l-2.11-15.64a6.37,6.37,0,0,1,5.46-7.17h0a6.38,6.38,0,0,1,7.17,5.47Z"/><path class="cls-11" d="M2492.18,1379.42a6.37,6.37,0,0,1-5.47,7.17h0a6.37,6.37,0,0,1-7.17-5.46l-2.11-15.64a6.37,6.37,0,0,1,5.47-7.17h0a6.38,6.38,0,0,1,7.17,5.47Z"/><path class="cls-11" d="M2521,1375.53a6.37,6.37,0,0,1-5.47,7.17h0a6.37,6.37,0,0,1-7.17-5.46l-2.11-15.64a6.37,6.37,0,0,1,5.46-7.17h0a6.37,6.37,0,0,1,7.17,5.47Z"/><path class="cls-13" d="M2607.24,1502.17a11.63,11.63,0,0,1-16.42.89l-6.31-5.66a11.63,11.63,0,0,1-.89-16.41l5.67-6.32a11.62,11.62,0,0,1,16.41-.89l6.31,5.66a11.62,11.62,0,0,1,.9,16.41Z"/><polygon class="cls-14" points="2445.58 1658.92 2455.84 1654.22 2449.06 1648.13 2445.58 1658.92"/><polygon class="cls-15" points="2458.21 1619.82 2449.06 1648.13 2455.84 1654.22 2482.79 1641.85 2458.21 1619.82"/><path class="cls-16" d="M2588.84,1499.1l-117.55,131.09c3.42-2.06,8-2.85,10.72-.42,3.21,2.88,3.24,8,.41,11.9l.26.23L2601,1510Z"/><path class="cls-17" d="M2576.48,1488l-118.29,131.92.07.06c3.61-3.48,8.88-4.09,12.17-1.14,2.9,2.6,2.55,7.8.53,11.52a2.77,2.77,0,0,1,.33-.18l117.55-131.09Z"/><path class="cls-15" d="M2482.32,1629.89c-2.83-2.54-7.11-2.43-10.57-.19,2-3.77,1.77-8.22-1.16-10.84-3.32-3-8.65-2.37-12.3,1.16l12,10.79.46.41,11.94,10.71C2485.58,1638,2485.56,1632.8,2482.32,1629.89Z"/><rect class="cls-18" x="2587.31" y="1479.53" width="8.51" height="32.59" transform="translate(-252.28 2426.55) rotate(-48.12)"/><path class="cls-19" d="M2604.32,1507.28a1.24,1.24,0,0,1-1.74.09L2579,1486.19a1.24,1.24,0,0,1-.1-1.74h0a1.23,1.23,0,0,1,1.74-.09l23.62,21.18a1.23,1.23,0,0,1,.1,1.74Z"/><path class="cls-19" d="M2601.65,1510.47a1.23,1.23,0,0,1-1.74.1l-23.62-21.18a1.23,1.23,0,0,1-.09-1.74h0a1.23,1.23,0,0,1,1.73-.1l23.63,21.18a1.24,1.24,0,0,1,.09,1.74Z"/><path class="cls-16" d="M728.11,1724.45a34.43,34.43,0,0,0-16.37-9.08l-417.74-94a35.23,35.23,0,0,0-24.3,3.57l175.37,209.76.72.41-.88.3,15.37,18.38,22.19-10.68-.64-.65.8,0Z"/><path class="cls-16" d="M269.54,1625.69S516,1475.35,545.7,1482,728,1725.15,728,1725.15Z"/><rect class="cls-9" x="301.42" y="1643.72" width="352.02" height="301.73" transform="translate(-1378.19 1866.62) rotate(-77.33)"/><rect class="cls-20" x="499.74" y="1530.79" width="15.75" height="259.08" transform="translate(-1223.63 1791.27) rotate(-77.33)"/><rect class="cls-20" x="483.92" y="1601.16" width="15.74" height="259.08" transform="translate(-1304.64 1830.75) rotate(-77.32)"/><rect class="cls-20" x="491.83" y="1565.98" width="15.75" height="259.08" transform="translate(-1264.14 1811.02) rotate(-77.33)"/><rect class="cls-20" x="476.01" y="1636.35" width="15.74" height="259.08" transform="translate(-1345.15 1850.5) rotate(-77.32)"/><rect class="cls-20" x="468.6" y="1669.25" width="15.74" height="259.08" transform="translate(-1383.02 1868.97) rotate(-77.33)"/><rect class="cls-20" x="460.7" y="1704.44" width="15.73" height="259.08" transform="translate(-1423.53 1888.7) rotate(-77.32)"/><polygon class="cls-21" points="435.08 1823.68 429.8 1817.36 435.05 1823.64 435.08 1823.68"/><polygon class="cls-22" points="380.59 1758.53 380.59 1758.53 429.8 1817.36 380.59 1758.53"/><path class="cls-23" d="M435.08,1823.68l0,0-5.25-6.29-49.2-58.83-111-132.84c-10.86,5.73-19.62,16.66-22.76,30.6l-52.17,232a46.38,46.38,0,0,0,4.78,33.43l190.15-66.78,55.36-19.44Z"/><path class="cls-23" d="M728,1725.15l-183.6,88.28h0l-38.82,18.67-19.78,9.5-3.29,1.56,50.59,50.9,133.61,134.38a45.94,45.94,0,0,0,20.67-29.39l52.17-232C743.17,1750.8,738.17,1735,728,1725.15Z"/><path class="cls-24" d="M533.06,1894.06l-50.59-50.9,3.29-1.56c-.2.07-17.75,6.17-25.39,4.45s-25.18-22.22-25.28-22.36l9.83,11.78-55.36,19.44L199.4,1921.67c5.06,8.78,13.11,15.35,23.12,17.6l417.74,93.95c9.24,2.08,18.45,0,26.41-4.78Z"/><path class="cls-16" d="M1458.73,638.87c0,199.88-162,361.9-361.86,361.9S735,838.75,735,638.87,897,277,1096.87,277,1458.73,439,1458.73,638.87Z"/><path class="cls-25" d="M1398.09,638.89c0,166.36-134.87,301.25-301.27,301.25S795.59,805.24,795.59,638.89s134.87-301.25,301.23-301.25S1398.09,472.51,1398.09,638.89Z"/><path class="cls-5" d="M1096.87,944.54c-168.57,0-305.68-137.14-305.68-305.67s137.1-305.64,305.68-305.64,305.65,137.11,305.65,305.64S1265.4,944.54,1096.87,944.54Zm0-592C939,352.59,810.55,481,810.55,638.87S939,925.18,1096.87,925.18s286.31-128.44,286.31-286.31S1254.74,352.59,1096.87,352.59Z"/><rect class="cls-5" x="1084.46" y="346.3" width="24.77" height="72.88"/><rect class="cls-5" x="1084.46" y="858.59" width="24.77" height="72.9"/><rect class="cls-5" x="1316.55" y="626.5" width="72.9" height="24.77"/><rect class="cls-5" x="804.25" y="626.5" width="72.89" height="24.77"/><path class="cls-5" d="M1259.67,619.37,1118.75,624a26.16,26.16,0,0,0-31.09-9.9l-130-148.09a9.42,9.42,0,0,0-14.15,12.43l130.05,148.12a26.36,26.36,0,0,0,46,25.67l141-4.67A14.12,14.12,0,0,0,1274.24,633C1274,625.23,1267.82,619.58,1259.67,619.37Z"/><polyline class="cls-3" points="360.02 965.49 636.59 987.27 666.62 605.9 390.05 584.13"/><rect class="cls-26" x="566.26" y="810.17" width="8.3" height="119.22" transform="translate(-339.49 1373.73) rotate(-85.72)"/><rect class="cls-26" x="565.3" y="823.01" width="8.3" height="119.22" transform="translate(-353.19 1384.65) rotate(-85.72)"/><rect class="cls-26" x="564.34" y="835.86" width="8.3" height="119.22" transform="translate(-366.88 1395.59) rotate(-85.72)"/><rect class="cls-26" x="563.38" y="848.7" width="8.3" height="119.22" transform="translate(-380.58 1406.51) rotate(-85.72)"/><rect class="cls-26" x="562.42" y="861.54" width="8.3" height="119.22" transform="translate(-394.28 1417.43) rotate(-85.72)"/><rect class="cls-26" x="561.46" y="874.39" width="8.3" height="119.22" transform="translate(-407.97 1428.38) rotate(-85.72)"/><rect class="cls-26" x="560.5" y="887.23" width="8.3" height="119.22" transform="translate(-421.67 1439.29) rotate(-85.72)"/><rect class="cls-26" x="559.54" y="900.07" width="8.3" height="119.22" transform="translate(-435.37 1450.22) rotate(-85.72)"/><rect class="cls-26" x="434.45" y="800.31" width="8.3" height="119.22" transform="translate(-451.64 1233.16) rotate(-85.72)"/><rect class="cls-26" x="433.49" y="813.15" width="8.3" height="119.22" transform="translate(-465.34 1244.08) rotate(-85.72)"/><rect class="cls-26" x="432.53" y="826" width="8.3" height="119.22" transform="translate(-479.03 1255.02) rotate(-85.72)"/><rect class="cls-26" x="431.57" y="838.84" width="8.3" height="119.22" transform="matrix(0.07, -1, 1, 0.07, -492.73, 1265.94)"/><rect class="cls-26" x="430.6" y="851.68" width="8.3" height="119.22" transform="translate(-506.42 1276.87) rotate(-85.72)"/><rect class="cls-26" x="429.64" y="864.53" width="8.3" height="119.22" transform="translate(-520.12 1287.8) rotate(-85.72)"/><rect class="cls-26" x="428.69" y="877.37" width="8.3" height="119.22" transform="matrix(0.07, -1, 1, 0.07, -533.82, 1298.72)"/><rect class="cls-26" x="427.72" y="890.21" width="8.3" height="119.22" transform="translate(-547.51 1309.66) rotate(-85.72)"/><rect class="cls-27" x="485" y="804.35" width="18.98" height="21.95" transform="translate(-355.43 1247.65) rotate(-85.72)"/><rect class="cls-28" x="482.94" y="831.89" width="18.98" height="21.94" transform="translate(-384.83 1271.02) rotate(-85.72)"/><rect class="cls-29" x="583.03" y="809.64" width="7.71" height="25.8" transform="translate(-277.14 1346.43) rotate(-85.72)"/><rect class="cls-29" x="581.23" y="837.73" width="7.12" height="25.8" transform="translate(-307.11 1370.31) rotate(-85.72)"/><rect class="cls-29" x="457.61" y="800.25" width="7.71" height="25.8" transform="translate(-383.85 1212.67) rotate(-85.72)"/><rect class="cls-29" x="455.81" y="828.35" width="7.12" height="25.8" transform="translate(-413.81 1236.58) rotate(-85.72)"/><rect class="cls-26" x="510" y="599.36" width="8.3" height="252.91" transform="translate(-247.99 1184.4) rotate(-85.72)"/><rect class="cls-26" x="509" y="612.78" width="8.3" height="252.91" transform="translate(-262.3 1195.81) rotate(-85.72)"/><rect class="cls-26" x="507.99" y="626.2" width="8.3" height="252.91" transform="translate(-276.61 1207.23) rotate(-85.72)"/><rect class="cls-26" x="506.99" y="639.62" width="8.31" height="252.91" transform="translate(-290.92 1218.65) rotate(-85.72)"/><rect class="cls-26" x="505.98" y="653.04" width="8.3" height="252.91" transform="translate(-305.23 1230.06) rotate(-85.72)"/><rect class="cls-26" x="504.98" y="666.46" width="8.3" height="252.91" transform="matrix(0.07, -1, 1, 0.07, -319.55, 1241.48)"/><polygon class="cls-26" points="410.07 663.83 620.79 679.97 621.41 671.69 410.69 655.55 410.07 663.83"/><polygon class="cls-26" points="409.11 676.67 619.83 692.82 620.45 684.54 409.72 668.39 409.11 676.67"/><polygon class="cls-26" points="408.14 689.51 618.87 705.66 619.49 697.38 408.76 681.24 408.14 689.51"/><polygon class="cls-26" points="407.18 702.36 617.91 718.5 618.53 710.23 407.8 694.08 407.18 702.36"/><rect class="cls-26" x="518.9" y="498.94" width="8.3" height="252.91" transform="translate(-139.61 1100.35) rotate(-85.72)"/><rect class="cls-26" x="517.9" y="512.36" width="8.3" height="252.91" transform="translate(-153.93 1111.76) rotate(-85.72)"/><rect class="cls-26" x="558.87" y="1259.47" width="6.75" height="96.89" transform="translate(-847.61 1110.24) rotate(-58.76)"/><rect class="cls-26" x="553.44" y="1268.42" width="6.75" height="96.89" transform="translate(-857.87 1109.88) rotate(-58.76)"/><rect class="cls-26" x="548.01" y="1277.37" width="6.75" height="96.89" transform="translate(-868.14 1109.57) rotate(-58.76)"/><rect class="cls-26" x="542.58" y="1286.32" width="6.75" height="96.89" transform="translate(-878.4 1109.22) rotate(-58.76)"/><rect class="cls-26" x="537.15" y="1295.27" width="6.75" height="96.89" transform="translate(-888.66 1108.89) rotate(-58.76)"/><rect class="cls-26" x="531.72" y="1304.22" width="6.75" height="96.89" transform="translate(-898.94 1108.59) rotate(-58.76)"/><rect class="cls-26" x="526.29" y="1313.17" width="6.75" height="96.89" transform="translate(-909.19 1108.21) rotate(-58.76)"/><rect class="cls-26" x="520.86" y="1322.11" width="6.75" height="96.89" transform="matrix(0.52, -0.85, 0.85, 0.52, -919.46, 1107.89)"/><rect class="cls-26" x="467.02" y="1203.74" width="6.75" height="96.9" transform="translate(-844.17 1004.86) rotate(-58.76)"/><rect class="cls-26" x="461.59" y="1212.69" width="6.75" height="96.9" transform="translate(-854.44 1004.53) rotate(-58.76)"/><rect class="cls-26" x="456.16" y="1221.64" width="6.75" height="96.9" transform="translate(-864.71 1004.23) rotate(-58.76)"/><rect class="cls-26" x="450.73" y="1230.59" width="6.75" height="96.9" transform="translate(-874.97 1003.87) rotate(-58.76)"/><rect class="cls-26" x="445.3" y="1239.54" width="6.75" height="96.9" transform="translate(-885.24 1003.55) rotate(-58.76)"/><rect class="cls-26" x="439.87" y="1248.49" width="6.75" height="96.9" transform="translate(-895.5 1003.21) rotate(-58.76)"/><rect class="cls-26" x="434.44" y="1257.44" width="6.75" height="96.89" transform="translate(-905.76 1002.86) rotate(-58.76)"/><rect class="cls-26" x="429.01" y="1266.39" width="6.75" height="96.9" transform="translate(-916.03 1002.56) rotate(-58.76)"/><rect class="cls-27" x="519.6" y="1231.57" width="15.43" height="17.84" transform="translate(-806.78 1047.94) rotate(-58.76)"/><rect class="cls-28" x="507.96" y="1250.76" width="15.42" height="17.84" transform="translate(-828.78 1047.16) rotate(-58.75)"/><rect class="cls-29" x="588.45" y="1269.28" width="6.27" height="20.97" transform="translate(-809.41 1121.76) rotate(-58.76)"/><rect class="cls-29" x="576.82" y="1288.86" width="5.79" height="20.97" transform="translate(-831.86 1120.94) rotate(-58.75)"/><rect class="cls-29" x="501.06" y="1216.26" width="6.27" height="20.97" transform="translate(-806.15 1021.5) rotate(-58.76)"/><rect class="cls-29" x="489.43" y="1235.84" width="5.78" height="20.97" transform="matrix(0.52, -0.85, 0.85, 0.52, -828.6, 1020.77)"/><rect class="cls-26" x="571.17" y="1080.12" width="6.75" height="205.55" transform="translate(-734.8 1060.57) rotate(-58.76)"/><rect class="cls-26" x="565.5" y="1089.47" width="6.75" height="205.55" transform="translate(-745.52 1060.22) rotate(-58.76)"/><rect class="cls-26" x="559.83" y="1098.82" width="6.75" height="205.55" transform="translate(-756.24 1059.87) rotate(-58.76)"/><rect class="cls-26" x="554.15" y="1108.17" width="6.75" height="205.55" transform="matrix(0.52, -0.85, 0.85, 0.52, -766.97, 1059.52)"/><rect class="cls-26" x="548.48" y="1117.52" width="6.75" height="205.55" transform="translate(-777.69 1059.17) rotate(-58.76)"/><rect class="cls-26" x="542.81" y="1126.87" width="6.75" height="205.55" transform="matrix(0.52, -0.85, 0.85, 0.52, -788.42, 1058.81)"/><polygon class="cls-26" points="522 1099.63 668.69 1188.99 672.19 1183.22 525.5 1093.86 522 1099.63"/><polygon class="cls-26" points="516.57 1108.58 663.26 1197.94 666.76 1192.17 520.07 1102.81 516.57 1108.58"/><polygon class="cls-26" points="511.14 1117.53 657.83 1206.89 661.33 1201.12 514.64 1111.76 511.14 1117.53"/><polygon class="cls-26" points="505.71 1126.48 652.4 1215.84 655.9 1210.07 509.21 1120.71 505.71 1126.48"/><rect class="cls-26" x="602.07" y="1017.69" width="6.75" height="176.08" transform="translate(-653.99 1050.94) rotate(-58.81)"/><rect class="cls-26" x="596.49" y="1026.98" width="6.75" height="176.28" transform="translate(-664.73 1050.79) rotate(-58.81)"/><rect class="cls-9" x="1632.04" y="252.77" width="287.15" height="393.24" transform="matrix(0.95, -0.31, 0.31, 0.95, -52.36, 564.59)"/><rect class="cls-26" x="1676.65" y="543.03" width="123.39" height="8.53" transform="translate(-84.09 557.89) rotate(-17.81)"/><rect class="cls-26" x="1680.7" y="555.63" width="123.39" height="8.53" transform="translate(-87.75 559.72) rotate(-17.81)"/><rect class="cls-26" x="1684.75" y="568.23" width="123.39" height="8.54" transform="translate(-91.41 561.55) rotate(-17.81)"/><rect class="cls-26" x="1688.8" y="580.84" width="123.39" height="8.54" transform="translate(-95.07 563.41) rotate(-17.81)"/><rect class="cls-26" x="1692.85" y="593.44" width="123.39" height="8.54" transform="translate(-98.73 565.25) rotate(-17.81)"/><rect class="cls-26" x="1696.9" y="606.05" width="123.39" height="8.53" transform="translate(-102.39 567.08) rotate(-17.81)"/><rect class="cls-26" x="1700.95" y="618.66" width="123.39" height="8.54" transform="translate(-106.05 568.95) rotate(-17.81)"/><rect class="cls-26" x="1704.99" y="631.26" width="123.39" height="8.53" transform="translate(-109.71 570.78) rotate(-17.81)"/><rect class="cls-26" x="1806.91" y="501.18" width="123.4" height="8.53" transform="translate(-65.05 595.72) rotate(-17.81)"/><rect class="cls-26" x="1810.96" y="513.79" width="123.4" height="8.53" transform="translate(-68.71 597.56) rotate(-17.81)"/><rect class="cls-26" x="1815.01" y="526.39" width="123.39" height="8.54" transform="translate(-72.37 599.39) rotate(-17.81)"/><rect class="cls-26" x="1819.06" y="539" width="123.4" height="8.53" transform="translate(-76.03 601.24) rotate(-17.81)"/><rect class="cls-26" x="1823.11" y="551.6" width="123.4" height="8.54" transform="translate(-79.69 603.09) rotate(-17.81)"/><rect class="cls-26" x="1827.16" y="564.21" width="123.4" height="8.53" transform="translate(-83.35 604.91) rotate(-17.81)"/><rect class="cls-26" x="1831.21" y="576.81" width="123.4" height="8.54" transform="translate(-87.02 606.77) rotate(-17.81)"/><rect class="cls-26" x="1835.25" y="589.42" width="123.4" height="8.53" transform="translate(-90.68 608.61) rotate(-17.81)"/><rect class="cls-30" x="1663.77" y="505.33" width="22.72" height="19.51" transform="translate(-77.27 536.98) rotate(-17.81)"/><rect class="cls-31" x="1672.45" y="532.36" width="22.72" height="19.51" transform="translate(-85.12 540.91) rotate(-17.81)"/><rect class="cls-27" x="1790.31" y="464.68" width="22.71" height="19.51" transform="translate(-58.78 573.65) rotate(-17.81)"/><rect class="cls-28" x="1798.99" y="491.71" width="22.71" height="19.51" transform="translate(-66.62 577.68) rotate(-17.81)"/><rect class="cls-29" x="1697.09" y="500.11" width="26.7" height="7.92" transform="translate(-72.2 547.31) rotate(-17.81)"/><rect class="cls-29" x="1705.94" y="527.98" width="26.71" height="7.32" transform="translate(-80.21 551.27) rotate(-17.81)"/><rect class="cls-29" x="1821.02" y="460.29" width="26.71" height="7.92" transform="translate(-54.09 583.21) rotate(-17.81)"/><rect class="cls-29" x="1829.88" y="488.17" width="26.71" height="7.32" transform="translate(-62.1 587.33) rotate(-17.81)"/><path class="cls-26" d="M1692,298.79a43,43,0,0,1,6-2.38c3.8-1.22,6.49-1.33,8.88-.51,2.57.87,4.67,2.89,5.79,6.41,1.22,3.8.67,6.88-.74,9.12-1.55,2.42-4.49,4.28-8.41,5.54a41.33,41.33,0,0,1-5.24,1.35Zm9.76,14.77a9.14,9.14,0,0,0,1.6-.42c4.11-1.29,6.06-4.39,4.54-9.14-1.29-4.14-4.43-5.54-8.33-4.29a9.91,9.91,0,0,0-2,.83Z"/><path class="cls-26" d="M1721.49,305.32l.21,5.56-4.7,1.51-.27-21.85,5.94-1.91,12.6,17.89-4.87,1.57-3.19-4.61Zm4-5-2.6-3.82c-.73-1.07-1.56-2.43-2.24-3.51l-.06,0c.09,1.28.27,2.88.31,4.13l.17,4.6Z"/><path class="cls-26" d="M1734.17,289.1l-5.38,1.73-1.21-3.77,15.39-4.94,1.21,3.77-5.46,1.76,5.18,16.11-4.54,1.46Z"/><path class="cls-26" d="M1752.65,295.31l.21,5.56-4.7,1.51-.26-21.85,5.94-1.91,12.6,17.89-4.87,1.57-3.18-4.61Zm4-5-2.6-3.82c-.73-1.06-1.56-2.43-2.24-3.51l-.06,0c.08,1.28.27,2.88.31,4.13l.17,4.6Z"/><path class="cls-26" d="M1611.53,364.53l43.26,134.67,31-10,210.73-67.69,9-2.88L1862.27,284Zm156.71-43.47,39.05-12.54,8.14,25.33-39.05,12.54Zm-96,30.84,39-12.54,8.14,25.33-39,12.54Zm30.21,125-.07,0-11,3.54-10.47,3.36-16.42,5.27-3.24,1-1.78-5.53-3-9.25-1.75-5.45-1.09-3.41,0-.11,27.93-9-.13.16,13.16-4.23.13-.16.12,0ZM1692,444.45l-.77,1,.59,1.83-2.76.89L1652.8,459.8l-1.18.38-8.73-27.12,1.2-.38,0-.07,39-12.54,0,.07,1-.32Zm-9.9-30.93-41.23,13.25-8.72-27.15,41.23-13.24Zm-10.73-33.4-41.23,13.25L1622,368l41.23-13.24Zm79.13,81.39-39,12.54-7.63-23.75,39-12.54Zm-9.54-30-.11,0-38.67,12.42-.25.08-2.74-8.51-.08.09-6-18.68.1,0,0-.07,39-12.54ZM1730.23,398l-1.58.51,0,.06-37.49,12-8.71-27.13,39-12.53.57,1.76.11,0Zm68.3,48.07-39,12.54-7.63-23.75,39-12.54Zm-9.64-30-39,12.54-8.58-26.71h0l-.16-.48,39-12.54,3.6,11.2h0Zm-10.73-33.41-38.83,12.47-.23,0-8.71-27.12,39-12.54Zm-10.73-33.4-39,12.54-8.14-25.33,39-12.54Zm79.1,81.4-39.05,12.54-7.63-23.75,39.05-12.54Zm-10-31.88-.21.07.58,1.81-39.05,12.54-4.35-13.55h.26l-2.16-6.72h-.26l-2.2-6.86.23-.08h0l39-12.54Zm-10.37-31.54-6.83,2.19-32.22,10.35-8.72-27.15,39.05-12.54.46,1.43Zm68.37,48-39,12.53L1847.88,404l39-12.53Zm-9.64-30-39,12.53-8.71-27.13,39-12.53Zm-10.66-35.34.58,1.75-.65.18-39,12.53-8.72-27.15,7.56-2.43-.05.13,10.52-3.38.05-.13,20.93-6.72,0,.1.63-.2Zm-10.18-31.67-.63.2v0l-15.51,5v0l-10.57,3.4-12.34,4-.61.2-8.14-25.33.61-.2,34.2-11,4.83-1.55Z"/><polygon class="cls-30" points="1660.43 488.71 1655.83 485.55 1692.35 433 1723.64 437.4 1759.78 389.02 1789.63 401.85 1806.71 336.34 1886.72 372.97 1884.36 378.03 1810.44 344.19 1793.41 409.55 1761.61 395.89 1726.14 443.38 1694.98 439 1660.43 488.71"/><polygon class="cls-31" points="1812.94 392.74 1749.57 374.3 1720.28 399.71 1699.46 403.75 1669.11 431.49 1643.94 446.48 1641.08 441.69 1665.75 427 1696.84 398.58 1717.75 394.53 1748.22 368.1 1811.31 386.45 1870.44 326.53 1874.43 330.43 1812.94 392.74"/><polygon class="cls-27" points="1726.4 456.12 1671.49 444.55 1648.96 466.63 1645.04 462.67 1669.72 438.47 1724.65 450.05 1765.59 410.37 1811.23 418.04 1852.91 371.47 1879.86 354.01 1882.91 358.67 1856.59 375.73 1813.34 424.05 1767.44 416.34 1726.4 456.12"/><polygon class="cls-28" points="1653.11 475.19 1649.26 471.15 1709.53 414.44 1726.65 415.24 1779.14 335.09 1813.49 354.21 1860.06 295.12 1864.47 298.55 1814.93 361.41 1780.96 342.51 1729.59 420.96 1711.63 420.12 1653.11 475.19"/><rect class="cls-26" x="1633.86" y="370.38" width="8.91" height="125.91" transform="translate(-54.03 521.84) rotate(-17.81)"/><rect class="cls-26" x="1874.53" y="282.07" width="9.61" height="141.45" transform="translate(-17.85 591.62) rotate(-17.81)"/><path class="cls-32" d="M2662.21,1019.79l-325.79-55.72c-19.56-3.35-38.62,12.62-42.56,35.66L2257,1215.39c-3.94,23,8.73,44.42,28.29,47.77l325.79,55.72c19.56,3.35,38.62-12.62,42.56-35.65l36.89-215.66C2694.43,1044.53,2681.77,1023.14,2662.21,1019.79Zm-25.3,280.77L2267,1237.29l38.41-224.54L2675.32,1076Z"/><rect class="cls-9" x="2357.24" y="969" width="227.81" height="375.32" transform="translate(914.43 3397.43) rotate(-80.29)"/><path class="cls-30" d="M2371.38,995.16a11.67,11.67,0,0,1-13.47,9.53h0a11.67,11.67,0,0,1-9.54-13.47l6.46-37.73A11.67,11.67,0,0,1,2368.3,944h0a11.67,11.67,0,0,1,9.54,13.47Z"/><path class="cls-30" d="M2405.07,1000.92a11.67,11.67,0,0,1-13.47,9.53h0a11.67,11.67,0,0,1-9.53-13.47l6.45-37.73a11.67,11.67,0,0,1,13.47-9.54h0a11.67,11.67,0,0,1,9.54,13.47Z"/><path class="cls-30" d="M2608.22,1035.67a11.67,11.67,0,0,1-13.47,9.53h0a11.67,11.67,0,0,1-9.54-13.47l6.45-37.73a11.67,11.67,0,0,1,13.47-9.54h0a11.67,11.67,0,0,1,9.53,13.47Z"/><path class="cls-30" d="M2641.91,1041.43a11.67,11.67,0,0,1-13.47,9.53h0a11.66,11.66,0,0,1-9.53-13.47l6.45-37.73a11.67,11.67,0,0,1,13.47-9.54h0a11.68,11.68,0,0,1,9.54,13.47Z"/><rect class="cls-33" x="2310.79" y="1033.24" width="37.34" height="37.35" rx="8.93" ry="8.93" transform="translate(899.87 3170.69) rotate(-80.29)"/><path class="cls-33" d="M2397.91,1073.51a8.93,8.93,0,0,1-10.31,7.29l-19.21-3.29a8.93,8.93,0,0,1-7.29-10.31l3.29-19.21a8.93,8.93,0,0,1,10.3-7.3l19.21,3.29a8.93,8.93,0,0,1,7.3,10.31Z"/><path class="cls-33" d="M2449.61,1082.35a8.93,8.93,0,0,1-10.31,7.29l-19.2-3.28a8.93,8.93,0,0,1-7.3-10.31l3.29-19.21a8.93,8.93,0,0,1,10.31-7.3l19.2,3.28a8.93,8.93,0,0,1,7.3,10.31Z"/><path class="cls-33" d="M2501.31,1091.19a8.93,8.93,0,0,1-10.31,7.3l-19.2-3.29a8.93,8.93,0,0,1-7.3-10.31l3.29-19.21a8.93,8.93,0,0,1,10.31-7.3l19.2,3.29a8.93,8.93,0,0,1,7.3,10.31Z"/><path class="cls-33" d="M2553,1100a8.93,8.93,0,0,1-10.3,7.3l-19.21-3.29a8.93,8.93,0,0,1-7.3-10.31l3.29-19.21a8.93,8.93,0,0,1,10.31-7.3l19.21,3.29a8.93,8.93,0,0,1,7.29,10.31Z"/><path class="cls-33" d="M2604.7,1108.88a8.93,8.93,0,0,1-10.31,7.29l-19.2-3.28a8.93,8.93,0,0,1-7.3-10.31l3.29-19.21a8.93,8.93,0,0,1,10.31-7.3l19.2,3.28a8.93,8.93,0,0,1,7.3,10.31Z"/><path class="cls-33" d="M2656.39,1117.72a8.93,8.93,0,0,1-10.3,7.3l-19.21-3.29a8.93,8.93,0,0,1-7.29-10.31l3.29-19.21a8.93,8.93,0,0,1,10.3-7.3l19.21,3.29a8.93,8.93,0,0,1,7.29,10.31Z"/><path class="cls-33" d="M2336.78,1119.88a8.93,8.93,0,0,1-10.31,7.29l-19.21-3.29a8.93,8.93,0,0,1-7.3-10.31l3.29-19.21a8.93,8.93,0,0,1,10.31-7.3l19.21,3.29a8.93,8.93,0,0,1,7.3,10.31Z"/><path class="cls-33" d="M2388.47,1128.72a8.93,8.93,0,0,1-10.31,7.29l-19.21-3.29a8.93,8.93,0,0,1-7.29-10.31l3.29-19.21a8.93,8.93,0,0,1,10.3-7.3l19.21,3.29a8.93,8.93,0,0,1,7.3,10.31Z"/><path class="cls-30" d="M2440.17,1137.56a8.93,8.93,0,0,1-10.31,7.29l-19.2-3.29a8.93,8.93,0,0,1-7.3-10.31l3.29-19.21a8.93,8.93,0,0,1,10.31-7.3l19.2,3.28a8.93,8.93,0,0,1,7.3,10.31Z"/><path class="cls-33" d="M2491.86,1146.41a8.93,8.93,0,0,1-10.31,7.29l-19.21-3.29a8.93,8.93,0,0,1-7.29-10.3l3.29-19.21a8.93,8.93,0,0,1,10.31-7.3l19.21,3.29a8.93,8.93,0,0,1,7.3,10.31Z"/><path class="cls-33" d="M2543.56,1155.25a8.93,8.93,0,0,1-10.3,7.29l-19.21-3.29a8.93,8.93,0,0,1-7.3-10.31l3.29-19.21a8.93,8.93,0,0,1,10.31-7.3l19.21,3.29a8.93,8.93,0,0,1,7.29,10.31Z"/><path class="cls-33" d="M2595.25,1164.09a8.93,8.93,0,0,1-10.31,7.29l-19.2-3.28a8.93,8.93,0,0,1-7.3-10.31l3.29-19.21a8.93,8.93,0,0,1,10.31-7.3l19.2,3.28a8.93,8.93,0,0,1,7.3,10.31Z"/><path class="cls-33" d="M2646.94,1172.93a8.93,8.93,0,0,1-10.3,7.3l-19.21-3.29a8.93,8.93,0,0,1-7.29-10.3l3.29-19.21a8.93,8.93,0,0,1,10.3-7.3l19.21,3.29a8.93,8.93,0,0,1,7.29,10.31Z"/><path class="cls-33" d="M2327.34,1175.09a8.93,8.93,0,0,1-10.31,7.3l-19.21-3.29a8.93,8.93,0,0,1-7.3-10.31l3.29-19.21a8.93,8.93,0,0,1,10.31-7.29l19.21,3.29a8.93,8.93,0,0,1,7.3,10.3Z"/><path class="cls-33" d="M2379,1183.93a8.93,8.93,0,0,1-10.31,7.3l-19.21-3.29a8.93,8.93,0,0,1-7.29-10.31l3.29-19.21a8.93,8.93,0,0,1,10.3-7.29l19.21,3.29a8.93,8.93,0,0,1,7.29,10.3Z"/><rect class="cls-33" x="2395.29" y="1161.35" width="37.34" height="37.34" rx="8.93" ry="8.93" transform="translate(843.86 3360.49) rotate(-80.29)"/><path class="cls-33" d="M2482.42,1201.61a8.93,8.93,0,0,1-10.31,7.3l-19.21-3.29a8.93,8.93,0,0,1-7.29-10.31l3.29-19.21a8.93,8.93,0,0,1,10.3-7.29l19.21,3.29a8.93,8.93,0,0,1,7.3,10.3Z"/><path class="cls-33" d="M2534.11,1210.45a8.93,8.93,0,0,1-10.3,7.3l-19.21-3.29a8.93,8.93,0,0,1-7.3-10.31l3.29-19.21a8.93,8.93,0,0,1,10.31-7.29l19.21,3.29a8.93,8.93,0,0,1,7.29,10.3Z"/><path class="cls-33" d="M2585.81,1219.3a8.93,8.93,0,0,1-10.31,7.3l-19.2-3.28A8.93,8.93,0,0,1,2549,1213l3.29-19.21a8.93,8.93,0,0,1,10.31-7.29l19.2,3.28a8.93,8.93,0,0,1,7.3,10.3Z"/><path class="cls-33" d="M2637.5,1228.14a8.93,8.93,0,0,1-10.3,7.3l-19.21-3.29a8.93,8.93,0,0,1-7.29-10.31l3.29-19.21a8.93,8.93,0,0,1,10.3-7.29l19.21,3.29a8.93,8.93,0,0,1,7.29,10.3Z"/><path class="cls-33" d="M2317.89,1230.3a8.93,8.93,0,0,1-10.31,7.3l-19.21-3.29a8.93,8.93,0,0,1-7.3-10.31l3.29-19.2a8.93,8.93,0,0,1,10.31-7.3l19.21,3.29a8.93,8.93,0,0,1,7.3,10.31Z"/><path class="cls-33" d="M2369.59,1239.14a8.93,8.93,0,0,1-10.31,7.3l-19.21-3.29a8.93,8.93,0,0,1-7.29-10.31l3.29-19.21a8.93,8.93,0,0,1,10.3-7.3l19.21,3.29a8.93,8.93,0,0,1,7.29,10.31Z"/><path class="cls-33" d="M2421.28,1248a8.93,8.93,0,0,1-10.31,7.29l-19.2-3.28a8.93,8.93,0,0,1-7.3-10.31l3.29-19.2a8.93,8.93,0,0,1,10.31-7.3l19.2,3.29a8.93,8.93,0,0,1,7.3,10.31Z"/><path class="cls-33" d="M2473,1256.82a8.93,8.93,0,0,1-10.31,7.3l-19.2-3.28a8.93,8.93,0,0,1-7.3-10.31l3.29-19.2a8.93,8.93,0,0,1,10.3-7.3l19.21,3.28a8.93,8.93,0,0,1,7.3,10.31Z"/><rect class="cls-33" x="2489.24" y="1234.24" width="37.34" height="37.34" rx="8.93" ry="8.93" transform="translate(850.05 3513.64) rotate(-80.29)"/><path class="cls-33" d="M2576.37,1274.51a8.93,8.93,0,0,1-10.31,7.3l-19.2-3.28a8.93,8.93,0,0,1-7.3-10.31l3.29-19.21a8.93,8.93,0,0,1,10.31-7.3l19.2,3.28a8.93,8.93,0,0,1,7.3,10.31Z"/><path class="cls-33" d="M2628.06,1283.35a8.93,8.93,0,0,1-10.3,7.3l-19.21-3.29a8.93,8.93,0,0,1-7.29-10.31l3.29-19.2a8.93,8.93,0,0,1,10.3-7.3l19.21,3.29a8.93,8.93,0,0,1,7.29,10.31Z"/><path class="cls-34" d="M583.17,2240.83l69.91,219.78a17,17,0,0,0,21.3,11l248.92-79.18a17,17,0,0,0,11-21.29l-69.91-219.78Z"/><path class="cls-35" d="M836.35,2063.15a17,17,0,0,0-21.3-11l-248.92,79.18a17,17,0,0,0-11,21.3l28.06,88.22,281.24-89.45Z"/><path class="cls-3" d="M863.48,2276.71l-24.32-76.47c-2.58-8.12-11.92-12.41-20.84-9.57l-83.36,26.52,29,91.18Z"/><path class="cls-3" d="M658.91,2350.68l24.32,76.47c2.59,8.13,11.92,12.41,20.84,9.57l83.36-26.52-29-91.18Z"/><path class="cls-36" d="M591.68,2182.48c-3.19-10,.66-20.22,8.61-22.75l211.37-67.23a13.76,13.76,0,0,1,12.09,2.25c-3.36-9.67-12.17-15.47-19.95-13L592.43,2149c-7.95,2.53-11.8,12.71-8.61,22.75l6.36,20a21.81,21.81,0,0,0,8.09,11.34c-.07-.2-.16-.39-.22-.6Z"/><path class="cls-33" d="M610.34,2205.31l211.37-67.23c7.94-2.53,11.8-12.71,8.61-22.75l-6.36-20c-.06-.2-.14-.4-.22-.6a13.76,13.76,0,0,0-12.09-2.25l-211.37,67.23c-7.95,2.53-11.8,12.71-8.61,22.75l6.36,20c.07.21.15.4.22.6A13.73,13.73,0,0,0,610.34,2205.31Z"/><path class="cls-3" d="M726.87,2219.76l-83.36,26.52c-8.92,2.84-14.07,11.72-11.48,19.85l24.32,76.47,99.53-31.66Z"/><path class="cls-35" d="M687.66,2250l7.67,24.13,23.13-7.36,3.31,10.4-23.13,7.36,7.74,24.34-10.85,3.45L687.8,2288l-23.13,7.36-3.31-10.4,23.13-7.36-7.67-24.13Z"/><path class="cls-35" d="M816.9,2235.17l3.55,11.17-38.93,12.38L778,2247.55Z"/><path class="cls-35" d="M742.42,2355.61l-11.64,22.49,21.56,11.15-5,9.69-21.56-11.15L714,2410.48l-10.11-5.23,11.74-22.69-21.55-11.15,5-9.7,21.56,11.15,11.63-22.48Z"/><path class="cls-3" d="M766.52,2316.45l29,91.18,83.36-26.52c8.92-2.84,14.07-11.72,11.49-19.85L866,2284.79Z"/><path class="cls-35" d="M800.39,2349l-3.26-10.24,56.81-18.07,3.26,10.24Zm7.25,22.79-3.26-10.24,56.81-18.07,3.26,10.24Z"/><polygon class="cls-9" points="2290 2505.29 1859.82 2427.31 2206.54 2553.41 2290 2505.29"/><polyline class="cls-37" points="2206.54 2553.41 2152.97 2682.51 1859.82 2427.31"/><polygon class="cls-38" points="2152.97 2682.51 2161.7 2576.08 1859.82 2427.31 2152.97 2682.51"/><polygon class="cls-9" points="1859.82 2427.31 2025.52 2658.67 2161.7 2576.08 1859.82 2427.31"/><polygon class="cls-39" points="1840.98 2525.74 1355.21 2345.95 1733.68 2564.65 1840.98 2525.74"/><polyline class="cls-40" points="1733.68 2564.65 1644.53 2704.2 1355.21 2345.95"/><polygon class="cls-41" points="1644.53 2704.2 1676.69 2581.85 1355.21 2345.95 1644.53 2704.2"/><polygon class="cls-39" points="1355.21 2345.95 1500.77 2650.08 1676.69 2581.85 1355.21 2345.95"/><polygon class="cls-9" points="1314.12 2477.89 993.95 2419.86 1252 2513.7 1314.12 2477.89"/><polyline class="cls-37" points="1252 2513.7 1212.14 2609.78 993.95 2419.86"/><polygon class="cls-38" points="1212.14 2609.78 1218.63 2530.58 993.95 2419.86 1212.14 2609.78"/><polygon class="cls-9" points="993.95 2419.86 1117.28 2592.05 1218.63 2530.58 993.95 2419.86"/><polygon class="cls-42" points="709.63 1184.38 699.06 1133.74 679.42 1165.97 709.63 1184.38"/><rect class="cls-32" x="2200.17" y="1841.26" width="387.56" height="527.74"/><rect class="cls-43" x="2232.07" y="1891.37" width="323.77" height="446.43"/><rect class="cls-26" x="2250.61" y="2202.62" width="139.14" height="9.69"/><rect class="cls-26" x="2250.61" y="2217.65" width="139.14" height="9.7"/><rect class="cls-26" x="2250.61" y="2232.68" width="139.14" height="9.7"/><rect class="cls-26" x="2250.61" y="2247.72" width="139.14" height="9.68"/><rect class="cls-26" x="2250.61" y="2262.74" width="139.14" height="9.69"/><rect class="cls-26" x="2250.61" y="2277.77" width="139.14" height="9.69"/><rect class="cls-26" x="2250.61" y="2292.8" width="139.14" height="9.7"/><rect class="cls-26" x="2250.61" y="2307.83" width="139.14" height="9.7"/><rect class="cls-26" x="2404.87" y="2202.62" width="139.13" height="9.69"/><rect class="cls-26" x="2404.87" y="2217.65" width="139.13" height="9.7"/><rect class="cls-26" x="2404.87" y="2232.68" width="139.13" height="9.7"/><rect class="cls-26" x="2404.87" y="2247.72" width="139.13" height="9.68"/><rect class="cls-26" x="2404.87" y="2262.74" width="139.13" height="9.69"/><rect class="cls-26" x="2404.87" y="2277.77" width="139.13" height="9.69"/><rect class="cls-26" x="2404.87" y="2292.8" width="139.13" height="9.7"/><rect class="cls-30" x="2250.61" y="2139.64" width="25.62" height="22.14"/><rect class="cls-31" x="2250.61" y="2171.85" width="25.62" height="22.16"/><rect class="cls-27" x="2400.46" y="2139.64" width="25.62" height="22.14"/><rect class="cls-28" x="2400.46" y="2171.85" width="25.62" height="22.16"/><rect class="cls-29" x="2290.07" y="2146.55" width="30.1" height="9"/><rect class="cls-29" x="2290.07" y="2179.78" width="30.1" height="8.3"/><rect class="cls-29" x="2436.85" y="2146.55" width="30.11" height="9"/><rect class="cls-29" x="2436.85" y="2179.78" width="30.11" height="8.31"/><rect class="cls-26" x="2250.61" y="2025.21" width="291.1" height="9.69"/><rect class="cls-26" x="2250.61" y="2040.24" width="291.1" height="9.7"/><rect class="cls-26" x="2250.61" y="2055.27" width="291.1" height="9.7"/><rect class="cls-26" x="2250.61" y="2070.31" width="291.1" height="9.68"/><rect class="cls-26" x="2250.61" y="2085.33" width="291.1" height="9.69"/><rect class="cls-26" x="2250.61" y="2100.37" width="291.1" height="9.69"/><rect class="cls-26" x="2250.61" y="2115.39" width="291.1" height="9.69"/><rect class="cls-26" x="2375.33" y="1912.83" width="139.86" height="45.77"/><rect class="cls-29" x="2376.73" y="1969.28" width="137.05" height="11.54"/><rect class="cls-29" x="2376.73" y="2004.31" width="137.05" height="11.54"/><rect class="cls-29" x="2376.73" y="1986.79" width="137.05" height="11.54"/><rect class="cls-29" x="2250.61" y="1917.05" width="115.88" height="11.54"/><rect class="cls-29" x="2250.61" y="1952.08" width="115.88" height="11.54"/><rect class="cls-29" x="2250.61" y="1934.57" width="115.88" height="11.54"/><rect class="cls-29" x="2250.61" y="1969.96" width="115.88" height="11.54"/><rect class="cls-29" x="2250.61" y="2005" width="115.88" height="11.54"/><rect class="cls-29" x="2250.61" y="1987.48" width="115.88" height="11.54"/><path class="cls-9" d="M2480.54,1882.93H2307.37a6.36,6.36,0,0,1-6.36-6.36v-29.1a6.36,6.36,0,0,1,6.36-6.36h173.16a6.36,6.36,0,0,1,6.36,6.36v29.1A6.36,6.36,0,0,1,2480.54,1882.93Zm-173.16-37.34a1.89,1.89,0,0,0-1.89,1.89v29.1a1.89,1.89,0,0,0,1.89,1.89h173.16a1.89,1.89,0,0,0,1.89-1.89v-29.1a1.89,1.89,0,0,0-1.89-1.89Z"/><path class="cls-5" d="M2324.68,1863.79a69.08,69.08,0,0,1,14,13.59h110.64a69.09,69.09,0,0,1,14-13.59,12.55,12.55,0,0,0,12.29-12.54v-12.55a12.55,12.55,0,0,0-12.55-12.55h-138a12.55,12.55,0,0,0-12.55,12.55v12.55A12.55,12.55,0,0,0,2324.68,1863.79Z"/><rect class="cls-9" x="2092.3" y="550.64" width="321.42" height="234.71" transform="translate(1112.65 2722.7) rotate(-77.48)"/><rect class="cls-26" x="2182.83" y="671.26" width="6.98" height="100.86" transform="translate(1007.99 2699.66) rotate(-77.48)"/><rect class="cls-26" x="2180.48" y="681.82" width="6.98" height="100.86" transform="translate(995.85 2705.64) rotate(-77.48)"/><rect class="cls-26" x="2178.13" y="692.39" width="6.98" height="100.86" transform="translate(983.7 2711.63) rotate(-77.48)"/><rect class="cls-26" x="2175.79" y="702.95" width="6.98" height="100.86" transform="translate(971.57 2717.63) rotate(-77.49)"/><rect class="cls-26" x="2173.44" y="713.51" width="6.98" height="100.86" transform="translate(959.39 2723.6) rotate(-77.48)"/><rect class="cls-26" x="2171.1" y="724.08" width="6.98" height="100.86" transform="translate(947.25 2729.58) rotate(-77.48)"/><rect class="cls-26" x="2168.75" y="734.64" width="6.98" height="100.86" transform="translate(935.13 2735.6) rotate(-77.49)"/><rect class="cls-26" x="2166.41" y="745.21" width="6.97" height="100.86" transform="translate(922.97 2741.57) rotate(-77.49)"/><rect class="cls-26" x="2292" y="695.49" width="6.98" height="100.86" transform="translate(1069.86 2825.22) rotate(-77.48)"/><rect class="cls-26" x="2289.65" y="706.05" width="6.97" height="100.86" transform="translate(1057.71 2831.21) rotate(-77.48)"/><rect class="cls-26" x="2287.31" y="716.62" width="6.98" height="100.86" transform="translate(1045.58 2837.2) rotate(-77.49)"/><rect class="cls-26" x="2284.96" y="727.18" width="6.98" height="100.86" transform="translate(1033.43 2843.19) rotate(-77.49)"/><rect class="cls-26" x="2282.62" y="737.74" width="6.98" height="100.86" transform="translate(1021.28 2849.17) rotate(-77.49)"/><rect class="cls-26" x="2280.27" y="748.31" width="6.97" height="100.86" transform="translate(1009.09 2855.13) rotate(-77.48)"/><rect class="cls-26" x="2277.93" y="758.88" width="6.98" height="100.86" transform="translate(997 2861.16) rotate(-77.49)"/><rect class="cls-26" x="2275.58" y="769.44" width="6.97" height="100.86" transform="translate(984.83 2867.13) rotate(-77.49)"/><rect class="cls-30" x="2147.03" y="663.59" width="15.95" height="18.57" transform="translate(1031.15 2630.87) rotate(-77.49)"/><rect class="cls-31" x="2142" y="686.24" width="15.95" height="18.57" transform="translate(1005.05 2643.67) rotate(-77.48)"/><rect class="cls-27" x="2253.08" y="687.13" width="15.95" height="18.56" transform="translate(1091.11 2752.77) rotate(-77.48)"/><rect class="cls-28" x="2248.05" y="709.78" width="15.95" height="18.57" transform="translate(1065.13 2765.64) rotate(-77.48)"/><rect class="cls-29" x="2181.22" y="668.76" width="6.48" height="21.83" transform="translate(1047.63 2664.97) rotate(-77.49)"/><rect class="cls-29" x="2176.34" y="691.86" width="5.98" height="21.83" transform="translate(1020.92 2677.99) rotate(-77.48)"/><rect class="cls-29" x="2285.1" y="691.81" width="6.48" height="21.83" transform="translate(1106.36 2784.37) rotate(-77.48)"/><rect class="cls-29" x="2280.21" y="714.92" width="5.98" height="21.83" transform="translate(1079.8 2797.47) rotate(-77.48)"/><path class="cls-26" d="M2256.13,527.21a35.06,35.06,0,0,1,5.21.79c3.19.71,5.13,1.74,6.48,3.31a7.53,7.53,0,0,1,1.44,6.91,8.64,8.64,0,0,1-4.29,6.13c-2.09,1.07-4.93,1.17-8.22.44a33.81,33.81,0,0,1-4.25-1.21Zm.79,14.45a7.42,7.42,0,0,0,1.3.37c3.43.79,6.09-.59,7-4.58.79-3.45-.84-5.74-4.11-6.46a8.07,8.07,0,0,0-1.75-.23Z"/><path class="cls-26" d="M2274.28,544l-2.14,4-3.94-.87,8.83-15.53,5,1.11,1.5,17.82-4.08-.91-.35-4.57Zm4.88-1.88-.26-3.77c-.08-1.05-.1-2.36-.13-3.4h-.05c-.47.94-1,2.14-1.49,3l-1.78,3.32Z"/><path class="cls-26" d="M2289.92,537.79l-4.51-1,.7-3.16,12.9,2.86-.7,3.16-4.58-1-3,13.5-3.81-.85Z"/><path class="cls-26" d="M2300.4,549.8l-2.15,4-3.94-.87,8.83-15.53,5,1.1,1.51,17.82-4.08-.91-.34-4.56Zm4.88-1.88-.26-3.77c-.08-1.05-.1-2.36-.13-3.4h0c-.47.94-1,2.14-1.49,3l-1.78,3.31Z"/><path class="cls-26" d="M2172.26,540.41l-25.05,112.87,26,5.77,176.62,39.2,7.53,1.67,25.05-112.87Zm128.51,34,32.73,7.26-4.71,21.23-32.73-7.27Zm-80.45-17.86,32.71,7.26L2248.31,585l-32.71-7.26ZM2190,657.24H2190l-9.23-2-8.78-1.95-13.76-3.05-2.71-.6,1-4.63,1.72-7.76,1-4.57.63-2.86,0-.09,23.4,5.2-.16.06,11,2.45.16-.06.1,0Zm6-27.24-.95.37-.34,1.53-2.31-.51-30.4-6.75-1-.22,5-22.74,1,.22v-.06l32.71,7.26v.06l.83.18Zm5.78-25.91-34.56-7.67,5.05-22.76,34.56,7.67Zm6.21-28-34.56-7.67,4.71-21.23,34.56,7.67Zm22.24,90.08-32.71-7.26L2202,639l32.71,7.26Zm5.66-25.13-.09,0-32.41-7.19-.21,0,1.58-7.14-.09,0,3.47-15.65.08,0V611l32.71,7.26Zm6.22-28-1.32-.29-.06,0-31.42-7,5-22.74,32.7,7.26-.33,1.47.09,0Zm28.36,62.1-32.72-7.26,4.42-19.91,32.73,7.26Zm5.58-25.15-32.72-7.26,5-22.39h0l.09-.41,32.71,7.26-2.08,9.39h0Zm6.22-28-32.54-7.22-.18-.07,5-22.73,32.73,7.26Zm6.21-28-32.73-7.26,4.71-21.23,32.73,7.26ZM2310.77,684,2278,676.78l4.42-19.91,32.73,7.27Zm6.1-26.62-.18,0-.34,1.52-32.73-7.26,2.52-11.35.19.1,1.25-5.63-.19-.1,1.28-5.75.2,0h0l32.71,7.26Zm5.7-26.53-5.72-1.27-27-6,5.05-22.76,32.73,7.27-.26,1.2ZM2351,693l-32.7-7.26,4.42-19.91,32.7,7.26Zm5.58-25.15-32.7-7.26,5-22.74,32.7,7.26Zm7.06-29.33-.32,1.47-.53-.14-32.7-7.26,5.05-22.76,6.34,1.41-.09.07,8.82,2,.09-.07,17.55,3.89,0,.09.53.12Zm5.89-26.55-.53-.12v0L2356,609h0l-8.86-2-10.34-2.3-.51-.11,4.71-21.23.51.11,28.66,6.36,4.05.9Z"/><polygon class="cls-30" points="2155.51 648.2 2153.57 644.07 2201.03 622.06 2221.28 638.08 2266.75 618.86 2282.52 640.23 2321.6 601.06 2362.94 659.92 2359.18 662.52 2321 608.14 2282.01 647.23 2265.21 624.47 2220.58 643.33 2200.41 627.38 2155.51 648.2"/><polygon class="cls-31" points="2302.72 643.42 2265.62 604.26 2234.47 610.1 2218.11 604.36 2185.25 611.41 2161.31 611.59 2161.26 607.04 2184.73 606.86 2218.4 599.63 2234.82 605.4 2267.23 599.33 2304.16 638.31 2370.61 620.44 2371.82 624.84 2302.72 643.42"/><polygon class="cls-27" points="2215.51 652.43 2181.54 621.6 2156.53 627.88 2155.4 623.47 2182.8 616.58 2216.78 647.42 2262.04 636.32 2291.08 660.57 2339.7 644.91 2365.92 643.72 2366.15 648.26 2340.54 649.43 2290.09 665.68 2260.88 641.3 2215.51 652.43"/><polygon class="cls-28" points="2155.93 635.64 2154.88 631.2 2220.81 616.06 2232.56 623.69 2302.67 588.8 2319.02 616.47 2376.26 594 2377.95 598.23 2317.06 622.14 2300.89 594.79 2232.27 628.93 2219.95 620.93 2155.93 635.64"/><rect class="cls-26" x="2111.31" y="596.36" width="102.92" height="7.29" transform="translate(1108.32 2581.34) rotate(-77.48)"/><rect class="cls-26" x="2308.24" y="638.71" width="115.62" height="7.85" transform="translate(1225.91 2813.18) rotate(-77.48)"/></svg>